<svg
   width="210mm"
   height="297mm"
   xmlns="http://www.w3.org/2000/svg"
   xmlns:svg="http://www.w3.org/2000/svg">
   <path
       style="fill:none;fill-rule:evenodd;stroke:#000000;stroke-width:0.9;stroke-dasharray:none;stroke-opacity:1;paint-order:stroke fill markers"
       id="szinpad"
       d="M 150.31741,81.870819 A 44.534111,43.690128 0 0 1 127.9402,119.76977 44.534111,43.690128 0 0 1 83.296468,119.58227 44.534111,43.690128 0 0 1 61.250824,81.496751 l 44.532476,0.374068 z"/>
    <path
       id="bal_szarny"
       style="fill:none;fill-rule:evenodd;stroke:#000000;stroke-width:0.9;stroke-dasharray:none;stroke-opacity:1;paint-order:stroke fill markers"
       d="M 58.708665,96.390967 H 13.816598 v 53.333623 h 27.284798 l 29.695386,-32.78207 c -0.09525,-0.0942 -0.188144,-0.18294 -0.284325,-0.27944 -0.277639,-0.27852 -0.559051,-0.56633 -0.842993,-0.86391 -0.283942,-0.29756 -0.570585,-0.60483 -0.858682,-0.9211 -0.288098,-0.31626 -0.577614,-0.64181 -0.867717,-0.97642 -0.290102,-0.33463 -0.580612,-0.6782 -0.870569,-1.03083 -0.289957,-0.35264 -0.579104,-0.714 -0.866763,-1.08431 -0.287663,-0.37031 -0.573566,-0.74967 -0.856782,-1.13732 -0.283216,-0.38764 -0.563995,-0.78382 -0.840615,-1.18846 -0.276619,-0.40463 -0.549444,-0.81784 -0.817317,-1.23913 -0.267873,-0.42128 -0.530861,-0.85083 -0.787838,-1.28842 -0.256978,-0.43761 -0.507773,-0.88322 -0.751705,-1.33678 -0.24393,-0.45357 -0.480653,-0.91502 -0.709387,-1.38421 -0.228735,-0.4692 -0.449504,-0.94576 -0.660891,-1.43024 -0.211388,-0.48449 -0.41337,-0.97685 -0.605261,-1.47628 -0.09595,-0.24971 -0.189379,-0.50124 -0.280047,-0.75464 -0.09066,-0.25338 -0.17876,-0.50831 -0.263881,-0.765333 -0.08513,-0.25701 -0.167458,-0.51589 -0.246764,-0.77649 -0.07931,-0.26062 -0.155475,-0.52305 -0.228697,-0.7872 -0.07322,-0.26415 -0.143283,-0.53022 -0.210153,-0.79788 -0.06687,-0.26766 -0.130886,-0.53701 -0.191135,-0.80811 -0.01657,-0.0746 -0.03055,-0.15025 -0.04659,-0.22505 z"/>
    <path
       id="jobb_szarny"
       d="M 152.99754,96.384057 H 196.9102 V 149.7315 h -26.68952 l -29.04754,-32.79056 c 0.0932,-0.0942 0.18404,-0.183 0.27813,-0.27951 0.27157,-0.27861 0.54685,-0.56649 0.8246,-0.86414 0.27774,-0.29764 0.55813,-0.60499 0.83995,-0.92134 0.28181,-0.31634 0.56501,-0.64198 0.84878,-0.97668 0.28378,-0.33471 0.56794,-0.67837 0.85158,-1.0311 0.28362,-0.35273 0.56647,-0.71418 0.84785,-1.08459 0.28139,-0.3704 0.56105,-0.74985 0.83809,-1.1376 0.27704,-0.38775 0.55169,-0.78403 0.82228,-1.18876 0.27058,-0.40474 0.53745,-0.81807 0.79949,-1.23947 0.26202,-0.42139 0.51927,-0.85105 0.77064,-1.28875 0.25138,-0.43772 0.4967,-0.88344 0.73531,-1.33713 0.23861,-0.45368 0.47017,-0.91525 0.69391,-1.38457 0.22375,-0.46931 0.43969,-0.946 0.64647,-1.4306 0.20678,-0.48462 0.40435,-0.9771 0.59206,-1.47666 0.0939,-0.24978 0.18525,-0.50138 0.27393,-0.75484 0.0887,-0.25345 0.17487,-0.50845 0.25812,-0.765533 0.0833,-0.25709 0.16381,-0.51603 0.24138,-0.7767 0.0776,-0.26068 0.15209,-0.52318 0.22372,-0.78739 0.0716,-0.26423 0.14015,-0.53037 0.20557,-0.7981 0.0654,-0.26772 0.12802,-0.53713 0.18696,-0.80831 0.0162,-0.0746 0.0299,-0.15029 0.0455,-0.22511 z"/>
    <path
       id = "szinpad_elott_1"
       d="m 45.593794,150.62742 a 69.501904,62.856326 0 0 0 4.873656,6.65913 69.501904,62.856326 0 0 0 5.937777,6.18427 69.501904,62.856326 0 0 0 6.776795,5.43316 69.501904,62.856326 0 0 0 7.500473,4.59041 69.501904,62.856326 0 0 0 8.153456,3.68722 69.501904,62.856326 0 0 0 8.616683,2.69053 69.501904,62.856326 0 0 0 8.932481,1.64735 69.501904,62.856326 0 0 0 9.093385,0.57577 69.501904,62.856326 0 0 0 9.09898,-0.50555 69.501904,62.856326 0 0 0 8.94736,-1.57804 69.501904,62.856326 0 0 0 8.64227,-2.62356 69.501904,62.856326 0 0 0 8.18787,-3.62396 69.501904,62.856326 0 0 0 7.63302,-4.59135 69.501904,62.856326 0 0 0 6.89866,-5.45967 69.501904,62.856326 0 0 0 6.04428,-6.2331 69.501904,62.856326 0 0 0 4.82528,-6.54751 v 0 a 69.501904,62.856326 0 0 0 0.25905,-0.35115 l -27.56854,-31.3418 h -1.20877 a 49.011503,43.645104 0 0 1 -0.97203,0.79949 49.011503,43.645104 0 0 1 -6.07963,3.67047 49.011503,43.645104 0 0 1 -6.6275,2.81982 49.011503,43.645104 0 0 1 -7.02655,1.9064 49.011503,43.645104 0 0 1 -7.267,0.94971 49.011503,43.645104 0 0 1 -7.34513,-0.0279 49.011503,43.645104 0 0 1 -7.258159,-1.00506 49.011503,43.645104 0 0 1 -7.007479,-1.95988 49.011503,43.645104 0 0 1 -6.600527,-2.87052 49.011503,43.645104 0 0 1 -6.044282,-3.71652 49.011503,43.645104 0 0 1 -0.970639,-0.81205 l -1.19109,-0.009 c -0.779029,0.8858 -1.241463,1.3979 -2.096151,2.37334 -3.213174,3.66722 -6.927122,7.92806 -10.885382,12.48296 -3.958258,4.55491 -8.161172,9.40355 -12.352269,14.24657 -0.746836,0.86302 -1.300811,1.50869 -2.045457,2.36963 a 69.501904,62.856326 0 0 0 0.125109,0.17069 z"/>
    <path
id = "szinpad_elotti_2"
       d="m 194.97423,183.89532 -26.47854,-28.91088 a 72.984092,62.829224 0 0 1 -5.06703,6.54469 72.984092,62.829224 0 0 1 -6.34712,6.23043 72.984092,62.829224 0 0 1 -7.24429,5.4573 72.984092,62.829224 0 0 1 -8.01545,4.58937 72.984092,62.829224 0 0 1 -8.5981,3.6224 72.984092,62.829224 0 0 1 -9.07527,2.62243 72.984092,62.829224 0 0 1 -9.39563,1.57736 72.984092,62.829224 0 0 1 -9.55486,0.50532 72.984092,62.829224 0 0 1 -9.548983,-0.57552 72.984092,62.829224 0 0 1 -9.380015,-1.64662 72.984092,62.829224 0 0 1 -9.048396,-2.68938 72.984092,62.829224 0 0 1 -8.561962,-3.68562 72.984092,62.829224 0 0 1 -7.87626,-4.58844 72.984092,62.829224 0 0 1 -7.116327,-5.43082 72.984092,62.829224 0 0 1 -6.235272,-6.18161 72.984092,62.829224 0 0 1 -5.117835,-6.65625 l -28.654316,26.65291 a 94.816854,66.359503 0 0 0 0.921104,2.68567 94.816854,66.359503 0 0 0 5.693646,9.62038 94.816854,66.359503 0 0 0 7.774189,8.87887 94.816854,66.359503 0 0 0 9.662791,7.91797 94.816854,66.359503 0 0 0 11.313548,6.76272 94.816854,66.359503 0 0 0 12.685924,5.44057 94.816854,66.359503 0 0 0 13.746218,3.98502 94.816854,66.359503 0 0 0 14.467081,2.43089 94.816854,66.359503 0 0 0 14.832875,0.81681 94.816854,66.359503 0 0 0 14.8324,-0.81681 94.816854,66.359503 0 0 0 14.46757,-2.43089 94.816854,66.359503 0 0 0 13.74573,-3.98502 94.816854,66.359503 0 0 0 12.68641,-5.44057 94.816854,66.359503 0 0 0 11.31354,-6.76272 94.816854,66.359503 0 0 0 9.66279,-7.91797 94.816854,66.359503 0 0 0 7.7737,-8.87887 94.816854,66.359503 0 0 0 5.69415,-9.62038 94.816854,66.359503 0 0 0 0.0419,-0.12274 z"
/>
</svg>
