<?xml version="1.0" encoding="UTF-8" standalone="no"?>
<!-- Created with Inkscape (http://www.inkscape.org/) -->

<svg
   width="210mm"
   height="297mm"
   viewBox="0 0 210 297"
   version="1.1"
   id="svg1"
   inkscape:version="1.3 (0e150ed6c4, 2023-07-21)"
   sodipodi:docname="location09.svg"
   inkscape:export-filename="location02mod.svg"
   inkscape:export-xdpi="96"
   inkscape:export-ydpi="96"
   xmlns:inkscape="http://www.inkscape.org/namespaces/inkscape"
   xmlns:sodipodi="http://sodipodi.sourceforge.net/DTD/sodipodi-0.dtd"
   xmlns="http://www.w3.org/2000/svg"
   xmlns:svg="http://www.w3.org/2000/svg">
  <sodipodi:namedview
     id="namedview1"
     pagecolor="#505050"
     bordercolor="#eeeeee"
     borderopacity="1"
     inkscape:showpageshadow="0"
     inkscape:pageopacity="0"
     inkscape:pagecheckerboard="0"
     inkscape:deskcolor="#505050"
     inkscape:document-units="mm"
     inkscape:zoom="2"
     inkscape:cx="365.5"
     inkscape:cy="579.75"
     inkscape:window-width="1920"
     inkscape:window-height="1017"
     inkscape:window-x="1912"
     inkscape:window-y="-8"
     inkscape:window-maximized="1"
     inkscape:current-layer="layer1"
     showgrid="true">
    <inkscape:grid
       id="grid1"
       units="mm"
       originx="0"
       originy="0"
       spacingx="0.5"
       spacingy="0.5"
       empcolor="#0099e5"
       empopacity="0.30196078"
       color="#0099e5"
       opacity="0.14901961"
       empspacing="5"
       dotted="false"
       gridanglex="30"
       gridanglez="30"
       visible="true" />
  </sodipodi:namedview>
  <defs
     id="defs1">
    <inkscape:path-effect
       effect="mirror_symmetry"
       start_point="109.9998,119.49999"
       end_point="109.9998,147.49995"
       center_point="109.9998,133.49997"
       id="path-effect1"
       is_visible="true"
       lpeversion="1.2"
       lpesatellites=""
       mode="free"
       discard_orig_path="false"
       fuse_paths="false"
       oposite_fuse="false"
       split_items="false"
       split_open="false"
       link_styles="false" />
    <rect
       x="198.4252"
       y="113.38582"
       width="60.074799"
       height="15.114176"
       id="rect12" />
    <rect
       x="198.4252"
       y="113.38582"
       width="60.074799"
       height="15.114176"
       id="rect12-6" />
    <rect
       x="198.4252"
       y="113.38582"
       width="60.074799"
       height="15.114176"
       id="rect12-6-3" />
    <rect
       x="198.4252"
       y="113.38582"
       width="60.074799"
       height="15.114176"
       id="rect12-6-3-6" />
    <rect
       x="198.4252"
       y="113.38582"
       width="76.709038"
       height="13.718754"
       id="rect12-6-3-6-5" />
    <rect
       x="198.4252"
       y="113.38582"
       width="60.074799"
       height="15.114176"
       id="rect12-6-3-6-7" />
    <rect
       x="198.4252"
       y="113.38582"
       width="76.709038"
       height="13.718754"
       id="rect12-6-3-6-5-5" />
    <rect
       x="198.4252"
       y="113.38582"
       width="60.074799"
       height="15.114176"
       id="rect12-6-3-8" />
    <rect
       x="198.4252"
       y="113.38582"
       width="60.074799"
       height="15.114176"
       id="rect12-6-6" />
    <rect
       x="198.4252"
       y="113.38582"
       width="60.074799"
       height="15.114176"
       id="rect12-6-6-5" />
    <rect
       x="198.4252"
       y="113.38582"
       width="60.074799"
       height="15.114176"
       id="rect12-6-6-9" />
    <rect
       x="198.4252"
       y="113.38582"
       width="60.074799"
       height="15.114176"
       id="rect12-6-3-6-6" />
    <rect
       x="198.4252"
       y="113.38582"
       width="60.074799"
       height="15.114176"
       id="rect12-6-3-6-6-1" />
    <rect
       x="198.4252"
       y="113.38582"
       width="60.074799"
       height="15.114176"
       id="rect12-6-6-4" />
    <rect
       x="198.4252"
       y="113.38582"
       width="60.074799"
       height="15.114176"
       id="rect12-6-6-4-9" />
    <rect
       x="198.4252"
       y="113.38582"
       width="60.074799"
       height="15.114176"
       id="rect12-6-3-6-6-9" />
    <rect
       x="198.4252"
       y="113.38582"
       width="60.074799"
       height="15.114176"
       id="rect12-6-3-7" />
    <rect
       x="198.4252"
       y="113.38582"
       width="60.074799"
       height="15.114176"
       id="rect12-6-3-6-6-1-2" />
    <rect
       x="198.4252"
       y="113.38582"
       width="60.074799"
       height="15.114176"
       id="rect12-6-3-6-6-1-2-9" />
    <rect
       x="198.4252"
       y="113.38582"
       width="60.074799"
       height="15.114176"
       id="rect12-6-3-6-6-1-2-2" />
    <rect
       x="198.4252"
       y="113.38582"
       width="60.074799"
       height="15.114176"
       id="rect12-6-3-6-6-1-2-4" />
    <rect
       x="198.4252"
       y="113.38582"
       width="60.074799"
       height="15.114176"
       id="rect12-6-3-6-6-1-2-5" />
    <rect
       x="198.4252"
       y="113.38582"
       width="60.074799"
       height="15.114176"
       id="rect12-6-3-6-6-1-2-3" />
    <rect
       x="198.4252"
       y="113.38582"
       width="60.074799"
       height="15.114176"
       id="rect12-6-3-6-6-1-2-93" />
    <rect
       x="198.4252"
       y="113.38582"
       width="60.074799"
       height="15.114176"
       id="rect12-6-3-6-6-1-2-0" />
    <rect
       x="198.4252"
       y="113.38582"
       width="60.074799"
       height="15.114176"
       id="rect12-6-3-6-6-1-2-47" />
    <rect
       x="198.4252"
       y="113.38582"
       width="60.074799"
       height="15.114176"
       id="rect12-6-3-6-6-1-2-8" />
    <rect
       x="198.4252"
       y="113.38582"
       width="60.074799"
       height="15.114176"
       id="rect12-6-3-6-6-1-2-51" />
    <rect
       x="198.4252"
       y="113.38582"
       width="60.074799"
       height="15.114176"
       id="rect12-6-3-6-6-1-2-35" />
    <rect
       x="198.4252"
       y="113.38582"
       width="60.074799"
       height="15.114176"
       id="rect12-6-3-6-6-1-4" />
    <rect
       x="198.4252"
       y="113.38582"
       width="60.074799"
       height="15.114176"
       id="rect12-6-3-6-6-1-4-2" />
    <rect
       x="198.4252"
       y="113.38582"
       width="60.074799"
       height="15.114176"
       id="rect12-6-3-6-6-1-4-2-7" />
    <rect
       x="198.4252"
       y="113.38582"
       width="60.074799"
       height="15.114176"
       id="rect12-6-3-6-6-1-4-2-6" />
    <rect
       x="198.4252"
       y="113.38582"
       width="60.074799"
       height="15.114176"
       id="rect12-6-3-6-6-1-4-2-2" />
    <rect
       x="198.4252"
       y="113.38582"
       width="60.074799"
       height="15.114176"
       id="rect12-6-3-6-6-1-4-2-4" />
    <rect
       x="198.4252"
       y="113.38582"
       width="60.074799"
       height="15.114176"
       id="rect12-6-3-6-6-1-4-2-7-2" />
    <rect
       x="198.4252"
       y="113.38582"
       width="60.074799"
       height="15.114176"
       id="rect12-6-3-6-6-1-4-2-7-2-6" />
    <rect
       x="198.4252"
       y="113.38582"
       width="60.074799"
       height="15.114176"
       id="rect12-6-3-6-6-1-2-2-7" />
    <rect
       x="198.4252"
       y="113.38582"
       width="60.074799"
       height="15.114176"
       id="rect12-6-3-6-6-1-2-2-7-1" />
    <rect
       x="198.4252"
       y="113.38582"
       width="60.074799"
       height="15.114176"
       id="rect12-6-3-6-6-1-2-2-7-9" />
    <rect
       x="198.4252"
       y="113.38582"
       width="60.074799"
       height="15.114176"
       id="rect12-6-3-6-6-1-2-4-8" />
    <rect
       x="198.4252"
       y="113.38582"
       width="60.074799"
       height="15.114176"
       id="rect12-6-3-6-6-1-2-4-8-1" />
    <rect
       x="198.4252"
       y="113.38582"
       width="60.074799"
       height="15.114176"
       id="rect12-6-3-6-6-1-2-2-7-9-3" />
    <rect
       x="198.4252"
       y="113.38582"
       width="60.074799"
       height="15.114176"
       id="rect12-6-3-6-6-1-2-2-7-13" />
    <rect
       x="198.4252"
       y="113.38582"
       width="60.074799"
       height="15.114176"
       id="rect12-6-3-6-6-1-2-4-8-9" />
    <rect
       x="198.4252"
       y="113.38582"
       width="60.074799"
       height="15.114176"
       id="rect12-6-3-6-6-1-2-4-8-18" />
    <rect
       x="198.4252"
       y="113.38582"
       width="60.074799"
       height="15.114176"
       id="rect12-6-3-6-6-1-2-4-8-0" />
    <rect
       x="198.4252"
       y="113.38582"
       width="60.074799"
       height="15.114176"
       id="rect12-6-3-6-6-1-2-0-1" />
    <rect
       x="198.4252"
       y="113.38582"
       width="60.074799"
       height="15.114176"
       id="rect12-6-3-6-6-1-2-0-4" />
    <rect
       x="198.4252"
       y="113.38582"
       width="60.074799"
       height="15.114176"
       id="rect12-6-3-6-6-1-2-0-5" />
    <rect
       x="198.4252"
       y="113.38582"
       width="60.074799"
       height="15.114176"
       id="rect12-6-3-6-6-1-2-0-3" />
    <rect
       x="198.4252"
       y="113.38582"
       width="60.074799"
       height="15.114176"
       id="rect12-6-3-6-6-1-2-0-5-4" />
    <rect
       x="198.4252"
       y="113.38582"
       width="60.074799"
       height="15.114176"
       id="rect12-6-3-6-6-1-2-0-3-4" />
    <rect
       x="198.4252"
       y="113.38582"
       width="60.074799"
       height="15.114176"
       id="rect12-6-3-6-6-1-2-5-5" />
    <rect
       x="198.4252"
       y="113.38582"
       width="60.074799"
       height="15.114176"
       id="rect12-6-3-6-6-1-2-0-5-0" />
    <rect
       x="198.4252"
       y="113.38582"
       width="60.074799"
       height="15.114176"
       id="rect12-6-3-6-7-4" />
    <rect
       x="198.4252"
       y="113.38582"
       width="60.074799"
       height="15.114176"
       id="rect12-6-6-9-4" />
    <rect
       x="198.4252"
       y="113.38582"
       width="60.074799"
       height="15.114176"
       id="rect12-6-3-6-6-1-2-5-8" />
    <rect
       x="198.4252"
       y="113.38582"
       width="60.074799"
       height="15.114176"
       id="rect12-6-6-9-4-3" />
    <rect
       x="198.4252"
       y="113.38582"
       width="60.074799"
       height="15.114176"
       id="rect12-6-6-9-4-3-6" />
  </defs>
  <g
     inkscape:label="Layer 1"
     inkscape:groupmode="layer"
     id="layer1">
    <path
       style="opacity:0.6;fill:#b43f24;fill-opacity:0.254902;fill-rule:evenodd;stroke:#000000;stroke-width:0.0755146;paint-order:stroke markers fill"
       d="M 133.42365,143.5 V 130 H 146 v 13.5 z"
       id="path6-1"
       sodipodi:nodetypes="ccccc" />
    <text
       xml:space="preserve"
       transform="matrix(0.16933333,0,0,0.16933333,105.15017,115.93472)"
       id="text12-6-6-8-98-9-3-2"
       style="white-space:pre;shape-inside:url(#rect12-6-3-6-6-1-2-5);display:inline;fill:#000000;fill-opacity:1;fill-rule:evenodd;stroke:#000000;stroke-width:0.0755906;stroke-dasharray:none;stroke-opacity:1;paint-order:stroke markers fill"><tspan
         x="198.42578"
         y="124.33468"
         id="tspan4">A1</tspan></text>
    <path
       style="opacity:0.6;fill:#786a60;fill-opacity:0.25490198;fill-rule:evenodd;stroke:#000000;stroke-width:0.0479174;paint-order:stroke markers fill"
       d="m 137.52396,176.53187 v -8.05526 h 8.48658 v 8.05526 z"
       id="path6-1-0"
       sodipodi:nodetypes="ccccc" />
    <path
       d="m 124.06478,127.50385 -5.78931,5.10563 -8.56744,2.13165 -9.15603,-2.03605 -5.962422,-5.20072 -10.998295,2.06241 16.156276,18.93323 -5.747557,6 12.999998,0 v -3 h 5.5 v 3 l 6.6209,-0.002 c 0.2859,-0.25478 0.53301,-0.47881 0.8413,-0.75138 1.4886,-1.31612 3.22523,-2.82891 5.08599,-4.43642 1.86076,-1.60751 3.84533,-3.30975 5.83014,-5.00434 0.552,-0.47129 1.07227,-0.91132 1.6216,-1.37925 v -12.92582 z"
       style="opacity:0.6;fill:#ac9d93;fill-opacity:0.254902;fill-rule:evenodd;stroke:#000000;stroke-width:0.106936;paint-order:stroke markers fill"
       id="path10"
       sodipodi:nodetypes="cccccccccccccsssccc" />
    <path
       style="opacity:0.6;fill:#2724b4;fill-opacity:0.254902;fill-rule:evenodd;stroke:#000000;stroke-width:0.0689999;paint-order:stroke markers fill"
       d="m 120,155 12.5,-11 H 146 l -18.5,18.5 -7.5,0 z"
       id="path4"
       sodipodi:nodetypes="cccccc" />
    <text
       xml:space="preserve"
       transform="matrix(0.16933333,0,0,0.16933333,74.496065,123.51091)"
       id="text12-6-6-8-98-9-3-2-1"
       style="white-space:pre;shape-inside:url(#rect12-6-3-6-6-1-2-5-5);display:inline;fill:#000000;fill-opacity:1;fill-rule:evenodd;stroke:#000000;stroke-width:0.0755906;stroke-dasharray:none;stroke-opacity:1;paint-order:stroke markers fill"><tspan
         x="198.42578"
         y="124.33468"
         id="tspan8">D1</tspan></text>
    <text
       xml:space="preserve"
       transform="matrix(0.16933335,0,0,0.16933335,109.61018,160.26097)"
       id="text12-6-6-8-98-9-7-2-0"
       style="white-space:pre;shape-inside:url(#rect12-6-3-6-6-1-4-2-7);display:inline;fill:#000000;fill-opacity:1;fill-rule:evenodd;stroke:#000000;stroke-width:0.0755906;stroke-dasharray:none;stroke-opacity:1;paint-order:stroke markers fill"><tspan
         x="198.42578"
         y="124.33468"
         id="tspan10">Bejárat</tspan></text>
    <path
       style="fill:#000000;fill-opacity:1;fill-rule:evenodd;stroke:#000000;stroke-width:0.0689999;stroke-dasharray:none;stroke-opacity:1;paint-order:stroke markers fill"
       d="m 142.0334,180.86956 -0.004,-0.99998 -2.50001,-1e-5 -1e-5,-1.00001 -2,1.5 2.00001,1.5 -0.0102,-1.00002 z"
       id="path15-4-4-0" />
    <rect
       style="opacity:0.6;fill:#80e5ff;fill-opacity:0.254902;fill-rule:evenodd;stroke:#000000;stroke-width:0.12189;paint-order:stroke markers fill"
       id="rect13"
       width="4.3781061"
       height="4.3781118"
       x="107.56095"
       y="152.06094" />
    <path
       id="path2"
       style="opacity:0.6;fill:#24adb4;fill-opacity:0.254902;fill-rule:evenodd;stroke:#000000;stroke-width:0.0938702;paint-order:stroke markers fill"
       d="m 107,155 -13.499998,0 -6,7.5 32.000198,1.4e-4 v -7.49567 l -6.99541,-0.0274 L 112.5,157 H 107 Z"
       sodipodi:nodetypes="ccccccccc" />
    <path
       id="path11"
       style="fill:#99570c;fill-opacity:0.254902;fill-rule:evenodd;stroke:#000000;stroke-width:0.0718957;paint-order:stroke markers fill"
       d="m 123.70718,115 -28.428758,0 c 1.27e-4,0.72635 0.119732,9.46769 0.356567,10.17582 0.236763,0.70839 0.589339,1.39638 1.051099,2.05104 0.461803,0.65457 1.029842,1.27166 1.693437,1.83968 0.663502,0.56819 1.418403,1.08371 2.250505,1.53686 0.8324,0.45303 1.73673,0.8408 2.69596,1.156 0.95883,0.31509 1.96646,0.55569 3.00395,0.71727 1.0377,0.16172 2.09872,0.24336 3.16312,0.24339 1.06422,-6e-5 2.12507,-0.0817 3.1626,-0.24339 1.03784,-0.16153 2.04582,-0.40213 3.00498,-0.71727 0.95888,-0.31525 1.86285,-0.70301 2.69493,-1.156 0.8321,-0.45315 1.58701,-0.96867 2.25051,-1.53686 0.66359,-0.56802 1.23163,-1.18511 1.69343,-1.83968 0.46176,-0.65466 0.81434,-1.34265 1.0511,-2.05104 0.23684,-0.70813 0.35644,-9.44947 0.35657,-10.17582 z"
       sodipodi:nodetypes="ccccccsccccccccc" />
    <text
       xml:space="preserve"
       transform="matrix(0.16933333,0,0,0.16933333,72.324167,103.43309)"
       id="text12-6-6-7"
       style="white-space:pre;shape-inside:url(#rect12-6-3-8);display:inline;fill:#000000;fill-opacity:1;fill-rule:evenodd;stroke:#000000;stroke-width:0.0755906;stroke-dasharray:none;stroke-opacity:1;paint-order:stroke markers fill"><tspan
         x="198.42578"
         y="124.33468"
         id="tspan11">Színpad</tspan></text>
    <path
       style="opacity:0.6;fill:#3a961e;fill-opacity:0.254902;fill-rule:evenodd;stroke:#000000;stroke-width:0.0689999;paint-order:stroke markers fill"
       d="m 98.491366,148.5 -14.122916,-16.24148 -9.276281,5.93302 16.038016,18.17328 z"
       id="path6"
       sodipodi:nodetypes="ccccc" />
    <text
       xml:space="preserve"
       transform="matrix(0.16933333,0,0,0.16933333,97.673874,129.93472)"
       id="text12-6-6-8-98-9-3-1"
       style="white-space:pre;shape-inside:url(#rect12-6-3-6-6-1-2-3);display:inline;fill:#000000;fill-opacity:1;fill-rule:evenodd;stroke:#000000;stroke-width:0.0755906;stroke-dasharray:none;stroke-opacity:1;paint-order:stroke markers fill"><tspan
         x="198.42578"
         y="124.33468"
         id="tspan12">B1</tspan></text>
    <text
       xml:space="preserve"
       transform="matrix(0.16933333,0,0,0.16933333,72.899145,138.9128)"
       id="text12-6-6-8-98-9-3-9"
       style="white-space:pre;shape-inside:url(#rect12-6-3-6-6-1-2-0);display:inline;fill:#000000;fill-opacity:1;fill-rule:evenodd;stroke:#000000;stroke-width:0.0755906;stroke-dasharray:none;stroke-opacity:1;paint-order:stroke markers fill"><tspan
         x="198.42578"
         y="124.33468"
         id="tspan13">C1</tspan></text>
    <g
       id="g2"
       transform="translate(-52.652076,-12.938782)">
      <text
         xml:space="preserve"
         transform="matrix(0.16933333,0,0,0.16933333,105.34262,136.18726)"
         id="text12-6-6-8-98-9-3-9-49-6"
         style="white-space:pre;shape-inside:url(#rect12-6-3-6-6-1-2-0-5-0);display:inline;fill:#000000;fill-opacity:1;fill-rule:evenodd;stroke:#000000;stroke-width:0.0755906;stroke-dasharray:none;stroke-opacity:1;paint-order:stroke markers fill"><tspan
           x="198.42578"
           y="124.33468"
           id="tspan14">VIP</tspan></text>
    </g>
    <text
       xml:space="preserve"
       transform="matrix(0.16933333,0,0,0.16933333,74.344125,133.79936)"
       id="text12-6-6-8-9-6"
       style="white-space:pre;shape-inside:url(#rect12-6-3-6-7-4);display:inline;fill:#000000;fill-opacity:1;fill-rule:evenodd;stroke:#000000;stroke-width:0.0755906;stroke-dasharray:none;stroke-opacity:1;paint-order:stroke markers fill"><tspan
         x="198.42578"
         y="124.33468"
         id="tspan15">Mix</tspan></text>
    <path
       style="fill:#786a60;fill-opacity:0.253041;fill-rule:evenodd;stroke:#000000;stroke-width:0.0689999;stroke-dasharray:none;stroke-opacity:1;paint-order:stroke markers fill"
       d="m 128,167.5 0,-4.5 18,-18 v 22.5 z"
       id="path13"
       sodipodi:nodetypes="ccccc" />
    <text
       xml:space="preserve"
       transform="matrix(0.16933333,0,0,0.16933333,103.55382,139.76206)"
       id="text12-6-7-5"
       style="white-space:pre;shape-inside:url(#rect12-6-6-9-4);display:inline;fill:#000000;fill-opacity:1;fill-rule:evenodd;stroke:#000000;stroke-width:0.0755906;stroke-dasharray:none;stroke-opacity:1;paint-order:stroke markers fill"><tspan
         x="198.42578"
         y="124.33468"
         id="tspan16">Büfé</tspan></text>
    <text
       xml:space="preserve"
       transform="matrix(0.16933333,0,0,0.16933333,106.44719,152.18892)"
       id="text12-6-7-5-0"
       style="white-space:pre;shape-inside:url(#rect12-6-6-9-4-3);display:inline;fill:#000000;fill-opacity:1;fill-rule:evenodd;stroke:#000000;stroke-width:0.0755906;stroke-dasharray:none;stroke-opacity:1;paint-order:stroke markers fill"><tspan
         x="198.42578"
         y="124.33468"
         id="tspan17">WC</tspan></text>
    <path
       style="opacity:0.6;fill:#786a60;fill-opacity:0.254902;fill-rule:evenodd;stroke:#000000;stroke-width:0.169269;paint-order:stroke markers fill"
       d="M 87.583885,184.99999 V 163.58387 L 127.5,163.5 l 0,4.5 h 9.5 v 17.00026 z"
       id="path6-1-0-8"
       sodipodi:nodetypes="ccccccc" />
    <text
       xml:space="preserve"
       transform="matrix(0.16933333,0,0,0.16933333,75.544872,153.9128)"
       id="text12-6-7-5-0-8"
       style="white-space:pre;shape-inside:url(#rect12-6-6-9-4-3-6);display:inline;fill:#000000;fill-opacity:1;fill-rule:evenodd;stroke:#000000;stroke-width:0.0755906;stroke-dasharray:none;stroke-opacity:1;paint-order:stroke markers fill"><tspan
         x="198.42578"
         y="124.33468"
         id="tspan18">E1</tspan></text>
  </g>
</svg>
