<?xml version="1.0" encoding="UTF-8" standalone="no"?>
<!-- Created with Inkscape (http://www.inkscape.org/) -->

<svg
   width="210mm"
   height="297mm"
   viewBox="0 0 210 297"
   version="1.1"
   id="svg1"
   inkscape:version="1.3 (0e150ed6c4, 2023-07-21)"
   sodipodi:docname="location02.svg"
   inkscape:export-filename="location02mod.svg"
   inkscape:export-xdpi="96"
   inkscape:export-ydpi="96"
   xmlns:inkscape="http://www.inkscape.org/namespaces/inkscape"
   xmlns:sodipodi="http://sodipodi.sourceforge.net/DTD/sodipodi-0.dtd"
   xmlns="http://www.w3.org/2000/svg"
   xmlns:svg="http://www.w3.org/2000/svg">
  <sodipodi:namedview
     id="namedview1"
     pagecolor="#505050"
     bordercolor="#eeeeee"
     borderopacity="1"
     inkscape:showpageshadow="0"
     inkscape:pageopacity="0"
     inkscape:pagecheckerboard="0"
     inkscape:deskcolor="#505050"
     inkscape:document-units="mm"
     inkscape:zoom="2"
     inkscape:cx="314.75"
     inkscape:cy="176.75"
     inkscape:window-width="1920"
     inkscape:window-height="1017"
     inkscape:window-x="1912"
     inkscape:window-y="-8"
     inkscape:window-maximized="1"
     inkscape:current-layer="layer1"
     showgrid="true">
    <inkscape:grid
       id="grid1"
       units="mm"
       originx="0"
       originy="0"
       spacingx="0.5"
       spacingy="0.5"
       empcolor="#0099e5"
       empopacity="0.30196078"
       color="#0099e5"
       opacity="0.14901961"
       empspacing="5"
       dotted="false"
       gridanglex="30"
       gridanglez="30"
       visible="true" />
  </sodipodi:namedview>
  <defs
     id="defs1">
    <rect
       x="198.4252"
       y="113.38582"
       width="60.074798"
       height="15.114176"
       id="rect12" />
    <rect
       x="198.4252"
       y="113.38582"
       width="60.074799"
       height="15.114176"
       id="rect12-6" />
    <rect
       x="198.4252"
       y="113.38582"
       width="60.074799"
       height="15.114176"
       id="rect12-6-3" />
    <rect
       x="198.4252"
       y="113.38582"
       width="60.074799"
       height="15.114176"
       id="rect12-6-3-6" />
    <rect
       x="198.4252"
       y="113.38582"
       width="76.709039"
       height="13.718754"
       id="rect12-6-3-6-5" />
    <rect
       x="198.4252"
       y="113.38582"
       width="76.709038"
       height="13.718754"
       id="rect12-6-3-6-5-8" />
    <rect
       x="198.4252"
       y="113.38582"
       width="60.074799"
       height="15.114176"
       id="rect12-6-3-0" />
    <rect
       x="198.4252"
       y="113.38582"
       width="60.074799"
       height="15.114176"
       id="rect12-6-3-6-7" />
    <rect
       x="198.4252"
       y="113.38582"
       width="76.709038"
       height="13.718754"
       id="rect12-6-3-6-5-1" />
    <rect
       x="198.4252"
       y="113.38582"
       width="76.709038"
       height="13.718754"
       id="rect12-6-3-6-5-5" />
    <rect
       x="198.4252"
       y="113.38582"
       width="60.074799"
       height="15.114176"
       id="rect12-6-3-8" />
    <rect
       x="198.4252"
       y="113.38582"
       width="60.074799"
       height="15.114176"
       id="rect12-6-6" />
    <rect
       x="198.4252"
       y="113.38582"
       width="60.074799"
       height="15.114176"
       id="rect12-6-6-0" />
    <rect
       x="198.4252"
       y="113.38582"
       width="60.074799"
       height="15.114176"
       id="rect12-6-6-5" />
    <rect
       x="198.4252"
       y="113.38582"
       width="60.074799"
       height="15.114176"
       id="rect12-6-6-9" />
    <rect
       x="198.4252"
       y="113.38582"
       width="60.074799"
       height="15.114176"
       id="rect12-6-3-6-6" />
    <rect
       x="198.4252"
       y="113.38582"
       width="60.074799"
       height="15.114176"
       id="rect12-6-3-6-6-1" />
    <rect
       x="198.4252"
       y="113.38582"
       width="60.074799"
       height="15.114176"
       id="rect12-6-6-4" />
    <rect
       x="198.4252"
       y="113.38582"
       width="60.074799"
       height="15.114176"
       id="rect12-6-6-4-9" />
    <rect
       x="198.4252"
       y="113.38582"
       width="60.074799"
       height="15.114176"
       id="rect12-6-3-6-6-9" />
  </defs>
  <g
     inkscape:label="Layer 1"
     inkscape:groupmode="layer"
     id="layer1">
    <path
       style="fill:#b46024;fill-rule:evenodd;stroke:#000000;stroke-width:0.0580001;paint-order:stroke markers fill;fill-opacity:0.25304136"
       d="m 85.000001,7.4999997 c 0,0 27.499999,0 27.499999,0 l -5,12.4999993 H 90.000001 Z"
       id="path2" />
    <path
       style="fill:#409598;fill-rule:evenodd;stroke:#000000;stroke-width:0.0580001;paint-order:stroke markers fill;fill-opacity:0.63990265"
       d="M 85.500002,9.9999997 89.5,19.999999 l -11.999998,7 L 77.5,9.9999997"
       id="path3"
       sodipodi:nodetypes="cccc" />
    <path
       style="fill:#409598;fill-rule:evenodd;stroke:#000000;stroke-width:0.0580001;paint-order:stroke markers fill;fill-opacity:0.63990265"
       d="m 112.00568,9.9999996 -4,9.9999994 11.99432,7 0.006,-16.9999994"
       id="path3-5"
       sodipodi:nodetypes="cccc" />
    <path
       d="m 90.000191,20.500041 -12.000301,7.4998 4.499984,9.500196 H 94.961646 V 34.112646 H 102.5 l 0,3.387353 12.50022,3.8e-5 4.49998,-9.500196 -12.0003,-7.4998 z"
       style="fill:#ddc1dd;fill-rule:evenodd;stroke:#000000;stroke-width:0.0580001;paint-order:stroke markers fill;fill-opacity:0.26034066"
       id="path7"
       sodipodi:nodetypes="ccccccccccc" />
    <path
       style="fill:#999a3e;fill-rule:evenodd;stroke:#000000;stroke-width:0.0580001;paint-order:stroke markers fill;fill-opacity:0.61800486"
       d="M 77.000001,9.9999997 72.5,12.499999 v 17.499999 l 5,7.500001 h 4.500002 l -5.000001,-10.5 z"
       id="path5" />
    <path
       style="fill:#999a3e;fill-rule:evenodd;stroke:#000000;stroke-width:0.0580001;paint-order:stroke markers fill;fill-opacity:0.61800486"
       d="m 120.5,9.9999997 4.5,2.4999993 v 17.499999 l -5,7.500001 h -4.5 l 5,-10.5 z"
       id="path5-8" />
    <path
       d="m 102.5,37.999999 v 2.42544 H 94.961646 V 38.004915 H 77.505863 l -0.0059,2.995084 h -5 c 2.735463,4.534658 5.141277,9.233715 7.50545,13.966155 H 117.4946 l 2.49907,-16.961239 z"
       style="fill:#f6aea5;fill-rule:evenodd;stroke:#000000;stroke-width:0.0689458;paint-order:stroke markers fill;fill-opacity:0.61313868"
       id="path10"
       sodipodi:nodetypes="ccccccccccc" />
    <rect
       style="fill:#716b67;fill-rule:evenodd;stroke:#000000;stroke-width:0.1;stroke-dasharray:none;paint-order:stroke markers fill;fill-opacity:0.32846716"
       id="rect11"
       width="6.4262323"
       height="5.4975958"
       x="95.523773"
       y="34.549999" />
    <text
       xml:space="preserve"
       transform="matrix(0,-0.16933333,0.16933333,0,54.46927,58.692925)"
       id="text12"
       style="white-space:pre;shape-inside:url(#rect12);display:inline;fill:#000000;fill-opacity:1;fill-rule:evenodd;stroke:#000000;stroke-width:0.0755906;stroke-dasharray:none;stroke-opacity:1;paint-order:stroke markers fill"><tspan
         x="198.42578"
         y="124.33468"
         id="tspan3">VIP bal</tspan></text>
    <text
       xml:space="preserve"
       transform="matrix(0,0.16933333,-0.16933333,0,143.06408,-16.325213)"
       id="text12-6"
       style="white-space:pre;shape-inside:url(#rect12-6);display:inline;fill:#000000;fill-opacity:1;fill-rule:evenodd;stroke:#000000;stroke-width:0.0755906;stroke-dasharray:none;stroke-opacity:1;paint-order:stroke markers fill"><tspan
         x="198.42578"
         y="124.33468"
         id="tspan4">VIP jobb</tspan></text>
    <text
       xml:space="preserve"
       transform="matrix(0.16933333,0,0,0.16933333,60.376168,7.6086644)"
       id="text12-6-6"
       style="white-space:pre;shape-inside:url(#rect12-6-3);display:inline;fill:#000000;fill-opacity:1;fill-rule:evenodd;stroke:#000000;stroke-width:0.0755906;stroke-dasharray:none;stroke-opacity:1;paint-order:stroke markers fill"><tspan
         x="198.42578"
         y="124.33468"
         id="tspan5">Szektor 1</tspan></text>
    <text
       xml:space="preserve"
       transform="matrix(0.16933333,0,0,0.16933333,60.658941,-7.1303852)"
       id="text12-6-6-7"
       style="white-space:pre;shape-inside:url(#rect12-6-3-8);display:inline;fill:#000000;fill-opacity:1;fill-rule:evenodd;stroke:#000000;stroke-width:0.0755906;stroke-dasharray:none;stroke-opacity:1;paint-order:stroke markers fill"><tspan
         x="198.42578"
         y="124.33468"
         id="tspan6">Színpad</tspan></text>
    <text
       xml:space="preserve"
       transform="matrix(0.16933333,0,0,0.16933333,59.819055,26.375908)"
       id="text12-6-6-8"
       style="white-space:pre;shape-inside:url(#rect12-6-3-6);display:inline;fill:#000000;fill-opacity:1;fill-rule:evenodd;stroke:#000000;stroke-width:0.0755906;stroke-dasharray:none;stroke-opacity:1;paint-order:stroke markers fill"><tspan
         x="198.42578"
         y="124.33468"
         id="tspan7">Szektor 2</tspan></text>
    <text
       xml:space="preserve"
       transform="matrix(0.16933333,0,0,0.16933333,63.33101,16.988436)"
       id="text12-6-6-8-9"
       style="white-space:pre;shape-inside:url(#rect12-6-3-6-7);display:inline;fill:#000000;fill-opacity:1;fill-rule:evenodd;stroke:#000000;stroke-width:0.0755906;stroke-dasharray:none;stroke-opacity:1;paint-order:stroke markers fill"><tspan
         x="198.42578"
         y="124.33468"
         id="tspan8">Mix</tspan></text>
    <text
       xml:space="preserve"
       transform="matrix(0.08466667,0.14664697,-0.14664697,0.08466667,113.39921,-26.540533)"
       id="text12-6-6-8-6"
       style="white-space:pre;shape-inside:url(#rect12-6-3-6-5);display:inline;fill:#000000;fill-opacity:1;fill-rule:evenodd;stroke:#000000;stroke-width:0.0755906;stroke-dasharray:none;stroke-opacity:1;paint-order:stroke markers fill"><tspan
         x="198.42578"
         y="124.33468"
         id="tspan9">Jobb szárny</tspan></text>
    <text
       xml:space="preserve"
       transform="matrix(0.08466667,-0.14664697,0.14664697,0.08466667,44.798863,41.52819)"
       id="text12-6-6-8-6-2"
       style="white-space:pre;shape-inside:url(#rect12-6-3-6-5-5);display:inline;fill:#000000;fill-opacity:1;fill-rule:evenodd;stroke:#000000;stroke-width:0.0755906;stroke-dasharray:none;stroke-opacity:1;paint-order:stroke markers fill"><tspan
         x="198.42578"
         y="124.33468"
         id="tspan10">Bal szárny</tspan></text>
    <path
       style="fill:#786a60;fill-opacity:0.25304136;fill-rule:evenodd;stroke:#000000;stroke-width:0.069;stroke-dasharray:none;stroke-opacity:1;paint-order:stroke markers fill"
       d="m 125,30.499999 -4.5,7.499999 v 2.5 h 4.5 z"
       id="path12" />
    <text
       xml:space="preserve"
       transform="matrix(0,0.16933333,-0.16933333,0,143.87564,2.2089438)"
       id="text12-6-7"
       style="white-space:pre;shape-inside:url(#rect12-6-6);display:inline;fill:#000000;fill-opacity:1;fill-rule:evenodd;stroke:#000000;stroke-width:0.0755906;stroke-dasharray:none;stroke-opacity:1;paint-order:stroke markers fill"><tspan
         x="198.42578"
         y="124.33468"
         id="tspan11">WC</tspan></text>
    <path
       style="fill:#786a60;fill-opacity:0.25304136;fill-rule:evenodd;stroke:#000000;stroke-width:0.069;stroke-dasharray:none;stroke-opacity:1;paint-order:stroke markers fill"
       d="m 72.510002,30.536102 4.5,7.499999 v 2.5 h -4.5 z"
       id="path12-1" />
    <text
       xml:space="preserve"
       transform="matrix(0,-0.16933333,0.16933333,0,53.62393,73.285572)"
       id="text12-6-7-0"
       style="white-space:pre;shape-inside:url(#rect12-6-6-5);display:inline;fill:#000000;fill-opacity:1;fill-rule:evenodd;stroke:#000000;stroke-width:0.0755906;stroke-dasharray:none;stroke-opacity:1;paint-order:stroke markers fill"><tspan
         x="198.42578"
         y="124.33468"
         id="tspan12">WC</tspan></text>
    <rect
       style="fill:#786a60;fill-opacity:0.25304136;fill-rule:evenodd;stroke:#000000;stroke-width:0.069;stroke-dasharray:none;stroke-opacity:1;paint-order:stroke markers fill"
       id="rect13"
       width="32.5"
       height="12.000003"
       x="80"
       y="55.5" />
    <text
       xml:space="preserve"
       transform="matrix(0.16933333,0,0,0.16933333,70.684053,41.26207)"
       id="text12-6-6-8-98"
       style="white-space:pre;shape-inside:url(#rect12-6-3-6-6);display:inline;fill:#000000;fill-opacity:1;fill-rule:evenodd;stroke:#000000;stroke-width:0.0755906;stroke-dasharray:none;stroke-opacity:1;paint-order:stroke markers fill"><tspan
         x="198.42578"
         y="124.33468"
         id="tspan13">Előtér</tspan></text>
    <path
       style="fill:#786a60;fill-opacity:0.25304136;fill-rule:evenodd;stroke:#000000;stroke-width:0.0689999;stroke-dasharray:none;stroke-opacity:1;paint-order:stroke markers fill"
       d="m 113,55.499997 h 5 L 120.03359,41.498604 120.5,41 h 4.5 l 0,18.999998 -11.90716,7.534508 z"
       id="path13"
       sodipodi:nodetypes="cccccccc" />
    <text
       xml:space="preserve"
       transform="matrix(0,0.16933333,-0.16933333,0,141.82191,19.049044)"
       id="text12-6-7-5"
       style="white-space:pre;shape-inside:url(#rect12-6-6-9);display:inline;fill:#000000;fill-opacity:1;fill-rule:evenodd;stroke:#000000;stroke-width:0.0755906;stroke-dasharray:none;stroke-opacity:1;paint-order:stroke markers fill"><tspan
         x="198.42578"
         y="124.33468"
         id="tspan14">Büfé</tspan></text>
    <text
       xml:space="preserve"
       transform="matrix(0.16933333,0,0,0.16933333,69.383296,52.092303)"
       id="text12-6-6-8-98-9"
       style="white-space:pre;shape-inside:url(#rect12-6-3-6-6-1);display:inline;fill:#000000;fill-opacity:1;fill-rule:evenodd;stroke:#000000;stroke-width:0.0755906;stroke-dasharray:none;stroke-opacity:1;paint-order:stroke markers fill"><tspan
         x="198.42578"
         y="124.33468"
         id="tspan15">Bejárat</tspan></text>
    <path
       style="fill:#000000;fill-opacity:1;fill-rule:evenodd;stroke:#000000;stroke-width:0.0689999;stroke-dasharray:none;stroke-opacity:1;paint-order:stroke markers fill"
       d="m 106.25,71.003799 1,-0.0038 v -2.5 h 1 l -1.5,-2.000001 -1.5,2.000001 1,-0.0102 z"
       id="path15" />
    <path
       style="fill:#786a60;fill-opacity:0.25304136;fill-rule:evenodd;stroke:#000000;stroke-width:0.0689999;stroke-dasharray:none;stroke-opacity:1;paint-order:stroke markers fill"
       d="m 67.500002,12.499999 v 30 l 7.216878,12.499999 v 12.499998 l 4.783122,2e-6 0,-12.5 -7.5,-13.999999 0,-28.5"
       id="path16"
       sodipodi:nodetypes="cccccccc" />
    <text
       xml:space="preserve"
       transform="matrix(0,0.16933333,-0.16933333,0,90.421708,-3.2734335)"
       id="text12-6-7-6"
       style="white-space:pre;shape-inside:url(#rect12-6-6-4);display:inline;fill:#000000;fill-opacity:1;fill-rule:evenodd;stroke:#000000;stroke-width:0.0755906;stroke-dasharray:none;stroke-opacity:1;paint-order:stroke markers fill"><tspan
         x="198.42578"
         y="124.33468"
         id="tspan16">Parkolók</tspan></text>
    <path
       style="fill:#786a60;fill-opacity:0.25304136;fill-rule:evenodd;stroke:#000000;stroke-width:0.0689999;stroke-dasharray:none;stroke-opacity:1;paint-order:stroke markers fill"
       d="M 125.5,12.5 V 59.999998 H 130 V 12.5"
       id="path16-4"
       sodipodi:nodetypes="cccc" />
    <text
       xml:space="preserve"
       transform="matrix(0,0.16933333,-0.16933333,0,148.42171,-3.2734334)"
       id="text12-6-7-6-4"
       style="white-space:pre;shape-inside:url(#rect12-6-6-4-9);display:inline;fill:#000000;fill-opacity:1;fill-rule:evenodd;stroke:#000000;stroke-width:0.0755906;stroke-dasharray:none;stroke-opacity:1;paint-order:stroke markers fill"><tspan
         x="198.42578"
         y="124.33468"
         id="tspan17">Parkolók</tspan></text>
    <rect
       style="fill:#6ff5a7;fill-opacity:0.42092457;fill-rule:evenodd;stroke:#000000;stroke-width:0.0638815;stroke-dasharray:none;stroke-opacity:1;paint-order:stroke markers fill"
       id="rect18"
       width="17.999989"
       height="9.499999"
       x="81.000008"
       y="56.5" />
    <text
       xml:space="preserve"
       transform="matrix(0.16933333,0,0,0.16933333,58.810546,40.349307)"
       id="text12-6-6-8-98-0"
       style="white-space:pre;shape-inside:url(#rect12-6-3-6-6-9);display:inline;fill:#000000;fill-opacity:1;fill-rule:evenodd;stroke:#000000;stroke-width:0.0755906;stroke-dasharray:none;stroke-opacity:1;paint-order:stroke markers fill"><tspan
         x="198.42578"
         y="124.33468"
         id="tspan18">Park</tspan></text>
    <path
       style="fill:#097c39;fill-opacity:1;fill-rule:evenodd;stroke:#000000;stroke-width:0.0689999;stroke-dasharray:none;stroke-opacity:1;paint-order:stroke markers fill"
       d="m 87.544671,62.706934 c 0,0 0.523767,0.115042 0.289389,-0.364519 -0.234376,-0.479558 -0.5,-0.234702 -0.5,-0.234702 0,0 0.128968,-0.697264 -0.383662,-0.400777 -0.512631,0.296486 -0.223242,0.5 -0.223242,0.5 0,0 -0.714846,0.02988 -0.496094,0.206702 0.218752,0.176824 0.01505,0.366993 0.01505,0.366993 0,0 -0.5,0.297662 0.08795,0.426305 0.587944,0.128643 0.499998,0.301558 0.499998,0.301558 0,0 -2e-6,0.698439 0.5,0.19844 0.418835,-0.508504 -0.14056,-0.599219 -0.14056,-0.599219 0.526062,-0.08317 0.758408,0.05849 0.351171,-0.400781 z"
       id="path18"
       sodipodi:nodetypes="cscscscscssc" />
    <path
       style="fill:#097c39;fill-opacity:1;fill-rule:evenodd;stroke:#000000;stroke-width:0.0689999;stroke-dasharray:none;stroke-opacity:1;paint-order:stroke markers fill"
       d="m 86.282693,60.098684 c 0,0 -0.361513,0.396075 0.170988,0.432878 0.532498,0.0368 0.453258,-0.315662 0.453258,-0.315662 0,0 0.539365,0.460322 0.538914,-0.131873 -4.48e-4,-0.592194 0.121242,-0.887172 0.121242,-0.887172 0,0 -0.111087,-0.190176 -0.373595,-0.08914 -0.262511,0.101033 -0.325351,-0.170463 -0.325351,-0.170463 0,0 -0.194709,-0.935253 -0.600092,-0.490395 -0.40538,0.444853 -0.32423,0.635642 -0.32423,0.635642 0,0 -0.604864,-0.349221 -0.421854,0.333793 0.23096,0.616973 0.589219,0.177881 0.589219,0.177881 -0.191003,0.497168 -0.429858,0.627555 0.171501,0.504513 z"
       id="path18-1-9"
       sodipodi:nodetypes="cscscscscssc" />
    <path
       style="fill:#097c39;fill-opacity:1;fill-rule:evenodd;stroke:#000000;stroke-width:0.0689999;stroke-dasharray:none;stroke-opacity:1;paint-order:stroke markers fill"
       d="m 90.225213,61.072631 c 0,0 0.289012,0.451706 0.462383,-0.05312 0.173369,-0.504828 -0.187594,-0.519513 -0.187594,-0.519513 0,0 0.584234,-0.401846 0.0121,-0.554682 -0.572132,-0.152838 -0.51141,0.195697 -0.51141,0.195697 0,0 -0.5266,-0.484344 -0.496951,-0.204631 0.02965,0.279715 -0.248862,0.270145 -0.248862,0.270145 0,0 -0.564032,-0.143074 -0.239253,0.363634 0.324775,0.506703 0.140318,0.566785 0.140318,0.566785 0,0 -0.493872,0.49387 0.213236,0.493872 0.655727,-0.06341 0.32432,-0.523103 0.32432,-0.523103 0.430792,0.313172 0.494917,0.577634 0.531711,-0.03508 z"
       id="path18-3"
       sodipodi:nodetypes="cscscscscssc" />
  </g>
</svg>
