<?xml version="1.0" encoding="UTF-8" standalone="no"?>
<!-- Created with Inkscape (http://www.inkscape.org/) -->

<svg
   width="210mm"
   height="297mm"
   viewBox="0 0 210 297"
   version="1.1"
   id="svg1"
   inkscape:version="1.3 (0e150ed6c4, 2023-07-21)"
   sodipodi:docname="location10.svg"
   inkscape:export-filename="location02mod.svg"
   inkscape:export-xdpi="96"
   inkscape:export-ydpi="96"
   xmlns:inkscape="http://www.inkscape.org/namespaces/inkscape"
   xmlns:sodipodi="http://sodipodi.sourceforge.net/DTD/sodipodi-0.dtd"
   xmlns="http://www.w3.org/2000/svg"
   xmlns:svg="http://www.w3.org/2000/svg">
  <sodipodi:namedview
     id="namedview1"
     pagecolor="#505050"
     bordercolor="#eeeeee"
     borderopacity="1"
     inkscape:showpageshadow="0"
     inkscape:pageopacity="0"
     inkscape:pagecheckerboard="0"
     inkscape:deskcolor="#505050"
     inkscape:document-units="mm"
     inkscape:zoom="2"
     inkscape:cx="388"
     inkscape:cy="477.75"
     inkscape:window-width="1920"
     inkscape:window-height="1017"
     inkscape:window-x="1912"
     inkscape:window-y="-8"
     inkscape:window-maximized="1"
     inkscape:current-layer="layer1"
     showgrid="true">
    <inkscape:grid
       id="grid1"
       units="mm"
       originx="0"
       originy="0"
       spacingx="0.5"
       spacingy="0.5"
       empcolor="#0099e5"
       empopacity="0.30196078"
       color="#0099e5"
       opacity="0.14901961"
       empspacing="5"
       dotted="false"
       gridanglex="30"
       gridanglez="30"
       visible="true" />
  </sodipodi:namedview>
  <defs
     id="defs1">
    <rect
       x="198.4252"
       y="113.38582"
       width="60.074799"
       height="15.114176"
       id="rect12" />
    <rect
       x="198.4252"
       y="113.38582"
       width="60.074799"
       height="15.114176"
       id="rect12-6" />
    <rect
       x="198.4252"
       y="113.38582"
       width="60.074799"
       height="15.114176"
       id="rect12-6-3" />
    <rect
       x="198.4252"
       y="113.38582"
       width="60.074799"
       height="15.114176"
       id="rect12-6-3-6" />
    <rect
       x="198.4252"
       y="113.38582"
       width="76.709038"
       height="13.718754"
       id="rect12-6-3-6-5" />
    <rect
       x="198.4252"
       y="113.38582"
       width="60.074799"
       height="15.114176"
       id="rect12-6-3-6-7" />
    <rect
       x="198.4252"
       y="113.38582"
       width="76.709038"
       height="13.718754"
       id="rect12-6-3-6-5-5" />
    <rect
       x="198.4252"
       y="113.38582"
       width="60.074799"
       height="15.114176"
       id="rect12-6-3-8" />
    <rect
       x="198.4252"
       y="113.38582"
       width="60.074799"
       height="15.114176"
       id="rect12-6-6" />
    <rect
       x="198.4252"
       y="113.38582"
       width="60.074799"
       height="15.114176"
       id="rect12-6-6-5" />
    <rect
       x="198.4252"
       y="113.38582"
       width="60.074799"
       height="15.114176"
       id="rect12-6-6-9" />
    <rect
       x="198.4252"
       y="113.38582"
       width="60.074799"
       height="15.114176"
       id="rect12-6-3-6-6" />
    <rect
       x="198.4252"
       y="113.38582"
       width="60.074799"
       height="15.114176"
       id="rect12-6-3-6-6-1" />
    <rect
       x="198.4252"
       y="113.38582"
       width="60.074799"
       height="15.114176"
       id="rect12-6-6-4" />
    <rect
       x="198.4252"
       y="113.38582"
       width="60.074799"
       height="15.114176"
       id="rect12-6-6-4-9" />
    <rect
       x="198.4252"
       y="113.38582"
       width="60.074799"
       height="15.114176"
       id="rect12-6-3-6-6-9" />
    <rect
       x="198.4252"
       y="113.38582"
       width="60.074799"
       height="15.114176"
       id="rect12-6-3-7" />
    <rect
       x="198.4252"
       y="113.38582"
       width="60.074799"
       height="15.114176"
       id="rect12-6-3-6-6-1-2" />
    <rect
       x="198.4252"
       y="113.38582"
       width="60.074799"
       height="15.114176"
       id="rect12-6-3-6-6-1-2-9" />
    <rect
       x="198.4252"
       y="113.38582"
       width="60.074799"
       height="15.114176"
       id="rect12-6-3-6-6-1-2-2" />
    <rect
       x="198.4252"
       y="113.38582"
       width="60.074799"
       height="15.114176"
       id="rect12-6-3-6-6-1-2-4" />
    <rect
       x="198.4252"
       y="113.38582"
       width="60.074799"
       height="15.114176"
       id="rect12-6-3-6-6-1-2-5" />
    <rect
       x="198.4252"
       y="113.38582"
       width="60.074799"
       height="15.114176"
       id="rect12-6-3-6-6-1-2-3" />
    <rect
       x="198.4252"
       y="113.38582"
       width="60.074799"
       height="15.114176"
       id="rect12-6-3-6-6-1-2-93" />
    <rect
       x="198.4252"
       y="113.38582"
       width="60.074799"
       height="15.114176"
       id="rect12-6-3-6-6-1-2-0" />
    <rect
       x="198.4252"
       y="113.38582"
       width="60.074799"
       height="15.114176"
       id="rect12-6-3-6-6-1-2-47" />
    <rect
       x="198.4252"
       y="113.38582"
       width="60.074799"
       height="15.114176"
       id="rect12-6-3-6-6-1-2-8" />
    <rect
       x="198.4252"
       y="113.38582"
       width="60.074799"
       height="15.114176"
       id="rect12-6-3-6-6-1-2-51" />
    <rect
       x="198.4252"
       y="113.38582"
       width="60.074799"
       height="15.114176"
       id="rect12-6-3-6-6-1-2-35" />
    <rect
       x="198.4252"
       y="113.38582"
       width="60.074799"
       height="15.114176"
       id="rect12-6-3-6-6-1-4" />
    <rect
       x="198.4252"
       y="113.38582"
       width="60.074799"
       height="15.114176"
       id="rect12-6-3-6-6-1-4-2" />
    <rect
       x="198.4252"
       y="113.38582"
       width="60.074799"
       height="15.114176"
       id="rect12-6-3-6-6-1-4-2-7" />
    <rect
       x="198.4252"
       y="113.38582"
       width="60.074799"
       height="15.114176"
       id="rect12-6-3-6-6-1-4-2-6" />
    <rect
       x="198.4252"
       y="113.38582"
       width="60.074799"
       height="15.114176"
       id="rect12-6-3-6-6-1-4-2-2" />
    <rect
       x="198.4252"
       y="113.38582"
       width="60.074799"
       height="15.114176"
       id="rect12-6-3-6-6-1-4-2-4" />
    <rect
       x="198.4252"
       y="113.38582"
       width="60.074799"
       height="15.114176"
       id="rect12-6-3-6-6-1-4-2-7-2" />
    <rect
       x="198.4252"
       y="113.38582"
       width="60.074799"
       height="15.114176"
       id="rect12-6-3-6-6-1-4-2-7-2-6" />
    <rect
       x="198.4252"
       y="113.38582"
       width="60.074799"
       height="15.114176"
       id="rect12-6-3-6-6-1-2-2-7" />
    <rect
       x="198.4252"
       y="113.38582"
       width="60.074799"
       height="15.114176"
       id="rect12-6-3-6-6-1-2-2-7-1" />
    <rect
       x="198.4252"
       y="113.38582"
       width="60.074799"
       height="15.114176"
       id="rect12-6-3-6-6-1-2-2-7-9" />
    <rect
       x="198.4252"
       y="113.38582"
       width="60.074799"
       height="15.114176"
       id="rect12-6-3-6-6-1-2-4-8" />
    <rect
       x="198.4252"
       y="113.38582"
       width="60.074799"
       height="15.114176"
       id="rect12-6-3-6-6-1-2-4-8-1" />
    <rect
       x="198.4252"
       y="113.38582"
       width="60.074799"
       height="15.114176"
       id="rect12-6-3-6-6-1-2-2-7-9-3" />
    <rect
       x="198.4252"
       y="113.38582"
       width="60.074799"
       height="15.114176"
       id="rect12-6-3-6-6-1-2-2-7-13" />
    <rect
       x="198.4252"
       y="113.38582"
       width="60.074799"
       height="15.114176"
       id="rect12-6-3-6-6-1-2-4-8-9" />
    <rect
       x="198.4252"
       y="113.38582"
       width="60.074799"
       height="15.114176"
       id="rect12-6-3-6-6-1-2-4-8-18" />
    <rect
       x="198.4252"
       y="113.38582"
       width="60.074799"
       height="15.114176"
       id="rect12-6-3-6-6-1-2-4-8-0" />
    <rect
       x="198.4252"
       y="113.38582"
       width="60.074799"
       height="15.114176"
       id="rect12-6-3-6-6-1-2-0-1" />
    <rect
       x="198.4252"
       y="113.38582"
       width="60.074799"
       height="15.114176"
       id="rect12-6-3-6-6-1-2-0-4" />
    <rect
       x="198.4252"
       y="113.38582"
       width="60.074799"
       height="15.114176"
       id="rect12-6-3-6-6-1-2-0-5" />
    <rect
       x="198.4252"
       y="113.38582"
       width="60.074799"
       height="15.114176"
       id="rect12-6-3-6-6-1-2-0-3" />
    <rect
       x="198.4252"
       y="113.38582"
       width="60.074799"
       height="15.114176"
       id="rect12-6-3-6-6-1-2-0-5-4" />
    <rect
       x="198.4252"
       y="113.38582"
       width="60.074799"
       height="15.114176"
       id="rect12-6-3-6-6-1-2-0-3-4" />
    <rect
       x="198.4252"
       y="113.38582"
       width="60.074799"
       height="15.114176"
       id="rect12-6-3-6-6-1-4-2-7-0" />
    <rect
       x="198.4252"
       y="113.38582"
       width="60.074799"
       height="15.114176"
       id="rect12-6-3-6-6-1-2-93-6" />
    <rect
       x="198.4252"
       y="113.38582"
       width="60.074799"
       height="15.114176"
       id="rect12-6-3-6-6-1-2-4-8-0-3" />
    <rect
       x="198.4252"
       y="113.38582"
       width="60.074799"
       height="15.114176"
       id="rect12-6-3-6-6-1-2-5-1" />
    <rect
       x="198.4252"
       y="113.38582"
       width="60.074799"
       height="15.114176"
       id="rect12-6-3-6-6-1-2-4-8-9-9" />
    <rect
       x="198.4252"
       y="113.38582"
       width="60.074799"
       height="15.114176"
       id="rect12-6-3-6-6-1-4-2-7-3" />
    <rect
       x="198.4252"
       y="113.38582"
       width="60.074799"
       height="15.114176"
       id="rect12-6-3-6-6-1-4-2-7-3-7" />
    <rect
       x="198.4252"
       y="113.38582"
       width="60.074799"
       height="15.114176"
       id="rect12-6-3-6-6-1-4-2-7-1" />
    <rect
       x="198.4252"
       y="113.38582"
       width="60.074799"
       height="15.114176"
       id="rect12-6-3-6-6-1-4-2-7-3-3" />
    <rect
       x="198.4252"
       y="113.38582"
       width="60.074799"
       height="15.114176"
       id="rect12-6-3-6-6-1-4-2-7-7" />
    <rect
       x="198.4252"
       y="113.38582"
       width="60.074799"
       height="15.114176"
       id="rect12-6-3-6-6-1-4-2-7-3-3-1" />
    <rect
       x="198.4252"
       y="113.38582"
       width="60.074799"
       height="15.114176"
       id="rect12-6-3-6-6-1-4-2-7-3-3-1-2" />
    <rect
       x="198.4252"
       y="113.38582"
       width="60.074799"
       height="15.114176"
       id="rect12-6-3-6-6-1-4-2-7-3-3-1-2-9" />
    <rect
       x="198.4252"
       y="113.38582"
       width="60.074799"
       height="15.114176"
       id="rect12-6-3-6-6-1-4-2-7-3-3-1-2-9-2" />
    <rect
       x="198.4252"
       y="113.38582"
       width="60.074799"
       height="15.114176"
       id="rect12-6-3-6-6-1-4-2-7-3-3-1-2-8" />
    <rect
       x="198.4252"
       y="113.38582"
       width="60.074799"
       height="15.114176"
       id="rect12-6-3-6-6-1-4-2-7-3-3-1-2-3" />
    <rect
       x="198.4252"
       y="113.38582"
       width="60.074799"
       height="15.114176"
       id="rect12-6-3-6-6-1-4-2-7-3-3-1-2-4" />
    <rect
       x="198.4252"
       y="113.38582"
       width="60.074799"
       height="15.114176"
       id="rect12-6-3-6-6-1-4-2-7-3-3-1-2-88" />
    <rect
       x="198.4252"
       y="113.38582"
       width="60.074799"
       height="15.114176"
       id="rect12-6-3-6-6-1-4-2-7-3-3-1-2-88-5" />
    <rect
       x="198.4252"
       y="113.38582"
       width="60.074799"
       height="15.114176"
       id="rect12-6-3-6-6-1-4-2-7-3-3-1-2-88-0" />
    <rect
       x="198.4252"
       y="113.38582"
       width="60.074799"
       height="15.114176"
       id="rect12-6-3-6-6-1-4-2-7-3-3-1-2-88-6" />
    <rect
       x="198.4252"
       y="113.38582"
       width="60.074799"
       height="15.114176"
       id="rect12-6-3-6-6-1-4-2-7-3-3-1-2-88-2" />
    <rect
       x="198.4252"
       y="113.38582"
       width="60.074799"
       height="15.114176"
       id="rect12-6-3-6-6-1-4-2-7-3-3-1-2-88-5-1" />
    <rect
       x="198.4252"
       y="113.38582"
       width="60.074799"
       height="15.114176"
       id="rect12-6-3-6-6-1-4-2-7-3-3-1-2-88-5-6" />
    <rect
       x="198.4252"
       y="113.38582"
       width="60.074799"
       height="15.114176"
       id="rect12-6-3-6-6-1-4-2-7-3-3-1-2-88-5-3" />
    <rect
       x="198.4252"
       y="113.38582"
       width="60.074799"
       height="15.114176"
       id="rect12-6-3-6-6-1-4-2-7-3-3-1-2-88-5-0" />
  </defs>
  <g
     inkscape:label="Layer 1"
     inkscape:groupmode="layer"
     id="layer1">
    <path
       style="opacity:0.6;fill:#e9afc6;fill-opacity:0.254902;fill-rule:evenodd;stroke:#000000;stroke-width:0.0689999;paint-order:stroke markers fill"
       d="M 134.13334,136.23019 141,118 l 6.67982,-0.0818 -8.51223,20.85542 z"
       id="path23-7"
       sodipodi:nodetypes="ccccc" />
    <path
       style="opacity:0.6;fill:#e9afc6;fill-opacity:0.254902;fill-rule:evenodd;stroke:#000000;stroke-width:0.0689999;paint-order:stroke markers fill"
       d="M 123.22485,131.27895 129.5,118 l 10.13795,-0.0471 -6.70882,17.80683 z"
       id="path6-1"
       sodipodi:nodetypes="ccccc" />
    <text
       xml:space="preserve"
       transform="matrix(0.12971686,0.10884538,-0.10884538,0.12971686,120.24215,103.15982)"
       id="text12-6-6-8-98-9-7-2-0"
       style="white-space:pre;shape-inside:url(#rect12-6-3-6-6-1-4-2-7);display:inline;fill:#000000;fill-opacity:1;fill-rule:evenodd;stroke:#000000;stroke-width:0.0755906;stroke-dasharray:none;stroke-opacity:1;paint-order:stroke markers fill"><tspan
         x="198.42578"
         y="124.33468"
         id="tspan3">Bejárat</tspan></text>
    <text
       xml:space="preserve"
       transform="matrix(0.12971686,0.10884538,-0.10884538,0.12971686,67.31354,51.233876)"
       id="text12-6-6-8-98-9-7-2-0-8"
       style="white-space:pre;shape-inside:url(#rect12-6-3-6-6-1-4-2-7-7);display:inline;fill:#000000;fill-opacity:1;fill-rule:evenodd;stroke:#000000;stroke-width:0.0755906;stroke-dasharray:none;stroke-opacity:1;paint-order:stroke markers fill"><tspan
         x="198.42578"
         y="124.33468"
         id="tspan4">Bejárat</tspan></text>
    <text
       xml:space="preserve"
       transform="matrix(0.12971686,-0.10884538,0.10884538,0.12971686,41.196662,151.98622)"
       id="text12-6-6-8-98-9-7-2-0-7"
       style="white-space:pre;shape-inside:url(#rect12-6-3-6-6-1-4-2-7-3);display:inline;fill:#000000;fill-opacity:1;fill-rule:evenodd;stroke:#000000;stroke-width:0.0755906;stroke-dasharray:none;stroke-opacity:1;paint-order:stroke markers fill"><tspan
         x="198.42578"
         y="124.33468"
         id="tspan5">Bejárat</tspan></text>
    <text
       xml:space="preserve"
       transform="matrix(0.12971686,-0.10884538,0.10884538,0.12971686,94.101993,100.97876)"
       id="text12-6-6-8-98-9-7-2-0-7-0"
       style="white-space:pre;shape-inside:url(#rect12-6-3-6-6-1-4-2-7-3-3);display:inline;fill:#000000;fill-opacity:1;fill-rule:evenodd;stroke:#000000;stroke-width:0.0755906;stroke-dasharray:none;stroke-opacity:1;paint-order:stroke markers fill"><tspan
         x="198.42578"
         y="124.33468"
         id="tspan6">Bejárat</tspan></text>
    <path
       d="m 110,80.999998 0,6 -18.775065,6.8498 -3.24683,-3.72454 z"
       style="opacity:0.6;fill:#ffeeaa;fill-opacity:0.254902;fill-rule:evenodd;stroke:#000000;stroke-width:0.0689999;paint-order:stroke markers fill"
       id="path20-9-5-4"
       sodipodi:nodetypes="ccccc" />
    <text
       xml:space="preserve"
       transform="matrix(0.16933335,0,0,0.16933335,64.928806,67.439489)"
       id="text12-6-6-8-98-9-7-2-0-7-0-1"
       style="white-space:pre;shape-inside:url(#rect12-6-3-6-6-1-4-2-7-3-3-1);display:inline;fill:#000000;fill-opacity:1;fill-rule:evenodd;stroke:#000000;stroke-width:0.0767716;stroke-dasharray:none;stroke-opacity:1;paint-order:stroke markers fill"><tspan
         x="198.42578"
         y="124.33468"
         id="tspan7">A3</tspan></text>
    <path
       style="opacity:0.6;fill:#ffeeaa;fill-opacity:0.254902;fill-rule:evenodd;stroke:#000000;stroke-width:0.0689999;paint-order:stroke markers fill"
       d="M 98.124012,103.15573 110,98.523112 110,87.999998 91.648712,95.226362 Z"
       id="path2-7-0-1"
       sodipodi:nodetypes="ccccc" />
    <text
       xml:space="preserve"
       transform="matrix(0.16933335,0,0,0.16933335,67.9806,75.949401)"
       id="text12-6-6-8-98-9-7-2-0-7-0-1-5"
       style="white-space:pre;shape-inside:url(#rect12-6-3-6-6-1-4-2-7-3-3-1-2);display:inline;fill:#000000;fill-opacity:1;fill-rule:evenodd;stroke:#000000;stroke-width:0.0767716;stroke-dasharray:none;stroke-opacity:1;paint-order:stroke markers fill"><tspan
         x="198.42578"
         y="124.33468"
         id="tspan8">A1</tspan></text>
    <text
       xml:space="preserve"
       transform="matrix(0.16933335,0,0,0.16933335,96.457574,105.57999)"
       id="text12-6-6-8-98-9-7-2-0-7-0-1-5-5"
       style="white-space:pre;shape-inside:url(#rect12-6-3-6-6-1-4-2-7-3-3-1-2-8);display:inline;fill:#000000;fill-opacity:1;fill-rule:evenodd;stroke:#000000;stroke-width:0.0767716;stroke-dasharray:none;stroke-opacity:1;paint-order:stroke markers fill"><tspan
         x="198.42578"
         y="124.33468"
         id="tspan9">B2</tspan></text>
    <text
       xml:space="preserve"
       transform="matrix(0.16933335,0,0,0.16933335,96.798451,89.377005)"
       id="text12-6-6-8-98-9-7-2-0-7-0-1-5-1"
       style="white-space:pre;shape-inside:url(#rect12-6-3-6-6-1-4-2-7-3-3-1-2-3);display:inline;fill:#000000;fill-opacity:1;fill-rule:evenodd;stroke:#000000;stroke-width:0.0767716;stroke-dasharray:none;stroke-opacity:1;paint-order:stroke markers fill"><tspan
         x="198.42578"
         y="124.33468"
         id="tspan10">B1</tspan></text>
    <text
       xml:space="preserve"
       transform="matrix(0.16933335,0,0,0.16933335,105.22117,87.392631)"
       id="text12-6-6-8-98-9-7-2-0-7-0-1-5-3"
       style="white-space:pre;shape-inside:url(#rect12-6-3-6-6-1-4-2-7-3-3-1-2-4);display:inline;fill:#000000;fill-opacity:1;fill-rule:evenodd;stroke:#000000;stroke-width:0.0767716;stroke-dasharray:none;stroke-opacity:1;paint-order:stroke markers fill"><tspan
         x="198.42578"
         y="124.33468"
         id="tspan11">B3</tspan></text>
    <text
       xml:space="preserve"
       transform="matrix(0.16933335,0,0,0.16933335,106.00645,107.10409)"
       id="text12-6-6-8-98-9-7-2-0-7-0-1-5-7"
       style="white-space:pre;shape-inside:url(#rect12-6-3-6-6-1-4-2-7-3-3-1-2-88);display:inline;fill:#000000;fill-opacity:1;fill-rule:evenodd;stroke:#000000;stroke-width:0.0767716;stroke-dasharray:none;stroke-opacity:1;paint-order:stroke markers fill"><tspan
         x="198.42578"
         y="124.33468"
         id="tspan12">B4</tspan></text>
    <text
       xml:space="preserve"
       transform="matrix(0.16933335,0,0,0.16933335,83.450127,119.1484)"
       id="text12-6-6-8-98-9-7-2-0-7-0-1-5-7-1"
       style="white-space:pre;shape-inside:url(#rect12-6-3-6-6-1-4-2-7-3-3-1-2-88-5);display:inline;fill:#000000;fill-opacity:1;fill-rule:evenodd;stroke:#000000;stroke-width:0.0767716;stroke-dasharray:none;stroke-opacity:1;paint-order:stroke markers fill"><tspan
         x="198.42578"
         y="124.33468"
         id="tspan13">C1</tspan></text>
    <text
       xml:space="preserve"
       transform="matrix(0.16933335,0,0,0.16933335,53.752196,105.43482)"
       id="text12-6-6-8-98-9-7-2-0-7-0-1-5-7-1-8"
       style="white-space:pre;shape-inside:url(#rect12-6-3-6-6-1-4-2-7-3-3-1-2-88-5-1);display:inline;fill:#000000;fill-opacity:1;fill-rule:evenodd;stroke:#000000;stroke-width:0.0767716;stroke-dasharray:none;stroke-opacity:1;paint-order:stroke markers fill"><tspan
         x="198.42578"
         y="124.33468"
         id="tspan14">D1</tspan></text>
    <text
       xml:space="preserve"
       transform="matrix(0.16933335,0,0,0.16933335,43.688696,107.96061)"
       id="text12-6-6-8-98-9-7-2-0-7-0-1-5-7-1-6"
       style="white-space:pre;shape-inside:url(#rect12-6-3-6-6-1-4-2-7-3-3-1-2-88-5-6);display:inline;fill:#000000;fill-opacity:1;fill-rule:evenodd;stroke:#000000;stroke-width:0.0767716;stroke-dasharray:none;stroke-opacity:1;paint-order:stroke markers fill"><tspan
         x="198.42578"
         y="124.33468"
         id="tspan15">D3</tspan></text>
    <text
       xml:space="preserve"
       transform="matrix(0.16933335,0,0,0.16933335,53.076921,89.672015)"
       id="text12-6-6-8-98-9-7-2-0-7-0-1-5-7-1-69"
       style="white-space:pre;shape-inside:url(#rect12-6-3-6-6-1-4-2-7-3-3-1-2-88-5-3);display:inline;fill:#000000;fill-opacity:1;fill-rule:evenodd;stroke:#000000;stroke-width:0.0767716;stroke-dasharray:none;stroke-opacity:1;paint-order:stroke markers fill"><tspan
         x="198.42578"
         y="124.33468"
         id="tspan17">D2</tspan></text>
    <text
       xml:space="preserve"
       transform="matrix(0.16933335,0,0,0.16933335,43.634126,87.929856)"
       id="text12-6-6-8-98-9-7-2-0-7-0-1-5-7-1-4"
       style="white-space:pre;shape-inside:url(#rect12-6-3-6-6-1-4-2-7-3-3-1-2-88-5-0);display:inline;fill:#000000;fill-opacity:1;fill-rule:evenodd;stroke:#000000;stroke-width:0.0767716;stroke-dasharray:none;stroke-opacity:1;paint-order:stroke markers fill"><tspan
         x="198.42578"
         y="124.33468"
         id="tspan18">D4</tspan></text>
    <text
       xml:space="preserve"
       transform="matrix(0.16933335,0,0,0.16933335,67.892295,119.15237)"
       id="text12-6-6-8-98-9-7-2-0-7-0-1-5-7-2"
       style="white-space:pre;shape-inside:url(#rect12-6-3-6-6-1-4-2-7-3-3-1-2-88-0);display:inline;fill:#000000;fill-opacity:1;fill-rule:evenodd;stroke:#000000;stroke-width:0.0767716;stroke-dasharray:none;stroke-opacity:1;paint-order:stroke markers fill"><tspan
         x="198.42578"
         y="124.33468"
         id="tspan19">C2</tspan></text>
    <text
       xml:space="preserve"
       transform="matrix(0.16933335,0,0,0.16933335,85.823528,126.08396)"
       id="text12-6-6-8-98-9-7-2-0-7-0-1-5-7-9"
       style="white-space:pre;shape-inside:url(#rect12-6-3-6-6-1-4-2-7-3-3-1-2-88-6);display:inline;fill:#000000;fill-opacity:1;fill-rule:evenodd;stroke:#000000;stroke-width:0.0767716;stroke-dasharray:none;stroke-opacity:1;paint-order:stroke markers fill"><tspan
         x="198.42578"
         y="124.33468"
         id="tspan20">C3</tspan></text>
    <text
       xml:space="preserve"
       transform="matrix(0.16933335,0,0,0.16933335,65.591819,126.85229)"
       id="text12-6-6-8-98-9-7-2-0-7-0-1-5-7-3"
       style="white-space:pre;shape-inside:url(#rect12-6-3-6-6-1-4-2-7-3-3-1-2-88-2);display:inline;fill:#000000;fill-opacity:1;fill-rule:evenodd;stroke:#000000;stroke-width:0.0767716;stroke-dasharray:none;stroke-opacity:1;paint-order:stroke markers fill"><tspan
         x="198.42578"
         y="124.33468"
         id="tspan21">C4</tspan></text>
    <path
       style="opacity:0.6;fill:#ffeeaa;fill-opacity:0.254902;fill-rule:evenodd;stroke:#000000;stroke-width:0.0689999;paint-order:stroke markers fill"
       d="M 122.87599,103.15573 111,98.523112 l 0,-10.523114 18.35129,7.226364 z"
       id="path2-7-4"
       sodipodi:nodetypes="ccccc" />
    <text
       xml:space="preserve"
       transform="matrix(0.16933335,0,0,0.16933335,83.8556,75.949401)"
       id="text12-6-6-8-98-9-7-2-0-7-0-1-5-0"
       style="white-space:pre;shape-inside:url(#rect12-6-3-6-6-1-4-2-7-3-3-1-2-9);display:inline;fill:#000000;fill-opacity:1;fill-rule:evenodd;stroke:#000000;stroke-width:0.0767716;stroke-dasharray:none;stroke-opacity:1;paint-order:stroke markers fill"><tspan
         x="198.42578"
         y="124.33468"
         id="tspan22">A2</tspan></text>
    <text
       xml:space="preserve"
       transform="matrix(0.16933335,0,0,0.16933335,85.815709,67.470247)"
       id="text12-6-6-8-98-9-7-2-0-7-0-1-5-0-3"
       style="white-space:pre;shape-inside:url(#rect12-6-3-6-6-1-4-2-7-3-3-1-2-9-2);display:inline;fill:#000000;fill-opacity:1;fill-rule:evenodd;stroke:#000000;stroke-width:0.0767716;stroke-dasharray:none;stroke-opacity:1;paint-order:stroke markers fill"><tspan
         x="198.42578"
         y="124.33468"
         id="tspan23">A4</tspan></text>
    <path
       style="fill:#000000;fill-opacity:1;fill-rule:evenodd;stroke:#000000;stroke-width:0.0689999;stroke-dasharray:none;stroke-opacity:1;paint-order:stroke markers fill"
       d="m 131.83284,139.78816 0.63972,-0.76861 -1.91511,-1.60698 0.64279,-0.76604 -2.49627,-0.13651 0.56792,2.43462 0.63497,-0.77259 z"
       id="path15-4-4-0" />
    <path
       d="M 110.5,98.999997 97.500002,104 c -1.937599,5.52267 -3.976772,8.00838 -6,13.5 2.058932,4.71995 4.197764,8.89552 6.5,13.5 l 12.499998,5 12,-4.5 c 2.18291,-4.65918 4.19873,-9.39745 6.5,-14 -2.18883,-5.49303 -3.97559,-8.64921 -6.5,-14 z M 110,105 c 0.26589,-6e-5 0.5317,0.011 0.79685,0.0331 0.26526,0.0222 0.52969,0.0554 0.79272,0.0997 0.2629,0.0444 0.52422,0.0997 0.78341,0.16588 0.25932,0.0661 0.51633,0.14295 0.7705,0.23048 0.25417,0.0875 0.50532,0.18558 0.75292,0.29404 0.24763,0.10846 0.49155,0.22723 0.73123,0.35605 0.23952,0.12898 0.47464,0.26791 0.70486,0.41651 0.23035,0.1485 0.45564,0.30656 0.67541,0.47387 0.21977,0.16722 0.43386,0.34356 0.64182,0.52865 0.20796,0.1853 0.40964,0.37922 0.60462,0.58136 0.19489,0.20189 0.38295,0.41184 0.56379,0.62942 0.18094,0.21781 0.35452,0.4431 0.52038,0.67541 0.16573,0.23224 0.32363,0.47133 0.47336,0.71675 0.14996,0.24532 0.29165,0.49681 0.42478,0.75396 0.13294,0.25724 0.25722,0.51994 0.37258,0.78755 0.11536,0.26763 0.22172,0.53998 0.31885,0.81649 0.0972,0.27649 0.18512,0.55694 0.26355,0.84077 0.0783,0.28384 0.14709,0.57084 0.20619,0.86042 0.0592,0.28946 0.10866,0.58129 0.14831,0.87488 0.0397,0.29373 0.0695,0.589 0.0894,0.88522 0.0199,0.29627 0.0299,0.59327 0.03,0.89038 -1.2e-4,0.89173 -0.0899,1.78062 -0.26768,2.64997 -0.17763,0.86955 -0.44215,1.71407 -0.78859,2.51767 -0.34653,0.80351 -0.77278,1.56101 -1.27072,2.25826 -0.49792,0.69736 -1.0644,1.33006 -1.68879,1.88619 -0.62433,0.55606 -1.30261,1.03206 -2.02209,1.41904 -0.71966,0.38687 -1.47595,0.68225 -2.25465,0.88057 -0.77849,0.19845 -1.57447,0.29864 -2.37298,0.29869 -0.79869,-1e-5 -1.59484,-0.1002 -2.3735,-0.29869 -0.77852,-0.19836 -1.53463,-0.49374 -2.25412,-0.88057 -0.71966,-0.38694 -1.39812,-0.86294 -2.02262,-1.41904 -0.62439,-0.55614 -1.19087,-1.18883 -1.68878,-1.88619 -0.49795,-0.69725 -0.9242,-1.45475 -1.27073,-2.25826 -0.34644,-0.80361 -0.610955,-1.64812 -0.788577,-2.51767 -0.177773,-0.86935 -0.267563,-1.75824 -0.26768,-2.64997 8.3e-5,-0.8919 0.08987,-1.78097 0.26768,-2.65048 0.177621,-0.86955 0.442137,-1.71407 0.788577,-2.51768 0.34653,-0.80351 0.77278,-1.56101 1.27073,-2.25826 0.49791,-0.69736 1.06439,-1.33005 1.68878,-1.88619 0.6245,-0.55609 1.30296,-1.03209 2.02262,-1.41903 0.71949,-0.38683 1.4756,-0.68221 2.25412,-0.88057 0.77866,-0.19849 1.57481,-0.29868 2.3735,-0.29869 z"
       style="opacity:0.6;fill:#2ab424;fill-opacity:0.254902;fill-rule:evenodd;stroke:#000000;stroke-width:0.0778641;paint-order:stroke markers fill"
       id="path9"
       sodipodi:nodetypes="ccccccccccccccscccccccccscccssccccsccccscccccccccsccc" />
    <path
       style="opacity:0.6;fill:#2724b4;fill-opacity:0.254902;fill-rule:evenodd;stroke:#000000;stroke-width:0.0689999;paint-order:stroke markers fill"
       d="M 122.87599,131.86738 111,136.5 l 0.006,10.5506 18.34536,-7.25385 z"
       id="path2-7"
       sodipodi:nodetypes="ccccc" />
    <text
       xml:space="preserve"
       transform="matrix(0.16933333,0,0,0.16933333,72.398703,96.483707)"
       id="text12-6-6-7"
       style="white-space:pre;shape-inside:url(#rect12-6-3-8);display:inline;fill:#000000;fill-opacity:1;fill-rule:evenodd;stroke:#000000;stroke-width:0.0755906;stroke-dasharray:none;stroke-opacity:1;paint-order:stroke markers fill"><tspan
         x="198.42578"
         y="124.33468"
         id="tspan24">Színpad</tspan></text>
    <path
       d="m 110.00003,105 a 10.665627,11.910768 0 0 0 -2.3735,0.29869 10.665627,11.910768 0 0 0 -2.25412,0.88057 10.665627,11.910768 0 0 0 -2.02262,1.41903 10.665627,11.910768 0 0 0 -1.68878,1.88619 10.665627,11.910768 0 0 0 -1.27073,2.25826 10.665627,11.910768 0 0 0 -0.788577,2.51768 10.665627,11.910768 0 0 0 -0.26768,2.65048 10.665627,11.910768 0 0 0 0.26768,2.64997 10.665627,11.910768 0 0 0 0.788577,2.51767 10.665627,11.910768 0 0 0 1.27073,2.25826 10.665627,11.910768 0 0 0 1.68878,1.88619 10.665627,11.910768 0 0 0 2.02262,1.41904 10.665627,11.910768 0 0 0 2.25412,0.88057 10.665627,11.910768 0 0 0 2.3735,0.29869 10.665627,11.910768 0 0 0 2.37298,-0.29869 10.665627,11.910768 0 0 0 2.25465,-0.88057 10.665627,11.910768 0 0 0 2.02209,-1.41904 10.665627,11.910768 0 0 0 1.68879,-1.88619 10.665627,11.910768 0 0 0 1.27072,-2.25826 10.665627,11.910768 0 0 0 0.78859,-2.51767 10.665627,11.910768 0 0 0 0.26768,-2.64997 10.665627,11.910768 0 0 0 -0.03,-0.89038 10.665627,11.910768 0 0 0 -0.0894,-0.88522 10.665627,11.910768 0 0 0 -0.14831,-0.87488 10.665627,11.910768 0 0 0 -0.20619,-0.86042 10.665627,11.910768 0 0 0 -0.26355,-0.84077 10.665627,11.910768 0 0 0 -0.31885,-0.81649 10.665627,11.910768 0 0 0 -0.37258,-0.78755 10.665627,11.910768 0 0 0 -0.42478,-0.75396 10.665627,11.910768 0 0 0 -0.47336,-0.71675 10.665627,11.910768 0 0 0 -0.52038,-0.67541 10.665627,11.910768 0 0 0 -0.56379,-0.62942 10.665627,11.910768 0 0 0 -0.60462,-0.58136 10.665627,11.910768 0 0 0 -0.64182,-0.52865 10.665627,11.910768 0 0 0 -0.67541,-0.47387 10.665627,11.910768 0 0 0 -0.70486,-0.41651 10.665627,11.910768 0 0 0 -0.73123,-0.35605 10.665627,11.910768 0 0 0 -0.75292,-0.29404 10.665627,11.910768 0 0 0 -0.7705,-0.23048 10.665627,11.910768 0 0 0 -0.78341,-0.16588 10.665627,11.910768 0 0 0 -0.79272,-0.0997 A 10.665627,11.910768 0 0 0 110,105.00001 Z"
       style="fill:#99570c;fill-opacity:0.254902;fill-rule:evenodd;stroke:#000000;stroke-width:0.0689999;paint-order:stroke markers fill"
       id="path11" />
    <path
       d="m 111,153.5 -0.0345,-5.48509 18.77508,-7.21125 3.24683,3.72454 z"
       style="opacity:0.6;fill:#2724b4;fill-opacity:0.254902;fill-rule:evenodd;stroke:#000000;stroke-width:0.0689999;paint-order:stroke markers fill"
       id="path20-9"
       sodipodi:nodetypes="ccccc" />
    <path
       style="opacity:0.6;fill:#b43f24;fill-opacity:0.254902;fill-rule:evenodd;stroke:#000000;stroke-width:0.0689999;paint-order:stroke markers fill"
       d="M 86.589063,136.25231 77.500002,118 l -6.477774,-0.0352 10.624415,21.00508 z"
       id="path23-7-4"
       sodipodi:nodetypes="ccccc" />
    <path
       style="opacity:0.6;fill:#b43f24;fill-opacity:0.254902;fill-rule:evenodd;stroke:#000000;stroke-width:0.0689999;paint-order:stroke markers fill"
       d="M 97.318112,130.92338 91.05603,118.15481 79.000002,118 87.77612,135.7401 Z"
       id="path6-1-9"
       sodipodi:nodetypes="ccccc" />
    <path
       style="fill:#000000;fill-opacity:1;fill-rule:evenodd;stroke:#000000;stroke-width:0.0689999;stroke-dasharray:none;stroke-opacity:1;paint-order:stroke markers fill"
       d="m 87.197012,140.67756 -0.653036,-0.75733 1.886772,-1.64015 -0.65606,-0.75471 2.493507,-0.18006 -0.525344,2.44417 -0.648356,-0.7614 z"
       id="path15-4-4-0-7" />
    <path
       style="opacity:0.6;fill:#2724b4;fill-opacity:0.254902;fill-rule:evenodd;stroke:#000000;stroke-width:0.0689999;paint-order:stroke markers fill"
       d="M 98.12401,131.86738 110,136.5 110,147 91.64871,139.79675 Z"
       id="path2-7-0"
       sodipodi:nodetypes="ccccc" />
    <path
       d="m 110,153.5 0,-5.5 -18.74057,-7.19634 -3.24683,3.72454 z"
       style="opacity:0.6;fill:#2724b4;fill-opacity:0.254902;fill-rule:evenodd;stroke:#000000;stroke-width:0.0689999;paint-order:stroke markers fill"
       id="path20-9-5"
       sodipodi:nodetypes="ccccc" />
    <path
       style="opacity:0.6;fill:#e9afc6;fill-opacity:0.254902;fill-rule:evenodd;stroke:#000000;stroke-width:0.0689999;paint-order:stroke markers fill"
       d="M 134.13334,98.792922 141,117 l 6.73142,0.0346 -8.56383,-20.785118 z"
       id="path23-7-3"
       sodipodi:nodetypes="ccccc" />
    <path
       style="opacity:0.6;fill:#e9afc6;fill-opacity:0.254902;fill-rule:evenodd;stroke:#000000;stroke-width:0.0689999;paint-order:stroke markers fill"
       d="M 123.22485,103.74416 129.5,117 l 10.1879,-0.0659 -6.75877,-17.670728 z"
       id="path6-1-4"
       sodipodi:nodetypes="ccccc" />
    <path
       style="fill:#000000;fill-opacity:1;fill-rule:evenodd;stroke:#000000;stroke-width:0.0689999;stroke-dasharray:none;stroke-opacity:1;paint-order:stroke markers fill"
       d="m 131.83284,95.234952 0.63972,0.76861 -1.91511,1.60698 0.64279,0.76604 -2.49627,0.13651 0.56792,-2.43462 0.63497,0.77259 z"
       id="path15-4-4-0-3" />
    <path
       d="m 111,80.999998 v 6 l 18.74057,7.219454 3.24683,-3.72454 z"
       style="opacity:0.6;fill:#ffeeaa;fill-opacity:0.254902;fill-rule:evenodd;stroke:#000000;stroke-width:0.0689999;paint-order:stroke markers fill"
       id="path20-9-2"
       sodipodi:nodetypes="ccccc" />
    <path
       style="opacity:0.6;fill:#b43f24;fill-opacity:0.254902;fill-rule:evenodd;stroke:#000000;stroke-width:0.0689999;paint-order:stroke markers fill"
       d="M 86.589065,98.770802 77.514659,116.91065 H 70.965961 L 81.646645,96.053252 Z"
       id="path23-7-4-1"
       sodipodi:nodetypes="ccccc" />
    <path
       style="opacity:0.6;fill:#b43f24;fill-opacity:0.254902;fill-rule:evenodd;stroke:#000000;stroke-width:0.0689999;paint-order:stroke markers fill"
       d="M 97.318112,104.09973 91.000002,117 h -12 l 8.77612,-17.716988 z"
       id="path6-1-9-7"
       sodipodi:nodetypes="ccccc" />
    <path
       style="fill:#000000;fill-opacity:1;fill-rule:evenodd;stroke:#000000;stroke-width:0.0689999;stroke-dasharray:none;stroke-opacity:1;paint-order:stroke markers fill"
       d="m 87.197014,94.345552 -0.653036,0.75733 1.886772,1.64015 -0.65606,0.75471 2.493507,0.18006 -0.525344,-2.44417 -0.648356,0.7614 z"
       id="path15-4-4-0-7-1" />
  </g>
</svg>
