<?xml version="1.0" encoding="UTF-8" standalone="no"?>
<!-- Created with Inkscape (http://www.inkscape.org/) -->

<svg
   width="158.75mm"
   height="158.75mm"
   viewBox="0 0 158.75 158.75"
   version="1.1"
   id="svg1"
   inkscape:version="1.3 (0e150ed6c4, 2023-07-21)"
   sodipodi:docname="location06.svg"
   inkscape:export-filename="location02mod.svg"
   inkscape:export-xdpi="96"
   inkscape:export-ydpi="96"
   xmlns:inkscape="http://www.inkscape.org/namespaces/inkscape"
   xmlns:sodipodi="http://sodipodi.sourceforge.net/DTD/sodipodi-0.dtd"
   xmlns="http://www.w3.org/2000/svg"
   xmlns:svg="http://www.w3.org/2000/svg">
  <sodipodi:namedview
     id="namedview1"
     pagecolor="#505050"
     bordercolor="#eeeeee"
     borderopacity="1"
     inkscape:showpageshadow="0"
     inkscape:pageopacity="0"
     inkscape:pagecheckerboard="0"
     inkscape:deskcolor="#505050"
     inkscape:document-units="mm"
     inkscape:zoom="2"
     inkscape:cx="371.5"
     inkscape:cy="502.75"
     inkscape:window-width="1920"
     inkscape:window-height="1017"
     inkscape:window-x="1912"
     inkscape:window-y="-8"
     inkscape:window-maximized="1"
     inkscape:current-layer="layer1"
     showgrid="true">
    <inkscape:grid
       id="grid1"
       units="mm"
       originx="0"
       originy="0"
       spacingx="0.5"
       spacingy="0.5"
       empcolor="#0099e5"
       empopacity="0.30196078"
       color="#0099e5"
       opacity="0.14901961"
       empspacing="5"
       dotted="false"
       gridanglex="30"
       gridanglez="30"
       visible="true" />
  </sodipodi:namedview>
  <defs
     id="defs1">
    <inkscape:path-effect
       effect="mirror_symmetry"
       start_point="109.9998,119.49999"
       end_point="109.9998,147.49995"
       center_point="109.9998,133.49997"
       id="path-effect1"
       is_visible="true"
       lpeversion="1.2"
       lpesatellites=""
       mode="free"
       discard_orig_path="false"
       fuse_paths="false"
       oposite_fuse="false"
       split_items="false"
       split_open="false"
       link_styles="false" />
    <rect
       x="198.4252"
       y="113.38582"
       width="60.074799"
       height="15.114176"
       id="rect12-6-3-8" />
    <rect
       x="198.4252"
       y="113.38582"
       width="60.074799"
       height="15.114176"
       id="rect12-6-3-6-6-1-2-5" />
    <rect
       x="198.4252"
       y="113.38582"
       width="60.074799"
       height="15.114176"
       id="rect12-6-3-6-6-1-2-3" />
    <rect
       x="198.4252"
       y="113.38582"
       width="60.074799"
       height="15.114176"
       id="rect12-6-3-6-6-1-2-93" />
    <rect
       x="198.4252"
       y="113.38582"
       width="60.074799"
       height="15.114176"
       id="rect12-6-3-6-6-1-2-0" />
    <rect
       x="198.4252"
       y="113.38582"
       width="60.074799"
       height="15.114176"
       id="rect12-6-3-6-6-1-2-47" />
    <rect
       x="198.4252"
       y="113.38582"
       width="60.074799"
       height="15.114176"
       id="rect12-6-3-6-6-1-2-8" />
    <rect
       x="198.4252"
       y="113.38582"
       width="60.074799"
       height="15.114176"
       id="rect12-6-3-6-6-1-4-2" />
    <rect
       x="198.4252"
       y="113.38582"
       width="60.074799"
       height="15.114176"
       id="rect12-6-3-6-6-1-4-2-7" />
    <rect
       x="198.4252"
       y="113.38582"
       width="60.074799"
       height="15.114176"
       id="rect12-6-3-6-6-1-2-4-8-9" />
    <rect
       x="198.4252"
       y="113.38582"
       width="60.074799"
       height="15.114176"
       id="rect12-6-3-6-6-1-2-4-8-18" />
    <rect
       x="198.4252"
       y="113.38582"
       width="60.074799"
       height="15.114176"
       id="rect12-6-3-6-6-1-2-4-8-0" />
    <rect
       x="198.4252"
       y="113.38582"
       width="60.074799"
       height="15.114176"
       id="rect12-6-3-6-6-1-2-0-1" />
    <rect
       x="198.4252"
       y="113.38582"
       width="60.074799"
       height="15.114176"
       id="rect12-6-3-6-6-1-2-0-4" />
    <rect
       x="198.4252"
       y="113.38582"
       width="60.074799"
       height="15.114176"
       id="rect12-6-3-6-6-1-2-0-5" />
    <rect
       x="198.4252"
       y="113.38582"
       width="60.074799"
       height="15.114176"
       id="rect12-6-3-6-6-1-2-5-5" />
  </defs>
  <g
     inkscape:label="Layer 1"
     inkscape:groupmode="layer"
     id="layer1">
    <path
       style="opacity:0.6;fill:#b43f24;fill-opacity:0.254902;fill-rule:evenodd;stroke:#000000;stroke-width:0.122238;paint-order:stroke markers fill"
       d="m 114.88285,67.243981 4.42891,-24.801854 19.48717,0.88578 -5.31469,27.459196 z"
       id="path6-1"
       sodipodi:nodetypes="ccccc" />
    <text
       xml:space="preserve"
       transform="matrix(0.29998432,0,0,0.29998432,64.808889,20.633147)"
       id="text12-6-6-8-98-9-3-2"
       style="white-space:pre;shape-inside:url(#rect12-6-3-6-6-1-2-5);display:inline;fill:#000000;fill-opacity:1;fill-rule:evenodd;stroke:#000000;stroke-width:0.0755906;stroke-dasharray:none;stroke-opacity:1;paint-order:stroke markers fill"><tspan
         x="198.42578"
         y="124.33468"
         id="tspan1">F1</tspan></text>
    <path
       style="opacity:0.6;fill:#ac9d93;fill-opacity:0.254902;fill-rule:evenodd;stroke:#000000;stroke-width:0.1;paint-order:stroke markers fill"
       d="m 88,119.49999 6.807182,0.0667 -0.09354,5.91058 6.202278,6.60729 9.08388,1.79456 v 13.62083 l -11.499796,-1.5 -8.499999,-12.5 z m 43.9996,0 -6.80718,0.0667 0.0935,5.91058 -6.20228,6.60729 -9.08388,1.79456 v 13.62083 l 11.4998,-1.5 8.49999,-12.5 z"
       id="path1"
       inkscape:path-effect="#path-effect1"
       inkscape:original-d="m 88,119.49999 6.807182,0.0667 -0.09354,5.91058 6.202278,6.60729 9.08388,1.79456 v 13.62083 l -11.499796,-1.5 -8.499999,-12.5 z"
       transform="matrix(1.771561,0,0,1.771561,-117.05924,-168.29019)" />
    <path
       style="opacity:0.6;fill:#2724b4;fill-opacity:0.254902;fill-rule:evenodd;stroke:#000000;stroke-width:0.122238;paint-order:stroke markers fill"
       d="m 101.59615,90.274274 c 0,0 13.2867,-22.144529 13.2867,-22.144529 l 17.71561,4.428902 -17.69531,31.005443 z"
       id="path4" />
    <text
       xml:space="preserve"
       transform="matrix(0.29998432,0,0,0.29998432,14.915083,42.781435)"
       id="text12-6-6-8-98-9-3-2-1"
       style="white-space:pre;shape-inside:url(#rect12-6-3-6-6-1-2-5-5);display:inline;fill:#000000;fill-opacity:1;fill-rule:evenodd;stroke:#000000;stroke-width:0.0755906;stroke-dasharray:none;stroke-opacity:1;paint-order:stroke markers fill"><tspan
         x="198.42578"
         y="124.33468"
         id="tspan2">Álló</tspan></text>
    <text
       xml:space="preserve"
       transform="matrix(0.19282622,-0.22980135,0.22980134,0.19282622,-35.303924,142.1526)"
       id="text12-6-6-8-98-9-7-2"
       style="white-space:pre;shape-inside:url(#rect12-6-3-6-6-1-4-2);display:inline;fill:#000000;fill-opacity:1;fill-rule:evenodd;stroke:#000000;stroke-width:0.0755906;stroke-dasharray:none;stroke-opacity:1;paint-order:stroke markers fill"><tspan
         x="198.42578"
         y="124.33468"
         id="tspan3">Bejárat</tspan></text>
    <path
       style="fill:#000000;fill-opacity:1;fill-rule:evenodd;stroke:#000000;stroke-width:0.122238;stroke-dasharray:none;stroke-opacity:1;paint-order:stroke markers fill"
       d="m 40.083912,107.59757 1.361621,1.1333 2.846863,-3.39271 1.357104,1.13872 0.241819,-4.42229 -4.313115,1.00607 1.368709,1.12492 z"
       id="path15-4-4" />
    <text
       xml:space="preserve"
       transform="matrix(0.19282623,0.22980135,-0.22980134,0.19282623,104.53552,40.708159)"
       id="text12-6-6-8-98-9-7-2-0"
       style="white-space:pre;shape-inside:url(#rect12-6-3-6-6-1-4-2-7);display:inline;fill:#000000;fill-opacity:1;fill-rule:evenodd;stroke:#000000;stroke-width:0.0755906;stroke-dasharray:none;stroke-opacity:1;paint-order:stroke markers fill"><tspan
         x="198.42578"
         y="124.33468"
         id="tspan4">Bejárat</tspan></text>
    <path
       style="fill:#000000;fill-opacity:1;fill-rule:evenodd;stroke:#000000;stroke-width:0.122238;stroke-dasharray:none;stroke-opacity:1;paint-order:stroke markers fill"
       d="m 113.48927,108.17729 1.35254,-1.14416 -2.84687,-3.39275 1.3571,-1.13873 -4.3131,-1.00606 0.24184,4.42225 1.34551,-1.15261 z"
       id="path15-4-4-0" />
    <path
       d="m 76.867321,125.01953 v -9.27931 l -31.001797,-6.43489 -4.518809,7.49685 z"
       style="opacity:0.6;fill:#24adb4;fill-opacity:0.254902;fill-rule:evenodd;stroke:#000000;stroke-width:0.122238;paint-order:stroke markers fill"
       id="path20-9-1" />
    <path
       style="opacity:0.6;fill:#24adb4;fill-opacity:0.254902;fill-rule:evenodd;stroke:#000000;stroke-width:0.122238;paint-order:stroke markers fill"
       d="m 55.092664,91.602945 22.144507,4.428891 v 17.715624 l -31.002312,-6.31858 z"
       id="path2" />
    <path
       style="opacity:0.6;fill:#2724b4;fill-opacity:0.254902;fill-rule:evenodd;stroke:#000000;stroke-width:0.122238;paint-order:stroke markers fill"
       d="m 100.29937,91.602945 -22.144513,4.428891 v 17.715624 l 31.002313,-6.31858 z"
       id="path2-7" />
    <path
       d="m 77.812698,32.093271 a 25.181639,17.189517 0 0 0 -5.603855,0.431073 25.181639,17.189517 0 0 0 -5.322,1.270849 25.181639,17.189517 0 0 0 -4.775419,2.047906 25.181639,17.189517 0 0 0 -3.987226,2.722145 25.181639,17.189517 0 0 0 -3.000191,3.259104 25.181639,17.189517 0 0 0 -1.861844,3.63349 25.181639,17.189517 0 0 0 -0.631995,3.825154 25.181639,17.189517 0 0 0 0.631995,3.824411 25.181639,17.189517 0 0 0 1.861844,3.633472 25.181639,17.189517 0 0 0 3.000191,3.259123 25.181639,17.189517 0 0 0 3.987226,2.722127 25.181639,17.189517 0 0 0 4.775419,2.047943 25.181639,17.189517 0 0 0 5.322,1.270829 25.181639,17.189517 0 0 0 5.603855,0.431075 25.181639,17.189517 0 0 0 5.602632,-0.431075 25.181639,17.189517 0 0 0 5.323257,-1.270829 25.181639,17.189517 0 0 0 4.774168,-2.047943 25.181639,17.189517 0 0 0 3.987247,-2.722127 25.181639,17.189517 0 0 0 3.000178,-3.259123 25.181639,17.189517 0 0 0 1.86186,-3.633472 25.181639,17.189517 0 0 0 0.63203,-3.824411 25.181639,17.189517 0 0 0 -0.0708,-1.284984 25.181639,17.189517 0 0 0 -0.21111,-1.277542 25.181639,17.189517 0 0 0 -0.35014,-1.262628 25.181639,17.189517 0 0 0 -0.48685,-1.241739 25.181639,17.189517 0 0 0 -0.62225,-1.213396 25.181639,17.189517 0 0 0 -0.75277,-1.178355 25.181639,17.189517 0 0 0 -0.879682,-1.136579 25.181639,17.189517 0 0 0 -1.002925,-1.088129 25.181639,17.189517 0 0 0 -1.117578,-1.034396 25.181639,17.189517 0 0 0 -1.228634,-0.974749 25.181639,17.189517 0 0 0 -1.331099,-0.908367 25.181639,17.189517 0 0 0 -1.427525,-0.839029 25.181639,17.189517 0 0 0 -1.515341,-0.762922 25.181639,17.189517 0 0 0 -1.594653,-0.683893 25.181639,17.189517 0 0 0 -1.664169,-0.601091 25.181639,17.189517 0 0 0 -1.72646,-0.513861 25.181639,17.189517 0 0 0 -1.777636,-0.424359 25.181639,17.189517 0 0 0 -1.819162,-0.332629 25.181639,17.189517 0 0 0 -1.849633,-0.239392 25.181639,17.189517 0 0 0 -1.871619,-0.143847 25.181639,17.189517 0 0 0 -1.881379,-0.04783 z"
       style="fill:#99570c;fill-opacity:0.254902;fill-rule:evenodd;stroke:#000000;stroke-width:0.127368;paint-order:stroke markers fill"
       id="path11" />
    <text
       xml:space="preserve"
       transform="matrix(0.29998432,0,0,0.29998432,11.067431,11.751162)"
       id="text12-6-6-7"
       style="white-space:pre;shape-inside:url(#rect12-6-3-8);display:inline;fill:#000000;fill-opacity:1;fill-rule:evenodd;stroke:#000000;stroke-width:0.0755906;stroke-dasharray:none;stroke-opacity:1;paint-order:stroke markers fill"><tspan
         x="198.42578"
         y="124.33468"
         id="tspan5">Színpad</tspan></text>
    <path
       style="opacity:0.6;fill:#24adb4;fill-opacity:0.254902;fill-rule:evenodd;stroke:#000000;stroke-width:0.122238;paint-order:stroke markers fill"
       d="m 53.763993,90.274274 c 0,0 -13.286707,-22.144529 -13.286707,-22.144529 l -17.71561,4.428902 17.695307,31.005443 z"
       id="path4-1" />
    <path
       style="opacity:0.6;fill:#3a961e;fill-opacity:0.254902;fill-rule:evenodd;stroke:#000000;stroke-width:0.122238;paint-order:stroke markers fill"
       d="m 40.477286,67.243981 -4.428903,-24.801854 -19.487171,0.88578 5.314683,27.459196 z"
       id="path6"
       sodipodi:nodetypes="ccccc" />
    <text
       xml:space="preserve"
       transform="matrix(0.29998432,0,0,0.29998432,54.451962,46.866814)"
       id="text12-6-6-8-98-9-3-1"
       style="white-space:pre;shape-inside:url(#rect12-6-3-6-6-1-2-3);display:inline;fill:#000000;fill-opacity:1;fill-rule:evenodd;stroke:#000000;stroke-width:0.0755906;stroke-dasharray:none;stroke-opacity:1;paint-order:stroke markers fill"><tspan
         x="198.42578"
         y="124.33468"
         id="tspan6">E1</tspan></text>
    <text
       xml:space="preserve"
       transform="matrix(0.29998432,0,0,0.29998432,28.961891,68.086873)"
       id="text12-6-6-8-98-9-3-51"
       style="white-space:pre;shape-inside:url(#rect12-6-3-6-6-1-2-93);display:inline;fill:#000000;fill-opacity:1;fill-rule:evenodd;stroke:#000000;stroke-width:0.0755906;stroke-dasharray:none;stroke-opacity:1;paint-order:stroke markers fill"><tspan
         x="198.42578"
         y="124.33468"
         id="tspan7">D1</tspan></text>
    <text
       xml:space="preserve"
       transform="matrix(0.29998432,0,0,0.29998432,2.2445377,66.680696)"
       id="text12-6-6-8-98-9-3-9"
       style="white-space:pre;shape-inside:url(#rect12-6-3-6-6-1-2-0);display:inline;fill:#000000;fill-opacity:1;fill-rule:evenodd;stroke:#000000;stroke-width:0.0755906;stroke-dasharray:none;stroke-opacity:1;paint-order:stroke markers fill"><tspan
         x="198.42578"
         y="124.33468"
         id="tspan8">C1</tspan></text>
    <path
       style="opacity:0.6;fill:#24adb4;fill-opacity:0.254902;fill-rule:evenodd;stroke:#000000;stroke-width:0.122238;paint-order:stroke markers fill"
       d="M 37.916921,104.00262 32.03711,110.49696 10.778378,75.951505 20.521964,73.294163 Z"
       id="path22-5-0"
       sodipodi:nodetypes="ccccc" />
    <text
       xml:space="preserve"
       transform="matrix(0.29998432,0,0,0.29998432,-36.2848,55.920695)"
       id="text12-6-6-8-98-9-3-9-4"
       style="white-space:pre;shape-inside:url(#rect12-6-3-6-6-1-2-0-1);display:inline;fill:#000000;fill-opacity:1;fill-rule:evenodd;stroke:#000000;stroke-width:0.0755906;stroke-dasharray:none;stroke-opacity:1;paint-order:stroke markers fill"><tspan
         x="198.42578"
         y="124.33468"
         id="tspan9">B2</tspan></text>
    <text
       xml:space="preserve"
       transform="matrix(0.29998432,0,0,0.29998432,0.01320314,81.176706)"
       id="text12-6-6-8-98-9-3-9-9"
       style="white-space:pre;shape-inside:url(#rect12-6-3-6-6-1-2-0-4);display:inline;fill:#000000;fill-opacity:1;fill-rule:evenodd;stroke:#000000;stroke-width:0.0755906;stroke-dasharray:none;stroke-opacity:1;paint-order:stroke markers fill"><tspan
         x="198.42578"
         y="124.33468"
         id="tspan10">C2</tspan></text>
    <text
       xml:space="preserve"
       transform="matrix(0.29998432,0,0,0.29998432,-22.59791,48.869139)"
       id="text12-6-6-8-98-9-3-90"
       style="white-space:pre;shape-inside:url(#rect12-6-3-6-6-1-2-47);display:inline;fill:#000000;fill-opacity:1;fill-rule:evenodd;stroke:#000000;stroke-width:0.0755906;stroke-dasharray:none;stroke-opacity:1;paint-order:stroke markers fill"><tspan
         x="198.42578"
         y="124.33468"
         id="tspan11">B1</tspan></text>
    <text
       xml:space="preserve"
       transform="matrix(0.29998432,0,0,0.29998432,-32.909872,19.339432)"
       id="text12-6-6-8-98-9-3-01"
       style="white-space:pre;shape-inside:url(#rect12-6-3-6-6-1-2-8);display:inline;fill:#000000;fill-opacity:1;fill-rule:evenodd;stroke:#000000;stroke-width:0.0755906;stroke-dasharray:none;stroke-opacity:1;paint-order:stroke markers fill"><tspan
         x="198.42578"
         y="124.33468"
         id="tspan12">A1</tspan></text>
    <path
       style="opacity:0.6;fill:#b43f24;fill-opacity:0.254902;fill-rule:evenodd;stroke:#000000;stroke-width:0.122238;paint-order:stroke markers fill"
       d="m 135.7559,71.079713 5.31468,-27.459196 10.62937,0.44289 -6.20047,29.230756 z"
       id="path23-7"
       sodipodi:nodetypes="ccccc" />
    <text
       xml:space="preserve"
       transform="matrix(0.29998432,0,0,0.29998432,81.604121,21.948728)"
       id="text12-6-6-8-98-9-3-5-2-0"
       style="white-space:pre;shape-inside:url(#rect12-6-3-6-6-1-2-4-8-9);display:inline;fill:#000000;fill-opacity:1;fill-rule:evenodd;stroke:#000000;stroke-width:0.0755906;stroke-dasharray:none;stroke-opacity:1;paint-order:stroke markers fill"><tspan
         x="198.42578"
         y="124.33468"
         id="tspan13">F2</tspan></text>
    <path
       d="m 78.52474,125.01953 v -9.27931 l 31.0018,-6.43489 4.51882,7.49685 z"
       style="opacity:0.6;fill:#2724b4;fill-opacity:0.254902;fill-rule:evenodd;stroke:#000000;stroke-width:0.122238;paint-order:stroke markers fill"
       id="path20-9" />
    <path
       style="opacity:0.6;fill:#2724b4;fill-opacity:0.254902;fill-rule:evenodd;stroke:#000000;stroke-width:0.122238;paint-order:stroke markers fill"
       d="m 117.47515,104.00262 5.87982,6.49434 21.25873,-34.545455 -9.74359,-2.657342 z"
       id="path22-5"
       sodipodi:nodetypes="ccccc" />
    <path
       style="opacity:0.6;fill:#3a961e;fill-opacity:0.254902;fill-rule:evenodd;stroke:#000000;stroke-width:0.122238;paint-order:stroke markers fill"
       d="M 19.636183,71.079713 14.3215,43.620517 3.6921347,44.063407 9.8925982,73.294163 Z"
       id="path23-7-9"
       sodipodi:nodetypes="ccccc" />
    <text
       xml:space="preserve"
       transform="matrix(0.29998432,0,0,0.29998432,68.624142,54.546247)"
       id="text12-6-6-8-98-9-3-5-2-5"
       style="white-space:pre;shape-inside:url(#rect12-6-3-6-6-1-2-4-8-18);display:inline;fill:#000000;fill-opacity:1;fill-rule:evenodd;stroke:#000000;stroke-width:0.0755906;stroke-dasharray:none;stroke-opacity:1;paint-order:stroke markers fill"><tspan
         x="198.42578"
         y="124.33468"
         id="tspan14">E2</tspan></text>
    <text
       xml:space="preserve"
       transform="matrix(0.29998432,0,0,0.29998432,33.133474,80.603978)"
       id="text12-6-6-8-98-9-3-5-2-1"
       style="white-space:pre;shape-inside:url(#rect12-6-3-6-6-1-2-4-8-0);display:inline;fill:#000000;fill-opacity:1;fill-rule:evenodd;stroke:#000000;stroke-width:0.0755906;stroke-dasharray:none;stroke-opacity:1;paint-order:stroke markers fill"><tspan
         x="198.42578"
         y="124.33468"
         id="tspan15">D2</tspan></text>
    <g
       id="g1"
       transform="matrix(1.771561,0,0,1.771561,-238.33626,-221.37557)">
      <text
         xml:space="preserve"
         transform="matrix(0.16933333,0,0,0.16933333,106.34508,137.59722)"
         id="text12-6-6-8-98-9-3-9-49"
         style="white-space:pre;shape-inside:url(#rect12-6-3-6-6-1-2-0-5);display:inline;fill:#000000;fill-opacity:1;fill-rule:evenodd;stroke:#000000;stroke-width:0.0755906;stroke-dasharray:none;stroke-opacity:1;paint-order:stroke markers fill"><tspan
           x="198.42578"
           y="124.33468"
           id="tspan16">A2</tspan></text>
    </g>
  </g>
</svg>
