<?xml version="1.0" encoding="UTF-8" standalone="no"?>
<!-- Created with Inkscape (http://www.inkscape.org/) -->

<svg
   width="210mm"
   height="297mm"
   viewBox="0 0 210 297"
   version="1.1"
   id="svg1"
   inkscape:version="1.3 (0e150ed6c4, 2023-07-21)"
   sodipodi:docname="location04.svg"
   inkscape:export-filename="location02mod.svg"
   inkscape:export-xdpi="96"
   inkscape:export-ydpi="96"
   xmlns:inkscape="http://www.inkscape.org/namespaces/inkscape"
   xmlns:sodipodi="http://sodipodi.sourceforge.net/DTD/sodipodi-0.dtd"
   xmlns="http://www.w3.org/2000/svg"
   xmlns:svg="http://www.w3.org/2000/svg">
  <sodipodi:namedview
     id="namedview1"
     pagecolor="#505050"
     bordercolor="#eeeeee"
     borderopacity="1"
     inkscape:showpageshadow="0"
     inkscape:pageopacity="0"
     inkscape:pagecheckerboard="0"
     inkscape:deskcolor="#505050"
     inkscape:document-units="mm"
     inkscape:zoom="1.4142136"
     inkscape:cx="368.40262"
     inkscape:cy="196.92923"
     inkscape:window-width="1920"
     inkscape:window-height="1017"
     inkscape:window-x="1912"
     inkscape:window-y="-8"
     inkscape:window-maximized="1"
     inkscape:current-layer="layer1"
     showgrid="true">
    <inkscape:grid
       id="grid1"
       units="mm"
       originx="0"
       originy="0"
       spacingx="0.5"
       spacingy="0.5"
       empcolor="#0099e5"
       empopacity="0.30196078"
       color="#0099e5"
       opacity="0.14901961"
       empspacing="5"
       dotted="false"
       gridanglex="30"
       gridanglez="30"
       visible="true" />
  </sodipodi:namedview>
  <defs
     id="defs1">
    <rect
       x="198.4252"
       y="113.38582"
       width="60.074799"
       height="15.114176"
       id="rect12" />
    <rect
       x="198.4252"
       y="113.38582"
       width="60.074799"
       height="15.114176"
       id="rect12-6" />
    <rect
       x="198.4252"
       y="113.38582"
       width="60.074799"
       height="15.114176"
       id="rect12-6-3" />
    <rect
       x="198.4252"
       y="113.38582"
       width="60.074799"
       height="15.114176"
       id="rect12-6-3-6" />
    <rect
       x="198.4252"
       y="113.38582"
       width="76.709038"
       height="13.718754"
       id="rect12-6-3-6-5" />
    <rect
       x="198.4252"
       y="113.38582"
       width="60.074799"
       height="15.114176"
       id="rect12-6-3-6-7" />
    <rect
       x="198.4252"
       y="113.38582"
       width="76.709038"
       height="13.718754"
       id="rect12-6-3-6-5-5" />
    <rect
       x="198.4252"
       y="113.38582"
       width="60.074799"
       height="15.114176"
       id="rect12-6-3-8" />
    <rect
       x="198.4252"
       y="113.38582"
       width="60.074799"
       height="15.114176"
       id="rect12-6-6" />
    <rect
       x="198.4252"
       y="113.38582"
       width="60.074799"
       height="15.114176"
       id="rect12-6-6-5" />
    <rect
       x="198.4252"
       y="113.38582"
       width="60.074799"
       height="15.114176"
       id="rect12-6-6-9" />
    <rect
       x="198.4252"
       y="113.38582"
       width="60.074799"
       height="15.114176"
       id="rect12-6-3-6-6" />
    <rect
       x="198.4252"
       y="113.38582"
       width="60.074799"
       height="15.114176"
       id="rect12-6-3-6-6-1" />
    <rect
       x="198.4252"
       y="113.38582"
       width="60.074799"
       height="15.114176"
       id="rect12-6-6-4" />
    <rect
       x="198.4252"
       y="113.38582"
       width="60.074799"
       height="15.114176"
       id="rect12-6-6-4-9" />
    <rect
       x="198.4252"
       y="113.38582"
       width="60.074799"
       height="15.114176"
       id="rect12-6-3-6-6-9" />
    <rect
       x="198.4252"
       y="113.38582"
       width="60.074799"
       height="15.114176"
       id="rect12-6-3-6-6-1-2" />
    <rect
       x="198.4252"
       y="113.38582"
       width="60.074799"
       height="15.114176"
       id="rect12-6-3-6-6-1-2-9" />
    <rect
       x="198.4252"
       y="113.38582"
       width="60.074799"
       height="15.114176"
       id="rect12-6-3-6-6-1-2-9-2" />
    <rect
       x="198.4252"
       y="113.38582"
       width="60.074799"
       height="15.114176"
       id="rect12-6-3-6-6-1-2-9-8" />
    <rect
       x="198.4252"
       y="113.38582"
       width="60.074799"
       height="15.114176"
       id="rect12-6-3-6-6-1-2-9-4" />
    <rect
       x="198.4252"
       y="113.38582"
       width="60.074799"
       height="15.114176"
       id="rect12-6-3-6-6-1-2-9-41" />
    <rect
       x="198.4252"
       y="113.38582"
       width="60.074799"
       height="15.114176"
       id="rect12-6-3-6-6-1-2-9-7" />
    <rect
       x="198.4252"
       y="113.38582"
       width="60.074799"
       height="15.114176"
       id="rect12-6-3-6-6-1-2-9-76" />
    <rect
       x="198.4252"
       y="113.38582"
       width="60.074799"
       height="15.114176"
       id="rect12-6-3-6-6-1-2-9-76-8" />
    <rect
       x="198.4252"
       y="113.38582"
       width="60.074799"
       height="15.114176"
       id="rect12-6-3-6-6-1-2-9-76-6" />
    <rect
       x="198.4252"
       y="113.38582"
       width="60.074799"
       height="15.114176"
       id="rect12-6-3-6-6-1-2-9-76-5" />
    <rect
       x="198.4252"
       y="113.38582"
       width="60.074799"
       height="15.114176"
       id="rect12-6-3-6-6-1-2-9-76-1" />
    <rect
       x="198.4252"
       y="113.38582"
       width="60.074799"
       height="15.114176"
       id="rect12-6-3-6-6-1-2-9-76-13" />
    <rect
       x="198.4252"
       y="113.38582"
       width="60.074799"
       height="15.114176"
       id="rect12-6-3-6-6-1-2-9-76-4" />
    <rect
       x="198.4252"
       y="113.38582"
       width="60.074799"
       height="15.114176"
       id="rect12-6-3-6-6-1-2-9-76-4-3" />
    <rect
       x="198.4252"
       y="113.38582"
       width="60.074799"
       height="15.114176"
       id="rect12-6-3-6-6-1-2-9-76-4-0" />
    <rect
       x="198.4252"
       y="113.38582"
       width="60.074799"
       height="15.114176"
       id="rect12-6-3-6-6-1-2-9-76-4-7" />
    <rect
       x="198.4252"
       y="113.38582"
       width="60.074799"
       height="15.114176"
       id="rect12-6-3-6-6-1-2-9-76-4-8" />
    <rect
       x="198.4252"
       y="113.38582"
       width="60.074799"
       height="15.114176"
       id="rect12-6-3-6-6-1-2-9-76-4-85" />
    <rect
       x="198.4252"
       y="113.38582"
       width="60.074799"
       height="15.114176"
       id="rect12-6-3-6-6-1-2-9-76-4-07" />
    <rect
       x="198.4252"
       y="113.38582"
       width="60.074799"
       height="15.114176"
       id="rect12-6-3-6-7-9" />
  </defs>
  <g
     inkscape:label="Layer 1"
     inkscape:groupmode="layer"
     id="layer1">
    <path
       style="fill:#b46024;fill-opacity:0.253041;fill-rule:evenodd;stroke:#000000;stroke-width:0.0676917;paint-order:stroke markers fill"
       d="M 87.534981,82.5958 H 125 V 94.999997 H 87.534977 Z"
       id="path2"
       sodipodi:nodetypes="ccccc" />
    <path
       d="m 110.21698,75.102201 a 14.966214,14.199667 0 0 1 0.2098,0.05116 14.966214,14.199667 0 0 1 0.79996,0.241846 14.966214,14.199667 0 0 1 0.78444,0.283704 14.966214,14.199667 0 0 1 0.76637,0.325561 14.966214,14.199667 0 0 1 0.47749,0.234094 l 7.75094,-7.205761 a 20,19.999998 0 0 0 -0.061,-0.0708 20,19.999998 0 0 0 -1.05782,-1.0573 20,19.999998 0 0 0 -1.13378,-0.975651 20,19.999998 0 0 0 -1.20303,-0.888318 20,19.999998 0 0 0 -1.26659,-0.795817 20,19.999998 0 0 0 -0.79478,-0.420129 z"
       style="opacity:0.6;fill:#8dd35f;fill-opacity:0.254902;fill-rule:evenodd;stroke:#000000;stroke-width:0.1;paint-order:stroke markers fill"
       id="path93" />
    <path
       d="m 121.47676,69.57954 -7.89255,6.82439 a 14.966214,14.199667 0 0 1 0.66198,0.37052 14.966214,14.199667 0 0 1 0.69815,0.442867 14.966214,14.199667 0 0 1 0.67076,0.479041 14.966214,14.199667 0 0 1 0.6413,0.513663 14.966214,14.199667 0 0 1 0.6103,0.547254 14.966214,14.199667 0 0 1 0.57671,0.578776 14.966214,14.199667 0 0 1 0.20206,0.227376 l 7.321,-4.118095 a 20,19.999998 0 0 0 -0.0651,-0.186552 20,19.999998 0 0 0 -0.59789,-1.370975 20,19.999998 0 0 0 -0.69919,-1.321884 20,19.999998 0 0 0 -0.79581,-1.266589 20,19.999998 0 0 0 -0.8878,-1.203544 20,19.999998 0 0 0 -0.4439,-0.516248 z"
       style="opacity:0.6;fill:#8dd35f;fill-opacity:0.254902;fill-rule:evenodd;stroke:#000000;stroke-width:0.1;paint-order:stroke markers fill"
       id="path89" />
    <path
       d="m 109.75654,74.989546 4.81831,-10.611755 a 20,19.999998 0 0 0 -0.98443,-0.429431 20,19.999998 0 0 0 -1.41129,-0.494027 20,19.999998 0 0 0 -1.44487,-0.387057 20,19.999998 0 0 0 -1.46968,-0.278019 20,19.999998 0 0 0 -1.48621,-0.167431 20,19.999998 0 0 0 -0.92449,-0.03462 l -0.31161,12.017871 a 14.966214,14.199667 0 0 1 0.58084,0.0155 14.966214,14.199667 0 0 1 0.83664,0.06718 14.966214,14.199667 0 0 1 0.83096,0.111104 14.966214,14.199667 0 0 1 0.8232,0.155546 14.966214,14.199667 0 0 1 0.14263,0.03514 z"
       style="opacity:0.6;fill:#8dd35f;fill-opacity:0.254902;fill-rule:evenodd;stroke:#000000;stroke-width:0.1;paint-order:stroke markers fill"
       id="path79" />
    <path
       d="M 102.39007,75.127005 97.098402,64.826859 a 20,19.999998 0 0 0 -1.455208,0.804085 20,19.999998 0 0 0 -1.829346,1.298112 20,19.999998 0 0 0 -1.672249,1.494483 20,19.999998 0 0 0 -0.535368,0.598929 l 7.761283,7.194393 a 14.966214,14.199667 0 0 1 0.121956,-0.0708 14.966214,14.199667 0 0 1 2.16938,-0.852661 14.966214,14.199667 0 0 1 0.73122,-0.166399 z"
       style="opacity:0.6;fill:#8dd35f;fill-opacity:0.254902;fill-rule:evenodd;stroke:#000000;stroke-width:0.1;paint-order:stroke markers fill"
       id="path74" />
    <path
       d="m 99.028517,76.414265 -7.913212,-6.841959 a 20,19.999998 0 0 0 -0.468189,0.523482 20,19.999998 0 0 0 -1.298112,1.829346 20,19.999998 0 0 0 -1.084688,1.962671 20,19.999998 0 0 0 -0.564307,1.613338 l 7.257438,4.082438 a 14.966214,14.199667 0 0 1 0.743624,-0.826306 14.966214,14.199667 0 0 1 1.785938,-1.44694 14.966214,14.199667 0 0 1 1.541508,-0.89607 z"
       style="opacity:0.6;fill:#8dd35f;fill-opacity:0.254902;fill-rule:evenodd;stroke:#000000;stroke-width:0.1;paint-order:stroke markers fill"
       id="path64" />
    <path
       d="m 105.73302,62.596504 a 20,19.999998 0 0 0 -1.68879,0.09508 20,19.999998 0 0 0 -2.21072,0.375687 20,19.999998 0 0 0 -2.155421,0.620634 20,19.999998 0 0 0 -1.681034,0.696599 l 4.832775,10.642244 a 14.966214,14.199667 0 0 1 1.1126,-0.253731 14.966214,14.199667 0 0 1 2.11046,-0.157613 z"
       style="opacity:0.6;fill:#8dd35f;fill-opacity:0.254902;fill-rule:evenodd;stroke:#000000;stroke-width:0.1;paint-order:stroke markers fill"
       id="path57" />
    <path
       d="m 140.1242,53.455977 -13.35009,11.542964 a 27,26.999996 0 0 1 0.31367,0.356051 27,26.999996 0 0 1 1.03973,1.340487 27,26.999996 0 0 1 0.95343,1.403015 27,26.999996 0 0 1 0.863,1.459859 27,26.999996 0 0 1 0.76998,1.511536 27,26.999996 0 0 1 0.39791,0.918807 l 15.44815,-8.689909 a 44.651253,44.651249 0 0 0 -0.8971,-1.781804 44.651253,44.651249 0 0 0 -1.08056,-1.90686 44.651253,44.651249 0 0 0 -1.17254,-1.851566 44.651253,44.651249 0 0 0 -1.26193,-1.791622 44.651253,44.651249 0 0 0 -1.34824,-1.727544 44.651253,44.651249 0 0 0 -0.67541,-0.783414 z"
       style="opacity:0.6;fill:#ffb380;fill-opacity:0.254902;fill-rule:evenodd;stroke:#000000;stroke-width:0.1;paint-order:stroke markers fill"
       id="path87" />
    <path
       d="m 126.74155,42.88918 -8.05739,15.706535 a 27,26.999996 0 0 1 0.6072,0.309542 27,26.999996 0 0 1 1.45986,0.863513 27,26.999996 0 0 1 1.40301,0.95343 27,26.999996 0 0 1 1.33997,1.03973 27,26.999996 0 0 1 1.27228,1.121378 27,26.999996 0 0 1 1.19941,1.19941 27,26.999996 0 0 1 0.16433,0.186552 l 12.92686,-12.016837 a 44.651253,44.651249 0 0 0 -1.19993,-1.259872 44.651253,44.651249 0 0 0 -1.5875,-1.511535 44.651253,44.651249 0 0 0 -1.65933,-1.431438 44.651253,44.651249 0 0 0 -1.72754,-1.348238 44.651253,44.651249 0 0 0 -1.79214,-1.261938 44.651253,44.651249 0 0 0 -1.85157,-1.172538 44.651253,44.651249 0 0 0 -1.90686,-1.080038 44.651253,44.651249 0 0 0 -0.59066,-0.297656 z"
       style="opacity:0.6;fill:#ffb380;fill-opacity:0.254902;fill-rule:evenodd;stroke:#000000;stroke-width:0.1;paint-order:stroke markers fill"
       id="path85" />
    <path
       d="m 117.47028,58.001436 7.29671,-16.069304 a 44.651253,44.651249 0 0 0 -1.39578,-0.619083 44.651253,44.651249 0 0 0 -2.04483,-0.78858 44.651253,44.651249 0 0 0 -2.08101,-0.6873 44.651253,44.651249 0 0 0 -2.11202,-0.58446 44.651253,44.651249 0 0 0 -2.13837,-0.48007 44.651253,44.651249 0 0 0 -2.15956,-0.37517 44.651253,44.651249 0 0 0 -2.17506,-0.26821 44.651253,44.651249 0 0 0 -2.18539,-0.16123 44.651253,44.651249 0 0 0 -0.98237,-0.0243 l -0.45734,17.645948 a 27,26.999996 0 0 1 0.94413,0.02945 27,26.999996 0 0 1 1.68827,0.15968 27,26.999996 0 0 1 1.67535,0.265101 27,26.999996 0 0 1 1.65571,0.370003 27,26.999996 0 0 1 1.62832,0.473356 27,26.999996 0 0 1 1.59629,0.574642 27,26.999996 0 0 1 1.24695,0.539502 z"
       style="opacity:0.6;fill:#ffb380;fill-opacity:0.254902;fill-rule:evenodd;stroke:#000000;stroke-width:0.1;paint-order:stroke markers fill"
       id="path83" />
    <path
       d="m 73.526197,52.264318 12.943396,11.997201 a 27,26.999996 0 0 1 0.72192,-0.788066 27,26.999996 0 0 1 1.736845,-1.591117 27,26.999996 0 0 1 1.86862,-1.434021 27,26.999996 0 0 1 1.986959,-1.265556 27,26.999996 0 0 1 1.116211,-0.58136 L 85.833973,42.901582 a 44.651253,44.651249 0 0 0 -0.949296,0.474907 44.651253,44.651249 0 0 0 -2.740918,1.626257 44.651253,44.651249 0 0 0 -2.618445,1.817977 44.651253,44.651249 0 0 0 -2.482019,1.999878 44.651253,44.651249 0 0 0 -2.332674,2.17196 44.651253,44.651249 0 0 0 -1.184424,1.271757 z"
       style="opacity:0.6;fill:#ffb380;fill-opacity:0.254902;fill-rule:evenodd;stroke:#000000;stroke-width:0.1;paint-order:stroke markers fill"
       id="path69" />
    <path
       d="M 85.808135,64.983439 72.450811,53.434273 a 44.651253,44.651249 0 0 0 -1.912028,2.372981 44.651253,44.651249 0 0 0 -1.817977,2.617929 44.651253,44.651249 0 0 0 -2.673222,4.896341 l 15.473474,8.703862 a 27,26.999996 0 0 1 1.380278,-2.959509 27,26.999996 0 0 1 1.265556,-1.986959 27,26.999996 0 0 1 1.433504,-1.86862 27,26.999996 0 0 1 0.207739,-0.226859 z"
       style="opacity:0.6;fill:#ffb380;fill-opacity:0.254902;fill-rule:evenodd;stroke:#000000;stroke-width:0.1;paint-order:stroke markers fill"
       id="path67" />
    <path
       d="m 105.07673,37.957179 a 44.651253,44.651249 0 0 0 -1.97818,0.0708 44.651253,44.651249 0 0 0 -3.169313,0.34106 44.651253,44.651249 0 0 0 -3.13676,0.56586 44.651253,44.651249 0 0 0 -3.088183,0.78807 44.651253,44.651249 0 0 0 -3.024105,1.00665 44.651253,44.651249 0 0 0 -2.883545,1.194762 l 7.30188,16.077572 a 27,26.999996 0 0 1 1.950785,-0.80822 27,26.999996 0 0 1 2.246375,-0.708484 27,26.999996 0 0 1 2.299596,-0.509529 27,26.999996 0 0 1 2.33526,-0.307475 27,26.999996 0 0 1 1.61592,-0.07028 z"
       style="opacity:0.6;fill:#ffb380;fill-opacity:0.254902;fill-rule:evenodd;stroke:#000000;stroke-width:0.1;paint-order:stroke markers fill"
       id="path53" />
    <path
       d="m 145.59621,24.332689 -11.21998,16.66668 a 34.691859,26.999996 0 0 1 1.19114,1.363745 34.691859,26.999996 0 0 1 1.10897,1.459859 34.691859,26.999996 0 0 1 0.98909,1.511536 34.691859,26.999996 0 0 1 0.5116,0.918807 l 19.84892,-8.689907 a 57.371666,44.651249 0 0 0 -1.15291,-1.78181 57.371666,44.651249 0 0 0 -1.38802,-1.90686 57.371666,44.651249 0 0 0 -1.50689,-1.85156 57.371666,44.651249 0 0 0 -1.62109,-1.79162 57.371666,44.651249 0 0 0 -1.73271,-1.72755 57.371666,44.651249 0 0 0 -1.83916,-1.65984 57.371666,44.651249 0 0 0 -1.94149,-1.58699 57.371666,44.651249 0 0 0 -1.24747,-0.92449 z"
       style="opacity:0.6;fill:#aaffee;fill-opacity:0.254902;fill-rule:evenodd;stroke:#000000;stroke-width:0.1;paint-order:stroke markers fill"
       id="path117" />
    <path
       d="m 131.49733,16.736769 -6.60528,17.31109 a 34.691859,26.999996 0 0 1 1.7756,0.93896 34.691859,26.999996 0 0 1 1.72135,1.03973 34.691859,26.999996 0 0 1 1.63504,1.12138 34.691859,26.999996 0 0 1 1.54099,1.19941 34.691859,26.999996 0 0 1 1.44125,1.27227 34.691859,26.999996 0 0 1 0.3328,0.33383 l 10.61124,-16.78089 a 57.371666,44.651249 0 0 0 -1.27848,-0.85834 57.371666,44.651249 0 0 0 -2.2195,-1.34824 57.371666,44.651249 0 0 0 -2.3027,-1.26194 57.371666,44.651249 0 0 0 -2.37918,-1.17254 57.371666,44.651249 0 0 0 -2.44998,-1.08003 57.371666,44.651249 0 0 0 -1.82315,-0.71469 z"
       style="opacity:0.6;fill:#aaffee;fill-opacity:0.254902;fill-rule:evenodd;stroke:#000000;stroke-width:0.1;paint-order:stroke markers fill"
       id="path115" />
    <path
       d="m 117.33179,13.018649 -2.77451,17.59945 a 34.691859,26.999996 0 0 1 0.34623,0.0605 34.691859,26.999996 0 0 1 2.09238,0.47335 34.691859,26.999996 0 0 1 2.05104,0.57464 34.691859,26.999996 0 0 1 1.99988,0.67335 34.691859,26.999996 0 0 1 1.942,0.76998 34.691859,26.999996 0 0 1 0.3793,0.17466 l 5.99809,-17.37516 a 57.371666,44.651249 0 0 0 -1.13533,-0.39171 57.371666,44.651249 0 0 0 -2.62723,-0.78858 57.371666,44.651249 0 0 0 -2.67374,-0.6873 57.371666,44.651249 0 0 0 -2.71353,-0.58446 57.371666,44.651249 0 0 0 -2.74764,-0.48007 57.371666,44.651249 0 0 0 -0.13694,-0.0186 z"
       style="opacity:0.6;fill:#aaffee;fill-opacity:0.254902;fill-rule:evenodd;stroke:#000000;stroke-width:0.1;paint-order:stroke markers fill"
       id="path113" />
    <path
       d="M 78.237538,40.958549 67.024785,24.302719 a 57.371666,44.651249 0 0 0 -1.317232,0.95395 57.371666,44.651249 0 0 0 -2.790527,2.33319 57.371666,44.651249 0 0 0 -2.569869,2.4815 57.371666,44.651249 0 0 0 -2.335258,2.61844 57.371666,44.651249 0 0 0 -3.434933,4.89635 l 19.881474,8.703857 a 34.691859,26.999996 0 0 1 1.773535,-2.959509 34.691859,26.999996 0 0 1 1.625741,-1.986958 34.691859,26.999996 0 0 1 0.379822,-0.38499 z"
       style="opacity:0.6;fill:#aaffee;fill-opacity:0.254902;fill-rule:evenodd;stroke:#000000;stroke-width:0.1;paint-order:stroke markers fill"
       id="path111" />
    <path
       d="m 87.738767,34.037519 -6.605799,-17.31315 a 57.371666,44.651249 0 0 0 -2.352311,0.91622 57.371666,44.651249 0 0 0 -3.522266,1.62678 57.371666,44.651249 0 0 0 -3.364135,1.81746 57.371666,44.651249 0 0 0 -3.188953,2.00039 57.371666,44.651249 0 0 0 -0.04858,0.0351 l 10.61589,16.78761 a 34.691859,26.999996 0 0 1 0.427364,-0.43305 34.691859,26.999996 0 0 1 2.044836,-1.73685 34.691859,26.999996 0 0 1 2.231388,-1.59111 34.691859,26.999996 0 0 1 2.400888,-1.43402 34.691859,26.999996 0 0 1 1.361674,-0.67542 z"
       style="opacity:0.6;fill:#aaffee;fill-opacity:0.254902;fill-rule:evenodd;stroke:#000000;stroke-width:0.1;paint-order:stroke markers fill"
       id="path109" />
    <path
       d="m 89.25547,33.315609 a 34.691859,26.999996 0 0 1 2.359029,-0.95602 34.691859,26.999996 0 0 1 2.796212,-0.90124 34.691859,26.999996 0 0 1 2.886128,-0.70848 34.691859,26.999996 0 0 1 0.775147,-0.13384 l -2.772441,-17.58756 a 57.371666,44.651249 0 0 0 -1.219047,0.17105 57.371666,44.651249 0 0 0 -3.967716,0.78807 57.371666,44.651249 0 0 0 -3.886068,1.00665 57.371666,44.651249 0 0 0 -2.96571,0.95653 z"
       style="opacity:0.6;fill:#aaffee;fill-opacity:0.254902;fill-rule:evenodd;stroke:#000000;stroke-width:0.1;paint-order:stroke markers fill"
       id="path108" />
    <path
       d="m 98.252853,12.621779 2.017967,17.61649 a 34.691859,26.999996 0 0 1 2.98121,-0.3054 34.691859,26.999996 0 0 1 3.02359,-0.10232 34.691859,26.999996 0 0 1 2.17867,0.0532 34.691859,26.999996 0 0 1 2.16938,0.15968 34.691859,26.999996 0 0 1 1.7322,0.21343 l 2.01899,-17.62528 a 57.371666,44.651249 0 0 0 -2.47581,-0.23772 57.371666,44.651249 0 0 0 -2.8081,-0.16123 57.371666,44.651249 0 0 0 -2.81533,-0.0537 57.371666,44.651249 0 0 0 -4.09277,0.11369 57.371666,44.651249 0 0 0 -3.929997,0.32918 z"
       style="opacity:0.6;fill:#aaffee;fill-opacity:0.254902;fill-rule:evenodd;stroke:#000000;stroke-width:0.1;paint-order:stroke markers fill"
       id="path100" />
    <text
       xml:space="preserve"
       transform="matrix(0.16933333,0,0,0.16933333,67.98357,68.370955)"
       id="text12-6-6-7"
       style="white-space:pre;shape-inside:url(#rect12-6-3-8);display:inline;fill:#000000;fill-opacity:1;fill-rule:evenodd;stroke:#000000;stroke-width:0.0755906;stroke-dasharray:none;stroke-opacity:1;paint-order:stroke markers fill"><tspan
         x="198.42578"
         y="124.33468"
         id="tspan2">Színpad</tspan></text>
    <text
       xml:space="preserve"
       transform="matrix(0.16933333,0,0,0.16933333,58.491641,54.786029)"
       id="text12-6-6-8-98-9-3-0"
       style="white-space:pre;shape-inside:url(#rect12-6-3-6-6-1-2-9);display:inline;fill:#000000;fill-opacity:1;fill-rule:evenodd;stroke:#000000;stroke-width:0.0755906;stroke-dasharray:none;stroke-opacity:1;paint-order:stroke markers fill"><tspan
         x="198.42578"
         y="124.33468"
         id="tspan3">A1</tspan></text>
    <text
       xml:space="preserve"
       transform="matrix(0.16933333,0,0,0.16933333,62.424254,50.28472)"
       id="text12-6-6-8-98-9-3-0-0"
       style="white-space:pre;shape-inside:url(#rect12-6-3-6-6-1-2-9-2);display:inline;fill:#000000;fill-opacity:1;fill-rule:evenodd;stroke:#000000;stroke-width:0.0755906;stroke-dasharray:none;stroke-opacity:1;paint-order:stroke markers fill"><tspan
         x="198.42578"
         y="124.33468"
         id="tspan4">A2</tspan></text>
    <text
       xml:space="preserve"
       transform="matrix(0.16933333,0,0,0.16933333,68.509671,48.168053)"
       id="text12-6-6-8-98-9-3-0-7"
       style="white-space:pre;shape-inside:url(#rect12-6-3-6-6-1-2-9-8);display:inline;fill:#000000;fill-opacity:1;fill-rule:evenodd;stroke:#000000;stroke-width:0.0755906;stroke-dasharray:none;stroke-opacity:1;paint-order:stroke markers fill"><tspan
         x="198.42578"
         y="124.33468"
         id="tspan5">A3</tspan></text>
    <text
       xml:space="preserve"
       transform="matrix(0.16933333,0,0,0.16933333,74.859671,48.168053)"
       id="text12-6-6-8-98-9-3-0-3"
       style="white-space:pre;shape-inside:url(#rect12-6-3-6-6-1-2-9-4);display:inline;fill:#000000;fill-opacity:1;fill-rule:evenodd;stroke:#000000;stroke-width:0.0755906;stroke-dasharray:none;stroke-opacity:1;paint-order:stroke markers fill"><tspan
         x="198.42578"
         y="124.33468"
         id="tspan6">A4</tspan></text>
    <text
       xml:space="preserve"
       transform="matrix(0.16933333,0,0,0.16933333,80.945087,50.813887)"
       id="text12-6-6-8-98-9-3-0-8"
       style="white-space:pre;shape-inside:url(#rect12-6-3-6-6-1-2-9-41);display:inline;fill:#000000;fill-opacity:1;fill-rule:evenodd;stroke:#000000;stroke-width:0.0755906;stroke-dasharray:none;stroke-opacity:1;paint-order:stroke markers fill"><tspan
         x="198.42578"
         y="124.33468"
         id="tspan7">A5</tspan></text>
    <text
       xml:space="preserve"
       transform="matrix(0.16933333,0,0,0.16933333,84.384671,54.782637)"
       id="text12-6-6-8-98-9-3-0-6"
       style="white-space:pre;shape-inside:url(#rect12-6-3-6-6-1-2-9-7);display:inline;fill:#000000;fill-opacity:1;fill-rule:evenodd;stroke:#000000;stroke-width:0.0755906;stroke-dasharray:none;stroke-opacity:1;paint-order:stroke markers fill"><tspan
         x="198.42578"
         y="124.33468"
         id="tspan8">A6</tspan></text>
    <text
       xml:space="preserve"
       transform="matrix(0.16933333,0,0,0.16933333,40.993004,43.670137)"
       id="text12-6-6-8-98-9-3-0-1"
       style="white-space:pre;shape-inside:url(#rect12-6-3-6-6-1-2-9-76);display:inline;fill:#000000;fill-opacity:1;fill-rule:evenodd;stroke:#000000;stroke-width:0.0755906;stroke-dasharray:none;stroke-opacity:1;paint-order:stroke markers fill"><tspan
         x="198.42578"
         y="124.33468"
         id="tspan9">B1</tspan></text>
    <text
       xml:space="preserve"
       transform="matrix(0.16933333,0,0,0.16933333,50.87453,33.61597)"
       id="text12-6-6-8-98-9-3-0-1-4"
       style="white-space:pre;shape-inside:url(#rect12-6-3-6-6-1-2-9-76-8);display:inline;fill:#000000;fill-opacity:1;fill-rule:evenodd;stroke:#000000;stroke-width:0.0755906;stroke-dasharray:none;stroke-opacity:1;paint-order:stroke markers fill"><tspan
         x="198.42578"
         y="124.33468"
         id="tspan10">B2</tspan></text>
    <text
       xml:space="preserve"
       transform="matrix(0.16933333,0,0,0.16933333,63.57453,26.207637)"
       id="text12-6-6-8-98-9-3-0-1-0"
       style="white-space:pre;shape-inside:url(#rect12-6-3-6-6-1-2-9-76-6);display:inline;fill:#000000;fill-opacity:1;fill-rule:evenodd;stroke:#000000;stroke-width:0.0755906;stroke-dasharray:none;stroke-opacity:1;paint-order:stroke markers fill"><tspan
         x="198.42578"
         y="124.33468"
         id="tspan11">B3</tspan></text>
    <text
       xml:space="preserve"
       transform="matrix(0.16933333,0,0,0.16933333,79.714113,26.207637)"
       id="text12-6-6-8-98-9-3-0-1-3"
       style="white-space:pre;shape-inside:url(#rect12-6-3-6-6-1-2-9-76-5);display:inline;fill:#000000;fill-opacity:1;fill-rule:evenodd;stroke:#000000;stroke-width:0.0755906;stroke-dasharray:none;stroke-opacity:1;paint-order:stroke markers fill"><tspan
         x="198.42578"
         y="124.33468"
         id="tspan12">B4</tspan></text>
    <text
       xml:space="preserve"
       transform="matrix(0.16933333,0,0,0.16933333,93.472446,33.61597)"
       id="text12-6-6-8-98-9-3-0-1-2"
       style="white-space:pre;shape-inside:url(#rect12-6-3-6-6-1-2-9-76-1);display:inline;fill:#000000;fill-opacity:1;fill-rule:evenodd;stroke:#000000;stroke-width:0.0755906;stroke-dasharray:none;stroke-opacity:1;paint-order:stroke markers fill"><tspan
         x="198.42578"
         y="124.33468"
         id="tspan13">B5</tspan></text>
    <text
       xml:space="preserve"
       transform="matrix(0.16933333,0,0,0.16933333,100.88078,43.670137)"
       id="text12-6-6-8-98-9-3-0-1-03"
       style="white-space:pre;shape-inside:url(#rect12-6-3-6-6-1-2-9-76-13);display:inline;fill:#000000;fill-opacity:1;fill-rule:evenodd;stroke:#000000;stroke-width:0.0755906;stroke-dasharray:none;stroke-opacity:1;paint-order:stroke markers fill"><tspan
         x="198.42578"
         y="124.33468"
         id="tspan14">B6</tspan></text>
    <text
       xml:space="preserve"
       transform="matrix(0.16933333,0,0,0.16933333,33.41203,16.15347)"
       id="text12-6-6-8-98-9-3-0-1-8"
       style="white-space:pre;shape-inside:url(#rect12-6-3-6-6-1-2-9-76-4);display:inline;fill:#000000;fill-opacity:1;fill-rule:evenodd;stroke:#000000;stroke-width:0.0755906;stroke-dasharray:none;stroke-opacity:1;paint-order:stroke markers fill"><tspan
         x="198.42578"
         y="124.33468"
         id="tspan15">C1</tspan></text>
    <text
       xml:space="preserve"
       transform="matrix(0.16933333,0,0,0.16933333,44.233721,8.0110764)"
       id="text12-6-6-8-98-9-3-0-1-8-3"
       style="white-space:pre;shape-inside:url(#rect12-6-3-6-6-1-2-9-76-4-3);display:inline;fill:#000000;fill-opacity:1;fill-rule:evenodd;stroke:#000000;stroke-width:0.0755906;stroke-dasharray:none;stroke-opacity:1;paint-order:stroke markers fill"><tspan
         x="198.42578"
         y="124.33468"
         id="tspan16">C2</tspan></text>
    <text
       xml:space="preserve"
       transform="matrix(0.16933333,0,0,0.16933333,56.335645,2.9605185)"
       id="text12-6-6-8-98-9-3-0-1-8-1"
       style="white-space:pre;shape-inside:url(#rect12-6-3-6-6-1-2-9-76-4-0);display:inline;fill:#000000;fill-opacity:1;fill-rule:evenodd;stroke:#000000;stroke-width:0.0755906;stroke-dasharray:none;stroke-opacity:1;paint-order:stroke markers fill"><tspan
         x="198.42578"
         y="124.33468"
         id="tspan17">C3</tspan></text>
    <text
       xml:space="preserve"
       transform="matrix(0.16933333,0,0,0.16933333,70.802616,1.094051)"
       id="text12-6-6-8-98-9-3-0-1-8-9"
       style="white-space:pre;shape-inside:url(#rect12-6-3-6-6-1-2-9-76-4-7);display:inline;fill:#000000;fill-opacity:1;fill-rule:evenodd;stroke:#000000;stroke-width:0.0755906;stroke-dasharray:none;stroke-opacity:1;paint-order:stroke markers fill"><tspan
         x="198.42578"
         y="124.33468"
         id="tspan18">C4</tspan></text>
    <text
       xml:space="preserve"
       transform="matrix(0.16933333,0,0,0.16933333,86.774979,2.8768999)"
       id="text12-6-6-8-98-9-3-0-1-8-8"
       style="white-space:pre;shape-inside:url(#rect12-6-3-6-6-1-2-9-76-4-8);display:inline;fill:#000000;fill-opacity:1;fill-rule:evenodd;stroke:#000000;stroke-width:0.0755906;stroke-dasharray:none;stroke-opacity:1;paint-order:stroke markers fill"><tspan
         x="198.42578"
         y="124.33468"
         id="tspan19">C5</tspan></text>
    <text
       xml:space="preserve"
       transform="matrix(0.16933333,0,0,0.16933333,98.506371,8.0362039)"
       id="text12-6-6-8-98-9-3-0-1-8-39"
       style="white-space:pre;shape-inside:url(#rect12-6-3-6-6-1-2-9-76-4-85);display:inline;fill:#000000;fill-opacity:1;fill-rule:evenodd;stroke:#000000;stroke-width:0.0755906;stroke-dasharray:none;stroke-opacity:1;paint-order:stroke markers fill"><tspan
         x="198.42578"
         y="124.33468"
         id="tspan20">C6</tspan></text>
    <text
       xml:space="preserve"
       transform="matrix(0.16933333,0,0,0.16933333,111.01928,16.175301)"
       id="text12-6-6-8-98-9-3-0-1-8-7"
       style="white-space:pre;shape-inside:url(#rect12-6-3-6-6-1-2-9-76-4-07);display:inline;fill:#000000;fill-opacity:1;fill-rule:evenodd;stroke:#000000;stroke-width:0.0755906;stroke-dasharray:none;stroke-opacity:1;paint-order:stroke markers fill"><tspan
         x="198.42578"
         y="124.33468"
         id="tspan21">C7</tspan></text>
    <rect
       style="fill:#716b67;fill-opacity:0.328467;fill-rule:evenodd;stroke:#000000;stroke-width:0.1;stroke-dasharray:none;paint-order:stroke markers fill"
       id="rect11"
       width="6.4262323"
       height="5.4975958"
       x="79.293846"
       y="86.049103" />
    <text
       xml:space="preserve"
       transform="matrix(0.16933333,0,0,0.16933333,47.101086,68.487537)"
       id="text12-6-6-8-9"
       style="white-space:pre;shape-inside:url(#rect12-6-3-6-7-9);display:inline;fill:#000000;fill-opacity:1;fill-rule:evenodd;stroke:#000000;stroke-width:0.0755906;stroke-dasharray:none;stroke-opacity:1;paint-order:stroke markers fill"><tspan
         x="198.42578"
         y="124.33468"
         id="tspan22">Mix</tspan></text>
  </g>
</svg>
