<?xml version="1.0" encoding="UTF-8" standalone="no"?>
<!-- Created with Inkscape (http://www.inkscape.org/) -->

<svg
   width="210mm"
   height="297mm"
   viewBox="0 0 210 297"
   version="1.1"
   id="svg1"
   inkscape:version="1.3 (0e150ed6c4, 2023-07-21)"
   sodipodi:docname="location06.svg"
   inkscape:export-filename="location02mod.svg"
   inkscape:export-xdpi="96"
   inkscape:export-ydpi="96"
   xmlns:inkscape="http://www.inkscape.org/namespaces/inkscape"
   xmlns:sodipodi="http://sodipodi.sourceforge.net/DTD/sodipodi-0.dtd"
   xmlns="http://www.w3.org/2000/svg"
   xmlns:svg="http://www.w3.org/2000/svg">
  <sodipodi:namedview
     id="namedview1"
     pagecolor="#505050"
     bordercolor="#eeeeee"
     borderopacity="1"
     inkscape:showpageshadow="0"
     inkscape:pageopacity="0"
     inkscape:pagecheckerboard="0"
     inkscape:deskcolor="#505050"
     inkscape:document-units="mm"
     inkscape:zoom="2"
     inkscape:cx="371.5"
     inkscape:cy="502.75"
     inkscape:window-width="1920"
     inkscape:window-height="1017"
     inkscape:window-x="1912"
     inkscape:window-y="-8"
     inkscape:window-maximized="1"
     inkscape:current-layer="layer1"
     showgrid="true">
    <inkscape:grid
       id="grid1"
       units="mm"
       originx="0"
       originy="0"
       spacingx="0.5"
       spacingy="0.5"
       empcolor="#0099e5"
       empopacity="0.30196078"
       color="#0099e5"
       opacity="0.14901961"
       empspacing="5"
       dotted="false"
       gridanglex="30"
       gridanglez="30"
       visible="true" />
  </sodipodi:namedview>
  <defs
     id="defs1">
    <inkscape:path-effect
       effect="mirror_symmetry"
       start_point="109.9998,119.49999"
       end_point="109.9998,147.49995"
       center_point="109.9998,133.49997"
       id="path-effect1"
       is_visible="true"
       lpeversion="1.2"
       lpesatellites=""
       mode="free"
       discard_orig_path="false"
       fuse_paths="false"
       oposite_fuse="false"
       split_items="false"
       split_open="false"
       link_styles="false" />
    <rect
       x="198.4252"
       y="113.38582"
       width="60.074799"
       height="15.114176"
       id="rect12" />
    <rect
       x="198.4252"
       y="113.38582"
       width="60.074799"
       height="15.114176"
       id="rect12-6" />
    <rect
       x="198.4252"
       y="113.38582"
       width="60.074799"
       height="15.114176"
       id="rect12-6-3" />
    <rect
       x="198.4252"
       y="113.38582"
       width="60.074799"
       height="15.114176"
       id="rect12-6-3-6" />
    <rect
       x="198.4252"
       y="113.38582"
       width="76.709038"
       height="13.718754"
       id="rect12-6-3-6-5" />
    <rect
       x="198.4252"
       y="113.38582"
       width="60.074799"
       height="15.114176"
       id="rect12-6-3-6-7" />
    <rect
       x="198.4252"
       y="113.38582"
       width="76.709038"
       height="13.718754"
       id="rect12-6-3-6-5-5" />
    <rect
       x="198.4252"
       y="113.38582"
       width="60.074799"
       height="15.114176"
       id="rect12-6-3-8" />
    <rect
       x="198.4252"
       y="113.38582"
       width="60.074799"
       height="15.114176"
       id="rect12-6-6" />
    <rect
       x="198.4252"
       y="113.38582"
       width="60.074799"
       height="15.114176"
       id="rect12-6-6-5" />
    <rect
       x="198.4252"
       y="113.38582"
       width="60.074799"
       height="15.114176"
       id="rect12-6-6-9" />
    <rect
       x="198.4252"
       y="113.38582"
       width="60.074799"
       height="15.114176"
       id="rect12-6-3-6-6" />
    <rect
       x="198.4252"
       y="113.38582"
       width="60.074799"
       height="15.114176"
       id="rect12-6-3-6-6-1" />
    <rect
       x="198.4252"
       y="113.38582"
       width="60.074799"
       height="15.114176"
       id="rect12-6-6-4" />
    <rect
       x="198.4252"
       y="113.38582"
       width="60.074799"
       height="15.114176"
       id="rect12-6-6-4-9" />
    <rect
       x="198.4252"
       y="113.38582"
       width="60.074799"
       height="15.114176"
       id="rect12-6-3-6-6-9" />
    <rect
       x="198.4252"
       y="113.38582"
       width="60.074799"
       height="15.114176"
       id="rect12-6-3-7" />
    <rect
       x="198.4252"
       y="113.38582"
       width="60.074799"
       height="15.114176"
       id="rect12-6-3-6-6-1-2" />
    <rect
       x="198.4252"
       y="113.38582"
       width="60.074799"
       height="15.114176"
       id="rect12-6-3-6-6-1-2-9" />
    <rect
       x="198.4252"
       y="113.38582"
       width="60.074799"
       height="15.114176"
       id="rect12-6-3-6-6-1-2-2" />
    <rect
       x="198.4252"
       y="113.38582"
       width="60.074799"
       height="15.114176"
       id="rect12-6-3-6-6-1-2-4" />
    <rect
       x="198.4252"
       y="113.38582"
       width="60.074799"
       height="15.114176"
       id="rect12-6-3-6-6-1-2-5" />
    <rect
       x="198.4252"
       y="113.38582"
       width="60.074799"
       height="15.114176"
       id="rect12-6-3-6-6-1-2-3" />
    <rect
       x="198.4252"
       y="113.38582"
       width="60.074799"
       height="15.114176"
       id="rect12-6-3-6-6-1-2-93" />
    <rect
       x="198.4252"
       y="113.38582"
       width="60.074799"
       height="15.114176"
       id="rect12-6-3-6-6-1-2-0" />
    <rect
       x="198.4252"
       y="113.38582"
       width="60.074799"
       height="15.114176"
       id="rect12-6-3-6-6-1-2-47" />
    <rect
       x="198.4252"
       y="113.38582"
       width="60.074799"
       height="15.114176"
       id="rect12-6-3-6-6-1-2-8" />
    <rect
       x="198.4252"
       y="113.38582"
       width="60.074799"
       height="15.114176"
       id="rect12-6-3-6-6-1-2-51" />
    <rect
       x="198.4252"
       y="113.38582"
       width="60.074799"
       height="15.114176"
       id="rect12-6-3-6-6-1-2-35" />
    <rect
       x="198.4252"
       y="113.38582"
       width="60.074799"
       height="15.114176"
       id="rect12-6-3-6-6-1-4" />
    <rect
       x="198.4252"
       y="113.38582"
       width="60.074799"
       height="15.114176"
       id="rect12-6-3-6-6-1-4-2" />
    <rect
       x="198.4252"
       y="113.38582"
       width="60.074799"
       height="15.114176"
       id="rect12-6-3-6-6-1-4-2-7" />
    <rect
       x="198.4252"
       y="113.38582"
       width="60.074799"
       height="15.114176"
       id="rect12-6-3-6-6-1-4-2-6" />
    <rect
       x="198.4252"
       y="113.38582"
       width="60.074799"
       height="15.114176"
       id="rect12-6-3-6-6-1-4-2-2" />
    <rect
       x="198.4252"
       y="113.38582"
       width="60.074799"
       height="15.114176"
       id="rect12-6-3-6-6-1-4-2-4" />
    <rect
       x="198.4252"
       y="113.38582"
       width="60.074799"
       height="15.114176"
       id="rect12-6-3-6-6-1-4-2-7-2" />
    <rect
       x="198.4252"
       y="113.38582"
       width="60.074799"
       height="15.114176"
       id="rect12-6-3-6-6-1-4-2-7-2-6" />
    <rect
       x="198.4252"
       y="113.38582"
       width="60.074799"
       height="15.114176"
       id="rect12-6-3-6-6-1-2-2-7" />
    <rect
       x="198.4252"
       y="113.38582"
       width="60.074799"
       height="15.114176"
       id="rect12-6-3-6-6-1-2-2-7-1" />
    <rect
       x="198.4252"
       y="113.38582"
       width="60.074799"
       height="15.114176"
       id="rect12-6-3-6-6-1-2-2-7-9" />
    <rect
       x="198.4252"
       y="113.38582"
       width="60.074799"
       height="15.114176"
       id="rect12-6-3-6-6-1-2-4-8" />
    <rect
       x="198.4252"
       y="113.38582"
       width="60.074799"
       height="15.114176"
       id="rect12-6-3-6-6-1-2-4-8-1" />
    <rect
       x="198.4252"
       y="113.38582"
       width="60.074799"
       height="15.114176"
       id="rect12-6-3-6-6-1-2-2-7-9-3" />
    <rect
       x="198.4252"
       y="113.38582"
       width="60.074799"
       height="15.114176"
       id="rect12-6-3-6-6-1-2-2-7-13" />
    <rect
       x="198.4252"
       y="113.38582"
       width="60.074799"
       height="15.114176"
       id="rect12-6-3-6-6-1-2-4-8-9" />
    <rect
       x="198.4252"
       y="113.38582"
       width="60.074799"
       height="15.114176"
       id="rect12-6-3-6-6-1-2-4-8-18" />
    <rect
       x="198.4252"
       y="113.38582"
       width="60.074799"
       height="15.114176"
       id="rect12-6-3-6-6-1-2-4-8-0" />
    <rect
       x="198.4252"
       y="113.38582"
       width="60.074799"
       height="15.114176"
       id="rect12-6-3-6-6-1-2-0-1" />
    <rect
       x="198.4252"
       y="113.38582"
       width="60.074799"
       height="15.114176"
       id="rect12-6-3-6-6-1-2-0-4" />
    <rect
       x="198.4252"
       y="113.38582"
       width="60.074799"
       height="15.114176"
       id="rect12-6-3-6-6-1-2-0-5" />
    <rect
       x="198.4252"
       y="113.38582"
       width="60.074799"
       height="15.114176"
       id="rect12-6-3-6-6-1-2-0-3" />
    <rect
       x="198.4252"
       y="113.38582"
       width="60.074799"
       height="15.114176"
       id="rect12-6-3-6-6-1-2-0-5-4" />
    <rect
       x="198.4252"
       y="113.38582"
       width="60.074799"
       height="15.114176"
       id="rect12-6-3-6-6-1-2-0-3-4" />
    <rect
       x="198.4252"
       y="113.38582"
       width="60.074799"
       height="15.114176"
       id="rect12-6-3-6-6-1-2-5-5" />
  </defs>
  <g
     inkscape:label="Layer 1"
     inkscape:groupmode="layer"
     id="layer1">
    <path
       style="opacity:0.6;fill:#b43f24;fill-opacity:0.254902;fill-rule:evenodd;stroke:#000000;stroke-width:0.0689999;paint-order:stroke markers fill"
       d="m 130.92526,132.9529 2.5,-14 11,0.5 -3,15.5 z"
       id="path6-1"
       sodipodi:nodetypes="ccccc" />
    <text
       xml:space="preserve"
       transform="matrix(0.16933333,0,0,0.16933333,102.65982,106.6423)"
       id="text12-6-6-8-98-9-3-2"
       style="white-space:pre;shape-inside:url(#rect12-6-3-6-6-1-2-5);display:inline;fill:#000000;fill-opacity:1;fill-rule:evenodd;stroke:#000000;stroke-width:0.0755906;stroke-dasharray:none;stroke-opacity:1;paint-order:stroke markers fill"><tspan
         x="198.42578"
         y="124.33468"
         id="tspan2">F1</tspan></text>
    <path
       style="opacity:0.6;fill:#ac9d93;fill-opacity:0.254902;fill-rule:evenodd;stroke:#000000;stroke-width:0.1;paint-order:stroke markers fill"
       d="m 88,119.49999 6.807182,0.0667 -0.09354,5.91058 6.202278,6.60729 9.08388,1.79456 v 13.62083 l -11.499796,-1.5 -8.499999,-12.5 z m 43.9996,0 -6.80718,0.0667 0.0935,5.91058 -6.20228,6.60729 -9.08388,1.79456 v 13.62083 l 11.4998,-1.5 8.49999,-12.5 z"
       id="path1"
       inkscape:path-effect="#path-effect1"
       inkscape:original-d="m 88,119.49999 6.807182,0.0667 -0.09354,5.91058 6.202278,6.60729 9.08388,1.79456 v 13.62083 l -11.499796,-1.5 -8.499999,-12.5 z" />
    <path
       style="opacity:0.6;fill:#2724b4;fill-opacity:0.254902;fill-rule:evenodd;stroke:#000000;stroke-width:0.0689999;paint-order:stroke markers fill"
       d="m 123.42526,145.9529 c 0,0 7.5,-12.50001 7.5,-12.50001 l 10,2.5 -9.98854,17.50175 z"
       id="path4" />
    <text
       xml:space="preserve"
       transform="matrix(0.16933333,0,0,0.16933333,74.496066,119.14443)"
       id="text12-6-6-8-98-9-3-2-1"
       style="white-space:pre;shape-inside:url(#rect12-6-3-6-6-1-2-5-5);display:inline;fill:#000000;fill-opacity:1;fill-rule:evenodd;stroke:#000000;stroke-width:0.0755906;stroke-dasharray:none;stroke-opacity:1;paint-order:stroke markers fill"><tspan
         x="198.42578"
         y="124.33468"
         id="tspan3">Álló</tspan></text>
    <text
       xml:space="preserve"
       transform="matrix(0.10884537,-0.12971686,0.12971686,0.10884537,46.148746,175.23686)"
       id="text12-6-6-8-98-9-7-2"
       style="white-space:pre;shape-inside:url(#rect12-6-3-6-6-1-4-2);display:inline;fill:#000000;fill-opacity:1;fill-rule:evenodd;stroke:#000000;stroke-width:0.0755906;stroke-dasharray:none;stroke-opacity:1;paint-order:stroke markers fill"><tspan
         x="198.42578"
         y="124.33468"
         id="tspan4">Bejárat</tspan></text>
    <path
       style="fill:#000000;fill-opacity:1;fill-rule:evenodd;stroke:#000000;stroke-width:0.0689999;stroke-dasharray:none;stroke-opacity:1;paint-order:stroke markers fill"
       d="m 88.703213,155.73144 0.7686,0.63972 1.60698,-1.9151 0.76605,0.64278 0.1365,-2.49626 -2.43464,0.5679 0.7726,0.63498 z"
       id="path15-4-4" />
    <text
       xml:space="preserve"
       transform="matrix(0.10884538,0.12971686,-0.12971686,0.10884538,125.08447,117.97412)"
       id="text12-6-6-8-98-9-7-2-0"
       style="white-space:pre;shape-inside:url(#rect12-6-3-6-6-1-4-2-7);display:inline;fill:#000000;fill-opacity:1;fill-rule:evenodd;stroke:#000000;stroke-width:0.0755906;stroke-dasharray:none;stroke-opacity:1;paint-order:stroke markers fill"><tspan
         x="198.42578"
         y="124.33468"
         id="tspan5">Bejárat</tspan></text>
    <path
       style="fill:#000000;fill-opacity:1;fill-rule:evenodd;stroke:#000000;stroke-width:0.0689999;stroke-dasharray:none;stroke-opacity:1;paint-order:stroke markers fill"
       d="m 130.13862,156.05868 0.76347,-0.64584 -1.60697,-1.91512 0.76604,-0.64279 -2.43463,-0.5679 0.13651,2.49626 0.7595,-0.65062 z"
       id="path15-4-4-0" />
    <path
       d="m 109.46649,165.56569 v -5.23793 l -17.499707,-3.63233 -2.55075,4.23178 z"
       style="opacity:0.6;fill:#24adb4;fill-opacity:0.254902;fill-rule:evenodd;stroke:#000000;stroke-width:0.0689999;paint-order:stroke markers fill"
       id="path20-9-1" />
    <path
       style="opacity:0.6;fill:#24adb4;fill-opacity:0.254902;fill-rule:evenodd;stroke:#000000;stroke-width:0.0689999;paint-order:stroke markers fill"
       d="m 97.175263,146.7029 12.499997,2.49999 v 10 l -17.499997,-3.56666 z"
       id="path2" />
    <path
       style="opacity:0.6;fill:#2724b4;fill-opacity:0.254902;fill-rule:evenodd;stroke:#000000;stroke-width:0.0689999;paint-order:stroke markers fill"
       d="m 122.69327,146.7029 -12.5,2.49999 v 10 l 17.5,-3.56666 z"
       id="path2-7" />
    <path
       d="m 110.00013,113.11124 a 14.214378,9.7030342 0 0 0 -3.16323,0.24333 14.214378,9.7030342 0 0 0 -3.00413,0.71736 14.214378,9.7030342 0 0 0 -2.6956,1.15599 14.214378,9.7030342 0 0 0 -2.250685,1.53658 14.214378,9.7030342 0 0 0 -1.69353,1.83968 14.214378,9.7030342 0 0 0 -1.050962,2.05101 14.214378,9.7030342 0 0 0 -0.356744,2.1592 14.214378,9.7030342 0 0 0 0.356744,2.15878 14.214378,9.7030342 0 0 0 1.050962,2.051 14.214378,9.7030342 0 0 0 1.69353,1.83969 14.214378,9.7030342 0 0 0 2.250685,1.53657 14.214378,9.7030342 0 0 0 2.6956,1.15601 14.214378,9.7030342 0 0 0 3.00413,0.71735 14.214378,9.7030342 0 0 0 3.16323,0.24333 14.214378,9.7030342 0 0 0 3.16254,-0.24333 14.214378,9.7030342 0 0 0 3.00484,-0.71735 14.214378,9.7030342 0 0 0 2.69489,-1.15601 14.214378,9.7030342 0 0 0 2.2507,-1.53657 14.214378,9.7030342 0 0 0 1.69352,-1.83969 14.214378,9.7030342 0 0 0 1.05098,-2.051 14.214378,9.7030342 0 0 0 0.35675,-2.15878 14.214378,9.7030342 0 0 0 -0.04,-0.72534 14.214378,9.7030342 0 0 0 -0.11916,-0.72114 14.214378,9.7030342 0 0 0 -0.19765,-0.71272 14.214378,9.7030342 0 0 0 -0.2748,-0.70093 14.214378,9.7030342 0 0 0 -0.35124,-0.68493 14.214378,9.7030342 0 0 0 -0.42494,-0.66515 14.214378,9.7030342 0 0 0 -0.49654,-0.64157 14.214378,9.7030342 0 0 0 -0.56613,-0.61422 14.214378,9.7030342 0 0 0 -0.63085,-0.58389 14.214378,9.7030342 0 0 0 -0.69353,-0.55022 14.214378,9.7030342 0 0 0 -0.75137,-0.51275 14.214378,9.7030342 0 0 0 -0.8058,-0.47361 14.214378,9.7030342 0 0 0 -0.85537,-0.43065 14.214378,9.7030342 0 0 0 -0.90014,-0.38604 14.214378,9.7030342 0 0 0 -0.93938,-0.3393 14.214378,9.7030342 0 0 0 -0.97454,-0.29006 14.214378,9.7030342 0 0 0 -1.00343,-0.23954 14.214378,9.7030342 0 0 0 -1.02687,-0.18776 14.214378,9.7030342 0 0 0 -1.04407,-0.13513 14.214378,9.7030342 0 0 0 -1.05648,-0.0812 14.214378,9.7030342 0 0 0 -1.06199,-0.027 z"
       style="fill:#99570c;fill-opacity:0.254902;fill-rule:evenodd;stroke:#000000;stroke-width:0.0718957;paint-order:stroke markers fill"
       id="path11" />
    <text
       xml:space="preserve"
       transform="matrix(0.16933333,0,0,0.16933333,72.324167,101.62865)"
       id="text12-6-6-7"
       style="white-space:pre;shape-inside:url(#rect12-6-3-8);display:inline;fill:#000000;fill-opacity:1;fill-rule:evenodd;stroke:#000000;stroke-width:0.0755906;stroke-dasharray:none;stroke-opacity:1;paint-order:stroke markers fill"><tspan
         x="198.42578"
         y="124.33468"
         id="tspan6">Színpad</tspan></text>
    <path
       style="opacity:0.6;fill:#24adb4;fill-opacity:0.254902;fill-rule:evenodd;stroke:#000000;stroke-width:0.0689999;paint-order:stroke markers fill"
       d="m 96.425263,145.9529 c 0,0 -7.5,-12.50001 -7.5,-12.50001 l -10,2.5 9.98854,17.50175 z"
       id="path4-1" />
    <path
       style="opacity:0.6;fill:#3a961e;fill-opacity:0.254902;fill-rule:evenodd;stroke:#000000;stroke-width:0.0689999;paint-order:stroke markers fill"
       d="m 88.925263,132.9529 -2.5,-14 -11,0.5 3,15.5 z"
       id="path6"
       sodipodi:nodetypes="ccccc" />
    <text
       xml:space="preserve"
       transform="matrix(0.16933333,0,0,0.16933333,96.813603,121.45052)"
       id="text12-6-6-8-98-9-3-1"
       style="white-space:pre;shape-inside:url(#rect12-6-3-6-6-1-2-3);display:inline;fill:#000000;fill-opacity:1;fill-rule:evenodd;stroke:#000000;stroke-width:0.0755906;stroke-dasharray:none;stroke-opacity:1;paint-order:stroke markers fill"><tspan
         x="198.42578"
         y="124.33468"
         id="tspan7">E1</tspan></text>
    <text
       xml:space="preserve"
       transform="matrix(0.16933333,0,0,0.16933333,82.425123,133.42869)"
       id="text12-6-6-8-98-9-3-51"
       style="white-space:pre;shape-inside:url(#rect12-6-3-6-6-1-2-93);display:inline;fill:#000000;fill-opacity:1;fill-rule:evenodd;stroke:#000000;stroke-width:0.0755906;stroke-dasharray:none;stroke-opacity:1;paint-order:stroke markers fill"><tspan
         x="198.42578"
         y="124.33468"
         id="tspan8">D1</tspan></text>
    <text
       xml:space="preserve"
       transform="matrix(0.16933333,0,0,0.16933333,67.343873,132.63494)"
       id="text12-6-6-8-98-9-3-9"
       style="white-space:pre;shape-inside:url(#rect12-6-3-6-6-1-2-0);display:inline;fill:#000000;fill-opacity:1;fill-rule:evenodd;stroke:#000000;stroke-width:0.0755906;stroke-dasharray:none;stroke-opacity:1;paint-order:stroke markers fill"><tspan
         x="198.42578"
         y="124.33468"
         id="tspan9">C1</tspan></text>
    <path
       style="opacity:0.6;fill:#24adb4;fill-opacity:0.254902;fill-rule:evenodd;stroke:#000000;stroke-width:0.0689999;paint-order:stroke markers fill"
       d="m 87.480003,153.70219 -3.319,3.66588 -12,-19.5 5.5,-1.5 z"
       id="path22-5-0"
       sodipodi:nodetypes="ccccc" />
    <text
       xml:space="preserve"
       transform="matrix(0.16933333,0,0,0.16933333,45.595067,126.5612)"
       id="text12-6-6-8-98-9-3-9-4"
       style="white-space:pre;shape-inside:url(#rect12-6-3-6-6-1-2-0-1);display:inline;fill:#000000;fill-opacity:1;fill-rule:evenodd;stroke:#000000;stroke-width:0.0755906;stroke-dasharray:none;stroke-opacity:1;paint-order:stroke markers fill"><tspan
         x="198.42578"
         y="124.33468"
         id="tspan10">B2</tspan></text>
    <text
       xml:space="preserve"
       transform="matrix(0.16933333,0,0,0.16933333,66.084343,140.81756)"
       id="text12-6-6-8-98-9-3-9-9"
       style="white-space:pre;shape-inside:url(#rect12-6-3-6-6-1-2-0-4);display:inline;fill:#000000;fill-opacity:1;fill-rule:evenodd;stroke:#000000;stroke-width:0.0755906;stroke-dasharray:none;stroke-opacity:1;paint-order:stroke markers fill"><tspan
         x="198.42578"
         y="124.33468"
         id="tspan11">C2</tspan></text>
    <text
       xml:space="preserve"
       transform="matrix(0.16933333,0,0,0.16933333,53.32096,122.58078)"
       id="text12-6-6-8-98-9-3-90"
       style="white-space:pre;shape-inside:url(#rect12-6-3-6-6-1-2-47);display:inline;fill:#000000;fill-opacity:1;fill-rule:evenodd;stroke:#000000;stroke-width:0.0755906;stroke-dasharray:none;stroke-opacity:1;paint-order:stroke markers fill"><tspan
         x="198.42578"
         y="124.33468"
         id="tspan12">B1</tspan></text>
    <text
       xml:space="preserve"
       transform="matrix(0.16933333,0,0,0.16933333,47.500126,105.91203)"
       id="text12-6-6-8-98-9-3-01"
       style="white-space:pre;shape-inside:url(#rect12-6-3-6-6-1-2-8);display:inline;fill:#000000;fill-opacity:1;fill-rule:evenodd;stroke:#000000;stroke-width:0.0755906;stroke-dasharray:none;stroke-opacity:1;paint-order:stroke markers fill"><tspan
         x="198.42578"
         y="124.33468"
         id="tspan13">A1</tspan></text>
    <path
       style="opacity:0.6;fill:#b43f24;fill-opacity:0.254902;fill-rule:evenodd;stroke:#000000;stroke-width:0.0689999;paint-order:stroke markers fill"
       d="m 142.70755,135.11807 3,-15.5 6,0.25 -3.5,16.5 z"
       id="path23-7"
       sodipodi:nodetypes="ccccc" />
    <text
       xml:space="preserve"
       transform="matrix(0.16933333,0,0,0.16933333,112.14029,107.38491)"
       id="text12-6-6-8-98-9-3-5-2-0"
       style="white-space:pre;shape-inside:url(#rect12-6-3-6-6-1-2-4-8-9);display:inline;fill:#000000;fill-opacity:1;fill-rule:evenodd;stroke:#000000;stroke-width:0.0755906;stroke-dasharray:none;stroke-opacity:1;paint-order:stroke markers fill"><tspan
         x="198.42578"
         y="124.33468"
         id="tspan14">F2</tspan></text>
    <path
       d="m 110.40206,165.56569 v -5.23793 l 17.49971,-3.63233 2.55075,4.23178 z"
       style="opacity:0.6;fill:#2724b4;fill-opacity:0.254902;fill-rule:evenodd;stroke:#000000;stroke-width:0.0689999;paint-order:stroke markers fill"
       id="path20-9" />
    <path
       style="opacity:0.6;fill:#2724b4;fill-opacity:0.254902;fill-rule:evenodd;stroke:#000000;stroke-width:0.0689999;paint-order:stroke markers fill"
       d="m 132.38855,153.70219 3.319,3.66588 12,-19.5 -5.5,-1.5 z"
       id="path22-5"
       sodipodi:nodetypes="ccccc" />
    <path
       style="opacity:0.6;fill:#3a961e;fill-opacity:0.254902;fill-rule:evenodd;stroke:#000000;stroke-width:0.0689999;paint-order:stroke markers fill"
       d="m 77.161003,135.11807 -3,-15.5 -6,0.25 3.5,16.5 z"
       id="path23-7-9"
       sodipodi:nodetypes="ccccc" />
    <text
       xml:space="preserve"
       transform="matrix(0.16933333,0,0,0.16933333,104.81343,125.78536)"
       id="text12-6-6-8-98-9-3-5-2-5"
       style="white-space:pre;shape-inside:url(#rect12-6-3-6-6-1-2-4-8-18);display:inline;fill:#000000;fill-opacity:1;fill-rule:evenodd;stroke:#000000;stroke-width:0.0755906;stroke-dasharray:none;stroke-opacity:1;paint-order:stroke markers fill"><tspan
         x="198.42578"
         y="124.33468"
         id="tspan15">E2</tspan></text>
    <text
       xml:space="preserve"
       transform="matrix(0.16933333,0,0,0.16933333,84.779873,140.49427)"
       id="text12-6-6-8-98-9-3-5-2-1"
       style="white-space:pre;shape-inside:url(#rect12-6-3-6-6-1-2-4-8-0);display:inline;fill:#000000;fill-opacity:1;fill-rule:evenodd;stroke:#000000;stroke-width:0.0755906;stroke-dasharray:none;stroke-opacity:1;paint-order:stroke markers fill"><tspan
         x="198.42578"
         y="124.33468"
         id="tspan16">D2</tspan></text>
    <g
       id="g1"
       transform="translate(-68.457715,-29.965316)">
      <text
         xml:space="preserve"
         transform="matrix(0.16933333,0,0,0.16933333,106.34508,137.59722)"
         id="text12-6-6-8-98-9-3-9-49"
         style="white-space:pre;shape-inside:url(#rect12-6-3-6-6-1-2-0-5);display:inline;fill:#000000;fill-opacity:1;fill-rule:evenodd;stroke:#000000;stroke-width:0.0755906;stroke-dasharray:none;stroke-opacity:1;paint-order:stroke markers fill"><tspan
           x="198.42578"
           y="124.33468"
           id="tspan17">A2</tspan></text>
    </g>
  </g>
</svg>
