<?xml version="1.0" encoding="UTF-8" standalone="no"?>
<!-- Created with Inkscape (http://www.inkscape.org/) -->

<svg
   width="158.75mm"
   height="158.75mm"
   viewBox="0 0 158.75 158.75"
   version="1.1"
   id="svg1"
   inkscape:version="1.3 (0e150ed6c4, 2023-07-21)"
   sodipodi:docname="location09.svg"
   inkscape:export-filename="location02mod.svg"
   inkscape:export-xdpi="96"
   inkscape:export-ydpi="96"
   xmlns:inkscape="http://www.inkscape.org/namespaces/inkscape"
   xmlns:sodipodi="http://sodipodi.sourceforge.net/DTD/sodipodi-0.dtd"
   xmlns="http://www.w3.org/2000/svg"
   xmlns:svg="http://www.w3.org/2000/svg">
  <sodipodi:namedview
     id="namedview1"
     pagecolor="#505050"
     bordercolor="#eeeeee"
     borderopacity="1"
     inkscape:showpageshadow="0"
     inkscape:pageopacity="0"
     inkscape:pagecheckerboard="0"
     inkscape:deskcolor="#505050"
     inkscape:document-units="mm"
     inkscape:zoom="2"
     inkscape:cx="365.5"
     inkscape:cy="579.75"
     inkscape:window-width="1920"
     inkscape:window-height="1017"
     inkscape:window-x="1912"
     inkscape:window-y="-8"
     inkscape:window-maximized="1"
     inkscape:current-layer="layer1"
     showgrid="true">
    <inkscape:grid
       id="grid1"
       units="mm"
       originx="0"
       originy="0"
       spacingx="0.5"
       spacingy="0.5"
       empcolor="#0099e5"
       empopacity="0.30196078"
       color="#0099e5"
       opacity="0.14901961"
       empspacing="5"
       dotted="false"
       gridanglex="30"
       gridanglez="30"
       visible="true" />
  </sodipodi:namedview>
  <defs
     id="defs1">
    <rect
       x="198.4252"
       y="113.38582"
       width="60.074799"
       height="15.114176"
       id="rect12-6-3-8" />
    <rect
       x="198.4252"
       y="113.38582"
       width="60.074799"
       height="15.114176"
       id="rect12-6-3-6-6-1-2-5" />
    <rect
       x="198.4252"
       y="113.38582"
       width="60.074799"
       height="15.114176"
       id="rect12-6-3-6-6-1-2-3" />
    <rect
       x="198.4252"
       y="113.38582"
       width="60.074799"
       height="15.114176"
       id="rect12-6-3-6-6-1-2-0" />
    <rect
       x="198.4252"
       y="113.38582"
       width="60.074799"
       height="15.114176"
       id="rect12-6-3-6-6-1-4-2-7" />
    <rect
       x="198.4252"
       y="113.38582"
       width="60.074799"
       height="15.114176"
       id="rect12-6-3-6-6-1-2-5-5" />
    <rect
       x="198.4252"
       y="113.38582"
       width="60.074799"
       height="15.114176"
       id="rect12-6-3-6-6-1-2-0-5-0" />
    <rect
       x="198.4252"
       y="113.38582"
       width="60.074799"
       height="15.114176"
       id="rect12-6-3-6-7-4" />
    <rect
       x="198.4252"
       y="113.38582"
       width="60.074799"
       height="15.114176"
       id="rect12-6-6-9-4" />
    <rect
       x="198.4252"
       y="113.38582"
       width="60.074799"
       height="15.114176"
       id="rect12-6-6-9-4-3" />
    <rect
       x="198.4252"
       y="113.38582"
       width="60.074799"
       height="15.114176"
       id="rect12-6-6-9-4-3-6" />
  </defs>
  <g
     inkscape:label="Layer 1"
     inkscape:groupmode="layer"
     id="layer1">
    <path
       style="opacity:0.6;fill:#b43f24;fill-opacity:0.254902;fill-rule:evenodd;stroke:#000000;stroke-width:0.147157;paint-order:stroke markers fill"
       d="M 121.22613,64.09287 V 37.785189 h 24.50776 V 64.09287 Z"
       id="path6-1"
       sodipodi:nodetypes="ccccc" />
    <text
       xml:space="preserve"
       transform="matrix(0.32998275,0,0,0.32998275,66.129114,10.37594)"
       id="text12-6-6-8-98-9-3-2"
       style="white-space:pre;shape-inside:url(#rect12-6-3-6-6-1-2-5);display:inline;fill:#000000;fill-opacity:1;fill-rule:evenodd;stroke:#000000;stroke-width:0.0755906;stroke-dasharray:none;stroke-opacity:1;paint-order:stroke markers fill"><tspan
         x="198.42578"
         y="124.33468"
         id="tspan1">A1</tspan></text>
    <path
       style="opacity:0.6;fill:#786a60;fill-opacity:0.254902;fill-rule:evenodd;stroke:#000000;stroke-width:0.0933774;paint-order:stroke markers fill"
       d="m 129.21648,128.46262 v -15.69741 h 16.53793 v 15.69741 z"
       id="path6-1-0"
       sodipodi:nodetypes="ccccc" />
    <path
       d="M 102.98834,32.920899 91.706609,42.870329 75.011094,47.024312 57.168583,43.056626 45.549506,32.921895 24.116943,36.940948 55.600952,73.836455 44.400591,85.528758 H 69.73391 v -5.846152 h 10.717945 v 5.846152 l 12.90226,-0.0038 c 0.557139,-0.496493 1.038687,-0.933063 1.639456,-1.464226 2.900861,-2.564745 6.285059,-5.512745 9.911169,-8.645326 3.62609,-3.132583 7.49344,-6.449769 11.36129,-9.752046 1.07569,-0.918409 2.08954,-1.775903 3.16004,-2.687768 V 37.786729 Z"
       style="opacity:0.6;fill:#ac9d93;fill-opacity:0.254902;fill-rule:evenodd;stroke:#000000;stroke-width:0.208387;paint-order:stroke markers fill"
       id="path10"
       sodipodi:nodetypes="cccccccccccccsssccc" />
    <path
       style="opacity:0.6;fill:#2724b4;fill-opacity:0.254902;fill-rule:evenodd;stroke:#000000;stroke-width:0.134462;paint-order:stroke markers fill"
       d="M 95.067233,86.503117 119.42621,65.067229 h 26.30768 L 109.68262,101.11849 H 95.067233 Z"
       id="path4"
       sodipodi:nodetypes="cccccc" />
    <text
       xml:space="preserve"
       transform="matrix(0.32998275,0,0,0.32998275,6.3929361,25.13979)"
       id="text12-6-6-8-98-9-3-2-1"
       style="white-space:pre;shape-inside:url(#rect12-6-3-6-6-1-2-5-5);display:inline;fill:#000000;fill-opacity:1;fill-rule:evenodd;stroke:#000000;stroke-width:0.0755906;stroke-dasharray:none;stroke-opacity:1;paint-order:stroke markers fill"><tspan
         x="198.42578"
         y="124.33468"
         id="tspan2">D1</tspan></text>
    <text
       xml:space="preserve"
       transform="matrix(0.32998281,0,0,0.32998282,74.820412,96.755264)"
       id="text12-6-6-8-98-9-7-2-0"
       style="white-space:pre;shape-inside:url(#rect12-6-3-6-6-1-4-2-7);display:inline;fill:#000000;fill-opacity:1;fill-rule:evenodd;stroke:#000000;stroke-width:0.0755906;stroke-dasharray:none;stroke-opacity:1;paint-order:stroke markers fill"><tspan
         x="198.42578"
         y="124.33468"
         id="tspan3">Bejárat</tspan></text>
    <path
       style="fill:#000000;fill-opacity:1;fill-rule:evenodd;stroke:#000000;stroke-width:0.134462;stroke-dasharray:none;stroke-opacity:1;paint-order:stroke markers fill"
       d="m 138.0041,136.91557 -0.004,-1.94869 -4.87181,-1e-5 -1e-5,-1.94873 -3.89745,2.92308 3.89746,2.92307 -0.0198,-1.94875 z"
       id="path15-4-4-0" />
    <rect
       style="opacity:0.6;fill:#80e5ff;fill-opacity:0.254902;fill-rule:evenodd;stroke:#000000;stroke-width:0.237531;paint-order:stroke markers fill"
       id="rect13"
       width="8.5316896"
       height="8.5317011"
       x="70.827042"
       y="80.775726" />
    <path
       id="path2"
       style="opacity:0.6;fill:#24adb4;fill-opacity:0.254902;fill-rule:evenodd;stroke:#000000;stroke-width:0.182927;paint-order:stroke markers fill"
       d="M 69.73391,86.503117 H 43.426233 l -11.692302,14.615373 62.359333,2.7e-4 V 86.511829 l -13.632076,-0.05339 -0.0093,3.942118 H 69.733895 Z"
       sodipodi:nodetypes="ccccccccc" />
    <path
       id="path11"
       style="fill:#99570c;fill-opacity:0.254902;fill-rule:evenodd;stroke:#000000;stroke-width:0.140105;paint-order:stroke markers fill"
       d="M 102.29148,8.5544332 H 46.89187 c 2.47e-4,1.41545 0.233325,18.4498508 0.694847,19.8297958 0.461383,1.380452 1.148455,2.721149 2.048295,3.996895 0.899925,1.275573 2.006872,2.478106 3.300029,3.585017 1.29298,1.107242 2.764068,2.111845 4.385599,2.994905 1.622113,0.882826 3.384394,1.638482 5.253664,2.252717 1.86849,0.614023 3.832073,1.082883 5.853847,1.397758 2.022185,0.315145 4.089812,0.474237 6.164028,0.474296 2.073863,-1.16e-4 4.141158,-0.159214 6.163012,-0.474296 2.022457,-0.31478 3.986726,-0.783638 5.855857,-1.397758 1.868584,-0.614333 3.630168,-1.369965 5.251655,-2.252717 1.621528,-0.88306 3.092635,-1.887663 4.385608,-2.994905 1.293148,-1.106911 2.400098,-2.309444 3.300015,-3.585017 0.899834,-1.275746 1.586924,-2.616443 2.048294,-3.996895 0.46154,-1.379945 0.69461,-18.4143458 0.69486,-19.8297958 z"
       sodipodi:nodetypes="ccccccsccccccccc" />
    <text
       xml:space="preserve"
       transform="matrix(0.32998275,0,0,0.32998275,2.1605206,-13.986201)"
       id="text12-6-6-7"
       style="white-space:pre;shape-inside:url(#rect12-6-3-8);display:inline;fill:#000000;fill-opacity:1;fill-rule:evenodd;stroke:#000000;stroke-width:0.0755906;stroke-dasharray:none;stroke-opacity:1;paint-order:stroke markers fill"><tspan
         x="198.42578"
         y="124.33468"
         id="tspan4">Színpad</tspan></text>
    <path
       style="opacity:0.6;fill:#3a961e;fill-opacity:0.254902;fill-rule:evenodd;stroke:#000000;stroke-width:0.134462;paint-order:stroke markers fill"
       d="M 53.152989,73.836455 25.631421,42.186406 7.5545724,53.748185 38.808129,89.162767 Z"
       id="path6"
       sodipodi:nodetypes="ccccc" />
    <text
       xml:space="preserve"
       transform="matrix(0.32998275,0,0,0.32998275,51.559928,37.65798)"
       id="text12-6-6-8-98-9-3-1"
       style="white-space:pre;shape-inside:url(#rect12-6-3-6-6-1-2-3);display:inline;fill:#000000;fill-opacity:1;fill-rule:evenodd;stroke:#000000;stroke-width:0.0755906;stroke-dasharray:none;stroke-opacity:1;paint-order:stroke markers fill"><tspan
         x="198.42578"
         y="124.33468"
         id="tspan5">B1</tspan></text>
    <text
       xml:space="preserve"
       transform="matrix(0.32998275,0,0,0.32998275,3.2809915,55.153715)"
       id="text12-6-6-8-98-9-3-9"
       style="white-space:pre;shape-inside:url(#rect12-6-3-6-6-1-2-0);display:inline;fill:#000000;fill-opacity:1;fill-rule:evenodd;stroke:#000000;stroke-width:0.0755906;stroke-dasharray:none;stroke-opacity:1;paint-order:stroke markers fill"><tspan
         x="198.42578"
         y="124.33468"
         id="tspan6">C1</tspan></text>
    <g
       id="g2"
       transform="matrix(1.9487171,0,0,1.9487171,-241.38283,-240.76207)">
      <text
         xml:space="preserve"
         transform="matrix(0.16933333,0,0,0.16933333,105.34262,136.18726)"
         id="text12-6-6-8-98-9-3-9-49-6"
         style="white-space:pre;shape-inside:url(#rect12-6-3-6-6-1-2-0-5-0);display:inline;fill:#000000;fill-opacity:1;fill-rule:evenodd;stroke:#000000;stroke-width:0.0755906;stroke-dasharray:none;stroke-opacity:1;paint-order:stroke markers fill"><tspan
           x="198.42578"
           y="124.33468"
           id="tspan7">VIP</tspan></text>
    </g>
    <text
       xml:space="preserve"
       transform="matrix(0.32998275,0,0,0.32998275,6.0968469,45.189068)"
       id="text12-6-6-8-9-6"
       style="white-space:pre;shape-inside:url(#rect12-6-3-6-7-4);display:inline;fill:#000000;fill-opacity:1;fill-rule:evenodd;stroke:#000000;stroke-width:0.0755906;stroke-dasharray:none;stroke-opacity:1;paint-order:stroke markers fill"><tspan
         x="198.42578"
         y="124.33468"
         id="tspan8">Mix</tspan></text>
    <path
       style="fill:#786a60;fill-opacity:0.253041;fill-rule:evenodd;stroke:#000000;stroke-width:0.134462;stroke-dasharray:none;stroke-opacity:1;paint-order:stroke markers fill"
       d="m 110.65697,110.86207 v -8.76922 l 35.07692,-35.076904 v 43.846124 z"
       id="path13"
       sodipodi:nodetypes="ccccc" />
    <text
       xml:space="preserve"
       transform="matrix(0.32998275,0,0,0.32998275,63.018281,56.808683)"
       id="text12-6-7-5"
       style="white-space:pre;shape-inside:url(#rect12-6-6-9-4);display:inline;fill:#000000;fill-opacity:1;fill-rule:evenodd;stroke:#000000;stroke-width:0.0755906;stroke-dasharray:none;stroke-opacity:1;paint-order:stroke markers fill"><tspan
         x="198.42578"
         y="124.33468"
         id="tspan9">Büfé</tspan></text>
    <text
       xml:space="preserve"
       transform="matrix(0.32998275,0,0,0.32998275,68.656641,81.025119)"
       id="text12-6-7-5-0"
       style="white-space:pre;shape-inside:url(#rect12-6-6-9-4-3);display:inline;fill:#000000;fill-opacity:1;fill-rule:evenodd;stroke:#000000;stroke-width:0.0755906;stroke-dasharray:none;stroke-opacity:1;paint-order:stroke markers fill"><tspan
         x="198.42578"
         y="124.33468"
         id="tspan10">WC</tspan></text>
    <path
       style="opacity:0.6;fill:#786a60;fill-opacity:0.254902;fill-rule:evenodd;stroke:#000000;stroke-width:0.329859;paint-order:stroke markers fill"
       d="m 31.897394,144.96462 v -41.73397 l 77.785226,-0.16344 v 8.76923 h 18.51281 v 33.12871 z"
       id="path6-1-0-8"
       sodipodi:nodetypes="ccccccc" />
    <text
       xml:space="preserve"
       transform="matrix(0.32998275,0,0,0.32998275,8.4367647,84.384472)"
       id="text12-6-7-5-0-8"
       style="white-space:pre;shape-inside:url(#rect12-6-6-9-4-3-6);display:inline;fill:#000000;fill-opacity:1;fill-rule:evenodd;stroke:#000000;stroke-width:0.0755906;stroke-dasharray:none;stroke-opacity:1;paint-order:stroke markers fill"><tspan
         x="198.42578"
         y="124.33468"
         id="tspan11">E1</tspan></text>
  </g>
</svg>
