<?xml version="1.0" encoding="UTF-8" standalone="no"?>
<!-- Created with Inkscape (http://www.inkscape.org/) -->

<svg
   width="210mm"
   height="297mm"
   viewBox="0 0 210 297"
   version="1.1"
   id="svg1"
   inkscape:version="1.3 (0e150ed6c4, 2023-07-21)"
   sodipodi:docname="location11.svg"
   inkscape:export-filename="location02mod.svg"
   inkscape:export-xdpi="96"
   inkscape:export-ydpi="96"
   xmlns:inkscape="http://www.inkscape.org/namespaces/inkscape"
   xmlns:sodipodi="http://sodipodi.sourceforge.net/DTD/sodipodi-0.dtd"
   xmlns="http://www.w3.org/2000/svg"
   xmlns:svg="http://www.w3.org/2000/svg">
  <sodipodi:namedview
     id="namedview1"
     pagecolor="#505050"
     bordercolor="#eeeeee"
     borderopacity="1"
     inkscape:showpageshadow="0"
     inkscape:pageopacity="0"
     inkscape:pagecheckerboard="0"
     inkscape:deskcolor="#505050"
     inkscape:document-units="mm"
     inkscape:zoom="2"
     inkscape:cx="340"
     inkscape:cy="212.75"
     inkscape:window-width="1920"
     inkscape:window-height="1017"
     inkscape:window-x="1912"
     inkscape:window-y="-8"
     inkscape:window-maximized="1"
     inkscape:current-layer="layer1"
     showgrid="true">
    <inkscape:grid
       id="grid1"
       units="mm"
       originx="0"
       originy="0"
       spacingx="0.5"
       spacingy="0.5"
       empcolor="#0099e5"
       empopacity="0.30196078"
       color="#0099e5"
       opacity="0.14901961"
       empspacing="5"
       dotted="false"
       gridanglex="30"
       gridanglez="30"
       visible="true" />
  </sodipodi:namedview>
  <defs
     id="defs1">
    <rect
       x="198.4252"
       y="113.38582"
       width="60.074799"
       height="15.114176"
       id="rect12" />
    <rect
       x="198.4252"
       y="113.38582"
       width="60.074799"
       height="15.114176"
       id="rect12-6" />
    <rect
       x="198.4252"
       y="113.38582"
       width="60.074799"
       height="15.114176"
       id="rect12-6-3" />
    <rect
       x="198.4252"
       y="113.38582"
       width="60.074799"
       height="15.114176"
       id="rect12-6-3-6" />
    <rect
       x="198.4252"
       y="113.38582"
       width="76.709038"
       height="13.718754"
       id="rect12-6-3-6-5" />
    <rect
       x="198.4252"
       y="113.38582"
       width="60.074799"
       height="15.114176"
       id="rect12-6-3-6-7" />
    <rect
       x="198.4252"
       y="113.38582"
       width="76.709038"
       height="13.718754"
       id="rect12-6-3-6-5-5" />
    <rect
       x="198.4252"
       y="113.38582"
       width="60.074799"
       height="15.114176"
       id="rect12-6-3-8" />
    <rect
       x="198.4252"
       y="113.38582"
       width="60.074799"
       height="15.114176"
       id="rect12-6-6" />
    <rect
       x="198.4252"
       y="113.38582"
       width="60.074799"
       height="15.114176"
       id="rect12-6-6-5" />
    <rect
       x="198.4252"
       y="113.38582"
       width="60.074799"
       height="15.114176"
       id="rect12-6-6-9" />
    <rect
       x="198.4252"
       y="113.38582"
       width="60.074799"
       height="15.114176"
       id="rect12-6-3-6-6" />
    <rect
       x="198.4252"
       y="113.38582"
       width="60.074799"
       height="15.114176"
       id="rect12-6-3-6-6-1" />
    <rect
       x="198.4252"
       y="113.38582"
       width="60.074799"
       height="15.114176"
       id="rect12-6-6-4" />
    <rect
       x="198.4252"
       y="113.38582"
       width="60.074799"
       height="15.114176"
       id="rect12-6-6-4-9" />
    <rect
       x="198.4252"
       y="113.38582"
       width="60.074799"
       height="15.114176"
       id="rect12-6-3-6-6-9" />
    <rect
       x="198.4252"
       y="113.38582"
       width="60.074799"
       height="15.114176"
       id="rect12-6-3-6-6-1-2" />
    <rect
       x="198.4252"
       y="113.38582"
       width="60.074799"
       height="15.114176"
       id="rect12-6-3-6-6-1-2-9" />
    <rect
       x="198.4252"
       y="113.38582"
       width="60.074799"
       height="15.114176"
       id="rect12-6-3-6-6-1-2-9-2" />
    <rect
       x="198.4252"
       y="113.38582"
       width="60.074799"
       height="15.114176"
       id="rect12-6-3-6-6-1-2-9-8" />
    <rect
       x="198.4252"
       y="113.38582"
       width="60.074799"
       height="15.114176"
       id="rect12-6-3-6-6-1-2-9-4" />
    <rect
       x="198.4252"
       y="113.38582"
       width="60.074799"
       height="15.114176"
       id="rect12-6-3-6-6-1-2-9-41" />
    <rect
       x="198.4252"
       y="113.38582"
       width="60.074799"
       height="15.114176"
       id="rect12-6-3-6-6-1-2-9-7" />
    <rect
       x="198.4252"
       y="113.38582"
       width="60.074799"
       height="15.114176"
       id="rect12-6-3-6-6-1-2-9-76" />
    <rect
       x="198.4252"
       y="113.38582"
       width="60.074799"
       height="15.114176"
       id="rect12-6-3-6-6-1-2-9-76-8" />
    <rect
       x="198.4252"
       y="113.38582"
       width="60.074799"
       height="15.114176"
       id="rect12-6-3-6-6-1-2-9-76-6" />
    <rect
       x="198.4252"
       y="113.38582"
       width="60.074799"
       height="15.114176"
       id="rect12-6-3-6-6-1-2-9-76-5" />
    <rect
       x="198.4252"
       y="113.38582"
       width="60.074799"
       height="15.114176"
       id="rect12-6-3-6-6-1-2-9-76-1" />
    <rect
       x="198.4252"
       y="113.38582"
       width="60.074799"
       height="15.114176"
       id="rect12-6-3-6-6-1-2-9-76-13" />
    <rect
       x="198.4252"
       y="113.38582"
       width="60.074799"
       height="15.114176"
       id="rect12-6-3-6-6-1-2-9-76-4" />
    <rect
       x="198.4252"
       y="113.38582"
       width="60.074799"
       height="15.114176"
       id="rect12-6-3-6-6-1-2-9-76-4-3" />
    <rect
       x="198.4252"
       y="113.38582"
       width="60.074799"
       height="15.114176"
       id="rect12-6-3-6-6-1-2-9-76-4-0" />
    <rect
       x="198.4252"
       y="113.38582"
       width="60.074799"
       height="15.114176"
       id="rect12-6-3-6-6-1-2-9-76-4-7" />
    <rect
       x="198.4252"
       y="113.38582"
       width="60.074799"
       height="15.114176"
       id="rect12-6-3-6-6-1-2-9-76-4-8" />
    <rect
       x="198.4252"
       y="113.38582"
       width="60.074799"
       height="15.114176"
       id="rect12-6-3-6-6-1-2-9-76-4-85" />
    <rect
       x="198.4252"
       y="113.38582"
       width="60.074799"
       height="15.114176"
       id="rect12-6-3-6-6-1-2-9-76-4-07" />
    <rect
       x="198.4252"
       y="113.38582"
       width="60.074799"
       height="15.114176"
       id="rect12-6-3-6-7-9" />
    <rect
       x="198.4252"
       y="113.38582"
       width="60.074799"
       height="15.114176"
       id="rect12-6-3-6-6-1-2-9-76-4-3-9" />
    <rect
       x="198.4252"
       y="113.38582"
       width="60.074799"
       height="15.114176"
       id="rect12-6-3-6-6-1-2-9-76-4-0-6" />
    <rect
       x="198.4252"
       y="113.38582"
       width="60.074799"
       height="15.114176"
       id="rect12-6-3-6-6-1-2-9-76-4-2" />
    <rect
       x="198.4252"
       y="113.38582"
       width="60.074799"
       height="15.114176"
       id="rect12-6-3-6-6-1-2-9-76-4-0-4" />
    <rect
       x="198.4252"
       y="113.38582"
       width="60.074799"
       height="15.114176"
       id="rect12-6-3-6-6-1-2-9-76-4-0-4-2" />
    <rect
       x="198.4252"
       y="113.38582"
       width="60.074799"
       height="15.114176"
       id="rect12-6-3-6-6-1-2-9-76-4-0-4-0" />
    <rect
       x="198.4252"
       y="113.38582"
       width="60.074799"
       height="15.114176"
       id="rect12-6-3-6-6-1-2-9-76-4-0-4-9" />
  </defs>
  <g
     inkscape:label="Layer 1"
     inkscape:groupmode="layer"
     id="layer1">
    <path
       style="fill:#b46024;fill-opacity:0.253041;fill-rule:evenodd;stroke:#000000;stroke-width:0.0676917;paint-order:stroke markers fill"
       d="m 87.534981,82.5958 7.465021,0 2.440613,-3.227849 L 100,76.999998 l 6.26749,-1 6.23251,1 2.5,2.5 2.5,3 7.5,0.0958 V 94.999997 H 87.534977 Z"
       id="path2"
       sodipodi:nodetypes="cccccccccccc" />
    <path
       d="m 111.03945,75.097136 a 18.111832,14.195798 0 0 1 0.25389,0.05114 18.111832,14.195798 0 0 1 0.9681,0.24178 18.111832,14.195798 0 0 1 0.94932,0.283627 18.111832,14.195798 0 0 1 0.92744,0.325472 18.111832,14.195798 0 0 1 0.57784,0.234031 l 9.38005,-7.203798 a 24.203625,19.994548 0 0 0 -0.0738,-0.07078 24.203625,19.994548 0 0 0 -1.28015,-1.057012 24.203625,19.994548 0 0 0 -1.37209,-0.975385 24.203625,19.994548 0 0 0 -1.45588,-0.888075 24.203625,19.994548 0 0 0 -1.5328,-0.795601 24.203625,19.994548 0 0 0 -0.96183,-0.420014 z"
       style="opacity:0.6;fill:#8dd35f;fill-opacity:0.254902;fill-rule:evenodd;stroke:#000000;stroke-width:0.109993;paint-order:stroke markers fill"
       id="path93" />
    <path
       d="m 124.66582,69.57598 -9.55141,6.82253 a 18.111832,14.195798 0 0 1 0.80111,0.37042 18.111832,14.195798 0 0 1 0.84488,0.442746 18.111832,14.195798 0 0 1 0.81175,0.47891 18.111832,14.195798 0 0 1 0.77609,0.513524 18.111832,14.195798 0 0 1 0.73857,0.547104 18.111832,14.195798 0 0 1 0.69793,0.578619 18.111832,14.195798 0 0 1 0.24452,0.227314 l 8.85974,-4.116974 a 24.203625,19.994548 0 0 0 -0.0788,-0.186501 24.203625,19.994548 0 0 0 -0.72356,-1.370601 24.203625,19.994548 0 0 0 -0.84614,-1.321524 24.203625,19.994548 0 0 0 -0.96308,-1.266244 24.203625,19.994548 0 0 0 -1.07439,-1.203215 24.203625,19.994548 0 0 0 -0.5372,-0.516108 z"
       style="opacity:0.6;fill:#8dd35f;fill-opacity:0.254902;fill-rule:evenodd;stroke:#000000;stroke-width:0.109993;paint-order:stroke markers fill"
       id="path89" />
    <path
       d="m 110.48222,74.984511 5.83103,-10.608862 a 24.203625,19.994548 0 0 0 -1.19133,-0.429314 24.203625,19.994548 0 0 0 -1.70792,-0.493893 24.203625,19.994548 0 0 0 -1.74855,-0.386951 24.203625,19.994548 0 0 0 -1.77858,-0.277944 24.203625,19.994548 0 0 0 -1.79859,-0.167385 24.203625,19.994548 0 0 0 -1.11879,-0.03462 l -0.37711,12.014597 a 18.111832,14.195798 0 0 1 0.70292,0.0155 18.111832,14.195798 0 0 1 1.01249,0.06716 18.111832,14.195798 0 0 1 1.00561,0.111074 18.111832,14.195798 0 0 1 0.99622,0.155503 18.111832,14.195798 0 0 1 0.1726,0.03513 z"
       style="opacity:0.6;fill:#8dd35f;fill-opacity:0.254902;fill-rule:evenodd;stroke:#000000;stroke-width:0.109993;paint-order:stroke markers fill"
       id="path79" />
    <path
       d="M 101.56747,75.121933 95.163589,64.824595 a 24.203625,19.994548 0 0 0 -1.761065,0.803866 24.203625,19.994548 0 0 0 -2.213841,1.297757 24.203625,19.994548 0 0 0 -2.023725,1.494076 24.203625,19.994548 0 0 0 -0.647892,0.598766 l 9.392559,7.192433 a 18.111832,14.195798 0 0 1 0.14759,-0.07078 18.111832,14.195798 0 0 1 2.625345,-0.852429 18.111832,14.195798 0 0 1 0.88491,-0.166354 z"
       style="opacity:0.6;fill:#8dd35f;fill-opacity:0.254902;fill-rule:evenodd;stroke:#000000;stroke-width:0.109993;paint-order:stroke markers fill"
       id="path74" />
    <path
       d="m 97.499377,76.408843 -9.57642,-6.840095 a 24.203625,19.994548 0 0 0 -0.566594,0.52334 24.203625,19.994548 0 0 0 -1.57095,1.828847 24.203625,19.994548 0 0 0 -1.312669,1.962136 24.203625,19.994548 0 0 0 -0.682914,1.612899 l 8.782815,4.081325 a 18.111832,14.195798 0 0 1 0.89992,-0.826081 18.111832,14.195798 0 0 1 2.161309,-1.446545 18.111832,14.195798 0 0 1 1.865503,-0.895826 z"
       style="opacity:0.6;fill:#8dd35f;fill-opacity:0.254902;fill-rule:evenodd;stroke:#000000;stroke-width:0.109993;paint-order:stroke markers fill"
       id="path64" />
    <path
       d="m 105.61304,62.594847 a 24.203625,19.994548 0 0 0 -2.04374,0.09506 24.203625,19.994548 0 0 0 -2.67537,0.375585 24.203625,19.994548 0 0 0 -2.608453,0.620465 24.203625,19.994548 0 0 0 -2.034355,0.696409 l 5.848528,10.639343 a 18.111832,14.195798 0 0 1 1.34645,-0.253661 18.111832,14.195798 0 0 1 2.55404,-0.15757 z"
       style="opacity:0.6;fill:#8dd35f;fill-opacity:0.254902;fill-rule:evenodd;stroke:#000000;stroke-width:0.109993;paint-order:stroke markers fill"
       id="path57" />
    <path
       d="m 147.23261,53.456811 -16.15604,11.539818 a 32.674894,26.992639 0 0 1 0.3796,0.355955 32.674894,26.992639 0 0 1 1.25826,1.340121 32.674894,26.992639 0 0 1 1.15382,1.402633 32.674894,26.992639 0 0 1 1.0444,1.459461 32.674894,26.992639 0 0 1 0.93181,1.511124 32.674894,26.992639 0 0 1 0.48154,0.918557 l 18.69507,-8.687541 a 54.036108,44.639082 0 0 0 -1.08566,-1.781319 54.036108,44.639082 0 0 0 -1.30767,-1.906341 54.036108,44.639082 0 0 0 -1.41899,-1.851061 54.036108,44.639082 0 0 0 -1.52716,-1.791133 54.036108,44.639082 0 0 0 -1.63162,-1.727074 54.036108,44.639082 0 0 0 -0.81736,-0.7832 z"
       style="opacity:0.6;fill:#ffb380;fill-opacity:0.254902;fill-rule:evenodd;stroke:#000000;stroke-width:0.109993;paint-order:stroke markers fill"
       id="path87" />
    <path
       d="m 131.03717,42.892893 -9.7509,15.702256 a 32.674894,26.992639 0 0 1 0.73482,0.309457 32.674894,26.992639 0 0 1 1.76669,0.863277 32.674894,26.992639 0 0 1 1.6979,0.953171 32.674894,26.992639 0 0 1 1.62161,1.039446 32.674894,26.992639 0 0 1 1.53969,1.121073 32.674894,26.992639 0 0 1 1.4515,1.199083 32.674894,26.992639 0 0 1 0.19887,0.186501 l 15.64384,-12.013562 a 54.036108,44.639082 0 0 0 -1.45213,-1.259529 54.036108,44.639082 0 0 0 -1.92116,-1.511123 54.036108,44.639082 0 0 0 -2.00809,-1.431048 54.036108,44.639082 0 0 0 -2.09064,-1.347871 54.036108,44.639082 0 0 0 -2.16881,-1.261594 54.036108,44.639082 0 0 0 -2.24074,-1.172219 54.036108,44.639082 0 0 0 -2.30764,-1.079743 54.036108,44.639082 0 0 0 -0.71481,-0.297575 z"
       style="opacity:0.6;fill:#ffb380;fill-opacity:0.254902;fill-rule:evenodd;stroke:#000000;stroke-width:0.109993;paint-order:stroke markers fill"
       id="path85" />
    <path
       d="m 119.81726,58.001031 8.83033,-16.064925 a 54.036108,44.639082 0 0 0 -1.68914,-0.618915 54.036108,44.639082 0 0 0 -2.47461,-0.788365 54.036108,44.639082 0 0 0 -2.51841,-0.687113 54.036108,44.639082 0 0 0 -2.55592,-0.5843 54.036108,44.639082 0 0 0 -2.58782,-0.47994 54.036108,44.639082 0 0 0 -2.61346,-0.375067 54.036108,44.639082 0 0 0 -2.63222,-0.268137 54.036108,44.639082 0 0 0 -2.64471,-0.161186 54.036108,44.639082 0 0 0 -1.18885,-0.0243 l -0.55346,17.641139 a 32.674894,26.992639 0 0 1 1.14256,0.02945 32.674894,26.992639 0 0 1 2.04312,0.159637 32.674894,26.992639 0 0 1 2.02747,0.265028 32.674894,26.992639 0 0 1 2.00371,0.369903 32.674894,26.992639 0 0 1 1.97057,0.473227 32.674894,26.992639 0 0 1 1.9318,0.574485 32.674894,26.992639 0 0 1 1.50904,0.539355 z"
       style="opacity:0.6;fill:#ffb380;fill-opacity:0.254902;fill-rule:evenodd;stroke:#000000;stroke-width:0.109993;paint-order:stroke markers fill"
       id="path83" />
    <path
       d="m 66.636949,52.265476 15.663855,11.993933 a 32.674894,26.992639 0 0 1 0.873654,-0.787852 32.674894,26.992639 0 0 1 2.101897,-1.590684 32.674894,26.992639 0 0 1 2.261369,-1.433629 32.674894,26.992639 0 0 1 2.40458,-1.265212 32.674894,26.992639 0 0 1 1.350818,-0.581201 L 81.531588,42.905292 a 54.036108,44.639082 0 0 0 -1.14882,0.474777 54.036108,44.639082 0 0 0 -3.317008,1.625815 54.036108,44.639082 0 0 0 -3.168793,1.81748 54.036108,44.639082 0 0 0 -3.003692,1.999334 54.036108,44.639082 0 0 0 -2.822959,2.171368 54.036108,44.639082 0 0 0 -1.433367,1.27141 z"
       style="opacity:0.6;fill:#ffb380;fill-opacity:0.254902;fill-rule:evenodd;stroke:#000000;stroke-width:0.109993;paint-order:stroke markers fill"
       id="path69" />
    <path
       d="M 81.500319,64.981132 65.335537,53.435113 a 54.036108,44.639082 0 0 0 -2.313901,2.372334 54.036108,44.639082 0 0 0 -2.200081,2.617216 54.036108,44.639082 0 0 0 -3.235084,4.895007 l 18.725709,8.70149 a 32.674894,26.992639 0 0 1 1.670386,-2.958703 32.674894,26.992639 0 0 1 1.531552,-1.986418 32.674894,26.992639 0 0 1 1.734799,-1.86811 32.674894,26.992639 0 0 1 0.251402,-0.226797 z"
       style="opacity:0.6;fill:#ffb380;fill-opacity:0.254902;fill-rule:evenodd;stroke:#000000;stroke-width:0.109993;paint-order:stroke markers fill"
       id="path67" />
    <path
       d="m 104.81882,37.962236 a 54.036108,44.639082 0 0 0 -2.39397,0.07078 54.036108,44.639082 0 0 0 -3.835438,0.340968 54.036108,44.639082 0 0 0 -3.796048,0.565706 54.036108,44.639082 0 0 0 -3.737261,0.787855 54.036108,44.639082 0 0 0 -3.659716,1.006376 54.036108,44.639082 0 0 0 -3.489611,1.194436 l 8.836598,16.073191 a 32.674894,26.992639 0 0 1 2.360804,-0.808 32.674894,26.992639 0 0 1 2.71852,-0.708291 32.674894,26.992639 0 0 1 2.782922,-0.509389 32.674894,26.992639 0 0 1 2.82609,-0.307392 32.674894,26.992639 0 0 1 1.95556,-0.07026 z"
       style="opacity:0.6;fill:#ffb380;fill-opacity:0.254902;fill-rule:evenodd;stroke:#000000;stroke-width:0.109993;paint-order:stroke markers fill"
       id="path53" />
    <path
       d="M 65.956216,48.218444 54.743463,31.562614 a 57.371666,44.651249 0 0 0 -1.317232,0.95395 57.371666,44.651249 0 0 0 -2.790527,2.33319 57.371666,44.651249 0 0 0 -2.569869,2.4815 57.371666,44.651249 0 0 0 -2.335258,2.61844 57.371666,44.651249 0 0 0 -3.434933,4.89635 l 19.881474,8.703857 a 34.691859,26.999996 0 0 1 1.773535,-2.959509 34.691859,26.999996 0 0 1 1.625741,-1.986958 34.691859,26.999996 0 0 1 0.379822,-0.38499 z"
       style="opacity:0.6;fill:#aaffee;fill-opacity:0.254902;fill-rule:evenodd;stroke:#000000;stroke-width:0.1;paint-order:stroke markers fill"
       id="path111" />
    <path
       d="m 75.457445,41.297414 -6.605799,-17.31315 a 57.371666,44.651249 0 0 0 -2.352311,0.91622 57.371666,44.651249 0 0 0 -3.522266,1.62678 57.371666,44.651249 0 0 0 -3.364135,1.81746 57.371666,44.651249 0 0 0 -3.188953,2.00039 57.371666,44.651249 0 0 0 -0.04858,0.0351 l 10.61589,16.78761 a 34.691859,26.999996 0 0 1 0.427364,-0.43305 34.691859,26.999996 0 0 1 2.044836,-1.73685 34.691859,26.999996 0 0 1 2.231388,-1.59111 34.691859,26.999996 0 0 1 2.400888,-1.43402 34.691859,26.999996 0 0 1 1.361674,-0.67542 z"
       style="opacity:0.6;fill:#aaffee;fill-opacity:0.254902;fill-rule:evenodd;stroke:#000000;stroke-width:0.1;paint-order:stroke markers fill"
       id="path109" />
    <path
       d="m 76.974148,40.575504 a 34.691859,26.999996 0 0 1 2.359029,-0.95602 34.691859,26.999996 0 0 1 2.796212,-0.90124 34.691859,26.999996 0 0 1 2.886128,-0.70848 34.691859,26.999996 0 0 1 0.775147,-0.13384 l -2.772441,-17.58756 a 57.371666,44.651249 0 0 0 -1.219047,0.17105 57.371666,44.651249 0 0 0 -3.967716,0.78807 57.371666,44.651249 0 0 0 -3.886068,1.00665 57.371666,44.651249 0 0 0 -2.96571,0.95653 z"
       style="opacity:0.6;fill:#aaffee;fill-opacity:0.254902;fill-rule:evenodd;stroke:#000000;stroke-width:0.1;paint-order:stroke markers fill"
       id="path108" />
    <text
       xml:space="preserve"
       transform="matrix(0.16933333,0,0,0.16933333,67.98357,68.370955)"
       id="text12-6-6-7"
       style="white-space:pre;shape-inside:url(#rect12-6-3-8);display:inline;fill:#000000;fill-opacity:1;fill-rule:evenodd;stroke:#000000;stroke-width:0.0755906;stroke-dasharray:none;stroke-opacity:1;paint-order:stroke markers fill"><tspan
         x="198.42578"
         y="124.33468"
         id="tspan1">Színpad</tspan></text>
    <text
       xml:space="preserve"
       transform="matrix(0.16933333,0,0,0.16933333,55.399904,54.445992)"
       id="text12-6-6-8-98-9-3-0"
       style="white-space:pre;shape-inside:url(#rect12-6-3-6-6-1-2-9);display:inline;fill:#000000;fill-opacity:1;fill-rule:evenodd;stroke:#000000;stroke-width:0.0755906;stroke-dasharray:none;stroke-opacity:1;paint-order:stroke markers fill"><tspan
         x="198.42578"
         y="124.33468"
         id="tspan2">A1</tspan></text>
    <text
       xml:space="preserve"
       transform="matrix(0.16933333,0,0,0.16933333,61.285187,50.016019)"
       id="text12-6-6-8-98-9-3-0-0"
       style="white-space:pre;shape-inside:url(#rect12-6-3-6-6-1-2-9-2);display:inline;fill:#000000;fill-opacity:1;fill-rule:evenodd;stroke:#000000;stroke-width:0.0755906;stroke-dasharray:none;stroke-opacity:1;paint-order:stroke markers fill"><tspan
         x="198.42578"
         y="124.33468"
         id="tspan3">A2</tspan></text>
    <text
       xml:space="preserve"
       transform="matrix(0.16933333,0,0,0.16933333,68.00681,48.496433)"
       id="text12-6-6-8-98-9-3-0-7"
       style="white-space:pre;shape-inside:url(#rect12-6-3-6-6-1-2-9-8);display:inline;fill:#000000;fill-opacity:1;fill-rule:evenodd;stroke:#000000;stroke-width:0.0755906;stroke-dasharray:none;stroke-opacity:1;paint-order:stroke markers fill"><tspan
         x="198.42578"
         y="124.33468"
         id="tspan4">A3</tspan></text>
    <text
       xml:space="preserve"
       transform="matrix(0.16933333,0,0,0.16933333,74.859671,48.168053)"
       id="text12-6-6-8-98-9-3-0-3"
       style="white-space:pre;shape-inside:url(#rect12-6-3-6-6-1-2-9-4);display:inline;fill:#000000;fill-opacity:1;fill-rule:evenodd;stroke:#000000;stroke-width:0.0755906;stroke-dasharray:none;stroke-opacity:1;paint-order:stroke markers fill"><tspan
         x="198.42578"
         y="124.33468"
         id="tspan5">A4</tspan></text>
    <text
       xml:space="preserve"
       transform="matrix(0.16933333,0,0,0.16933333,81.860644,50.965753)"
       id="text12-6-6-8-98-9-3-0-8"
       style="white-space:pre;shape-inside:url(#rect12-6-3-6-6-1-2-9-41);display:inline;fill:#000000;fill-opacity:1;fill-rule:evenodd;stroke:#000000;stroke-width:0.0755906;stroke-dasharray:none;stroke-opacity:1;paint-order:stroke markers fill"><tspan
         x="198.42578"
         y="124.33468"
         id="tspan6">A5</tspan></text>
    <text
       xml:space="preserve"
       transform="matrix(0.16933333,0,0,0.16933333,87.822747,54.408834)"
       id="text12-6-6-8-98-9-3-0-6"
       style="white-space:pre;shape-inside:url(#rect12-6-3-6-6-1-2-9-7);display:inline;fill:#000000;fill-opacity:1;fill-rule:evenodd;stroke:#000000;stroke-width:0.0755906;stroke-dasharray:none;stroke-opacity:1;paint-order:stroke markers fill"><tspan
         x="198.42578"
         y="124.33468"
         id="tspan7">A6</tspan></text>
    <text
       xml:space="preserve"
       transform="matrix(0.16933333,0,0,0.16933333,35.164987,42.416083)"
       id="text12-6-6-8-98-9-3-0-1"
       style="white-space:pre;shape-inside:url(#rect12-6-3-6-6-1-2-9-76);display:inline;fill:#000000;fill-opacity:1;fill-rule:evenodd;stroke:#000000;stroke-width:0.0755906;stroke-dasharray:none;stroke-opacity:1;paint-order:stroke markers fill"><tspan
         x="198.42578"
         y="124.33468"
         id="tspan8">B1</tspan></text>
    <text
       xml:space="preserve"
       transform="matrix(0.16933333,0,0,0.16933333,45.242914,33.063943)"
       id="text12-6-6-8-98-9-3-0-1-4"
       style="white-space:pre;shape-inside:url(#rect12-6-3-6-6-1-2-9-76-8);display:inline;fill:#000000;fill-opacity:1;fill-rule:evenodd;stroke:#000000;stroke-width:0.0755906;stroke-dasharray:none;stroke-opacity:1;paint-order:stroke markers fill"><tspan
         x="198.42578"
         y="124.33468"
         id="tspan9">B2</tspan></text>
    <text
       xml:space="preserve"
       transform="matrix(0.16933333,0,0,0.16933333,62.251613,26.89714)"
       id="text12-6-6-8-98-9-3-0-1-0"
       style="white-space:pre;shape-inside:url(#rect12-6-3-6-6-1-2-9-76-6);display:inline;fill:#000000;fill-opacity:1;fill-rule:evenodd;stroke:#000000;stroke-width:0.0755906;stroke-dasharray:none;stroke-opacity:1;paint-order:stroke markers fill"><tspan
         x="198.42578"
         y="124.33468"
         id="tspan10">B3</tspan></text>
    <text
       xml:space="preserve"
       transform="matrix(0.16933333,0,0,0.16933333,81.03703,26.89714)"
       id="text12-6-6-8-98-9-3-0-1-3"
       style="white-space:pre;shape-inside:url(#rect12-6-3-6-6-1-2-9-76-5);display:inline;fill:#000000;fill-opacity:1;fill-rule:evenodd;stroke:#000000;stroke-width:0.0755906;stroke-dasharray:none;stroke-opacity:1;paint-order:stroke markers fill"><tspan
         x="198.42578"
         y="124.33468"
         id="tspan11">B4</tspan></text>
    <text
       xml:space="preserve"
       transform="matrix(0.16933333,0,0,0.16933333,97.468639,33.814407)"
       id="text12-6-6-8-98-9-3-0-1-2"
       style="white-space:pre;shape-inside:url(#rect12-6-3-6-6-1-2-9-76-1);display:inline;fill:#000000;fill-opacity:1;fill-rule:evenodd;stroke:#000000;stroke-width:0.0755906;stroke-dasharray:none;stroke-opacity:1;paint-order:stroke markers fill"><tspan
         x="198.42578"
         y="124.33468"
         id="tspan12">B5</tspan></text>
    <text
       xml:space="preserve"
       transform="matrix(0.16933333,0,0,0.16933333,108.05743,42.404584)"
       id="text12-6-6-8-98-9-3-0-1-03"
       style="white-space:pre;shape-inside:url(#rect12-6-3-6-6-1-2-9-76-13);display:inline;fill:#000000;fill-opacity:1;fill-rule:evenodd;stroke:#000000;stroke-width:0.0755906;stroke-dasharray:none;stroke-opacity:1;paint-order:stroke markers fill"><tspan
         x="198.42578"
         y="124.33468"
         id="tspan13">B6</tspan></text>
    <text
       xml:space="preserve"
       transform="matrix(0.16933333,0,0,0.16933333,21.130708,23.413365)"
       id="text12-6-6-8-98-9-3-0-1-8"
       style="white-space:pre;shape-inside:url(#rect12-6-3-6-6-1-2-9-76-4);display:inline;fill:#000000;fill-opacity:1;fill-rule:evenodd;stroke:#000000;stroke-width:0.0755906;stroke-dasharray:none;stroke-opacity:1;paint-order:stroke markers fill"><tspan
         x="198.42578"
         y="124.33468"
         id="tspan14">C1</tspan></text>
    <text
       xml:space="preserve"
       transform="matrix(0.16933333,0,0,0.16933333,31.952399,15.270971)"
       id="text12-6-6-8-98-9-3-0-1-8-3"
       style="white-space:pre;shape-inside:url(#rect12-6-3-6-6-1-2-9-76-4-3);display:inline;fill:#000000;fill-opacity:1;fill-rule:evenodd;stroke:#000000;stroke-width:0.0755906;stroke-dasharray:none;stroke-opacity:1;paint-order:stroke markers fill"><tspan
         x="198.42578"
         y="124.33468"
         id="tspan15">C2</tspan></text>
    <text
       xml:space="preserve"
       transform="matrix(0.16933333,0,0,0.16933333,44.054323,10.220413)"
       id="text12-6-6-8-98-9-3-0-1-8-1"
       style="white-space:pre;shape-inside:url(#rect12-6-3-6-6-1-2-9-76-4-0);display:inline;fill:#000000;fill-opacity:1;fill-rule:evenodd;stroke:#000000;stroke-width:0.0755906;stroke-dasharray:none;stroke-opacity:1;paint-order:stroke markers fill"><tspan
         x="198.42578"
         y="124.33468"
         id="tspan16">C3</tspan></text>
    <text
       xml:space="preserve"
       transform="matrix(0.16933333,0,0,0.16933333,122.78054,23.440154)"
       id="text12-6-6-8-98-9-3-0-1-8-1-8"
       style="white-space:pre;shape-inside:url(#rect12-6-3-6-6-1-2-9-76-4-0-4);display:inline;fill:#000000;fill-opacity:1;fill-rule:evenodd;stroke:#000000;stroke-width:0.0755906;stroke-dasharray:none;stroke-opacity:1;paint-order:stroke markers fill"><tspan
         x="198.42578"
         y="124.33468"
         id="tspan17">D1</tspan></text>
    <text
       xml:space="preserve"
       transform="matrix(0.16933333,0,0,0.16933333,112.1822,15.284366)"
       id="text12-6-6-8-98-9-3-0-1-8-1-8-8"
       style="white-space:pre;shape-inside:url(#rect12-6-3-6-6-1-2-9-76-4-0-4-2);display:inline;fill:#000000;fill-opacity:1;fill-rule:evenodd;stroke:#000000;stroke-width:0.0755906;stroke-dasharray:none;stroke-opacity:1;paint-order:stroke markers fill"><tspan
         x="198.42578"
         y="124.33468"
         id="tspan18">D2</tspan></text>
    <text
       xml:space="preserve"
       transform="matrix(0.16933333,0,0,0.16933333,99.139544,10.122544)"
       id="text12-6-6-8-98-9-3-0-1-8-1-8-7"
       style="white-space:pre;shape-inside:url(#rect12-6-3-6-6-1-2-9-76-4-0-4-0);display:inline;fill:#000000;fill-opacity:1;fill-rule:evenodd;stroke:#000000;stroke-width:0.0755906;stroke-dasharray:none;stroke-opacity:1;paint-order:stroke markers fill"><tspan
         x="198.42578"
         y="124.33468"
         id="tspan19">D3</tspan></text>
    <path
       d="m 147.19415,48.218444 11.21275,-16.65583 a 57.371666,44.651249 0 0 1 1.31723,0.95395 57.371666,44.651249 0 0 1 2.79053,2.33319 57.371666,44.651249 0 0 1 2.56987,2.4815 57.371666,44.651249 0 0 1 2.33526,2.61844 57.371666,44.651249 0 0 1 3.43493,4.89635 l -19.88147,8.703857 a 34.691859,26.999996 0 0 0 -1.77354,-2.959509 34.691859,26.999996 0 0 0 -1.62574,-1.986958 34.691859,26.999996 0 0 0 -0.37982,-0.38499 z"
       style="opacity:0.6;fill:#ffeeaa;fill-opacity:0.254902;fill-rule:evenodd;stroke:#000000;stroke-width:0.1;paint-order:stroke markers fill"
       id="path111-2" />
    <path
       d="m 137.69292,41.297414 6.6058,-17.31315 a 57.371666,44.651249 0 0 1 2.35231,0.91622 57.371666,44.651249 0 0 1 3.52227,1.62678 57.371666,44.651249 0 0 1 3.36413,1.81746 57.371666,44.651249 0 0 1 3.18895,2.00039 57.371666,44.651249 0 0 1 0.0486,0.0351 l -10.61589,16.78761 a 34.691859,26.999996 0 0 0 -0.42736,-0.43305 34.691859,26.999996 0 0 0 -2.04484,-1.73685 34.691859,26.999996 0 0 0 -2.23139,-1.59111 34.691859,26.999996 0 0 0 -2.40088,-1.43402 34.691859,26.999996 0 0 0 -1.36168,-0.67542 z"
       style="opacity:0.6;fill:#ffeeaa;fill-opacity:0.254902;fill-rule:evenodd;stroke:#000000;stroke-width:0.1;paint-order:stroke markers fill"
       id="path109-1" />
    <path
       d="m 136.17622,40.575504 a 34.691859,26.999996 0 0 0 -2.35903,-0.95602 34.691859,26.999996 0 0 0 -2.79621,-0.90124 34.691859,26.999996 0 0 0 -2.88613,-0.70848 34.691859,26.999996 0 0 0 -0.77515,-0.13384 l 2.77244,-17.58756 a 57.371666,44.651249 0 0 1 1.21905,0.17105 57.371666,44.651249 0 0 1 3.96771,0.78807 57.371666,44.651249 0 0 1 3.88607,1.00665 57.371666,44.651249 0 0 1 2.96571,0.95653 z"
       style="opacity:0.6;fill:#ffeeaa;fill-opacity:0.254902;fill-rule:evenodd;stroke:#000000;stroke-width:0.1;paint-order:stroke markers fill"
       id="path108-5" />
    <rect
       style="fill:#716b67;fill-opacity:0.328467;fill-rule:evenodd;stroke:#000000;stroke-width:0.1;stroke-dasharray:none;paint-order:stroke markers fill"
       id="rect11"
       width="6.4262323"
       height="5.4975958"
       x="79.293846"
       y="86.049103" />
    <text
       xml:space="preserve"
       transform="matrix(0.16933333,0,0,0.16933333,47.101086,68.487537)"
       id="text12-6-6-8-9"
       style="white-space:pre;shape-inside:url(#rect12-6-3-6-7-9);display:inline;fill:#000000;fill-opacity:1;fill-rule:evenodd;stroke:#000000;stroke-width:0.0755906;stroke-dasharray:none;stroke-opacity:1;paint-order:stroke markers fill"><tspan
         x="198.42578"
         y="124.33468"
         id="tspan20">Mix</tspan></text>
    <rect
       style="opacity:0.6;fill:#e9afc6;fill-opacity:0.254902;fill-rule:evenodd;stroke:#000000;stroke-width:0.0121223;paint-order:stroke markers fill"
       id="rect1"
       width="35.885544"
       height="15.582376"
       x="88.632408"
       y="19.411562" />
    <text
       xml:space="preserve"
       transform="matrix(0.16933333,0,0,0.16933333,71.257607,7.171902)"
       id="text12-6-6-8-98-9-3-0-1-8-1-8-1"
       style="white-space:pre;shape-inside:url(#rect12-6-3-6-6-1-2-9-76-4-0-4-9);display:inline;fill:#000000;fill-opacity:1;fill-rule:evenodd;stroke:#000000;stroke-width:0.0755906;stroke-dasharray:none;stroke-opacity:1;paint-order:stroke markers fill"><tspan
         x="198.42578"
         y="124.33468"
         id="tspan21">VIP</tspan></text>
  </g>
</svg>
