<?xml version="1.0" encoding="UTF-8" standalone="no"?>
<!-- Created with Inkscape (http://www.inkscape.org/) -->

<svg
   width="158.75mm"
   height="158.75mm"
   viewBox="0 0 158.75 158.75"
   version="1.1"
   id="svg1"
   inkscape:version="1.3 (0e150ed6c4, 2023-07-21)"
   sodipodi:docname="location04.svg"
   inkscape:export-filename="location04ready.svg"
   inkscape:export-xdpi="96"
   inkscape:export-ydpi="96"
   xmlns:inkscape="http://www.inkscape.org/namespaces/inkscape"
   xmlns:sodipodi="http://sodipodi.sourceforge.net/DTD/sodipodi-0.dtd"
   xmlns="http://www.w3.org/2000/svg"
   xmlns:svg="http://www.w3.org/2000/svg">
  <sodipodi:namedview
     id="namedview1"
     pagecolor="#505050"
     bordercolor="#eeeeee"
     borderopacity="1"
     inkscape:showpageshadow="0"
     inkscape:pageopacity="0"
     inkscape:pagecheckerboard="0"
     inkscape:deskcolor="#505050"
     inkscape:document-units="mm"
     inkscape:zoom="1.4142136"
     inkscape:cx="368.40262"
     inkscape:cy="196.92923"
     inkscape:window-width="1920"
     inkscape:window-height="1017"
     inkscape:window-x="1912"
     inkscape:window-y="-8"
     inkscape:window-maximized="1"
     inkscape:current-layer="layer1"
     showgrid="true">
    <inkscape:grid
       id="grid1"
       units="mm"
       originx="0"
       originy="0"
       spacingx="0.5"
       spacingy="0.5"
       empcolor="#0099e5"
       empopacity="0.30196078"
       color="#0099e5"
       opacity="0.14901961"
       empspacing="5"
       dotted="false"
       gridanglex="30"
       gridanglez="30"
       visible="true" />
  </sodipodi:namedview>
  <defs
     id="defs1">
    <rect
       x="198.4252"
       y="113.38582"
       width="60.074799"
       height="15.114176"
       id="rect12-6-3-8" />
    <rect
       x="198.4252"
       y="113.38582"
       width="60.074799"
       height="15.114176"
       id="rect12-6-3-6-6-1-2-9" />
    <rect
       x="198.4252"
       y="113.38582"
       width="60.074799"
       height="15.114176"
       id="rect12-6-3-6-6-1-2-9-2" />
    <rect
       x="198.4252"
       y="113.38582"
       width="60.074799"
       height="15.114176"
       id="rect12-6-3-6-6-1-2-9-8" />
    <rect
       x="198.4252"
       y="113.38582"
       width="60.074799"
       height="15.114176"
       id="rect12-6-3-6-6-1-2-9-4" />
    <rect
       x="198.4252"
       y="113.38582"
       width="60.074799"
       height="15.114176"
       id="rect12-6-3-6-6-1-2-9-41" />
    <rect
       x="198.4252"
       y="113.38582"
       width="60.074799"
       height="15.114176"
       id="rect12-6-3-6-6-1-2-9-7" />
    <rect
       x="198.4252"
       y="113.38582"
       width="60.074799"
       height="15.114176"
       id="rect12-6-3-6-6-1-2-9-76" />
    <rect
       x="198.4252"
       y="113.38582"
       width="60.074799"
       height="15.114176"
       id="rect12-6-3-6-6-1-2-9-76-8" />
    <rect
       x="198.4252"
       y="113.38582"
       width="60.074799"
       height="15.114176"
       id="rect12-6-3-6-6-1-2-9-76-6" />
    <rect
       x="198.4252"
       y="113.38582"
       width="60.074799"
       height="15.114176"
       id="rect12-6-3-6-6-1-2-9-76-5" />
    <rect
       x="198.4252"
       y="113.38582"
       width="60.074799"
       height="15.114176"
       id="rect12-6-3-6-6-1-2-9-76-1" />
    <rect
       x="198.4252"
       y="113.38582"
       width="60.074799"
       height="15.114176"
       id="rect12-6-3-6-6-1-2-9-76-13" />
    <rect
       x="198.4252"
       y="113.38582"
       width="60.074799"
       height="15.114176"
       id="rect12-6-3-6-6-1-2-9-76-4" />
    <rect
       x="198.4252"
       y="113.38582"
       width="60.074799"
       height="15.114176"
       id="rect12-6-3-6-6-1-2-9-76-4-3" />
    <rect
       x="198.4252"
       y="113.38582"
       width="60.074799"
       height="15.114176"
       id="rect12-6-3-6-6-1-2-9-76-4-0" />
    <rect
       x="198.4252"
       y="113.38582"
       width="60.074799"
       height="15.114176"
       id="rect12-6-3-6-6-1-2-9-76-4-7" />
    <rect
       x="198.4252"
       y="113.38582"
       width="60.074799"
       height="15.114176"
       id="rect12-6-3-6-6-1-2-9-76-4-8" />
    <rect
       x="198.4252"
       y="113.38582"
       width="60.074799"
       height="15.114176"
       id="rect12-6-3-6-6-1-2-9-76-4-85" />
    <rect
       x="198.4252"
       y="113.38582"
       width="60.074799"
       height="15.114176"
       id="rect12-6-3-6-6-1-2-9-76-4-07" />
    <rect
       x="198.4252"
       y="113.38582"
       width="60.074799"
       height="15.114176"
       id="rect12-6-3-6-7-9" />
  </defs>
  <g
     inkscape:label="Layer 1"
     inkscape:groupmode="layer"
     id="layer1">
    <path
       style="fill:#b46024;fill-opacity:0.253041;fill-rule:evenodd;stroke:#000000;stroke-width:0.0991075;paint-order:stroke markers fill"
       d="m 51.76113,123.10288 h 54.85254 v 18.16099 H 51.761124 Z"
       id="path2"
       sodipodi:nodetypes="ccccc" />
    <path
       d="m 84.969845,112.1315 a 21.912033,20.789733 0 0 1 0.307168,0.0749 21.912033,20.789733 0 0 1 1.171222,0.35408 21.912033,20.789733 0 0 1 1.148498,0.41537 21.912033,20.789733 0 0 1 1.122043,0.47665 21.912033,20.789733 0 0 1 0.699093,0.34275 l 11.348141,-10.54996 a 29.282,29.281998 0 0 0 -0.0893,-0.10367 29.282,29.281998 0 0 0 -1.548739,-1.54799 29.282,29.281998 0 0 0 -1.65997,-1.42845 29.282,29.281998 0 0 0 -1.761355,-1.300585 29.282,29.281998 0 0 0 -1.854419,-1.165156 29.282,29.281998 0 0 0 -1.163637,-0.615111 z"
       style="opacity:0.6;fill:#8dd35f;fill-opacity:0.254902;fill-rule:evenodd;stroke:#000000;stroke-width:0.14641;paint-order:stroke markers fill"
       id="path93" />
    <path
       d="m 101.4553,104.04577 -11.555493,9.99159 a 21.912033,20.789733 0 0 1 0.969204,0.54248 21.912033,20.789733 0 0 1 1.022161,0.6484 21.912033,20.789733 0 0 1 0.982061,0.70136 21.912033,20.789733 0 0 1 0.938928,0.75205 21.912033,20.789733 0 0 1 0.893542,0.80124 21.912033,20.789733 0 0 1 0.84436,0.84739 21.912033,20.789733 0 0 1 0.295834,0.3329 l 10.718683,-6.0293 a 29.282,29.281998 0 0 0 -0.0954,-0.27314 29.282,29.281998 0 0 0 -0.87537,-2.00724 29.282,29.281998 0 0 0 -1.0237,-1.93537 29.282,29.281998 0 0 0 -1.16514,-1.85441 29.282,29.281998 0 0 0 -1.29982,-1.76211 29.282,29.281998 0 0 0 -0.64992,-0.75584 z"
       style="opacity:0.6;fill:#8dd35f;fill-opacity:0.254902;fill-rule:evenodd;stroke:#000000;stroke-width:0.14641;paint-order:stroke markers fill"
       id="path89" />
    <path
       d="m 84.295715,111.96657 7.054487,-15.536682 a 29.282,29.281998 0 0 0 -1.441303,-0.628729 29.282,29.281998 0 0 0 -2.06627,-0.723306 29.282,29.281998 0 0 0 -2.115434,-0.566688 29.282,29.281998 0 0 0 -2.15176,-0.407049 29.282,29.281998 0 0 0 -2.175959,-0.245136 29.282,29.281998 0 0 0 -1.353546,-0.05069 l -0.456228,17.59537 a 21.912033,20.789733 0 0 1 0.850409,0.0228 21.912033,20.789733 0 0 1 1.224924,0.0983 21.912033,20.789733 0 0 1 1.216608,0.16266 21.912033,20.789733 0 0 1 1.205247,0.22773 21.912033,20.789733 0 0 1 0.208825,0.0515 z"
       style="opacity:0.6;fill:#8dd35f;fill-opacity:0.254902;fill-rule:evenodd;stroke:#000000;stroke-width:0.14641;paint-order:stroke markers fill"
       id="path79" />
    <path
       d="m 73.510466,112.16781 -7.74753,-15.080441 a 29.282,29.281998 0 0 0 -2.13057,1.177261 29.282,29.281998 0 0 0 -2.678346,1.90057 29.282,29.281998 0 0 0 -2.44834,2.18807 29.282,29.281998 0 0 0 -0.783833,0.87689 l 11.363295,10.53331 a 21.912033,20.789733 0 0 1 0.178555,-0.10373 21.912033,20.789733 0 0 1 3.17619,-1.24838 21.912033,20.789733 0 0 1 1.070579,-0.24361 z"
       style="opacity:0.6;fill:#8dd35f;fill-opacity:0.254902;fill-rule:evenodd;stroke:#000000;stroke-width:0.14641;paint-order:stroke markers fill"
       id="path74" />
    <path
       d="M 68.588816,114.0525 57.003083,104.03518 a 29.282,29.281998 0 0 0 -0.685476,0.76643 29.282,29.281998 0 0 0 -1.900565,2.67834 29.282,29.281998 0 0 0 -1.588093,2.87355 29.282,29.281998 0 0 0 -0.826201,2.36209 l 10.625615,5.9771 a 21.912033,20.789733 0 0 1 1.088739,-1.2098 21.912033,20.789733 0 0 1 2.614793,-2.11847 21.912033,20.789733 0 0 1 2.256921,-1.31192 z"
       style="opacity:0.6;fill:#8dd35f;fill-opacity:0.254902;fill-rule:evenodd;stroke:#000000;stroke-width:0.14641;paint-order:stroke markers fill"
       id="path64" />
    <path
       d="m 78.40488,93.821907 a 29.282,29.281998 0 0 0 -2.472558,0.139207 29.282,29.281998 0 0 0 -3.236715,0.550042 29.282,29.281998 0 0 0 -3.155753,0.908672 29.282,29.281998 0 0 0 -2.4612,1.01989 l 7.075665,15.581312 a 21.912033,20.789733 0 0 1 1.628957,-0.37148 21.912033,20.789733 0 0 1 3.089924,-0.23076 z"
       style="opacity:0.6;fill:#8dd35f;fill-opacity:0.254902;fill-rule:evenodd;stroke:#000000;stroke-width:0.14641;paint-order:stroke markers fill"
       id="path57" />
    <path
       d="m 128.75701,80.439261 -19.54587,16.900053 a 39.5307,39.530696 0 0 1 0.45924,0.521294 39.5307,39.530696 0 0 1 1.52227,1.962608 39.5307,39.530696 0 0 1 1.39592,2.054154 39.5307,39.530696 0 0 1 1.26353,2.13738 39.5307,39.530696 0 0 1 1.12732,2.21304 39.5307,39.530696 0 0 1 0.58258,1.34522 l 22.61763,-12.722891 a 65.3739,65.373893 0 0 0 -1.31344,-2.60874 65.3739,65.373893 0 0 0 -1.58204,-2.791833 65.3739,65.373893 0 0 0 -1.71673,-2.710877 65.3739,65.373893 0 0 0 -1.84758,-2.623115 65.3739,65.373893 0 0 0 -1.97397,-2.529298 65.3739,65.373893 0 0 0 -0.98886,-1.146995 z"
       style="opacity:0.6;fill:#ffb380;fill-opacity:0.254902;fill-rule:evenodd;stroke:#000000;stroke-width:0.14641;paint-order:stroke markers fill"
       id="path87" />
    <path
       d="M 109.16348,64.968413 97.366651,87.964352 a 39.5307,39.530696 0 0 1 0.889,0.4532 39.5307,39.530696 0 0 1 2.137389,1.264269 39.5307,39.530696 0 0 1 2.05414,1.395916 39.5307,39.530696 0 0 1 1.96185,1.52227 39.5307,39.530696 0 0 1 1.86274,1.641809 39.5307,39.530696 0 0 1 1.75605,1.756056 39.5307,39.530696 0 0 1 0.24061,0.273131 l 18.92622,-17.593851 a 65.3739,65.373893 0 0 0 -1.75684,-1.844579 65.3739,65.373893 0 0 0 -2.32424,-2.213038 65.3739,65.373893 0 0 0 -2.42943,-2.095769 65.3739,65.373893 0 0 0 -2.5293,-1.973954 65.3739,65.373893 0 0 0 -2.62386,-1.847604 65.3739,65.373893 0 0 0 -2.71089,-1.716712 65.3739,65.373893 0 0 0 -2.79183,-1.581285 65.3739,65.373893 0 0 0 -0.86478,-0.435798 z"
       style="opacity:0.6;fill:#ffb380;fill-opacity:0.254902;fill-rule:evenodd;stroke:#000000;stroke-width:0.14641;paint-order:stroke markers fill"
       id="path85" />
    <path
       d="M 95.589399,87.094267 106.27251,63.567199 a 65.3739,65.373893 0 0 0 -2.04356,-0.906399 65.3739,65.373893 0 0 0 -2.99383,-1.15456 65.3739,65.373893 0 0 0 -3.046809,-1.006275 65.3739,65.373893 0 0 0 -3.092207,-0.855709 65.3739,65.373893 0 0 0 -3.130789,-0.702869 65.3739,65.373893 0 0 0 -3.161812,-0.549288 65.3739,65.373893 0 0 0 -3.184505,-0.392685 65.3739,65.373893 0 0 0 -3.19963,-0.236057 65.3739,65.373893 0 0 0 -1.438287,-0.03557 l -0.669592,25.835432 a 39.5307,39.530696 0 0 1 1.3823,0.04311 39.5307,39.530696 0 0 1 2.471796,0.233788 39.5307,39.530696 0 0 1 2.45288,0.388134 39.5307,39.530696 0 0 1 2.424125,0.54172 39.5307,39.530696 0 0 1 2.384024,0.693041 39.5307,39.530696 0 0 1 2.337128,0.841334 39.5307,39.530696 0 0 1 1.825657,0.789885 z"
       style="opacity:0.6;fill:#ffb380;fill-opacity:0.254902;fill-rule:evenodd;stroke:#000000;stroke-width:0.14641;paint-order:stroke markers fill"
       id="path83" />
    <path
       d="m 31.25087,78.694553 18.950427,17.565101 a 39.5307,39.530696 0 0 1 1.056962,-1.153807 39.5307,39.530696 0 0 1 2.542915,-2.329554 39.5307,39.530696 0 0 1 2.735847,-2.09955 39.5307,39.530696 0 0 1 2.909107,-1.8529 39.5307,39.530696 0 0 1 1.634244,-0.851171 L 49.270686,64.986571 a 65.3739,65.373893 0 0 0 -1.389866,0.695311 65.3739,65.373893 0 0 0 -4.012978,2.381003 65.3739,65.373893 0 0 0 -3.833665,2.661701 65.3739,65.373893 0 0 0 -3.633924,2.92802 65.3739,65.373893 0 0 0 -3.415269,3.179967 65.3739,65.373893 0 0 0 -1.734114,1.86198 z"
       style="opacity:0.6;fill:#ffb380;fill-opacity:0.254902;fill-rule:evenodd;stroke:#000000;stroke-width:0.14641;paint-order:stroke markers fill"
       id="path69" />
    <path
       d="M 49.232856,97.316618 29.676397,80.407483 a 65.3739,65.373893 0 0 0 -2.799399,3.474283 65.3739,65.373893 0 0 0 -2.661701,3.832908 65.3739,65.373893 0 0 0 -3.913864,7.168735 l 22.654713,12.743321 a 39.5307,39.530696 0 0 1 2.020866,-4.33301 39.5307,39.530696 0 0 1 1.8529,-2.90911 39.5307,39.530696 0 0 1 2.098793,-2.735848 39.5307,39.530696 0 0 1 0.304151,-0.332144 z"
       style="opacity:0.6;fill:#ffb380;fill-opacity:0.254902;fill-rule:evenodd;stroke:#000000;stroke-width:0.14641;paint-order:stroke markers fill"
       id="path67" />
    <path
       d="m 77.444006,57.747471 a 65.3739,65.373893 0 0 0 -2.896254,0.103664 65.3739,65.373893 0 0 0 -4.640191,0.499346 65.3739,65.373893 0 0 0 -4.59253,0.828475 65.3739,65.373893 0 0 0 -4.521409,1.153814 65.3739,65.373893 0 0 0 -4.427593,1.473835 65.3739,65.373893 0 0 0 -4.221798,1.749251 L 62.834914,87.09503 a 39.5307,39.530696 0 0 1 2.856145,-1.183315 39.5307,39.530696 0 0 1 3.288917,-1.03729 39.5307,39.530696 0 0 1 3.366838,-0.746002 39.5307,39.530696 0 0 1 3.419055,-0.450175 39.5307,39.530696 0 0 1 2.365868,-0.102894 z"
       style="opacity:0.6;fill:#ffb380;fill-opacity:0.254902;fill-rule:evenodd;stroke:#000000;stroke-width:0.14641;paint-order:stroke markers fill"
       id="path53" />
    <path
       d="M 136.76857,37.799855 120.3414,62.201541 a 50.792352,39.530696 0 0 1 1.74396,1.99666 50.792352,39.530696 0 0 1 1.62364,2.137378 50.792352,39.530696 0 0 1 1.44813,2.21304 50.792352,39.530696 0 0 1 0.74903,1.345226 l 29.0608,-12.722893 a 83.997857,65.373893 0 0 0 -1.68797,-2.608748 83.997857,65.373893 0 0 0 -2.03219,-2.791833 83.997857,65.373893 0 0 0 -2.20625,-2.71087 83.997857,65.373893 0 0 0 -2.37344,-2.62311 83.997857,65.373893 0 0 0 -2.53686,-2.529307 83.997857,65.373893 0 0 0 -2.69272,-2.430171 83.997857,65.373893 0 0 0 -2.84254,-2.323512 83.997857,65.373893 0 0 0 -1.82642,-1.353546 z"
       style="opacity:0.6;fill:#aaffee;fill-opacity:0.254902;fill-rule:evenodd;stroke:#000000;stroke-width:0.14641;paint-order:stroke markers fill"
       id="path117" />
    <path
       d="m 116.12641,26.678668 -9.67079,25.345167 a 50.792352,39.530696 0 0 1 2.59965,1.374731 50.792352,39.530696 0 0 1 2.52023,1.52227 50.792352,39.530696 0 0 1 2.39387,1.641813 50.792352,39.530696 0 0 1 2.25616,1.756055 50.792352,39.530696 0 0 1 2.11013,1.86273 50.792352,39.530696 0 0 1 0.48726,0.488761 l 15.53592,-24.5689 a 83.997857,65.373893 0 0 0 -1.87183,-1.256698 83.997857,65.373893 0 0 0 -3.24958,-1.973957 83.997857,65.373893 0 0 0 -3.37136,-1.847605 83.997857,65.373893 0 0 0 -3.48337,-1.716718 83.997857,65.373893 0 0 0 -3.58702,-1.58127 83.997857,65.373893 0 0 0 -2.66927,-1.046379 z"
       style="opacity:0.6;fill:#aaffee;fill-opacity:0.254902;fill-rule:evenodd;stroke:#000000;stroke-width:0.14641;paint-order:stroke markers fill"
       id="path115" />
    <path
       d="m 95.386636,21.23497 -4.062158,25.767353 a 50.792352,39.530696 0 0 1 0.506916,0.08858 50.792352,39.530696 0 0 1 3.063454,0.693033 50.792352,39.530696 0 0 1 3.002933,0.84133 50.792352,39.530696 0 0 1 2.928019,0.985852 50.792352,39.530696 0 0 1 2.84328,1.127327 50.792352,39.530696 0 0 1 0.55533,0.25572 l 8.78181,-25.438973 a 83.997857,65.373893 0 0 0 -1.66224,-0.573502 83.997857,65.373893 0 0 0 -3.84652,-1.154559 83.997857,65.373893 0 0 0 -3.91462,-1.006276 83.997857,65.373893 0 0 0 -3.972879,-0.855708 83.997857,65.373893 0 0 0 -4.022828,-0.702871 83.997857,65.373893 0 0 0 -0.200497,-0.02724 z"
       style="opacity:0.6;fill:#aaffee;fill-opacity:0.254902;fill-rule:evenodd;stroke:#000000;stroke-width:0.14641;paint-order:stroke markers fill"
       id="path113" />
    <path
       d="M 38.148744,62.141777 21.732153,37.755975 a 83.997857,65.373893 0 0 0 -1.92856,1.396679 83.997857,65.373893 0 0 0 -4.085611,3.416024 83.997857,65.373893 0 0 0 -3.762545,3.633164 83.997857,65.373893 0 0 0 -3.4190508,3.833658 83.997857,65.373893 0 0 0 -5.029085,7.168746 L 32.615766,69.947563 a 50.792352,39.530696 0 0 1 2.596634,-4.333018 50.792352,39.530696 0 0 1 2.380247,-2.909105 50.792352,39.530696 0 0 1 0.556097,-0.563663 z"
       style="opacity:0.6;fill:#aaffee;fill-opacity:0.254902;fill-rule:evenodd;stroke:#000000;stroke-width:0.14641;paint-order:stroke markers fill"
       id="path111" />
    <path
       d="M 52.059494,52.008696 42.387943,26.660514 a 83.997857,65.373893 0 0 0 -3.444018,1.341437 83.997857,65.373893 0 0 0 -5.156949,2.381769 83.997857,65.373893 0 0 0 -4.925431,2.660944 83.997857,65.373893 0 0 0 -4.668945,2.92877 83.997857,65.373893 0 0 0 -0.07113,0.05139 l 15.542731,24.578743 a 50.792352,39.530696 0 0 1 0.625703,-0.63403 50.792352,39.530696 0 0 1 2.993845,-2.542921 50.792352,39.530696 0 0 1 3.266974,-2.329546 50.792352,39.530696 0 0 1 3.51514,-2.099548 50.792352,39.530696 0 0 1 1.993629,-0.988882 z"
       style="opacity:0.6;fill:#aaffee;fill-opacity:0.254902;fill-rule:evenodd;stroke:#000000;stroke-width:0.14641;paint-order:stroke markers fill"
       id="path109" />
    <path
       d="m 54.280098,50.951748 a 50.792352,39.530696 0 0 1 3.453855,-1.399709 50.792352,39.530696 0 0 1 4.093933,-1.319505 50.792352,39.530696 0 0 1 4.225581,-1.037286 50.792352,39.530696 0 0 1 1.134893,-0.195954 L 63.129229,21.249347 a 83.997857,65.373893 0 0 0 -1.784808,0.250433 83.997857,65.373893 0 0 0 -5.809131,1.153813 83.997857,65.373893 0 0 0 -5.689592,1.473838 83.997857,65.373893 0 0 0 -4.342096,1.400455 z"
       style="opacity:0.6;fill:#aaffee;fill-opacity:0.254902;fill-rule:evenodd;stroke:#000000;stroke-width:0.14641;paint-order:stroke markers fill"
       id="path108" />
    <path
       d="m 67.453167,20.653911 2.954505,25.792304 a 50.792352,39.530696 0 0 1 4.36479,-0.447137 50.792352,39.530696 0 0 1 4.426838,-0.149806 50.792352,39.530696 0 0 1 3.18979,0.07789 50.792352,39.530696 0 0 1 3.176189,0.233788 50.792352,39.530696 0 0 1 2.536114,0.312482 L 91.057397,20.66826 a 83.997857,65.373893 0 0 0 -3.624834,-0.348046 83.997857,65.373893 0 0 0 -4.111339,-0.236057 83.997857,65.373893 0 0 0 -4.121924,-0.07863 83.997857,65.373893 0 0 0 -5.992225,0.166453 83.997857,65.373893 0 0 0 -5.753908,0.481952 z"
       style="opacity:0.6;fill:#aaffee;fill-opacity:0.254902;fill-rule:evenodd;stroke:#000000;stroke-width:0.14641;paint-order:stroke markers fill"
       id="path100" />
    <text
       xml:space="preserve"
       transform="matrix(0.24792093,0,0,0.24792093,23.135909,102.27628)"
       id="text12-6-6-7"
       style="white-space:pre;shape-inside:url(#rect12-6-3-8);display:inline;fill:#000000;fill-opacity:1;fill-rule:evenodd;stroke:#000000;stroke-width:0.0755906;stroke-dasharray:none;stroke-opacity:1;paint-order:stroke markers fill"><tspan
         x="198.42578"
         y="124.33468"
         id="tspan1">Színpad</tspan></text>
    <text
       xml:space="preserve"
       transform="matrix(0.24792093,0,0,0.24792093,9.2387762,82.386591)"
       id="text12-6-6-8-98-9-3-0"
       style="white-space:pre;shape-inside:url(#rect12-6-3-6-6-1-2-9);display:inline;fill:#000000;fill-opacity:1;fill-rule:evenodd;stroke:#000000;stroke-width:0.0755906;stroke-dasharray:none;stroke-opacity:1;paint-order:stroke markers fill"><tspan
         x="198.42578"
         y="124.33468"
         id="tspan2">A1</tspan></text>
    <text
       xml:space="preserve"
       transform="matrix(0.24792093,0,0,0.24792093,14.996516,75.796224)"
       id="text12-6-6-8-98-9-3-0-0"
       style="white-space:pre;shape-inside:url(#rect12-6-3-6-6-1-2-9-2);display:inline;fill:#000000;fill-opacity:1;fill-rule:evenodd;stroke:#000000;stroke-width:0.0755906;stroke-dasharray:none;stroke-opacity:1;paint-order:stroke markers fill"><tspan
         x="198.42578"
         y="124.33468"
         id="tspan3">A2</tspan></text>
    <text
       xml:space="preserve"
       transform="matrix(0.24792093,0,0,0.24792093,23.906173,72.697211)"
       id="text12-6-6-8-98-9-3-0-7"
       style="white-space:pre;shape-inside:url(#rect12-6-3-6-6-1-2-9-8);display:inline;fill:#000000;fill-opacity:1;fill-rule:evenodd;stroke:#000000;stroke-width:0.0755906;stroke-dasharray:none;stroke-opacity:1;paint-order:stroke markers fill"><tspan
         x="198.42578"
         y="124.33468"
         id="tspan4">A3</tspan></text>
    <text
       xml:space="preserve"
       transform="matrix(0.24792093,0,0,0.24792093,33.203208,72.697211)"
       id="text12-6-6-8-98-9-3-0-3"
       style="white-space:pre;shape-inside:url(#rect12-6-3-6-6-1-2-9-4);display:inline;fill:#000000;fill-opacity:1;fill-rule:evenodd;stroke:#000000;stroke-width:0.0755906;stroke-dasharray:none;stroke-opacity:1;paint-order:stroke markers fill"><tspan
         x="198.42578"
         y="124.33468"
         id="tspan5">A4</tspan></text>
    <text
       xml:space="preserve"
       transform="matrix(0.24792093,0,0,0.24792093,42.112867,76.570978)"
       id="text12-6-6-8-98-9-3-0-8"
       style="white-space:pre;shape-inside:url(#rect12-6-3-6-6-1-2-9-41);display:inline;fill:#000000;fill-opacity:1;fill-rule:evenodd;stroke:#000000;stroke-width:0.0755906;stroke-dasharray:none;stroke-opacity:1;paint-order:stroke markers fill"><tspan
         x="198.42578"
         y="124.33468"
         id="tspan6">A5</tspan></text>
    <text
       xml:space="preserve"
       transform="matrix(0.24792093,0,0,0.24792093,47.14876,82.381623)"
       id="text12-6-6-8-98-9-3-0-6"
       style="white-space:pre;shape-inside:url(#rect12-6-3-6-6-1-2-9-7);display:inline;fill:#000000;fill-opacity:1;fill-rule:evenodd;stroke:#000000;stroke-width:0.0755906;stroke-dasharray:none;stroke-opacity:1;paint-order:stroke markers fill"><tspan
         x="198.42578"
         y="124.33468"
         id="tspan7">A6</tspan></text>
    <text
       xml:space="preserve"
       transform="matrix(0.24792093,0,0,0.24792093,-16.380978,66.111813)"
       id="text12-6-6-8-98-9-3-0-1"
       style="white-space:pre;shape-inside:url(#rect12-6-3-6-6-1-2-9-76);display:inline;fill:#000000;fill-opacity:1;fill-rule:evenodd;stroke:#000000;stroke-width:0.0755906;stroke-dasharray:none;stroke-opacity:1;paint-order:stroke markers fill"><tspan
         x="198.42578"
         y="124.33468"
         id="tspan8">B1</tspan></text>
    <text
       xml:space="preserve"
       transform="matrix(0.24792093,0,0,0.24792093,-1.9134363,51.391507)"
       id="text12-6-6-8-98-9-3-0-1-4"
       style="white-space:pre;shape-inside:url(#rect12-6-3-6-6-1-2-9-76-8);display:inline;fill:#000000;fill-opacity:1;fill-rule:evenodd;stroke:#000000;stroke-width:0.0755906;stroke-dasharray:none;stroke-opacity:1;paint-order:stroke markers fill"><tspan
         x="198.42578"
         y="124.33468"
         id="tspan9">B2</tspan></text>
    <text
       xml:space="preserve"
       transform="matrix(0.24792093,0,0,0.24792093,16.680634,40.544966)"
       id="text12-6-6-8-98-9-3-0-1-0"
       style="white-space:pre;shape-inside:url(#rect12-6-3-6-6-1-2-9-76-6);display:inline;fill:#000000;fill-opacity:1;fill-rule:evenodd;stroke:#000000;stroke-width:0.0755906;stroke-dasharray:none;stroke-opacity:1;paint-order:stroke markers fill"><tspan
         x="198.42578"
         y="124.33468"
         id="tspan10">B3</tspan></text>
    <text
       xml:space="preserve"
       transform="matrix(0.24792093,0,0,0.24792093,40.310598,40.544966)"
       id="text12-6-6-8-98-9-3-0-1-3"
       style="white-space:pre;shape-inside:url(#rect12-6-3-6-6-1-2-9-76-5);display:inline;fill:#000000;fill-opacity:1;fill-rule:evenodd;stroke:#000000;stroke-width:0.0755906;stroke-dasharray:none;stroke-opacity:1;paint-order:stroke markers fill"><tspan
         x="198.42578"
         y="124.33468"
         id="tspan11">B4</tspan></text>
    <text
       xml:space="preserve"
       transform="matrix(0.24792093,0,0,0.24792093,60.454173,51.391507)"
       id="text12-6-6-8-98-9-3-0-1-2"
       style="white-space:pre;shape-inside:url(#rect12-6-3-6-6-1-2-9-76-1);display:inline;fill:#000000;fill-opacity:1;fill-rule:evenodd;stroke:#000000;stroke-width:0.0755906;stroke-dasharray:none;stroke-opacity:1;paint-order:stroke markers fill"><tspan
         x="198.42578"
         y="124.33468"
         id="tspan12">B5</tspan></text>
    <text
       xml:space="preserve"
       transform="matrix(0.24792093,0,0,0.24792093,71.300715,66.111813)"
       id="text12-6-6-8-98-9-3-0-1-03"
       style="white-space:pre;shape-inside:url(#rect12-6-3-6-6-1-2-9-76-13);display:inline;fill:#000000;fill-opacity:1;fill-rule:evenodd;stroke:#000000;stroke-width:0.0755906;stroke-dasharray:none;stroke-opacity:1;paint-order:stroke markers fill"><tspan
         x="198.42578"
         y="124.33468"
         id="tspan13">B6</tspan></text>
    <text
       xml:space="preserve"
       transform="matrix(0.24792093,0,0,0.24792093,-27.480282,25.82466)"
       id="text12-6-6-8-98-9-3-0-1-8"
       style="white-space:pre;shape-inside:url(#rect12-6-3-6-6-1-2-9-76-4);display:inline;fill:#000000;fill-opacity:1;fill-rule:evenodd;stroke:#000000;stroke-width:0.0755906;stroke-dasharray:none;stroke-opacity:1;paint-order:stroke markers fill"><tspan
         x="198.42578"
         y="124.33468"
         id="tspan14">C1</tspan></text>
    <text
       xml:space="preserve"
       transform="matrix(0.24792093,0,0,0.24792093,-11.636244,13.903384)"
       id="text12-6-6-8-98-9-3-0-1-8-3"
       style="white-space:pre;shape-inside:url(#rect12-6-3-6-6-1-2-9-76-4-3);display:inline;fill:#000000;fill-opacity:1;fill-rule:evenodd;stroke:#000000;stroke-width:0.0755906;stroke-dasharray:none;stroke-opacity:1;paint-order:stroke markers fill"><tspan
         x="198.42578"
         y="124.33468"
         id="tspan15">C2</tspan></text>
    <text
       xml:space="preserve"
       transform="matrix(0.24792093,0,0,0.24792093,6.0821834,6.5088609)"
       id="text12-6-6-8-98-9-3-0-1-8-1"
       style="white-space:pre;shape-inside:url(#rect12-6-3-6-6-1-2-9-76-4-0);display:inline;fill:#000000;fill-opacity:1;fill-rule:evenodd;stroke:#000000;stroke-width:0.0755906;stroke-dasharray:none;stroke-opacity:1;paint-order:stroke markers fill"><tspan
         x="198.42578"
         y="124.33468"
         id="tspan16">C3</tspan></text>
    <text
       xml:space="preserve"
       transform="matrix(0.24792093,0,0,0.24792093,27.263275,3.7761654)"
       id="text12-6-6-8-98-9-3-0-1-8-9"
       style="white-space:pre;shape-inside:url(#rect12-6-3-6-6-1-2-9-76-4-7);display:inline;fill:#000000;fill-opacity:1;fill-rule:evenodd;stroke:#000000;stroke-width:0.0755906;stroke-dasharray:none;stroke-opacity:1;paint-order:stroke markers fill"><tspan
         x="198.42578"
         y="124.33468"
         id="tspan17">C4</tspan></text>
    <text
       xml:space="preserve"
       transform="matrix(0.24792093,0,0,0.24792093,50.648412,6.3864343)"
       id="text12-6-6-8-98-9-3-0-1-8-8"
       style="white-space:pre;shape-inside:url(#rect12-6-3-6-6-1-2-9-76-4-8);display:inline;fill:#000000;fill-opacity:1;fill-rule:evenodd;stroke:#000000;stroke-width:0.0755906;stroke-dasharray:none;stroke-opacity:1;paint-order:stroke markers fill"><tspan
         x="198.42578"
         y="124.33468"
         id="tspan18">C5</tspan></text>
    <text
       xml:space="preserve"
       transform="matrix(0.24792093,0,0,0.24792093,67.824342,13.940172)"
       id="text12-6-6-8-98-9-3-0-1-8-39"
       style="white-space:pre;shape-inside:url(#rect12-6-3-6-6-1-2-9-76-4-85);display:inline;fill:#000000;fill-opacity:1;fill-rule:evenodd;stroke:#000000;stroke-width:0.0755906;stroke-dasharray:none;stroke-opacity:1;paint-order:stroke markers fill"><tspan
         x="198.42578"
         y="124.33468"
         id="tspan19">C6</tspan></text>
    <text
       xml:space="preserve"
       transform="matrix(0.24792093,0,0,0.24792093,86.144492,25.856623)"
       id="text12-6-6-8-98-9-3-0-1-8-7"
       style="white-space:pre;shape-inside:url(#rect12-6-3-6-6-1-2-9-76-4-07);display:inline;fill:#000000;fill-opacity:1;fill-rule:evenodd;stroke:#000000;stroke-width:0.0755906;stroke-dasharray:none;stroke-opacity:1;paint-order:stroke markers fill"><tspan
         x="198.42578"
         y="124.33468"
         id="tspan20">C7</tspan></text>
    <rect
       style="fill:#716b67;fill-opacity:0.328467;fill-rule:evenodd;stroke:#000000;stroke-width:0.14641;stroke-dasharray:none;paint-order:stroke markers fill"
       id="rect11"
       width="9.4086475"
       height="8.0490303"
       x="39.695286"
       y="128.15887" />
    <text
       xml:space="preserve"
       transform="matrix(0.24792093,0,0,0.24792093,-7.4381349,102.44697)"
       id="text12-6-6-8-9"
       style="white-space:pre;shape-inside:url(#rect12-6-3-6-7-9);display:inline;fill:#000000;fill-opacity:1;fill-rule:evenodd;stroke:#000000;stroke-width:0.0755906;stroke-dasharray:none;stroke-opacity:1;paint-order:stroke markers fill"><tspan
         x="198.42578"
         y="124.33468"
         id="tspan21">Mix</tspan></text>
  </g>
</svg>
