<?xml version="1.0" encoding="UTF-8" standalone="no"?>
<!-- Created with Inkscape (http://www.inkscape.org/) -->

<svg
   width="158.75mm"
   height="158.75mm"
   viewBox="0 0 158.75 158.75"
   version="1.1"
   id="svg1"
   inkscape:version="1.3 (0e150ed6c4, 2023-07-21)"
   sodipodi:docname="location11.svg"
   inkscape:export-filename="location02mod.svg"
   inkscape:export-xdpi="96"
   inkscape:export-ydpi="96"
   xmlns:inkscape="http://www.inkscape.org/namespaces/inkscape"
   xmlns:sodipodi="http://sodipodi.sourceforge.net/DTD/sodipodi-0.dtd"
   xmlns="http://www.w3.org/2000/svg"
   xmlns:svg="http://www.w3.org/2000/svg">
  <sodipodi:namedview
     id="namedview1"
     pagecolor="#505050"
     bordercolor="#eeeeee"
     borderopacity="1"
     inkscape:showpageshadow="0"
     inkscape:pageopacity="0"
     inkscape:pagecheckerboard="0"
     inkscape:deskcolor="#505050"
     inkscape:document-units="mm"
     inkscape:zoom="1"
     inkscape:cx="249"
     inkscape:cy="205.5"
     inkscape:window-width="1920"
     inkscape:window-height="1017"
     inkscape:window-x="1912"
     inkscape:window-y="-8"
     inkscape:window-maximized="1"
     inkscape:current-layer="l11_f_szektor"
     showgrid="true">
    <inkscape:grid
       id="grid1"
       units="mm"
       originx="0"
       originy="0"
       spacingx="0.5"
       spacingy="0.5"
       empcolor="#0099e5"
       empopacity="0.30196078"
       color="#0099e5"
       opacity="0.14901961"
       empspacing="5"
       dotted="false"
       gridanglex="30"
       gridanglez="30"
       visible="true" />
  </sodipodi:namedview>
  <defs
     id="defs1">
    <rect
       x="198.4252"
       y="113.38582"
       width="60.074799"
       height="15.114176"
       id="rect12-6-3-8" />
    <rect
       x="198.4252"
       y="113.38582"
       width="60.074799"
       height="15.114176"
       id="rect12-6-3-6-6-1-2-9" />
    <rect
       x="198.4252"
       y="113.38582"
       width="60.074799"
       height="15.114176"
       id="rect12-6-3-6-6-1-2-9-2" />
    <rect
       x="198.4252"
       y="113.38582"
       width="60.074799"
       height="15.114176"
       id="rect12-6-3-6-6-1-2-9-8" />
    <rect
       x="198.4252"
       y="113.38582"
       width="60.074799"
       height="15.114176"
       id="rect12-6-3-6-6-1-2-9-4" />
    <rect
       x="198.4252"
       y="113.38582"
       width="60.074799"
       height="15.114176"
       id="rect12-6-3-6-6-1-2-9-41" />
    <rect
       x="198.4252"
       y="113.38582"
       width="60.074799"
       height="15.114176"
       id="rect12-6-3-6-6-1-2-9-7" />
    <rect
       x="198.4252"
       y="113.38582"
       width="60.074799"
       height="15.114176"
       id="rect12-6-3-6-6-1-2-9-76" />
    <rect
       x="198.4252"
       y="113.38582"
       width="60.074799"
       height="15.114176"
       id="rect12-6-3-6-6-1-2-9-76-8" />
    <rect
       x="198.4252"
       y="113.38582"
       width="60.074799"
       height="15.114176"
       id="rect12-6-3-6-6-1-2-9-76-6" />
    <rect
       x="198.4252"
       y="113.38582"
       width="60.074799"
       height="15.114176"
       id="rect12-6-3-6-6-1-2-9-76-5" />
    <rect
       x="198.4252"
       y="113.38582"
       width="60.074799"
       height="15.114176"
       id="rect12-6-3-6-6-1-2-9-76-1" />
    <rect
       x="198.4252"
       y="113.38582"
       width="60.074799"
       height="15.114176"
       id="rect12-6-3-6-6-1-2-9-76-13" />
    <rect
       x="198.4252"
       y="113.38582"
       width="60.074799"
       height="15.114176"
       id="rect12-6-3-6-6-1-2-9-76-4" />
    <rect
       x="198.4252"
       y="113.38582"
       width="60.074799"
       height="15.114176"
       id="rect12-6-3-6-6-1-2-9-76-4-3" />
    <rect
       x="198.4252"
       y="113.38582"
       width="60.074799"
       height="15.114176"
       id="rect12-6-3-6-6-1-2-9-76-4-0" />
    <rect
       x="198.4252"
       y="113.38582"
       width="60.074799"
       height="15.114176"
       id="rect12-6-3-6-7-9" />
    <rect
       x="198.4252"
       y="113.38582"
       width="60.074799"
       height="15.114176"
       id="rect12-6-3-6-6-1-2-9-76-4-0-4" />
    <rect
       x="198.4252"
       y="113.38582"
       width="60.074799"
       height="15.114176"
       id="rect12-6-3-6-6-1-2-9-76-4-0-4-2" />
    <rect
       x="198.4252"
       y="113.38582"
       width="60.074799"
       height="15.114176"
       id="rect12-6-3-6-6-1-2-9-76-4-0-4-0" />
    <rect
       x="198.4252"
       y="113.38582"
       width="60.074799"
       height="15.114176"
       id="rect12-6-3-6-6-1-2-9-76-4-0-4-9" />
    <rect
       x="198.4252"
       y="113.38582"
       width="60.074799"
       height="15.114176"
       id="rect12-6-3-8-0" />
    <rect
       x="198.4252"
       y="113.38582"
       width="60.074799"
       height="15.114176"
       id="rect12-6-3-8-0-8" />
    <rect
       x="198.4252"
       y="113.38582"
       width="60.074799"
       height="15.114176"
       id="rect12-6-3-8-0-1" />
    <rect
       x="198.4252"
       y="113.38582"
       width="60.074799"
       height="15.114176"
       id="rect12-6-3-8-0-9" />
    <rect
       x="198.4252"
       y="113.38582"
       width="60.074799"
       height="15.114176"
       id="rect12-6-3-8-0-88" />
    <rect
       x="198.4252"
       y="113.38582"
       width="60.074799"
       height="15.114176"
       id="rect12-6-3-8-0-88-2" />
    <rect
       x="198.4252"
       y="113.38582"
       width="60.074799"
       height="15.114176"
       id="rect12-6-3-8-0-88-9" />
    <rect
       x="198.4252"
       y="113.38582"
       width="60.074799"
       height="15.114176"
       id="rect12-6-3-8-0-88-7" />
    <rect
       x="198.4252"
       y="113.38582"
       width="60.074799"
       height="15.114176"
       id="rect12-6-3-8-0-88-4" />
    <rect
       x="198.4252"
       y="113.38582"
       width="60.074799"
       height="15.114176"
       id="rect12-6-3-6-6-1-2-0-3-4-8-6" />
    <rect
       x="198.4252"
       y="113.38582"
       width="60.074799"
       height="15.114176"
       id="rect12-6-3-6-6-1-2-0-3-4-8-9-4" />
    <rect
       x="198.4252"
       y="113.38582"
       width="60.074799"
       height="15.114176"
       id="rect12-6-3-6-6-1-2-0-3-4-8-90-4" />
    <rect
       x="198.4252"
       y="113.38582"
       width="60.074799"
       height="15.114176"
       id="rect12-6-3-6-6-1-2-0-3-4-8-7-5" />
    <rect
       x="198.4252"
       y="113.38582"
       width="60.074799"
       height="15.114176"
       id="rect12-6-3-6-6-1-2-0-3-4-8-4-3" />
    <rect
       x="198.4252"
       y="113.38582"
       width="60.074799"
       height="15.114176"
       id="rect12-6-3-6-6-1-2-0-3-4-8-2-1" />
    <rect
       x="198.4252"
       y="113.38582"
       width="60.074799"
       height="15.114176"
       id="rect12-6-3-6-6-1-2-0-3-4-8-96-5" />
    <rect
       x="198.4252"
       y="113.38582"
       width="60.074799"
       height="15.114176"
       id="rect12-6-3-6-6-1-2-0-3-4-8-1-5" />
    <rect
       x="198.4252"
       y="113.38582"
       width="60.074799"
       height="15.114176"
       id="rect12-6-3-6-6-1-2-0-3-4-8-90-1-0" />
    <rect
       x="198.4252"
       y="113.38582"
       width="60.074799"
       height="15.114176"
       id="rect12-6-3-6-6-1-2-0-3-4-8-2-5-6" />
    <rect
       x="198.4252"
       y="113.38582"
       width="60.074799"
       height="15.114176"
       id="rect12-6-3-6-6-1-2-0-3-4-8-96-2-3" />
    <rect
       x="198.4252"
       y="113.38582"
       width="60.074799"
       height="15.114176"
       id="rect12-6-3-6-6-1-5" />
    <rect
       x="198.4252"
       y="113.38582"
       width="60.074799"
       height="15.114176"
       id="rect12-6-3-6-6-1-5-9" />
    <rect
       x="198.4252"
       y="113.38582"
       width="60.074799"
       height="15.114176"
       id="rect12-6-3-6-6-1-5-8" />
    <rect
       x="198.4252"
       y="113.38582"
       width="60.074799"
       height="15.114176"
       id="rect12-6-3-6-6-1-5-8-1" />
    <rect
       x="198.4252"
       y="113.38582"
       width="60.074799"
       height="15.114176"
       id="rect12-6-3-6-6-1-5-8-8" />
    <rect
       x="198.4252"
       y="113.38582"
       width="60.074799"
       height="15.114176"
       id="rect12-6-3-6-6-1-5-8-1-7" />
    <rect
       x="198.4252"
       y="113.38582"
       width="60.074799"
       height="15.114176"
       id="rect12-6-3-6-6-1-2-0-3-4-8-6-2" />
    <rect
       x="198.4252"
       y="113.38582"
       width="60.074799"
       height="15.114176"
       id="rect12-6-3-6-6-1-2-0-3-4-8-6-2-6" />
    <rect
       x="198.4252"
       y="113.38582"
       width="60.074799"
       height="15.114176"
       id="rect12-6-3-6-6-1-2-0-3-4-8-9-4-7" />
    <rect
       x="198.4252"
       y="113.38582"
       width="60.074799"
       height="15.114176"
       id="rect12-6-3-6-6-1-2-0-3-4-8-9-4-7-2" />
    <rect
       x="198.4252"
       y="113.38582"
       width="60.074799"
       height="15.114176"
       id="rect12-6-3-6-6-1-2-0-3-4-8-9-4-7-2-3" />
    <rect
       x="198.4252"
       y="113.38582"
       width="60.074799"
       height="15.114176"
       id="rect12-6-3-6-6-1-2-0-3-4-8-9-4-7-2-0" />
    <rect
       x="198.4252"
       y="113.38582"
       width="60.074799"
       height="15.114176"
       id="rect12-6-3-6-6-1-2-0-3-4-8-9-4-7-2-35" />
    <rect
       x="198.4252"
       y="113.38582"
       width="60.074799"
       height="15.114176"
       id="rect12-6-3-6-6-1-2-0-3-4-8-9-4-7-2-06" />
    <rect
       x="198.4252"
       y="113.38582"
       width="60.074799"
       height="15.114176"
       id="rect12-6-3-6-6-1-2-0-3-4-8-9-4-7-2-6" />
    <rect
       x="198.4252"
       y="113.38582"
       width="60.074799"
       height="15.114176"
       id="rect12-6-3-6-6-1-2-0-3-4-8-9-4-7-2-4" />
    <rect
       x="198.4252"
       y="113.38582"
       width="60.074799"
       height="15.114176"
       id="rect12-6-3-6-6-1-2-0-3-4-8-9-4-7-2-37" />
    <rect
       x="198.4252"
       y="113.38582"
       width="60.074799"
       height="15.114176"
       id="rect12-6-3-6-6-1-2-0-3-4-8-9-4-7-2-43" />
    <rect
       x="198.4252"
       y="113.38582"
       width="60.074799"
       height="15.114176"
       id="rect12-6-3-6-6-1-2-0-3-4-8-9-4-7-2-6-6" />
    <rect
       x="198.4252"
       y="113.38582"
       width="60.074799"
       height="15.114176"
       id="rect12-6-3-6-6-1-2-0-3-4-8-9-4-7-2-6-6-6" />
    <rect
       x="198.4252"
       y="113.38582"
       width="60.074799"
       height="15.114176"
       id="rect12-6-3-6-6-1-2-0-3-4-8-9-4-7-2-6-6-9" />
    <rect
       x="198.4252"
       y="113.38582"
       width="60.074799"
       height="15.114176"
       id="rect12-6-3-6-6-1-2-0-3-4-8-6-0" />
    <rect
       x="198.4252"
       y="113.38582"
       width="60.074799"
       height="15.114176"
       id="rect12-6-3-6-6-1-2-0-3-4-8-9-4-3" />
    <rect
       x="198.4252"
       y="113.38582"
       width="60.074799"
       height="15.114176"
       id="rect12-6-3-6-6-1-2-0-3-4-8-7-5-8" />
    <rect
       x="198.4252"
       y="113.38582"
       width="60.074799"
       height="15.114176"
       id="rect12-6-3-6-6-1-2-0-3-4-8-9-4-7-2-3-0" />
    <rect
       x="198.4252"
       y="113.38582"
       width="60.074799"
       height="15.114176"
       id="rect12-6-3-6-6-1-2-0-3-4-8-9-4-7-2-3-0-2" />
    <rect
       x="198.4252"
       y="113.38582"
       width="60.074799"
       height="15.114176"
       id="rect12-6-3-6-6-1-2-0-3-4-8-9-4-7-2-3-0-2-5" />
    <rect
       x="198.4252"
       y="113.38582"
       width="60.074799"
       height="15.114176"
       id="rect12-6-3-6-6-1-2-0-3-4-8-9-4-7-2-3-0-2-1" />
    <rect
       x="198.4252"
       y="113.38582"
       width="60.074799"
       height="15.114176"
       id="rect12-6-3-6-6-1-2-0-3-4-8-9-4-7-2-3-0-6" />
    <rect
       x="198.4252"
       y="113.38582"
       width="60.074799"
       height="15.114176"
       id="rect12-6-3-6-6-1-2-0-3-4-8-9-4-7-2-3-0-6-2" />
    <rect
       x="198.4252"
       y="113.38582"
       width="60.074799"
       height="15.114176"
       id="rect12-6-3-6-6-1-2-0-3-4-8-9-4-7-2-3-0-6-9" />
    <rect
       x="198.4252"
       y="113.38582"
       width="60.074799"
       height="15.114176"
       id="rect12-6-3-6-6-1-2-0-3-4-8-9-4-7-2-3-0-6-7" />
    <rect
       x="198.4252"
       y="113.38582"
       width="60.074799"
       height="15.114176"
       id="rect12-6-3-6-6-1-2-0-3-4-8-1-5-5" />
    <rect
       x="198.4252"
       y="113.38582"
       width="60.074799"
       height="15.114176"
       id="rect12-6-3-6-6-1-2-0-3-4-8-90-1-0-3" />
    <rect
       x="198.4252"
       y="113.38582"
       width="60.074799"
       height="15.114176"
       id="rect12-6-3-6-6-1-2-0-3-4-8-2-5-6-9" />
    <rect
       x="198.4252"
       y="113.38582"
       width="60.074799"
       height="15.114176"
       id="rect12-6-3-6-6-1-2-0-3-4-8-96-2-3-0" />
    <rect
       x="198.4252"
       y="113.38582"
       width="60.074799"
       height="15.114176"
       id="rect12-6-3-6-6-1-2-0-3-4-8-1-5-5-1" />
    <rect
       x="198.4252"
       y="113.38582"
       width="60.074799"
       height="15.114176"
       id="rect12-6-3-6-6-1-2-0-3-4-8-90-1-0-3-2" />
    <rect
       x="198.4252"
       y="113.38582"
       width="60.074799"
       height="15.114176"
       id="rect12-6-3-6-6-1-2-0-3-4-8-2-5-6-9-4" />
    <rect
       x="198.4252"
       y="113.38582"
       width="60.074799"
       height="15.114176"
       id="rect12-6-3-6-6-1-2-0-3-4-8-96-2-3-0-7" />
  </defs>
  <g
     inkscape:label="Layer 1"
     inkscape:groupmode="layer"
     id="layer1">
    <path
       style="fill:#b46024;fill-opacity:0.253041;fill-rule:evenodd;stroke:#000000;stroke-width:0.0778116;paint-order:stroke markers fill"
       d="m 57.818504,108.79046 h 8.581042 l 2.805485,-3.71039 2.942013,-2.72196 7.204479,-1.1495 7.164271,1.1495 2.87375,2.87375 2.87375,3.44849 8.621236,0.11011 V 123.0491 H 57.8185 Z"
       id="szinpad"
       sodipodi:nodetypes="cccccccccccc" />
    <text
       xml:space="preserve"
       transform="matrix(0.19464866,0,0,0.19464866,35.344157,92.439017)"
       id="text12-6-6-7"
       style="white-space:pre;shape-inside:url(#rect12-6-3-8);display:inline;fill:#000000;fill-opacity:1;fill-rule:evenodd;stroke:#000000;stroke-width:0.0755906;stroke-dasharray:none;stroke-opacity:1;paint-order:stroke markers fill"><tspan
         x="198.42578"
         y="124.33468"
         id="tspan58">Színpad</tspan></text>
    <text
       xml:space="preserve"
       transform="matrix(0.19464866,0,0,0.19464866,22.631482,71.57948)"
       id="text12-6-6-7-6"
       style="white-space:pre;shape-inside:url(#rect12-6-3-8-0);display:inline;fill:#000000;fill-opacity:1;fill-rule:evenodd;stroke:#000000;stroke-width:0.0755906;stroke-dasharray:none;stroke-opacity:1;paint-order:stroke markers fill"><tspan
         x="198.42578"
         y="124.33468"
         id="tspan59">A-szektor</tspan></text>
    <text
       xml:space="preserve"
       transform="matrix(0.19464866,0,0,0.19464866,48.539539,71.405332)"
       id="text12-6-6-7-6-0"
       style="white-space:pre;shape-inside:url(#rect12-6-3-8-0-9);display:inline;fill:#000000;fill-opacity:1;fill-rule:evenodd;stroke:#000000;stroke-width:0.0755906;stroke-dasharray:none;stroke-opacity:1;paint-order:stroke markers fill"><tspan
         x="198.42578"
         y="124.33468"
         id="tspan60">B-szektor</tspan></text>
    <rect
       style="fill:#716b67;fill-opacity:0.328467;fill-rule:evenodd;stroke:#000000;stroke-width:0.11495;stroke-dasharray:none;paint-order:stroke markers fill"
       id="rect11"
       width="7.3869543"
       height="6.3194861"
       x="48.345318"
       y="112.76003" />
    <text
       xml:space="preserve"
       transform="matrix(0.19464866,0,0,0.19464866,11.339742,92.573028)"
       id="text12-6-6-8-9"
       style="white-space:pre;shape-inside:url(#rect12-6-3-6-7-9);display:inline;fill:#000000;fill-opacity:1;fill-rule:evenodd;stroke:#000000;stroke-width:0.0755906;stroke-dasharray:none;stroke-opacity:1;paint-order:stroke markers fill"><tspan
         x="198.42578"
         y="124.33468"
         id="tspan61">Mix</tspan></text>
    <text
       xml:space="preserve"
       transform="matrix(0.19464866,0,0,0.19464866,75.283481,55.755708)"
       id="text12-6-6-7-6-38-0"
       style="white-space:pre;shape-inside:url(#rect12-6-3-8-0-88-9);display:inline;fill:#000000;fill-opacity:1;fill-rule:evenodd;stroke:#000000;stroke-width:0.0755906;stroke-dasharray:none;stroke-opacity:1;paint-order:stroke markers fill"><tspan
         x="198.42578"
         y="124.33468"
         id="tspan62">E-szektor</tspan></text>
    <text
       xml:space="preserve"
       transform="matrix(0.19464866,0,0,0.19464866,-2.3134629,55.080426)"
       id="text12-6-6-7-6-38"
       style="white-space:pre;shape-inside:url(#rect12-6-3-8-0-88);display:inline;fill:#000000;fill-opacity:1;fill-rule:evenodd;stroke:#000000;stroke-width:0.0755906;stroke-dasharray:none;stroke-opacity:1;paint-order:stroke markers fill"><tspan
         x="198.42578"
         y="124.33468"
         id="tspan63">C-szektor</tspan></text>
    <text
       xml:space="preserve"
       transform="matrix(0.19464866,0,0,0.19464866,-14.581937,25.080426)"
       id="text12-6-6-7-6-38-60"
       style="white-space:pre;shape-inside:url(#rect12-6-3-8-0-88-7);display:inline;fill:#000000;fill-opacity:1;fill-rule:evenodd;stroke:#000000;stroke-width:0.0755906;stroke-dasharray:none;stroke-opacity:1;paint-order:stroke markers fill"><tspan
         x="198.42578"
         y="124.33468"
         id="tspan64">F-szektor</tspan></text>
    <text
       xml:space="preserve"
       transform="matrix(0.19464866,0,0,0.19464866,84.736504,24.828825)"
       id="text12-6-6-7-6-38-03"
       style="white-space:pre;shape-inside:url(#rect12-6-3-8-0-88-4);display:inline;fill:#000000;fill-opacity:1;fill-rule:evenodd;stroke:#000000;stroke-width:0.0755906;stroke-dasharray:none;stroke-opacity:1;paint-order:stroke markers fill"><tspan
         x="198.42578"
         y="124.33468"
         id="tspan65">G-szektor</tspan></text>
    <text
       xml:space="preserve"
       transform="matrix(0.19464866,0,0,0.19464866,39.950506,13.291064)"
       id="text12-6-6-7-6-3"
       style="white-space:pre;shape-inside:url(#rect12-6-3-8-0-8);display:inline;fill:#000000;fill-opacity:1;fill-rule:evenodd;stroke:#000000;stroke-width:0.0755906;stroke-dasharray:none;stroke-opacity:1;paint-order:stroke markers fill"><tspan
         x="198.42578"
         y="124.33468"
         id="tspan66">VIP</tspan></text>
    <text
       xml:space="preserve"
       transform="matrix(-0.05512554,-0.11966891,-0.11966891,0.05512554,125.03756,123.81499)"
       id="text12-6-6-8-98-9-3-9-95-2-5-726"
       style="white-space:pre;shape-inside:url(#rect12-6-3-6-6-1-2-0-3-4-8-6);display:inline;fill:#000000;fill-opacity:1;fill-rule:evenodd;stroke:#000000;stroke-width:0.0755906;stroke-dasharray:none;stroke-opacity:1;paint-order:stroke markers fill"><tspan
         x="198.42578"
         y="124.33468"
         id="tspan67">A</tspan></text>
    <text
       xml:space="preserve"
       transform="matrix(-0.07607354,0.10757456,0.10757456,0.07607354,62.219703,75.195854)"
       id="text12-6-6-8-98-9-3-9-95-2-5-726-8"
       style="white-space:pre;shape-inside:url(#rect12-6-3-6-6-1-2-0-3-4-8-6-2);display:inline;fill:#000000;fill-opacity:1;fill-rule:evenodd;stroke:#000000;stroke-width:0.0755906;stroke-dasharray:none;stroke-opacity:1;paint-order:stroke markers fill"><tspan
         x="198.42578"
         y="124.33468"
         id="tspan68">A</tspan></text>
    <text
       xml:space="preserve"
       transform="matrix(0.05512554,0.11966891,-0.11966891,0.05512554,106.96429,73.467939)"
       id="text12-6-6-8-98-9-3-9-95-2-5-5-4"
       style="white-space:pre;shape-inside:url(#rect12-6-3-6-6-1-2-0-3-4-8-9-4);display:inline;fill:#000000;fill-opacity:1;fill-rule:evenodd;stroke:#000000;stroke-width:0.0755906;stroke-dasharray:none;stroke-opacity:1;paint-order:stroke markers fill"><tspan
         x="198.42578"
         y="124.33468"
         id="tspan69">B</tspan></text>
    <text
       xml:space="preserve"
       transform="matrix(0.07607354,-0.10757456,0.10757456,0.07607354,27.114757,116.5767)"
       id="text12-6-6-8-98-9-3-9-95-2-5-5-4-2"
       style="white-space:pre;shape-inside:url(#rect12-6-3-6-6-1-2-0-3-4-8-9-4-7);display:inline;fill:#000000;fill-opacity:1;fill-rule:evenodd;stroke:#000000;stroke-width:0.0755906;stroke-dasharray:none;stroke-opacity:1;paint-order:stroke markers fill"><tspan
         x="198.42578"
         y="124.33468"
         id="tspan70">B</tspan></text>
    <text
       xml:space="preserve"
       transform="matrix(0.07607354,-0.10757456,0.10757456,0.07607354,23.0298,114.88699)"
       id="text12-6-6-8-98-9-3-9-95-2-5-5-4-2-2"
       style="white-space:pre;shape-inside:url(#rect12-6-3-6-6-1-2-0-3-4-8-9-4-7-2);display:inline;fill:#000000;fill-opacity:1;fill-rule:evenodd;stroke:#000000;stroke-width:0.0755906;stroke-dasharray:none;stroke-opacity:1;paint-order:stroke markers fill"><tspan
         x="198.42578"
         y="124.33468"
         id="tspan71">C</tspan></text>
    <text
       xml:space="preserve"
       transform="matrix(0.07607354,-0.10757456,0.10757456,0.07607354,12.906048,109.44246)"
       id="text12-6-6-8-98-9-3-9-95-2-5-5-4-2-2-4"
       style="white-space:pre;shape-inside:url(#rect12-6-3-6-6-1-2-0-3-4-8-9-4-7-2-3);display:inline;fill:#000000;fill-opacity:1;fill-rule:evenodd;stroke:#000000;stroke-width:0.0755906;stroke-dasharray:none;stroke-opacity:1;paint-order:stroke markers fill"><tspan
         x="198.42578"
         y="124.33468"
         id="tspan72">D</tspan></text>
    <text
       xml:space="preserve"
       transform="matrix(0.11325116,-0.06733235,0.06733235,0.11325116,30.800169,78.246137)"
       id="text12-6-6-8-98-9-3-9-95-2-5-5-4-2-2-4-8"
       style="white-space:pre;shape-inside:url(#rect12-6-3-6-6-1-2-0-3-4-8-9-4-7-2-3-0);display:inline;fill:#000000;fill-opacity:1;fill-rule:evenodd;stroke:#000000;stroke-width:0.0755906;stroke-dasharray:none;stroke-opacity:1;paint-order:stroke markers fill"><tspan
         x="198.42578"
         y="124.33468"
         id="tspan73">D</tspan></text>
    <text
       xml:space="preserve"
       transform="matrix(0.1149371,0.06441222,-0.06441222,0.1149371,82.153334,51.360565)"
       id="text12-6-6-8-98-9-3-9-95-2-5-5-4-2-2-4-8-6"
       style="white-space:pre;shape-inside:url(#rect12-6-3-6-6-1-2-0-3-4-8-9-4-7-2-3-0-6);display:inline;fill:#000000;fill-opacity:1;fill-rule:evenodd;stroke:#000000;stroke-width:0.0755906;stroke-dasharray:none;stroke-opacity:1;paint-order:stroke markers fill"><tspan
         x="198.42578"
         y="124.33468"
         id="tspan74">D</tspan></text>
    <text
       xml:space="preserve"
       transform="matrix(0.1149371,0.06441222,-0.06441222,0.1149371,84.919611,46.59552)"
       id="text12-6-6-8-98-9-3-9-95-2-5-5-4-2-2-4-8-6-0"
       style="white-space:pre;shape-inside:url(#rect12-6-3-6-6-1-2-0-3-4-8-9-4-7-2-3-0-6-2);display:inline;fill:#000000;fill-opacity:1;fill-rule:evenodd;stroke:#000000;stroke-width:0.0755906;stroke-dasharray:none;stroke-opacity:1;paint-order:stroke markers fill"><tspan
         x="198.42578"
         y="124.33468"
         id="tspan75">E</tspan></text>
    <text
       xml:space="preserve"
       transform="matrix(0.1149371,0.06441222,-0.06441222,0.1149371,88.293049,41.155883)"
       id="text12-6-6-8-98-9-3-9-95-2-5-5-4-2-2-4-8-6-2"
       style="white-space:pre;shape-inside:url(#rect12-6-3-6-6-1-2-0-3-4-8-9-4-7-2-3-0-6-9);display:inline;fill:#000000;fill-opacity:1;fill-rule:evenodd;stroke:#000000;stroke-width:0.0755906;stroke-dasharray:none;stroke-opacity:1;paint-order:stroke markers fill"><tspan
         x="198.42578"
         y="124.33468"
         id="tspan76">F</tspan></text>
    <text
       xml:space="preserve"
       transform="matrix(0.1149371,0.06441222,-0.06441222,0.1149371,91.314052,35.806137)"
       id="text12-6-6-8-98-9-3-9-95-2-5-5-4-2-2-4-8-6-01"
       style="white-space:pre;shape-inside:url(#rect12-6-3-6-6-1-2-0-3-4-8-9-4-7-2-3-0-6-7);display:inline;fill:#000000;fill-opacity:1;fill-rule:evenodd;stroke:#000000;stroke-width:0.0755906;stroke-dasharray:none;stroke-opacity:1;paint-order:stroke markers fill"><tspan
         x="198.42578"
         y="124.33468"
         id="tspan77">G</tspan></text>
    <text
       xml:space="preserve"
       transform="matrix(0.11325116,-0.06733235,0.06733235,0.11325116,27.948614,73.566505)"
       id="text12-6-6-8-98-9-3-9-95-2-5-5-4-2-2-4-8-8"
       style="white-space:pre;shape-inside:url(#rect12-6-3-6-6-1-2-0-3-4-8-9-4-7-2-3-0-2);display:inline;fill:#000000;fill-opacity:1;fill-rule:evenodd;stroke:#000000;stroke-width:0.0755906;stroke-dasharray:none;stroke-opacity:1;paint-order:stroke markers fill"><tspan
         x="198.42578"
         y="124.33468"
         id="tspan78">E</tspan></text>
    <text
       xml:space="preserve"
       transform="matrix(0.11325116,-0.06733235,0.06733235,0.11325116,24.384764,67.94258)"
       id="text12-6-6-8-98-9-3-9-95-2-5-5-4-2-2-4-8-8-1"
       style="white-space:pre;shape-inside:url(#rect12-6-3-6-6-1-2-0-3-4-8-9-4-7-2-3-0-2-5);display:inline;fill:#000000;fill-opacity:1;fill-rule:evenodd;stroke:#000000;stroke-width:0.0755906;stroke-dasharray:none;stroke-opacity:1;paint-order:stroke markers fill"><tspan
         x="198.42578"
         y="124.33468"
         id="tspan79">F</tspan></text>
    <text
       xml:space="preserve"
       transform="matrix(0.11325116,-0.06733235,0.06733235,0.11325116,20.945181,62.121746)"
       id="text12-6-6-8-98-9-3-9-95-2-5-5-4-2-2-4-8-8-9"
       style="white-space:pre;shape-inside:url(#rect12-6-3-6-6-1-2-0-3-4-8-9-4-7-2-3-0-2-1);display:inline;fill:#000000;fill-opacity:1;fill-rule:evenodd;stroke:#000000;stroke-width:0.0755906;stroke-dasharray:none;stroke-opacity:1;paint-order:stroke markers fill"><tspan
         x="198.42578"
         y="124.33468"
         id="tspan80">G</tspan></text>
    <text
       xml:space="preserve"
       transform="matrix(0.07607354,-0.10757456,0.10757456,0.07607354,6.4983969,106.50807)"
       id="text12-6-6-8-98-9-3-9-95-2-5-5-4-2-2-0"
       style="white-space:pre;shape-inside:url(#rect12-6-3-6-6-1-2-0-3-4-8-9-4-7-2-0);display:inline;fill:#000000;fill-opacity:1;fill-rule:evenodd;stroke:#000000;stroke-width:0.0755906;stroke-dasharray:none;stroke-opacity:1;paint-order:stroke markers fill"><tspan
         x="198.42578"
         y="124.33468"
         id="tspan81">E</tspan></text>
    <text
       xml:space="preserve"
       transform="matrix(0.07607354,-0.10757456,0.10757456,0.07607354,-0.01215099,103.2089)"
       id="text12-6-6-8-98-9-3-9-95-2-5-5-4-2-2-7"
       style="white-space:pre;shape-inside:url(#rect12-6-3-6-6-1-2-0-3-4-8-9-4-7-2-35);display:inline;fill:#000000;fill-opacity:1;fill-rule:evenodd;stroke:#000000;stroke-width:0.0755906;stroke-dasharray:none;stroke-opacity:1;paint-order:stroke markers fill"><tspan
         x="198.42578"
         y="124.33468"
         id="tspan82">F</tspan></text>
    <text
       xml:space="preserve"
       transform="matrix(0.07607354,-0.10757456,0.10757456,0.07607354,-7.1362214,100.44157)"
       id="text12-6-6-8-98-9-3-9-95-2-5-5-4-2-2-2"
       style="white-space:pre;shape-inside:url(#rect12-6-3-6-6-1-2-0-3-4-8-9-4-7-2-06);display:inline;fill:#000000;fill-opacity:1;fill-rule:evenodd;stroke:#000000;stroke-width:0.0755906;stroke-dasharray:none;stroke-opacity:1;paint-order:stroke markers fill"><tspan
         x="198.42578"
         y="124.33468"
         id="tspan83">G</tspan></text>
    <text
       xml:space="preserve"
       transform="matrix(0.05623769,-0.11915029,0.11915029,0.05623769,-1.9098549,86.142918)"
       id="text12-6-6-8-98-9-3-9-95-2-5-5-4-2-2-5"
       style="white-space:pre;shape-inside:url(#rect12-6-3-6-6-1-2-0-3-4-8-9-4-7-2-6);display:inline;fill:#000000;fill-opacity:1;fill-rule:evenodd;stroke:#000000;stroke-width:0.0755906;stroke-dasharray:none;stroke-opacity:1;paint-order:stroke markers fill"><tspan
         x="198.42578"
         y="124.33468"
         id="tspan84">H</tspan></text>
    <text
       xml:space="preserve"
       transform="matrix(0.05623769,-0.11915029,0.11915029,0.05623769,-9.2174011,82.24086)"
       id="text12-6-6-8-98-9-3-9-95-2-5-5-4-2-2-5-5"
       style="white-space:pre;shape-inside:url(#rect12-6-3-6-6-1-2-0-3-4-8-9-4-7-2-6-6);display:inline;fill:#000000;fill-opacity:1;fill-rule:evenodd;stroke:#000000;stroke-width:0.0755906;stroke-dasharray:none;stroke-opacity:1;paint-order:stroke markers fill"><tspan
         x="198.42578"
         y="124.33468"
         id="tspan85">I</tspan></text>
    <text
       xml:space="preserve"
       transform="matrix(0.05623769,-0.11915029,0.11915029,0.05623769,-15.473521,78.650194)"
       id="text12-6-6-8-98-9-3-9-95-2-5-5-4-2-2-5-5-4"
       style="white-space:pre;shape-inside:url(#rect12-6-3-6-6-1-2-0-3-4-8-9-4-7-2-6-6-6);display:inline;fill:#000000;fill-opacity:1;fill-rule:evenodd;stroke:#000000;stroke-width:0.0755906;stroke-dasharray:none;stroke-opacity:1;paint-order:stroke markers fill"><tspan
         x="198.42578"
         y="124.33468"
         id="tspan86">J</tspan></text>
    <text
       xml:space="preserve"
       transform="matrix(0.05623769,-0.11915029,0.11915029,0.05623769,-21.973521,75.650194)"
       id="text12-6-6-8-98-9-3-9-95-2-5-5-4-2-2-5-5-7"
       style="white-space:pre;shape-inside:url(#rect12-6-3-6-6-1-2-0-3-4-8-9-4-7-2-6-6-9);display:inline;fill:#000000;fill-opacity:1;fill-rule:evenodd;stroke:#000000;stroke-width:0.0755906;stroke-dasharray:none;stroke-opacity:1;paint-order:stroke markers fill"><tspan
         x="198.42578"
         y="124.33468"
         id="tspan87">K</tspan></text>
    <text
       xml:space="preserve"
       transform="matrix(0.05512554,0.11966891,-0.11966891,0.05512554,128.63822,63.047526)"
       id="text12-6-6-8-98-9-3-9-95-2-5-0-4"
       style="white-space:pre;shape-inside:url(#rect12-6-3-6-6-1-2-0-3-4-8-90-4);display:inline;fill:#000000;fill-opacity:1;fill-rule:evenodd;stroke:#000000;stroke-width:0.0755906;stroke-dasharray:none;stroke-opacity:1;paint-order:stroke markers fill"><tspan
         x="198.42578"
         y="124.33468"
         id="tspan88">E</tspan></text>
    <text
       xml:space="preserve"
       transform="matrix(0.05512554,0.11966891,-0.11966891,0.05512554,110.82918,71.767629)"
       id="text12-6-6-8-98-9-3-9-95-2-5-9-8"
       style="white-space:pre;shape-inside:url(#rect12-6-3-6-6-1-2-0-3-4-8-7-5);display:inline;fill:#000000;fill-opacity:1;fill-rule:evenodd;stroke:#000000;stroke-width:0.0755906;stroke-dasharray:none;stroke-opacity:1;paint-order:stroke markers fill"><tspan
         x="198.42578"
         y="124.33468"
         id="tspan89">C</tspan></text>
    <text
       xml:space="preserve"
       transform="matrix(0.05512554,0.11966891,-0.11966891,0.05512554,122.25341,66.164867)"
       id="text12-6-6-8-98-9-3-9-95-2-5-7-1"
       style="white-space:pre;shape-inside:url(#rect12-6-3-6-6-1-2-0-3-4-8-4-3);display:inline;fill:#000000;fill-opacity:1;fill-rule:evenodd;stroke:#000000;stroke-width:0.0755906;stroke-dasharray:none;stroke-opacity:1;paint-order:stroke markers fill"><tspan
         x="198.42578"
         y="124.33468"
         id="tspan90">D</tspan></text>
    <text
       xml:space="preserve"
       transform="matrix(0.05512554,0.11966891,-0.11966891,0.05512554,134.97855,59.999043)"
       id="text12-6-6-8-98-9-3-9-95-2-5-72-9"
       style="white-space:pre;shape-inside:url(#rect12-6-3-6-6-1-2-0-3-4-8-2-1);display:inline;fill:#000000;fill-opacity:1;fill-rule:evenodd;stroke:#000000;stroke-width:0.0755906;stroke-dasharray:none;stroke-opacity:1;paint-order:stroke markers fill"><tspan
         x="198.42578"
         y="124.33468"
         id="tspan91">F</tspan></text>
    <text
       xml:space="preserve"
       transform="matrix(0.05512554,0.11966891,-0.11966891,0.05512554,141.44067,56.400587)"
       id="text12-6-6-8-98-9-3-9-95-2-5-3-3"
       style="white-space:pre;shape-inside:url(#rect12-6-3-6-6-1-2-0-3-4-8-96-5);display:inline;fill:#000000;fill-opacity:1;fill-rule:evenodd;stroke:#000000;stroke-width:0.0755906;stroke-dasharray:none;stroke-opacity:1;paint-order:stroke markers fill"><tspan
         x="198.42578"
         y="124.33468"
         id="tspan92">G</tspan></text>
    <text
       xml:space="preserve"
       transform="matrix(0.05512554,0.11966891,-0.11966891,0.05512554,138.5251,37.13515)"
       id="text12-6-6-8-98-9-3-9-95-2-5-99-6"
       style="white-space:pre;shape-inside:url(#rect12-6-3-6-6-1-2-0-3-4-8-1-5);display:inline;fill:#000000;fill-opacity:1;fill-rule:evenodd;stroke:#000000;stroke-width:0.0755906;stroke-dasharray:none;stroke-opacity:1;paint-order:stroke markers fill"><tspan
         x="198.42578"
         y="124.33468"
         id="tspan93">H</tspan></text>
    <text
       xml:space="preserve"
       transform="matrix(0.05512554,0.11966891,-0.11966891,0.05512554,146.75615,33.699372)"
       id="text12-6-6-8-98-9-3-9-95-2-5-0-7-9"
       style="white-space:pre;shape-inside:url(#rect12-6-3-6-6-1-2-0-3-4-8-90-1-0);display:inline;fill:#000000;fill-opacity:1;fill-rule:evenodd;stroke:#000000;stroke-width:0.0755906;stroke-dasharray:none;stroke-opacity:1;paint-order:stroke markers fill"><tspan
         x="198.42578"
         y="124.33468"
         id="tspan94">I</tspan></text>
    <text
       xml:space="preserve"
       transform="matrix(0.05512554,0.11966891,-0.11966891,0.05512554,153.65066,30.36574)"
       id="text12-6-6-8-98-9-3-9-95-2-5-72-5-1"
       style="white-space:pre;shape-inside:url(#rect12-6-3-6-6-1-2-0-3-4-8-2-5-6);display:inline;fill:#000000;fill-opacity:1;fill-rule:evenodd;stroke:#000000;stroke-width:0.0755906;stroke-dasharray:none;stroke-opacity:1;paint-order:stroke markers fill"><tspan
         x="198.42578"
         y="124.33468"
         id="tspan95">J</tspan></text>
    <text
       xml:space="preserve"
       transform="matrix(0.05512554,0.11966891,-0.11966891,0.05512554,159.66133,26.854593)"
       id="text12-6-6-8-98-9-3-9-95-2-5-3-5-6"
       style="white-space:pre;shape-inside:url(#rect12-6-3-6-6-1-2-0-3-4-8-96-2-3);display:inline;fill:#000000;fill-opacity:1;fill-rule:evenodd;stroke:#000000;stroke-width:0.0755906;stroke-dasharray:none;stroke-opacity:1;paint-order:stroke markers fill"><tspan
         x="198.42578"
         y="124.33468"
         id="tspan96">K</tspan></text>
    <text
       xml:space="preserve"
       transform="matrix(0.38112933,7.7121535e-4,-7.7121535e-4,0.38112933,25.441437,-32.513929)"
       id="text12-6-6-8-98-9-5"
       style="white-space:pre;shape-inside:url(#rect12-6-3-6-6-1-5);display:inline;fill:#000000;fill-opacity:1;fill-rule:evenodd;stroke:#000000;stroke-width:0.0755906;stroke-dasharray:none;stroke-opacity:1;paint-order:stroke markers fill"><tspan
         x="198.42578"
         y="124.33468"
         id="tspan97">Bejárat</tspan></text>
    <text
       xml:space="preserve"
       transform="matrix(0.38112933,7.7121535e-4,-7.7121535e-4,0.38112933,46.192102,63.135191)"
       id="text12-6-6-8-98-9-5-4"
       style="white-space:pre;shape-inside:url(#rect12-6-3-6-6-1-5-8);display:inline;fill:#000000;fill-opacity:1;fill-rule:evenodd;stroke:#000000;stroke-width:0.0755906;stroke-dasharray:none;stroke-opacity:1;paint-order:stroke markers fill"><tspan
         x="198.42578"
         y="124.33468"
         id="tspan98">Bejárat</tspan></text>
    <path
       style="fill:#000000;fill-opacity:1;fill-rule:evenodd;stroke:#000000;stroke-width:0.155303;stroke-dasharray:none;stroke-opacity:1;paint-order:stroke markers fill"
       d="m 110,18.33115 -2.1715,-0.592123 -1.50087,5.423069 -2.16923,-0.600339 2.05315,5.23896 4.45453,-3.437943 -2.17535,-0.578216 z"
       id="path15-0" />
    <path
       style="fill:#000000;fill-opacity:1;fill-rule:evenodd;stroke:#000000;stroke-width:0.155303;stroke-dasharray:none;stroke-opacity:1;paint-order:stroke markers fill"
       d="m 120.99222,105.9706 1.29912,-1.83803 -4.58269,-3.26514 1.30605,-1.83308 -5.62523,0.13749 1.70708,5.36174 1.28735,-1.8464 z"
       id="path15-0-6" />
    <text
       xml:space="preserve"
       transform="matrix(0.38112933,7.7121535e-4,-7.7121535e-4,0.38112933,65.430667,36.295497)"
       id="text12-6-6-8-98-9-5-4-9"
       style="white-space:pre;shape-inside:url(#rect12-6-3-6-6-1-5-8-1);display:inline;fill:#000000;fill-opacity:1;fill-rule:evenodd;stroke:#000000;stroke-width:0.0755906;stroke-dasharray:none;stroke-opacity:1;paint-order:stroke markers fill"><tspan
         x="198.42578"
         y="124.33468"
         id="tspan99">Bejárat</tspan></text>
    <path
       style="fill:#000000;fill-opacity:1;fill-rule:evenodd;stroke:#000000;stroke-width:0.155303;stroke-dasharray:none;stroke-opacity:1;paint-order:stroke markers fill"
       d="m 144.0894,78.272851 1.29912,-1.83803 -4.58269,-3.26514 1.30605,-1.83308 -5.62523,0.13749 1.70708,5.36174 1.28735,-1.8464 z"
       id="path15-0-6-9" />
    <text
       xml:space="preserve"
       transform="matrix(0.38112933,7.7121535e-4,-7.7121535e-4,0.38112933,-73.334504,36.316951)"
       id="text12-6-6-8-98-9-5-4-8"
       style="white-space:pre;shape-inside:url(#rect12-6-3-6-6-1-5-8-8);display:inline;fill:#000000;fill-opacity:1;fill-rule:evenodd;stroke:#000000;stroke-width:0.0755906;stroke-dasharray:none;stroke-opacity:1;paint-order:stroke markers fill"><tspan
         x="198.42578"
         y="124.33468"
         id="tspan100">Bejárat</tspan></text>
    <path
       style="fill:#000000;fill-opacity:1;fill-rule:evenodd;stroke:#000000;stroke-width:0.155303;stroke-dasharray:none;stroke-opacity:1;paint-order:stroke markers fill"
       d="m 37.69584,106.64171 -1.29912,-1.83803 4.58269,-3.26514 -1.30605,-1.83308 5.62523,0.13749 -1.70708,5.36174 -1.28735,-1.8464 z"
       id="path15-0-6-8" />
    <text
       xml:space="preserve"
       transform="matrix(0.38112933,7.7121535e-4,-7.7121535e-4,0.38112933,-55.509863,63.701078)"
       id="text12-6-6-8-98-9-5-4-9-0"
       style="white-space:pre;shape-inside:url(#rect12-6-3-6-6-1-5-8-1-7);display:inline;fill:#000000;fill-opacity:1;fill-rule:evenodd;stroke:#000000;stroke-width:0.0755906;stroke-dasharray:none;stroke-opacity:1;paint-order:stroke markers fill"><tspan
         x="198.42578"
         y="124.33468"
         id="tspan101">Bejárat</tspan></text>
    <path
       style="fill:#000000;fill-opacity:1;fill-rule:evenodd;stroke:#000000;stroke-width:0.155303;stroke-dasharray:none;stroke-opacity:1;paint-order:stroke markers fill"
       d="m 14.59866,78.943961 -1.29912,-1.83803 4.58269,-3.26514 -1.30605,-1.83308 5.62523,0.13749 -1.70708,5.36174 -1.28735,-1.8464 z"
       id="path15-0-6-9-3" />
    <text
       xml:space="preserve"
       transform="matrix(0.38112933,7.7121535e-4,-7.7121535e-4,0.38112933,-32.710547,-32.589752)"
       id="text12-6-6-8-98-9-5-9"
       style="white-space:pre;shape-inside:url(#rect12-6-3-6-6-1-5-9);display:inline;fill:#000000;fill-opacity:1;fill-rule:evenodd;stroke:#000000;stroke-width:0.0755906;stroke-dasharray:none;stroke-opacity:1;paint-order:stroke markers fill"><tspan
         x="198.42578"
         y="124.33468"
         id="tspan102">Bejárat</tspan></text>
    <path
       style="fill:#000000;fill-opacity:1;fill-rule:evenodd;stroke:#000000;stroke-width:0.155303;stroke-dasharray:none;stroke-opacity:1;paint-order:stroke markers fill"
       d="m 50.274891,18.487843 2.1715,-0.592123 1.50087,5.423069 2.16923,-0.600339 -2.05315,5.23896 -4.45453,-3.437943 2.17535,-0.578216 z"
       id="path15-0-9" />
    <text
       xml:space="preserve"
       transform="matrix(-0.13175535,0,0,0.13175535,106.15875,81.613261)"
       id="text12-6-6-8-98-9-3-9-95-2-5-726-9"
       style="white-space:pre;shape-inside:url(#rect12-6-3-6-6-1-2-0-3-4-8-6-0);display:inline;fill:#000000;fill-opacity:1;fill-rule:evenodd;stroke:#000000;stroke-width:0.0755906;stroke-dasharray:none;stroke-opacity:1;paint-order:stroke markers fill"><tspan
         x="198.42578"
         y="124.33468"
         id="tspan103">A</tspan></text>
    <text
       xml:space="preserve"
       transform="matrix(0.13175535,0,0,0.13175535,52.830001,76.645167)"
       id="text12-6-6-8-98-9-3-9-95-2-5-5-4-8"
       style="white-space:pre;shape-inside:url(#rect12-6-3-6-6-1-2-0-3-4-8-9-4-3);display:inline;fill:#000000;fill-opacity:1;fill-rule:evenodd;stroke:#000000;stroke-width:0.0755906;stroke-dasharray:none;stroke-opacity:1;paint-order:stroke markers fill"><tspan
         x="198.42578"
         y="124.33468"
         id="tspan104">B</tspan></text>
    <text
       xml:space="preserve"
       transform="matrix(0.13175535,0,0,0.13175535,52.809157,71.092417)"
       id="text12-6-6-8-98-9-3-9-95-2-5-9-8-6"
       style="white-space:pre;shape-inside:url(#rect12-6-3-6-6-1-2-0-3-4-8-7-5-8);display:inline;fill:#000000;fill-opacity:1;fill-rule:evenodd;stroke:#000000;stroke-width:0.0755906;stroke-dasharray:none;stroke-opacity:1;paint-order:stroke markers fill"><tspan
         x="198.42578"
         y="124.33468"
         id="tspan105">C</tspan></text>
    <text
       xml:space="preserve"
       transform="matrix(0.13175535,0,0,0.13175535,76.847084,31.059316)"
       id="text12-6-6-8-98-9-3-9-95-2-5-99-6-1"
       style="white-space:pre;shape-inside:url(#rect12-6-3-6-6-1-2-0-3-4-8-1-5-5);display:inline;fill:#000000;fill-opacity:1;fill-rule:evenodd;stroke:#000000;stroke-width:0.0755906;stroke-dasharray:none;stroke-opacity:1;paint-order:stroke markers fill"><tspan
         x="198.42578"
         y="124.33468"
         id="tspan106">H</tspan></text>
    <text
       xml:space="preserve"
       transform="matrix(0.13175535,0,0,0.13175535,29.500934,31.120606)"
       id="text12-6-6-8-98-9-3-9-95-2-5-99-6-1-4"
       style="white-space:pre;shape-inside:url(#rect12-6-3-6-6-1-2-0-3-4-8-1-5-5-1);display:inline;fill:#000000;fill-opacity:1;fill-rule:evenodd;stroke:#000000;stroke-width:0.0755906;stroke-dasharray:none;stroke-opacity:1;paint-order:stroke markers fill"><tspan
         x="198.42578"
         y="124.33468"
         id="tspan107">H</tspan></text>
    <text
       xml:space="preserve"
       transform="matrix(0.19464866,0,0,0.19464866,35.198026,42.319603)"
       id="text12-6-6-7-6-38-6"
       style="white-space:pre;shape-inside:url(#rect12-6-3-8-0-88-2);display:inline;fill:#000000;fill-opacity:1;fill-rule:evenodd;stroke:#000000;stroke-width:0.0755906;stroke-dasharray:none;stroke-opacity:1;paint-order:stroke markers fill"><tspan
         x="198.42578"
         y="124.33468"
         id="tspan108">D-szektor</tspan></text>
    <text
       xml:space="preserve"
       transform="matrix(0.13175535,0,0,0.13175535,78.255557,24.772734)"
       id="text12-6-6-8-98-9-3-9-95-2-5-0-7-9-0"
       style="white-space:pre;shape-inside:url(#rect12-6-3-6-6-1-2-0-3-4-8-90-1-0-3);display:inline;fill:#000000;fill-opacity:1;fill-rule:evenodd;stroke:#000000;stroke-width:0.0755906;stroke-dasharray:none;stroke-opacity:1;paint-order:stroke markers fill"><tspan
         x="198.42578"
         y="124.33468"
         id="tspan109">I</tspan></text>
    <text
       xml:space="preserve"
       transform="matrix(0.13175535,0,0,0.13175535,28.69338,25.452423)"
       id="text12-6-6-8-98-9-3-9-95-2-5-0-7-9-0-0"
       style="white-space:pre;shape-inside:url(#rect12-6-3-6-6-1-2-0-3-4-8-90-1-0-3-2);display:inline;fill:#000000;fill-opacity:1;fill-rule:evenodd;stroke:#000000;stroke-width:0.0755906;stroke-dasharray:none;stroke-opacity:1;paint-order:stroke markers fill"><tspan
         x="198.42578"
         y="124.33468"
         id="tspan110">I</tspan></text>
    <text
       xml:space="preserve"
       transform="matrix(0.13175535,0,0,0.13175535,78.775447,19.272734)"
       id="text12-6-6-8-98-9-3-9-95-2-5-72-5-1-4"
       style="white-space:pre;shape-inside:url(#rect12-6-3-6-6-1-2-0-3-4-8-2-5-6-9);display:inline;fill:#000000;fill-opacity:1;fill-rule:evenodd;stroke:#000000;stroke-width:0.0755906;stroke-dasharray:none;stroke-opacity:1;paint-order:stroke markers fill"><tspan
         x="198.42578"
         y="124.33468"
         id="tspan111">J</tspan></text>
    <text
       xml:space="preserve"
       transform="matrix(0.13175535,0,0,0.13175535,28.109484,19.466223)"
       id="text12-6-6-8-98-9-3-9-95-2-5-72-5-1-4-9"
       style="white-space:pre;shape-inside:url(#rect12-6-3-6-6-1-2-0-3-4-8-2-5-6-9-4);display:inline;fill:#000000;fill-opacity:1;fill-rule:evenodd;stroke:#000000;stroke-width:0.0755906;stroke-dasharray:none;stroke-opacity:1;paint-order:stroke markers fill"><tspan
         x="198.42578"
         y="124.33468"
         id="tspan112">J</tspan></text>
    <text
       xml:space="preserve"
       transform="matrix(0.13175535,0,0,0.13175535,79.203061,14.18269)"
       id="text12-6-6-8-98-9-3-9-95-2-5-3-5-6-3"
       style="white-space:pre;shape-inside:url(#rect12-6-3-6-6-1-2-0-3-4-8-96-2-3-0);display:inline;fill:#000000;fill-opacity:1;fill-rule:evenodd;stroke:#000000;stroke-width:0.0755906;stroke-dasharray:none;stroke-opacity:1;paint-order:stroke markers fill"><tspan
         x="198.42578"
         y="124.33468"
         id="tspan113">K</tspan></text>
    <text
       xml:space="preserve"
       transform="matrix(0.13175535,0,0,0.13175535,27.278389,13.612317)"
       id="text12-6-6-8-98-9-3-9-95-2-5-3-5-6-3-8"
       style="white-space:pre;shape-inside:url(#rect12-6-3-6-6-1-2-0-3-4-8-96-2-3-0-7);display:inline;fill:#000000;fill-opacity:1;fill-rule:evenodd;stroke:#000000;stroke-width:0.0755906;stroke-dasharray:none;stroke-opacity:1;paint-order:stroke markers fill"><tspan
         x="198.42578"
         y="124.33468"
         id="tspan114">K</tspan></text>
    <g
       id="l11_a_szektor"
       style="cursor:pointer">
        <path
           d="m 70.75297,95.938937 a 22.950655,17.246665 0 0 1 0.509721,-0.143138 22.950655,17.246665 0 0 1 3.199592,-0.523462 22.950655,17.246665 0 0 1 2.819015,-0.151405 l -0.1808,-5.501775 a 26.456168,21.815813 0 0 0 -3.112092,0.183444 26.456168,21.815813 0 0 0 -1.85861,0.276458 26.456168,21.815813 0 0 0 -1.829619,0.385491 26.456168,21.815813 0 0 0 -2.232335,0.686236 z"
           style="fill:#e9afaf;fill-opacity:0.254902;fill-rule:evenodd;stroke:#000000;stroke-width:0.0109029;paint-order:stroke markers fill"
           class="l11_a_szektor_b" />
        <path
           d="m 64.376977,98.365568 a 22.950655,17.246665 0 0 1 0.943537,-0.530697 22.950655,17.246665 0 0 1 2.873836,-1.179209 22.950655,17.246665 0 0 1 1.733683,-0.48574 l -2.967662,-4.678084 a 26.456168,21.815813 0 0 0 -0.197141,0.06046 26.456168,21.815813 0 0 0 -1.688878,0.697087 26.456168,21.815813 0 0 0 -1.624044,0.794236 26.456168,21.815813 0 0 0 -1.551302,0.888283 26.456168,21.815813 0 0 0 -1.470652,0.977163 26.456168,21.815813 0 0 0 -0.31258,0.257856 z"
           style="fill:#e9afaf;fill-opacity:0.254902;fill-rule:evenodd;stroke:#000000;stroke-width:0.0109029;paint-order:stroke markers fill"
           class="l11_a_szektor_b" />
        <path
           d="m 58.202344,103.32063 a 22.950655,17.246665 0 0 1 0.218753,-0.30127 22.950655,17.246665 0 0 1 1.962452,-1.96982 22.950655,17.246665 0 0 1 2.315619,-1.739881 22.950655,17.246665 0 0 1 1.089548,-0.612858 l -4.301265,-3.012102 a 26.456168,21.815813 0 0 0 -1.727885,1.42518 26.456168,21.815813 0 0 0 -1.184956,1.212798 26.456168,21.815813 0 0 0 -1.077424,1.279459 26.456168,21.815813 0 0 0 -1.265078,1.909884 z"
           style="fill:#e9afaf;fill-opacity:0.254902;fill-rule:evenodd;stroke:#000000;stroke-width:0.0109029;paint-order:stroke markers fill"
           class="l11_a_szektor_b" />
        <path
           d="m 59.761268,94.64642 a 26.986117,21.813848 0 0 1 0.318841,-0.257833 26.986117,21.813848 0 0 1 3.082487,-1.865278 26.986117,21.813848 0 0 1 3.379284,-1.491188 26.986117,21.813848 0 0 1 0.20109,-0.06045 l -2.296406,-3.548162 a 28.947851,22.980762 0 0 0 -2.106072,0.923855 28.947851,22.980762 0 0 0 -2.648047,1.491705 28.947851,22.980762 0 0 0 -2.42061,1.716986 28.947851,22.980762 0 0 0 -0.774789,0.688241 z"
           style="opacity:0.6;fill:#8dd35f;fill-opacity:0.254902;fill-rule:evenodd;stroke:#000000;stroke-width:0.128961;paint-order:stroke markers fill"
           class="l11_a_szektor_c" />
        <path
           d="m 53.759745,100.99095 a 26.986117,21.813848 0 0 1 1.290419,-1.909715 26.986117,21.813848 0 0 1 2.307698,-2.492033 26.986117,21.813848 0 0 1 1.762497,-1.425052 l -3.333581,-2.287936 a 28.947851,22.980762 0 0 0 -0.678007,0.601436 28.947851,22.980762 0 0 0 -1.878635,2.101925 28.947851,22.980762 0 0 0 -1.570011,2.255385 28.947851,22.980762 0 0 0 -0.816727,1.85339 z"
           style="opacity:0.6;fill:#8dd35f;fill-opacity:0.254902;fill-rule:evenodd;stroke:#000000;stroke-width:0.128961;paint-order:stroke markers fill"
           class="l11_a_szektor_c" />
        <path
           d="m 67.872625,90.630646 a 26.986117,21.813848 0 0 1 2.277052,-0.686174 26.986117,21.813848 0 0 1 3.762108,-0.66189 26.986117,21.813848 0 0 1 3.174431,-0.183427 L 76.94427,84.860686 A 28.947851,22.980762 0 0 0 74.5,84.969708 a 28.947851,22.980762 0 0 0 -3.1997,0.431959 28.947851,22.980762 0 0 0 -3.120125,0.713043 28.947851,22.980762 0 0 0 -2.432977,0.800364 z"
           style="opacity:0.6;fill:#8dd35f;fill-opacity:0.254902;fill-rule:evenodd;stroke:#000000;stroke-width:0.128961;paint-order:stroke markers fill"
           class="l11_a_szektor_c" />
        <path
           d="m 70.927998,96.358459 2.047937,3.725351 a 20.81955,16.31807 0 0 1 1.547709,-0.291452 20.81955,16.31807 0 0 1 2.935738,-0.180867 l -0.131258,-4.071069 a 22.499954,17.247341 0 0 0 -2.763656,0.151411 22.499954,17.247341 0 0 0 -3.136759,0.523483 22.499954,17.247341 0 0 0 -0.499711,0.143143 z"
           style="fill:#e9afaf;fill-opacity:0.254902;fill-rule:evenodd;stroke:#000000;stroke-width:0.0107955;paint-order:stroke markers fill"
           class="l11_a_szektor_a" />
        <path
           d="m 64.677216,98.785185 3.481958,2.666505 a 20.81955,16.31807 0 0 1 0.169499,-0.0811 20.81955,16.31807 0 0 1 1.484147,-0.5364 20.81955,16.31807 0 0 1 1.533757,-0.44339 20.81955,16.31807 0 0 1 1.017509,-0.1912 v -5.2e-4 l -2.244825,-3.609627 a 22.499954,17.247341 0 0 0 -1.699637,0.485759 22.499954,17.247341 0 0 0 -2.8174,1.179256 22.499954,17.247341 0 0 0 -0.925008,0.530717 z"
           style="fill:#e9afaf;fill-opacity:0.254902;fill-rule:evenodd;stroke:#000000;stroke-width:0.0107955;paint-order:stroke markers fill"
           class="l11_a_szektor_a" />
        <path
           d="m 58.623839,103.74044 3.400826,1.58026 a 20.81955,16.31807 0 0 1 1.034045,-0.94981 20.81955,16.31807 0 0 1 1.200444,-0.86971 20.81955,16.31807 0 0 1 1.284159,-0.79272 20.81955,16.31807 0 0 1 2.144572,-1.02991 l -3.587378,-2.562119 a 22.499954,17.247341 0 0 0 -1.068152,0.612882 22.499954,17.247341 0 0 0 -2.270145,1.739947 22.499954,17.247341 0 0 0 -1.923914,1.9699 22.499954,17.247341 0 0 0 -0.214457,0.30128 z"
           style="fill:#e9afaf;fill-opacity:0.254902;fill-rule:evenodd;stroke:#000000;stroke-width:0.0107955;paint-order:stroke markers fill"
           class="l11_a_szektor_a" />
      <path
         style="fill:#ffffff;fill-opacity:0;stroke-width:0.2;paint-order:stroke markers fill"
         d="m 62,105.5 1.499999,-1.30331 5.676035,-2.7387 5.460651,-1.36804 3.098657,-0.278146 -0.419132,-15.211284 -7.379515,0.606676 -5.075393,1.555173 -8.604271,3.95664 L 51.999999,96 l -1.5,2.864667 V 100 Z"
         id="a_korvonal" />
    </g>
    <g
       id="l11_b_szektor"
       style="cursor:pointer">
        <path
           d="m 95.065165,98.694734 a 22.950655,17.246665 0 0 1 0.541348,0.31728 22.950655,17.246665 0 0 1 0.852874,0.552917 22.950655,17.246665 0 0 1 0.815975,0.583409 22.950655,17.246665 0 0 1 0.776968,0.61337 22.950655,17.246665 0 0 1 0.735327,0.64077 22.950655,17.246665 0 0 1 0.693157,0.66763 22.950655,17.246665 0 0 1 0.648876,0.69192 22.950655,17.246665 0 0 1 0.47072,0.5586 l 4.03085,-1.836 a 26.456168,21.815813 0 0 0 -0.22718,-0.37205 26.456168,21.815813 0 0 0 -0.63992,-0.93168 26.456168,21.815813 0 0 0 -0.69474,-0.90483 26.456168,21.815813 0 0 0 -0.74745,-0.875364 26.456168,21.815813 0 0 0 -0.79911,-0.843843 26.456168,21.815813 0 0 0 -0.84813,-0.811288 26.456168,21.815813 0 0 0 -0.895569,-0.775117 26.456168,21.815813 0 0 0 -0.388484,-0.304879 z"
           style="fill:#e9afaf;fill-opacity:0.254902;fill-rule:evenodd;stroke:#000000;stroke-width:0.0109029;paint-order:stroke markers fill"
           class="l11_b_szektor_b" />
        <path
           d="m 88.924267,96.147701 a 22.950655,17.246665 0 0 1 0.905585,0.26199 22.950655,17.246665 0 0 1 1.029456,0.343118 22.950655,17.246665 0 0 1 1.006265,0.380841 22.950655,17.246665 0 0 1 0.980435,0.417011 22.950655,17.246665 0 0 1 0.951444,0.453186 22.950655,17.246665 0 0 1 0.711079,0.376189 l 4.253824,-3.202263 A 26.456168,21.815813 0 0 0 97.855716,94.53236 26.456168,21.815813 0 0 0 96.832057,93.874028 26.456168,21.815813 0 0 0 95.769919,93.257036 26.456168,21.815813 0 0 0 94.672991,92.684483 26.456168,21.815813 0 0 0 93.543382,92.156371 26.456168,21.815813 0 0 0 92.3832,91.675282 26.456168,21.815813 0 0 0 91.87506,91.489254 Z"
           style="fill:#e9afaf;fill-opacity:0.254902;fill-rule:evenodd;stroke:#000000;stroke-width:0.0109029;paint-order:stroke markers fill"
           class="l11_b_szektor_b" />
        <path
           d="m 81.734408,89.593836 -0.176584,5.512626 a 22.950655,17.246665 0 0 1 0.615144,0.01137 22.950655,17.246665 0 0 1 1.123284,0.06201 22.950655,17.246665 0 0 1 1.118012,0.103865 22.950655,17.246665 0 0 1 1.110107,0.144689 22.950655,17.246665 0 0 1 1.099035,0.185511 22.950655,17.246665 0 0 1 1.085859,0.225818 22.950655,17.246665 0 0 1 0.351059,0.08733 l 2.704104,-4.823289 A 26.456168,21.815813 0 0 0 89.984823,90.855729 26.456168,21.815813 0 0 0 88.7519,90.519845 26.456168,21.815813 0 0 0 87.5,90.234602 26.456168,21.815813 0 0 0 86.233341,90 26.456168,21.815813 0 0 0 84.954031,89.816557 26.456168,21.815813 0 0 0 83.665233,89.68582 26.456168,21.815813 0 0 0 82.37011,89.60676 26.456168,21.815813 0 0 0 81.734408,89.59384 Z"
           style="fill:#e9afaf;fill-opacity:0.254902;fill-rule:evenodd;stroke:#000000;stroke-width:0.0109029;paint-order:stroke markers fill"
           class="l11_b_szektor_b" />
        <path
           d="m 92.090262,90.969083 a 26.986117,21.813848 0 0 1 0.518319,0.186012 26.986117,21.813848 0 0 1 1.183422,0.481045 26.986117,21.813848 0 0 1 1.152236,0.528065 26.986117,21.813848 0 0 1 1.118901,0.572501 26.986117,21.813848 0 0 1 1.083414,0.616937 26.986117,21.813848 0 0 1 1.044164,0.658272 26.986117,21.813848 0 0 1 0.9248,0.645355 l 3.252932,-2.401093 a 28.947851,22.980762 0 0 0 -0.0881,-0.08112 28.947851,22.980762 0 0 0 -1.5313,-1.215274 28.947851,22.980762 0 0 0 -1.64098,-1.120717 28.947851,22.980762 0 0 0 -1.74099,-1.020994 28.947851,22.980762 0 0 0 -1.83347,-0.914038 28.947851,22.980762 0 0 0 -1.150623,-0.483112 z"
           style="opacity:0.6;fill:#8dd35f;fill-opacity:0.254902;fill-rule:evenodd;stroke:#000000;stroke-width:0.128961;paint-order:stroke markers fill"
           class="l11_b_szektor_c" />
        <path
           d="m 99.756426,95.145032 a 26.986117,21.813848 0 0 1 0.396264,0.304852 26.986117,21.813848 0 0 1 0.91351,0.775047 26.986117,21.813848 0 0 1 0.86512,0.811215 26.986117,21.813848 0 0 1 0.81512,0.843767 26.986117,21.813848 0 0 1 0.76242,0.875285 26.986117,21.813848 0 0 1 0.70865,0.904752 26.986117,21.813848 0 0 1 0.65274,0.93159 26.986117,21.813848 0 0 1 0.23173,0.37202 l 2.99862,-1.33927 a 28.947851,22.980762 0 0 0 -0.094,-0.214435 28.947851,22.980762 0 0 0 -0.86566,-1.574895 28.947851,22.980762 0 0 0 -1.01191,-1.519091 28.947851,22.980762 0 0 0 -1.15168,-1.455536 28.947851,22.980762 0 0 0 -1.28505,-1.382683 28.947851,22.980762 0 0 0 -0.64252,-0.593169 z"
           style="opacity:0.6;fill:#8dd35f;fill-opacity:0.254902;fill-rule:evenodd;stroke:#000000;stroke-width:0.128961;paint-order:stroke markers fill"
           class="l11_b_szektor_c" />
        <path
           d="m 81.884663,84.849835 -0.138182,4.224001 a 26.986117,21.813848 0 0 1 0.648436,0.01292 26.986117,21.813848 0 0 1 1.321065,0.07905 26.986117,21.813848 0 0 1 1.314615,0.130725 26.986117,21.813848 0 0 1 1.304936,0.183426 26.986117,21.813848 0 0 1 1.292031,0.234581 26.986117,21.813848 0 0 1 1.276977,0.285218 26.986117,21.813848 0 0 1 1.25762,0.335853 26.986117,21.813848 0 0 1 0.795222,0.248015 l 2.102844,-3.676303 a 28.947851,22.980762 0 0 0 -1.424837,-0.493445 28.947851,22.980762 0 0 0 -2.043163,-0.567335 28.947851,22.980762 0 0 0 -2.091016,-0.444877 28.947851,22.980762 0 0 0 -2.12704,-0.319318 28.947851,22.980762 0 0 0 -2.151236,-0.192729 28.947851,22.980762 0 0 0 -1.338272,-0.03979 z"
           style="opacity:0.6;fill:#8dd35f;fill-opacity:0.254902;fill-rule:evenodd;stroke:#000000;stroke-width:0.128961;paint-order:stroke markers fill"
           class="l11_b_szektor_c" />
        <path
           d="m 94.827917,99.114364 -3.573425,2.552296 a 20.81955,16.31807 0 0 1 0.920874,0.42582 20.81955,16.31807 0 0 1 0.971,0.50901 20.81955,16.31807 0 0 1 0.933276,0.55035 20.81955,16.31807 0 0 1 0.891935,0.59015 20.81955,16.31807 0 0 1 0.849044,0.6289 20.81955,16.31807 0 0 1 0.802535,0.66559 20.81955,16.31807 0 0 1 0.280603,0.26097 l 3.350701,-1.55701 a 22.499954,17.247341 0 0 0 -0.461471,-0.55862 22.499954,17.247341 0 0 0 -0.636137,-0.69195 22.499954,17.247341 0 0 0 -0.679545,-0.66766 22.499954,17.247341 0 0 0 -0.720887,-0.64079 22.499954,17.247341 0 0 0 -0.76171,-0.6134 22.499954,17.247341 0 0 0 -0.799951,-0.583425 22.499954,17.247341 0 0 0 -0.836125,-0.552938 22.499954,17.247341 0 0 0 -0.530717,-0.317293 z"
           style="fill:#e9afaf;fill-opacity:0.254902;fill-rule:evenodd;stroke:#000000;stroke-width:0.0107955;paint-order:stroke markers fill"
           class="l11_b_szektor_a" />
        <path
           d="m 88.807613,96.567232 -2.23759,3.603398 a 20.81955,16.31807 0 0 1 0.291972,0.0589 20.81955,16.31807 0 0 1 1.11311,0.27802 20.81955,16.31807 0 0 1 1.09089,0.32608 20.81955,16.31807 0 0 1 1.066085,0.37414 20.81955,16.31807 0 0 1 0.664559,0.26871 l 3.485575,-2.676836 a 22.499954,17.247341 0 0 0 -0.697115,-0.376204 22.499954,17.247341 0 0 0 -0.93276,-0.453203 22.499954,17.247341 0 0 0 -0.961181,-0.417028 22.499954,17.247341 0 0 0 -0.986504,-0.380856 22.499954,17.247341 0 0 0 -1.00924,-0.343131 22.499954,17.247341 0 0 0 -0.887801,-0.262 z"
           style="fill:#e9afaf;fill-opacity:0.254902;fill-rule:evenodd;stroke:#000000;stroke-width:0.0107955;paint-order:stroke markers fill"
           class="l11_b_szektor_a" />
        <path
           d="m 87.960636,96.346574 a 22.499954,17.247341 0 0 0 -0.344165,-0.08733 22.499954,17.247341 0 0 0 -1.064535,-0.225826 22.499954,17.247341 0 0 0 -1.077453,-0.185519 22.499954,17.247341 0 0 0 -1.088306,-0.144694 22.499954,17.247341 0 0 0 -1.096057,-0.103869 22.499954,17.247341 0 0 0 -1.101225,-0.06201 22.499954,17.247341 0 0 0 -0.603064,-0.01137 l -0.127641,4.073653 a 20.81955,16.31807 0 0 1 0.80822,0.01757 20.81955,16.31807 0 0 1 1.163753,0.07751 20.81955,16.31807 0 0 1 1.156002,0.127641 20.81955,16.31807 0 0 1 1.14515,0.1788 20.81955,16.31807 0 0 1 0.198437,0.0403 z"
           style="fill:#e9afaf;fill-opacity:0.254902;fill-rule:evenodd;stroke:#000000;stroke-width:0.0107955;paint-order:stroke markers fill"
           class="l11_b_szektor_a" />
      <path
         style="fill:#ffffff;fill-opacity:0;stroke-width:0.2;paint-order:stroke markers fill"
         d="M 81.452621,84.423762 80.999998,100 l 5.162304,0.33799 4.73034,1.56793 5.972516,3.7641 L 108.81514,99.929816 104,92.999998 97.5,88 88.499999,84.999998 Z"
         class="b_korvonal" />
    </g>
    <g
       id="l11_vip"
       style="cursor:pointer">
      <path
         d="M 100.73676,43.428195 H 58.673654 v 4.072115 h 42.063106 z"
         style="opacity:0.6;fill:#e9afc6;fill-opacity:0.254902;fill-rule:evenodd;stroke:#000000;stroke-width:0.0140712;paint-order:stroke markers fill"
         class="l11_vip_h" />
      <path
         d="M 101.15763,37.500126 H 58.252786 v 4.883916 h 42.904844 z"
         style="opacity:0.6;fill:#e9afc6;fill-opacity:0.254902;fill-rule:evenodd;stroke:#000000;stroke-width:0.0142113;paint-order:stroke markers fill"
         class="l11_vip_i" />
      <path
         d="M 101.58692,32.169852 H 57.823496 v 4.616196 h 43.763424 z"
         style="opacity:0.6;fill:#e9afc6;fill-opacity:0.254902;fill-rule:evenodd;stroke:#000000;stroke-width:0.0143528;paint-order:stroke markers fill"
         class="l11_vip_j" />
      <path
         d="m 57.823496,26.732529 v 4.339729 h 43.763424 v -4.339729 z"
         style="opacity:0.6;fill:#e9afc6;fill-opacity:0.254902;fill-rule:evenodd;stroke:#000000;stroke-width:0.0143528;paint-order:stroke markers fill"
         class="l11_vip_k" />
    </g>
    <g
       id="l11_c_szektor"
       style="cursor:pointer">
        <path
           d="m 46.107443,84.063469 a 45.427528,38.648728 0 0 1 2.427859,-2.065463 45.427528,38.648728 0 0 1 5.188323,-3.304637 45.427528,38.648728 0 0 1 4.455642,-2.069596 l -2.869574,-4.523141 a 51.484433,43.801804 0 0 0 -4.860462,2.257695 51.484433,43.801804 0 0 0 -3.018747,1.783315 51.484433,43.801804 0 0 0 -2.861668,1.961595 51.484433,43.801804 0 0 0 -3.000299,2.552761 z"
           style="fill:#e9afaf;fill-opacity:0.254902;fill-rule:evenodd;stroke:#000000;stroke-width:0.024285;paint-order:stroke markers fill"
           class="l11_c_szektor_e" />
        <path
           d="m 38.740007,93.018125 a 45.427528,38.648728 0 0 1 2.14322,-3.339776 45.427528,38.648728 0 0 1 3.884259,-4.414623 45.427528,38.648728 0 0 1 1.065284,-0.906385 l -4.686515,-3.281383 a 51.484433,43.801804 0 0 0 -0.956175,0.81337 51.484433,43.801804 0 0 0 -2.306097,2.434941 51.484433,43.801804 0 0 0 -2.096307,2.568263 51.484433,43.801804 0 0 0 -2.374094,3.69892 z"
           style="fill:#e9afaf;fill-opacity:0.254902;fill-rule:evenodd;stroke:#000000;stroke-width:0.024285;paint-order:stroke markers fill"
           class="l11_c_szektor_e" />
        <path
           d="m 34.992325,75.629818 a 60.359598,49.353546 0 0 1 3.763808,-3.077569 60.359598,49.353546 0 0 1 6.89419,-4.22003 60.359598,49.353546 0 0 1 5.511075,-2.460608 l -3.079929,-4.666475 a 65.919506,51.30796 0 0 0 -1.401761,0.545653 65.919506,51.30796 0 0 0 -4.046244,1.868968 65.919506,51.30796 0 0 0 -3.865814,2.089087 65.919506,51.30796 0 0 0 -3.663995,2.297843 65.919506,51.30796 0 0 0 -3.44408,2.495745 65.919506,51.30796 0 0 0 -1.748362,1.461276 z"
           style="opacity:0.6;fill:#ffb380;fill-opacity:0.254902;fill-rule:evenodd;stroke:#000000;stroke-width:0.130245;paint-order:stroke markers fill"
           class="l11_c_szektor_g" />
        <path
           d="m 25.591741,86.621742 a 60.359598,49.353546 0 0 1 2.728938,-4.086201 60.359598,49.353546 0 0 1 5.161183,-5.637386 60.359598,49.353546 0 0 1 0.872537,-0.71307 l -5.215476,-3.510061 a 65.919506,51.30796 0 0 0 -2.82272,2.726716 65.919506,51.30796 0 0 0 -2.683968,3.00833 65.919506,51.30796 0 0 0 -3.946432,5.626018 z"
           style="opacity:0.6;fill:#ffb380;fill-opacity:0.254902;fill-rule:evenodd;stroke:#000000;stroke-width:0.130245;paint-order:stroke markers fill"
           class="l11_c_szektor_g" />
        <path
           d="m 46.739193,84.672868 3.970817,3.040124 a 37.55979,31.028038 0 0 1 1.004073,-0.905888 37.55979,31.028038 0 0 1 2.41639,-1.828312 37.55979,31.028038 0 0 1 2.599325,-1.647961 37.55979,31.028038 0 0 1 2.764172,-1.454692 37.55979,31.028038 0 0 1 1.55236,-0.667659 l -2.472201,-3.975468 a 44.536095,38.649559 0 0 0 -4.368208,2.069641 44.536095,38.649559 0 0 0 -5.086512,3.304708 44.536095,38.649559 0 0 0 -2.380216,2.065507 z"
           style="fill:#e9afaf;fill-opacity:0.254902;fill-rule:evenodd;stroke:#000000;stroke-width:0.0240458;paint-order:stroke markers fill"
           class="l11_c_szektor_d" />
        <path
           d="m 39.53233,93.62773 5.108732,2.374015 a 37.55979,31.028038 0 0 1 1.920296,-3.400826 37.55979,31.028038 0 0 1 1.760616,-2.283581 37.55979,31.028038 0 0 1 1.994194,-2.147156 37.55979,31.028038 0 0 1 0.288871,-0.260966 L 46.48591,84.96676 a 44.536095,38.649559 0 0 0 -1.04438,0.906405 44.536095,38.649559 0 0 0 -3.808037,4.414717 44.536095,38.649559 0 0 0 -2.101163,3.339848 z"
           style="fill:#e9afaf;fill-opacity:0.254902;fill-rule:evenodd;stroke:#000000;stroke-width:0.0240458;paint-order:stroke markers fill"
           class="l11_c_szektor_d" />
        <path
           d="m 40.833272,79.976823 a 52.514943,43.800788 0 0 1 3.060353,-2.552702 52.514943,43.800788 0 0 1 5.998117,-3.744823 52.514943,43.800788 0 0 1 4.957749,-2.257643 l -3.155518,-4.876487 a 59.17515,49.355826 0 0 0 -5.40293,2.460722 59.17515,49.355826 0 0 0 -3.470048,2.009607 59.17515,49.355826 0 0 0 -3.288856,2.210618 59.17515,49.355826 0 0 0 -3.68995,3.077711 z"
           style="fill:#e9afaf;fill-opacity:0.254902;fill-rule:evenodd;stroke:#000000;stroke-width:0.0245266;paint-order:stroke markers fill"
           class="l11_c_szektor_f" />
        <path
           d="m 32.498787,89.912031 a 52.514943,43.800788 0 0 1 2.421614,-3.698834 52.514943,43.800788 0 0 1 4.490522,-5.003088 52.514943,43.800788 0 0 1 0.975314,-0.813351 l -5.153456,-3.53761 a 59.17515,49.355826 0 0 0 -0.855415,0.713103 59.17515,49.355826 0 0 0 -2.650656,2.743379 59.17515,49.355826 0 0 0 -2.409248,2.894268 59.17515,49.355826 0 0 0 -2.675388,4.086389 z"
           style="fill:#e9afaf;fill-opacity:0.254902;fill-rule:evenodd;stroke:#000000;stroke-width:0.0245266;paint-order:stroke markers fill"
           class="l11_c_szektor_f" />
      <path
         style="fill:#ffffff;fill-opacity:0;stroke-width:0.2;paint-order:stroke markers fill"
         d="M 19,84.269791 44.714583,96.499999 47.211588,92.670311 51.000001,88 56.395961,84.079235 61.739261,81.5 47.999999,59.999998 36.433651,66.311197 28.500001,71.999998 22,79.499999 Z"
         id="c_korvonal" />
    </g>
    <g
       id="l11_e_szektor"
       style="cursor:pointer">
        <path
           d="m 125.1402,76.10919 a 60.359598,49.353546 0 0 1 0.81661,0.734255 60.359598,49.353546 0 0 1 1.82898,1.811611 60.359598,49.353546 0 0 1 1.72149,1.880334 60.359598,49.353546 0 0 1 1.61017,1.945441 60.359598,49.353546 0 0 1 1.49553,2.00538 60.359598,49.353546 0 0 1 1.34912,2.020363 l 5.82696,-2.551032 a 65.919506,51.30796 0 0 0 -1.32443,-2.047751 65.919506,51.30796 0 0 0 -1.59535,-2.190882 65.919506,51.30796 0 0 0 -1.73082,-2.127842 65.919506,51.30796 0 0 0 -1.86299,-2.058602 65.919506,51.30796 0 0 0 -1.99076,-1.985228 65.919506,51.30796 0 0 0 -0.99703,-0.900121 z"
           style="opacity:0.6;fill:#ffb380;fill-opacity:0.254902;fill-rule:evenodd;stroke:#000000;stroke-width:0.130245;paint-order:stroke markers fill"
           class="l11_e_szektor_g" />
        <path
           d="m 107.59184,65.787516 a 59.157773,49.354457 0 0 1 0.48642,0.196874 59.157773,49.354457 0 0 1 2.47143,1.125948 59.157773,49.354457 0 0 1 2.40424,1.222577 59.157773,49.354457 0 0 1 2.33168,1.31662 59.157773,49.354457 0 0 1 2.25373,1.407563 59.157773,49.354457 0 0 1 2.17151,1.495924 59.157773,49.354457 0 0 1 2.08335,1.580151 59.157773,49.354457 0 0 1 1.70442,1.421517 l 4.88105,-3.603655 a 64.606978,51.308907 0 0 0 -1.73613,-1.447867 64.606978,51.308907 0 0 0 -2.29676,-1.736719 64.606978,51.308907 0 0 0 -2.40099,-1.64526 64.606978,51.308907 0 0 0 -2.49938,-1.549148 64.606978,51.308907 0 0 0 -2.59344,-1.449934 64.606978,51.308907 0 0 0 -2.67893,-1.347624 64.606978,51.308907 0 0 0 -2.75897,-1.241178 64.606978,51.308907 0 0 0 -0.85464,-0.341555 z"
           style="opacity:0.6;fill:#ffb380;fill-opacity:0.254902;fill-rule:evenodd;stroke:#000000;stroke-width:0.128943;paint-order:stroke markers fill"
           class="l11_e_szektor_g" />
        <path
           d="m 101.09595,76.572097 a 45.427528,38.648728 0 0 1 1.28298,0.549309 45.427528,38.648728 0 0 1 1.94028,0.934807 45.427528,38.648728 0 0 1 1.88389,1.014903 45.427528,38.648728 0 0 1 1.82274,1.092416 45.427528,38.648728 0 0 1 1.7579,1.167346 45.427528,38.648728 0 0 1 1.68832,1.238657 45.427528,38.648728 0 0 1 1.61454,1.308419 45.427528,38.648728 0 0 1 0.14811,0.132289 l 4.5384,-3.416256 a 51.484433,43.801804 0 0 0 -0.40323,-0.360177 51.484433,43.801804 0 0 0 -1.83012,-1.482048 51.484433,43.801804 0 0 0 -1.9134,-1.404535 51.484433,43.801804 0 0 0 -1.99247,-1.322371 51.484433,43.801804 0 0 0 -2.06574,-1.238141 51.484433,43.801804 0 0 0 -2.13531,-1.150293 51.484433,43.801804 0 0 0 -2.19857,-1.05986 51.484433,43.801804 0 0 0 -1.26453,-0.541558 z"
           style="fill:#e9afaf;fill-opacity:0.254902;fill-rule:evenodd;stroke:#000000;stroke-width:0.024285;paint-order:stroke markers fill"
           class="l11_e_szektor_e"" />
        <path
           d="m 113.67479,84.27266 a 45.427528,38.648728 0 0 1 0.32522,0.290931 45.427528,38.648728 0 0 1 1.4564,1.436574 45.427528,38.648728 0 0 1 1.37206,1.495484 45.427528,38.648728 0 0 1 1.28351,1.550777 45.427528,38.648728 0 0 1 1.19285,1.602967 45.427528,38.648728 0 0 1 1.09901,1.650511 45.427528,38.648728 0 0 1 0.3674,0.620621 l 5.3396,-2.432358 A 51.484433,43.801804 0 0 0 125.74555,89.870647 51.484433,43.801804 0 0 0 124.5,88 a 51.484433,43.801804 0 0 0 -1.35151,-1.816388 51.484433,43.801804 0 0 0 -1.45534,-1.757477 51.484433,43.801804 0 0 0 -1.55444,-1.69495 51.484433,43.801804 0 0 0 -1.65091,-1.627773 51.484433,43.801804 0 0 0 -0.12597,-0.112653 z"
           style="fill:#e9afaf;fill-opacity:0.254902;fill-rule:evenodd;stroke:#000000;stroke-width:0.024285;paint-order:stroke markers fill"
           class="l11_e_szektor_e"" />
        <path
           d="m 113.02101,84.882078 -4.18683,2.990515 a 37.55979,31.028038 0 0 1 0.43667,0.40876 37.55979,31.028038 0 0 1 1.44642,1.540475 37.55979,31.028038 0 0 1 1.32602,1.612305 37.55979,31.028038 0 0 1 1.20044,1.677933 37.55979,31.028038 0 0 1 1.07126,1.736845 37.55979,31.028038 0 0 1 0.55345,1.05575 l 5.10977,-2.374532 a 44.536095,38.649559 0 0 0 -0.36019,-0.620634 44.536095,38.649559 0 0 0 -1.07745,-1.650546 44.536095,38.649559 0 0 0 -1.16944,-1.603002 44.536095,38.649559 0 0 0 -1.25832,-1.55081 44.536095,38.649559 0 0 0 -1.34514,-1.495516 44.536095,38.649559 0 0 0 -1.42782,-1.436605 44.536095,38.649559 0 0 0 -0.31884,-0.290938 z"
           style="fill:#e9afaf;fill-opacity:0.254902;fill-rule:evenodd;stroke:#000000;stroke-width:0.0240458;paint-order:stroke markers fill"
           class="l11_e_szektor_d" />
        <path
           d="m 100.70126,77.181335 -2.496487,4.020427 a 37.55979,31.028038 0 0 1 0.844393,0.355534 37.55979,31.028038 0 0 1 2.030884,0.992704 37.55979,31.028038 0 0 1 1.95181,1.09554 37.55979,31.028038 0 0 1 1.86397,1.194759 37.55979,31.028038 0 0 1 1.76992,1.288811 37.55979,31.028038 0 0 1 1.66863,1.37821 37.55979,31.028038 0 0 1 0.22841,0.214457 l 4.03903,-3.102136 a 44.536095,38.649559 0 0 0 -0.14521,-0.132292 44.536095,38.649559 0 0 0 -1.58285,-1.308447 44.536095,38.649559 0 0 0 -1.65519,-1.238684 44.536095,38.649559 0 0 0 -1.72341,-1.167371 44.536095,38.649559 0 0 0 -1.78697,-1.092439 44.536095,38.649559 0 0 0 -1.84692,-1.014925 44.536095,38.649559 0 0 0 -1.90221,-0.934827 44.536095,38.649559 0 0 0 -1.2578,-0.549321 z"
           style="fill:#e9afaf;fill-opacity:0.254902;fill-rule:evenodd;stroke:#000000;stroke-width:0.0240458;paint-order:stroke markers fill"
           class="l11_e_szektor_d" />
        <path
           d="m 119.12251,80.31156 a 52.514943,43.800788 0 0 1 0.12849,0.11265 52.514943,43.800788 0 0 1 1.68395,1.627736 52.514943,43.800788 0 0 1 1.58556,1.69491 52.514943,43.800788 0 0 1 1.48447,1.757436 52.514943,43.800788 0 0 1 1.37856,1.816346 52.514943,43.800788 0 0 1 1.27048,1.870604 52.514943,43.800788 0 0 1 0.3726,0.617505 l 5.8836,-2.62763 a 59.17515,49.355826 0 0 0 -1.32264,-2.020457 59.17515,49.355826 0 0 0 -1.46619,-2.005472 59.17515,49.355826 0 0 0 -1.57857,-1.945531 59.17515,49.355826 0 0 0 -1.68771,-1.880421 59.17515,49.355826 0 0 0 -1.79309,-1.811695 59.17515,49.355826 0 0 0 -0.80058,-0.734289 z"
           style="fill:#e9afaf;fill-opacity:0.254902;fill-rule:evenodd;stroke:#000000;stroke-width:0.0245266;paint-order:stroke markers fill"
           class="l11_e_szektor_f" />
        <path
           d="m 104.42985,71.356029 a 52.514943,43.800788 0 0 1 1.28984,0.541545 52.514943,43.800788 0 0 1 2.24258,1.059836 52.514943,43.800788 0 0 1 2.17805,1.150266 52.514943,43.800788 0 0 1 2.10709,1.238112 52.514943,43.800788 0 0 1 2.03235,1.32234 52.514943,43.800788 0 0 1 1.9517,1.404503 52.514943,43.800788 0 0 1 1.86675,1.482013 52.514943,43.800788 0 0 1 0.4113,0.360169 l 4.99539,-3.686947 a 59.17515,49.355826 0 0 0 -1.70492,-1.421556 59.17515,49.355826 0 0 0 -2.08396,-1.580195 59.17515,49.355826 0 0 0 -2.17215,-1.495966 59.17515,49.355826 0 0 0 -2.2544,-1.407602 59.17515,49.355826 0 0 0 -2.33235,-1.316657 59.17515,49.355826 0 0 0 -2.40495,-1.22261 59.17515,49.355826 0 0 0 -2.47215,-1.125979 59.17515,49.355826 0 0 0 -0.48658,-0.196879 z"
           style="fill:#e9afaf;fill-opacity:0.254902;fill-rule:evenodd;stroke:#000000;stroke-width:0.0245266;paint-order:stroke markers fill"
           class="l11_e_szektor_f" />
      <path
         style="fill:#ffffff;fill-opacity:0;stroke-width:0.2;paint-order:stroke markers fill"
         d="m 115,96.499999 25.5,-12.22194 c 0,0 -5.5,-8.027734 -5.5,-8.016042 0,0.0117 -11.6618,-9.816732 -11.6618,-9.816732 L 110.35893,60.395916 97.5,81.5 l 6.21667,3.366672 7.04453,5.79455 z"
         id="e_korvonal" />
    </g>
    <g
       id="l11_d_szektor"
       style="cursor:pointer">
        <path
           d="m 62.070941,75.03474 a 45.427528,38.648728 0 0 1 5.372811,-1.705286 45.427528,38.648728 0 0 1 6.333201,-1.171996 45.427528,38.648728 0 0 1 5.259482,-0.31987 l -0.169202,-5.142729 a 51.484433,43.801804 0 0 0 -5.952102,0.362244 51.484433,43.801804 0 0 0 -3.617013,0.554993 51.484433,43.801804 0 0 0 -3.561141,0.773063 51.484433,43.801804 0 0 0 -6.277855,1.992601 z"
           style="fill:#e9afaf;fill-opacity:0.254902;fill-rule:evenodd;stroke:#000000;stroke-width:0.024285;paint-order:stroke markers fill"
           class="l11_d_szektor_e" />
        <path
           d="m 80.168517,66.639566 -0.164984,5.149447 a 45.427528,38.648728 0 0 1 1.028387,0.0217 45.427528,38.648728 0 0 1 2.223868,0.139523 45.427528,38.648728 0 0 1 2.212799,0.232023 45.427528,38.648728 0 0 1 2.196985,0.324521 45.427528,38.648728 0 0 1 2.175374,0.415469 45.427528,38.648728 0 0 1 2.149019,0.505901 45.427528,38.648728 0 0 1 2.116866,0.595301 45.427528,38.648728 0 0 1 2.080494,0.68263 45.427528,38.648728 0 0 1 0.783809,0.295584 l 2.608133,-4.651296 A 51.484433,43.801804 0 0 0 98.505021,69.945238 51.484433,43.801804 0 0 0 96.147265,69.171659 51.484433,43.801804 0 0 0 93.74787,68.497295 51.484433,43.801804 0 0 0 91.312631,67.9237 a 51.484433,43.801804 0 0 0 -2.46581,-0.471279 51.484433,43.801804 0 0 0 -2.48953,-0.367412 51.484433,43.801804 0 0 0 -2.50798,-0.263028 51.484433,43.801804 0 0 0 -2.520102,-0.158126 51.484433,43.801804 0 0 0 -1.160692,-0.02429 z"
           style="fill:#e9afaf;fill-opacity:0.254902;fill-rule:evenodd;stroke:#000000;stroke-width:0.024285;paint-order:stroke markers fill"
           class="l11_d_szektor_e" />
        <path
           d="m 80.575105,54.714578 -0.16727,5.020425 a 60.359598,49.353546 0 0 1 1.266302,0.0248 60.359598,49.353546 0 0 1 2.865496,0.167417 60.359598,49.353546 0 0 1 2.852334,0.279028 60.359598,49.353546 0 0 1 2.83314,0.389604 60.359598,49.353546 0 0 1 2.807361,0.49915 60.359598,49.353546 0 0 1 2.775007,0.608175 60.359598,49.353546 0 0 1 2.736616,0.715137 60.359598,49.353546 0 0 1 2.691649,0.820547 60.359598,49.353546 0 0 1 2.11143,0.739423 l 2.73058,-4.680943 a 65.919506,51.30796 0 0 0 -2.06042,-0.711003 65.919506,51.30796 0 0 0 -3.01904,-0.906322 65.919506,51.30796 0 0 0 -3.072269,-0.790061 65.919506,51.30796 0 0 0 -3.117768,-0.671215 65.919506,51.30796 0 0 0 -3.156706,-0.551855 65.919506,51.30796 0 0 0 -3.188515,-0.430941 65.919506,51.30796 0 0 0 -3.211,-0.308482 65.919506,51.30796 0 0 0 -3.226358,-0.184984 65.919506,51.30796 0 0 0 -1.450569,-0.02791 z"
           style="opacity:0.6;fill:#ffb380;fill-opacity:0.254902;fill-rule:evenodd;stroke:#000000;stroke-width:0.130245;paint-order:stroke markers fill"
           class="l11_d_szektor_g" />
        <path
           d="m 55.688989,64.004638 a 60.359598,49.353546 0 0 1 7.546809,-2.301459 60.359598,49.353546 0 0 1 8.415509,-1.496929 60.359598,49.353546 0 0 1 6.969872,-0.407691 l -0.173301,-5.06848 a 65.919506,51.30796 0 0 0 -2.920338,0.08113 65.919506,51.30796 0 0 0 -4.679121,0.392187 65.919506,51.30796 0 0 0 -4.63086,0.65003 65.919506,51.30796 0 0 0 -4.559016,0.905806 65.919506,51.30796 0 0 0 -4.46469,1.156414 65.919506,51.30796 0 0 0 -4.256837,1.372917 z"
           style="opacity:0.6;fill:#ffb380;fill-opacity:0.254902;fill-rule:evenodd;stroke:#000000;stroke-width:0.130245;paint-order:stroke markers fill"
           class="l11_d_szektor_g" />
        <path
           d="m 62.427863,75.643962 2.243791,4.081921 a 37.55979,31.028038 0 0 1 2.714046,-0.929142 37.55979,31.028038 0 0 1 3.124874,-0.813904 37.55979,31.028038 0 0 1 3.198771,-0.585494 37.55979,31.028038 0 0 1 3.248897,-0.353467 37.55979,31.028038 0 0 1 2.247925,-0.08061 l -0.145727,-4.51652 a 44.536095,38.649559 0 0 0 -5.156275,0.319877 44.536095,38.649559 0 0 0 -6.208923,1.172021 44.536095,38.649559 0 0 0 -5.267379,1.705323 z"
           style="fill:#e9afaf;fill-opacity:0.254902;fill-rule:evenodd;stroke:#000000;stroke-width:0.0240458;paint-order:stroke markers fill"
           class="l11_d_szektor_d" />
        <path
           d="m 96.614962,75.610889 a 44.536095,38.649559 0 0 0 -0.768428,-0.29559 44.536095,38.649559 0 0 0 -2.039669,-0.682645 44.536095,38.649559 0 0 0 -2.075326,-0.595313 44.536095,38.649559 0 0 0 -2.106848,-0.505912 44.536095,38.649559 0 0 0 -2.132686,-0.415478 44.536095,38.649559 0 0 0 -2.153874,-0.324528 44.536095,38.649559 0 0 0 -2.169376,-0.232028 44.536095,38.649559 0 0 0 -2.180229,-0.139526 44.536095,38.649559 0 0 0 -1.008207,-0.0217 l -0.142627,4.555277 a 37.55979,31.028038 0 0 1 1.313615,0.03411 37.55979,31.028038 0 0 1 2.348693,0.183451 37.55979,31.028038 0 0 1 2.330608,0.304374 37.55979,31.028038 0 0 1 2.303218,0.425297 37.55979,31.028038 0 0 1 2.264978,0.544153 37.55979,31.028038 0 0 1 2.220536,0.660425 37.55979,31.028038 0 0 1 1.734778,0.6196 z"
           style="fill:#e9afaf;fill-opacity:0.254902;fill-rule:evenodd;stroke:#000000;stroke-width:0.0240458;paint-order:stroke markers fill"
           class="l11_d_szektor_d" />
        <path
           d="m 59.042778,69.698805 a 52.514943,43.800788 0 0 1 6.403513,-1.992555 52.514943,43.800788 0 0 1 7.321831,-1.328025 52.514943,43.800788 0 0 1 6.071239,-0.362236 l -0.186029,-5.544116 a 59.17515,49.355826 0 0 0 -6.833101,0.407709 59.17515,49.355826 0 0 0 -4.157175,0.625773 59.17515,49.355826 0 0 0 -4.093194,0.871226 59.17515,49.355826 0 0 0 -7.398717,2.301565 z"
           style="fill:#e9afaf;fill-opacity:0.254902;fill-rule:evenodd;stroke:#000000;stroke-width:0.0245266;paint-order:stroke markers fill"
           class="l11_d_szektor_f" />
        <path
           d="m 80.376688,60.408314 -0.18119,5.552383 a 52.514943,43.800788 0 0 1 1.183924,0.02429 52.514943,43.800788 0 0 1 2.570544,0.158122 52.514943,43.800788 0 0 1 2.55818,0.263022 52.514943,43.800788 0 0 1 2.53936,0.367404 52.514943,43.800788 0 0 1 2.515166,0.471268 52.514943,43.800788 0 0 1 2.483982,0.573581 52.514943,43.800788 0 0 1 2.447422,0.674349 52.514943,43.800788 0 0 1 2.404945,0.773561 52.514943,43.800788 0 0 1 1.095756,0.405125 l 2.871103,-5.019624 a 59.17515,49.355826 0 0 0 -2.07,-0.739457 59.17515,49.355826 0 0 0 -2.638829,-0.820585 59.17515,49.355826 0 0 0 -2.682913,-0.71517 59.17515,49.355826 0 0 0 -2.720553,-0.608204 59.17515,49.355826 0 0 0 -2.752272,-0.499173 59.17515,49.355826 0 0 0 -2.777544,-0.389622 59.17515,49.355826 0 0 0 -2.796362,-0.27904 59.17515,49.355826 0 0 0 -2.809266,-0.167425 59.17515,49.355826 0 0 0 -1.241453,-0.0248 z"
           style="fill:#e9afaf;fill-opacity:0.254902;fill-rule:evenodd;stroke:#000000;stroke-width:0.0245266;paint-order:stroke markers fill"
           class="l11_d_szektor_f" />
      <path
         style="fill:#ffffff;fill-opacity:0;stroke-width:0.2;paint-order:stroke markers fill"
         d="M 64.5,79.999998 72.297395,78.14561 79.499999,77.5 87.416901,78.14561 94.499998,79.999998 107,59 96.632074,55.658879 84.999998,54 H 69.999999 l -13.846648,2.9685 -3.826989,2.405965 z"
         id="d_korvonal" />
    </g>
    <g
       id="l11_g_szektor"
       style="cursor:pointer">
        <path
           d="m 138.40661,44.844731 a 90.657369,71.479281 0 0 1 0.0158,0.01034 90.657369,71.479281 0 0 1 3.193,2.288718 90.657369,71.479281 0 0 1 3.05101,2.405506 90.657369,71.479281 0 0 1 2.90242,2.517643 90.657369,71.479281 0 0 1 2.74728,2.623059 90.657369,71.479281 0 0 1 2.23193,2.351247 l 4.58499,-1.891849 a 69.966766,51.325933 0 0 0 -4.18916,-5.628005 69.966766,51.325933 0 0 0 -2.84815,-3.010113 69.966766,51.325933 0 0 0 -3.13378,-2.852501 69.966766,51.325933 0 0 0 -3.40355,-2.681972 69.966766,51.325933 0 0 0 -1.60636,-1.096559 z"
           style="opacity:0.6;fill:#ffeeaa;fill-opacity:0.254902;fill-rule:evenodd;stroke:#000000;stroke-width:0.118399;paint-order:stroke markers fill"
           class="l11_g_szektor_k" />
        <path
           d="m 123.65561,37.064578 a 90.657369,71.479281 0 0 1 1.6908,0.728112 90.657369,71.479281 0 0 1 3.68478,1.77041 90.657369,71.479281 0 0 1 3.57348,1.906836 90.657369,71.479281 0 0 1 3.45396,2.039125 90.657369,71.479281 0 0 1 1.44135,0.937915 l 3.42546,-5.106081 a 69.966766,51.325933 0 0 0 -0.0592,-0.04031 69.966766,51.325933 0 0 0 -3.88876,-2.29957 69.966766,51.325933 0 0 0 -4.10308,-2.088735 69.966766,51.325933 0 0 0 -4.29551,-1.870145 69.966766,51.325933 0 0 0 -2.86845,-1.053153 z"
           style="opacity:0.6;fill:#ffeeaa;fill-opacity:0.254902;fill-rule:evenodd;stroke:#000000;stroke-width:0.118399;paint-order:stroke markers fill"
           class="l11_g_szektor_k" />
        <path
           d="m 109.13944,32.353346 a 90.657369,71.479281 0 0 1 1.89255,0.476968 90.657369,71.479281 0 0 1 4.04279,1.188542 90.657369,71.479281 0 0 1 3.96658,1.339435 90.657369,71.479281 0 0 1 3.619,1.386462 l 1.81744,-4.962424 a 69.966766,51.325933 0 0 0 -3.61679,-1.099658 69.966766,51.325933 0 0 0 -4.73907,-1.157023 69.966766,51.325933 0 0 0 -4.83885,-0.905875 69.966766,51.325933 0 0 0 -1.4863,-0.196367 z"
           style="opacity:0.6;fill:#ffeeaa;fill-opacity:0.254902;fill-rule:evenodd;stroke:#000000;stroke-width:0.118399;paint-order:stroke markers fill"
           class="l11_g_szektor_k" />
        <path
           d="m 129.66498,57.058797 -3.31132,4.823495 a 40.664178,31.036596 0 0 1 0.44474,0.442351 40.664178,31.036596 0 0 1 1.90596,2.284105 40.664178,31.036596 0 0 1 2.07883,3.401871 l 7.44262,-3.195164 a 74.368971,61.007886 0 0 0 -0.72563,-0.795303 74.368971,61.007886 0 0 0 -2.25375,-2.239147 74.368971,61.007886 0 0 0 -2.38075,-2.148713 74.368971,61.007886 0 0 0 -2.503,-2.053112 74.368971,61.007886 0 0 0 -0.6977,-0.520383 z"
           style="fill:#e9afaf;fill-opacity:0.254902;fill-rule:evenodd;stroke:#000000;stroke-width:0.0358171;paint-order:stroke markers fill"
           class="l11_g_szektor_h" />
        <path
           d="m 117.98221,50.113598 -1.80217,4.632288 a 40.664178,31.036596 0 0 1 1.59613,0.7767 40.664178,31.036596 0 0 1 2.8139,1.648485 40.664178,31.036596 0 0 1 2.61577,1.828834 40.664178,31.036596 0 0 1 2.39709,1.996785 40.664178,31.036596 0 0 1 0.50061,0.497645 l 3.04364,-4.720658 a 74.368971,61.007886 0 0 0 -0.44,-0.328147 74.368971,61.007886 0 0 0 -2.72959,-1.848472 74.368971,61.007886 0 0 0 -2.8334,-1.740466 74.368971,61.007886 0 0 0 -2.93142,-1.627297 74.368971,61.007886 0 0 0 -2.23056,-1.115697 z"
           style="fill:#e9afaf;fill-opacity:0.254902;fill-rule:evenodd;stroke:#000000;stroke-width:0.0358171;paint-order:stroke markers fill"
           class="l11_g_szektor_h" />
        <path
           d="m 117.42162,49.893489 a 74.368971,61.007886 0 0 0 -1.97501,-0.884703 74.368971,61.007886 0 0 0 -3.18382,-1.26866 74.368971,61.007886 0 0 0 -3.2539,-1.143086 74.368971,61.007886 0 0 0 -2.66003,-0.81339 l -0.91846,5.712331 a 40.664178,31.036596 0 0 1 0.90898,0.15348 40.664178,31.036596 0 0 1 3.383,0.814423 A 40.664178,31.036596 0 0 1 113,53.5 a 40.664178,31.036596 0 0 1 2.7649,1.099163 z"
           style="fill:#e9afaf;fill-opacity:0.254902;fill-rule:evenodd;stroke:#000000;stroke-width:0.0358171;paint-order:stroke markers fill"
           class="l11_g_szektor_h" />
        <path
           d="m 130.68402,56.130708 a 75.857188,61.007402 0 0 1 0.71166,0.520378 75.857188,61.007402 0 0 1 2.55309,2.053095 75.857188,61.007402 0 0 1 2.42839,2.148695 75.857188,61.007402 0 0 1 2.29886,2.239131 75.857188,61.007402 0 0 1 0.74013,0.795295 l 5.61089,-2.361601 a 82.110261,66.036373 0 0 0 -1.43565,-1.542535 82.110261,66.036373 0 0 0 -2.48804,-2.423612 82.110261,66.036373 0 0 0 -2.62888,-2.325946 82.110261,66.036373 0 0 0 -2.76326,-2.222076 82.110261,66.036373 0 0 0 -1.8807,-1.375104 z"
           style="fill:#e9afaf;fill-opacity:0.254902;fill-rule:evenodd;stroke:#000000;stroke-width:0.0361736;paint-order:stroke markers fill"
           class="l11_g_szektor_i" />
        <path
           d="m 118.74818,49.185569 a 75.857188,61.007402 0 0 1 2.27521,1.115687 75.857188,61.007402 0 0 1 2.99007,1.627285 75.857188,61.007402 0 0 1 2.8901,1.740452 75.857188,61.007402 0 0 1 2.7842,1.848458 75.857188,61.007402 0 0 1 0.44882,0.328145 l 2.99868,-4.558874 a 82.110261,66.036373 0 0 0 -2.36605,-1.570957 82.110261,66.036373 0 0 0 -3.12874,-1.883596 82.110261,66.036373 0 0 0 -3.23625,-1.761642 82.110261,66.036373 0 0 0 -3.3373,-1.636067 82.110261,66.036373 0 0 0 -0.36871,-0.162263 z"
           style="fill:#e9afaf;fill-opacity:0.254902;fill-rule:evenodd;stroke:#000000;stroke-width:0.0361736;paint-order:stroke markers fill"
           class="l11_g_szektor_i" />
        <path
           d="m 107.69003,39.762973 -0.83526,5.092689 a 75.857188,61.007402 0 0 1 2.71326,0.813382 75.857188,61.007402 0 0 1 3.319,1.143078 75.857188,61.007402 0 0 1 3.24755,1.268649 75.857188,61.007402 0 0 1 2.01452,0.884697 l 1.77642,-4.947995 a 82.110261,66.036373 0 0 0 -0.92557,-0.406692 82.110261,66.036373 0 0 0 -3.51574,-1.373035 82.110261,66.036373 0 0 0 -3.59207,-1.23713 82.110261,66.036373 0 0 0 -3.66193,-1.098635 82.110261,66.036373 0 0 0 -0.54018,-0.139008 z"
           style="fill:#e9afaf;fill-opacity:0.254902;fill-rule:evenodd;stroke:#000000;stroke-width:0.0361736;paint-order:stroke markers fill"
           class="l11_g_szektor_i" />
        <path
           d="m 134.9329,50.806047 a 83.75339,66.03581 0 0 1 1.91833,1.375091 83.75339,66.03581 0 0 1 2.81856,2.222058 83.75339,66.03581 0 0 1 2.6815,2.325925 83.75339,66.03581 0 0 1 2.53783,2.423593 83.75339,66.03581 0 0 1 1.46438,1.542521 l 6.19466,-2.5564 a 90.657369,71.479281 0 0 0 -2.23193,-2.351246 90.657369,71.479281 0 0 0 -2.74728,-2.62306 90.657369,71.479281 0 0 0 -2.90242,-2.517643 90.657369,71.479281 0 0 0 -3.05101,-2.405506 90.657369,71.479281 0 0 0 -3.193,-2.288717 90.657369,71.479281 0 0 0 -0.0158,-0.01034 z"
           style="fill:#e9afaf;fill-opacity:0.254902;fill-rule:evenodd;stroke:#000000;stroke-width:0.0365336;paint-order:stroke markers fill"
           class="l11_g_szektor_j" />
        <path
           d="m 121.51853,43.441884 a 83.75339,66.03581 0 0 1 0.37609,0.162263 83.75339,66.03581 0 0 1 3.40409,1.636054 83.75339,66.03581 0 0 1 3.301,1.761626 83.75339,66.03581 0 0 1 3.19136,1.883579 83.75339,66.03581 0 0 1 2.41338,1.570946 l 3.29553,-4.911782 a 90.657369,71.479281 0 0 0 -1.44135,-0.937915 90.657369,71.479281 0 0 0 -3.45396,-2.039125 90.657369,71.479281 0 0 0 -3.57348,-1.906836 90.657369,71.479281 0 0 0 -3.68478,-1.77041 90.657369,71.479281 0 0 0 -1.6908,-0.728112 z"
           style="fill:#e9afaf;fill-opacity:0.254902;fill-rule:evenodd;stroke:#000000;stroke-width:0.0365336;paint-order:stroke markers fill"
           class="l11_g_szektor_j" />
        <path
           d="m 109.13944,33.450941 -0.91668,5.481764 a 83.75339,66.03581 0 0 1 0.55101,0.139006 83.75339,66.03581 0 0 1 3.73519,1.098626 83.75339,66.03581 0 0 1 3.66396,1.23712 83.75339,66.03581 0 0 1 3.5861,1.373025 83.75339,66.03581 0 0 1 0.94409,0.406686 l 1.95725,-5.344821 a 90.657369,71.479281 0 0 0 -3.619,-1.386462 90.657369,71.479281 0 0 0 -3.96658,-1.339435 90.657369,71.479281 0 0 0 -4.04279,-1.188542 90.657369,71.479281 0 0 0 -1.89255,-0.476967 z"
           style="fill:#e9afaf;fill-opacity:0.254902;fill-rule:evenodd;stroke:#000000;stroke-width:0.0365336;paint-order:stroke markers fill"
           class="l11_g_szektor_j" />
      <path
         style="fill:#ffffff;fill-opacity:0;stroke-width:0.2;paint-order:stroke markers fill"
         d="M 109.33906,27.925448 104.775,51.82526 111,53.499998 l 7.83099,3.500001 7.11161,5.533525 L 130.5,68.5 158.31209,55.752423 150.5,45.499998 137.5,35.5 124.5,30 Z"
         id="g_korvonal" />
    </g>
    <g
       id="l11_f_szektor"
       style="cursor:pointer">
        <path
           d="m 7.5370772,57.127173 a 90.657369,71.479281 0 0 1 4.9709738,-5.235786 90.657369,71.479281 0 0 1 8.76102,-6.908018 l -3.76976,-5.278675 a 69.966766,51.325933 0 0 0 -1.60637,1.096559 69.966766,51.325933 0 0 0 -3.403531,2.681972 69.966766,51.325933 0 0 0 -3.1337903,2.852501 69.966766,51.325933 0 0 0 -2.8481539,3.010113 69.966766,51.325933 0 0 0 -4.1891711,5.628005 z"
           style="opacity:0.6;fill:#aaffee;fill-opacity:0.254902;fill-rule:evenodd;stroke:#000000;stroke-width:0.118399;paint-order:stroke markers fill"
           class="l11_f_szektor_k" />
        <path
           d="m 22.142901,44.793721 a 90.657369,71.479281 0 0 1 8.861896,-5.230621 90.657369,71.479281 0 0 1 4.906282,-2.111987 l -2.21109,-5.462128 a 69.966766,51.325933 0 0 0 -2.868438,1.053153 69.966766,51.325933 0 0 0 -4.295531,1.870145 69.966766,51.325933 0 0 0 -4.103097,2.088735 69.966766,51.325933 0 0 0 -3.88873,2.29957 69.966766,51.325933 0 0 0 -0.05922,0.04031 z"
           style="opacity:0.6;fill:#aaffee;fill-opacity:0.254902;fill-rule:evenodd;stroke:#000000;stroke-width:0.118399;paint-order:stroke markers fill"
           class="l11_f_szektor_k" />
        <path
           d="m 49.653496,28.306149 a 69.966766,51.325933 0 0 0 -1.486303,0.196367 69.966766,51.325933 0 0 0 -4.838845,0.905875 69.966766,51.325933 0 0 0 -4.739067,1.157023 69.966766,51.325933 0 0 0 -3.616797,1.099658 l 1.9567,5.343274 a 90.657369,71.479281 0 0 1 4.10529,-1.767312 90.657369,71.479281 0 0 1 9.320781,-2.740881 z"
           style="opacity:0.6;fill:#aaffee;fill-opacity:0.254902;fill-rule:evenodd;stroke:#000000;stroke-width:0.118399;paint-order:stroke markers fill"
           class="l11_f_szektor_k" />
        <path
           d="m 30.485086,57.117843 2.821807,4.376492 a 40.664178,31.036596 0 0 1 0.501129,-0.497645 40.664178,31.036596 0 0 1 2.396559,-1.996785 40.664178,31.036596 0 0 1 2.615772,-1.828834 40.664178,31.036596 0 0 1 2.813903,-1.648485 40.664178,31.036596 0 0 1 1.596125,-0.7767 l -1.674114,-4.303625 a 74.368971,61.007886 0 0 0 -1.757372,0.787034 74.368971,61.007886 0 0 0 -8.494405,5.216235 74.368971,61.007886 0 0 0 -0.819404,0.672313 z"
           style="cursor:pointer;fill:#e9afaf;fill-opacity:0.254902;fill-rule:evenodd;stroke:#000000;stroke-width:0.0358171;paint-order:stroke markers fill"
           class="l11_f_szektor_h" />
        <path
           d="m 21.808466,64.890021 6.859811,2.94505 a 40.664178,31.036596 0 0 1 2.078811,-3.401871 40.664178,31.036596 0 0 1 1.905972,-2.284105 40.664178,31.036596 0 0 1 0.444744,-0.442351 l -3.031532,-4.416801 a 74.368971,61.007886 0 0 0 -5.260526,4.315514 74.368971,61.007886 0 0 0 -2.99728,3.284564 z"
           style="cursor:pointer;fill:#e9afaf;fill-opacity:0.254902;fill-rule:evenodd;stroke:#000000;stroke-width:0.0358171;paint-order:stroke markers fill"
           class="l11_f_szektor_h" />
        <path
           d="m 42.158819,50.144689 1.52657,4.337217 a 40.664178,31.036596 0 0 1 2.764896,-1.099163 40.664178,31.036596 0 0 1 3.277619,-1.036116 40.664178,31.036596 0 0 1 3.383008,-0.814423 40.664178,31.036596 0 0 1 0.908984,-0.15348 l -0.867355,-5.396588 a 74.368971,61.007886 0 0 0 -5.363808,1.640733 74.368971,61.007886 0 0 0 -5.629914,2.52182 z"
           style="cursor:pointer;fill:#e9afaf;fill-opacity:0.254902;fill-rule:evenodd;stroke:#000000;stroke-width:0.0358171;paint-order:stroke markers fill"
           class="l11_f_szektor_h" />
        <path
           d="m 29.500129,56.18976 a 75.857188,61.007402 0 0 1 0.835801,-0.672309 75.857188,61.007402 0 0 1 8.664389,-5.216195 75.857188,61.007402 0 0 1 1.79254,-0.787027 L 38.86111,44.646848 a 82.110261,66.036373 0 0 0 -3.241622,1.423679 82.110261,66.036373 0 0 0 -4.695001,2.626701 82.110261,66.036373 0 0 0 -4.456356,2.883014 z"
           style="fill:#e9afaf;fill-opacity:0.254902;fill-rule:evenodd;stroke:#000000;stroke-width:0.0361736;paint-order:stroke markers fill"
           class="l11_f_szektor_i" />
        <path
           d="m 20.629777,63.961867 a 75.857188,61.007402 0 0 1 3.05726,-3.284539 75.857188,61.007402 0 0 1 5.365797,-4.315478 l -3.17766,-4.538202 a 82.110261,66.036373 0 0 0 -6.913775,5.560358 82.110261,66.036373 0 0 0 -3.929612,4.221428 z"
           style="fill:#e9afaf;fill-opacity:0.254902;fill-rule:evenodd;stroke:#000000;stroke-width:0.0361736;paint-order:stroke markers fill"
           class="l11_f_szektor_i" />
        <path
           d="m 41.433942,49.216664 a 75.857188,61.007402 0 0 1 5.742576,-2.521799 75.857188,61.007402 0 0 1 5.471143,-1.64072 l -0.836876,-5.103023 a 82.110261,66.036373 0 0 0 -7.23197,2.169367 82.110261,66.036373 0 0 0 -4.917526,2.159547 z"
           style="fill:#e9afaf;fill-opacity:0.254902;fill-rule:evenodd;stroke:#000000;stroke-width:0.0361736;paint-order:stroke markers fill"
           class="l11_f_szektor_i" />
      <path
         d="m 13.717489,60.774965 a 83.75339,66.03581 0 0 1 4.008249,-4.221392 83.75339,66.03581 0 0 1 7.052128,-5.560309 l -3.508795,-4.9123 a 90.657369,71.479281 0 0 0 -8.76102,6.908017 90.657369,71.479281 0 0 0 -4.9709738,5.235786 z"
         style="fill:#e9afaf;fill-opacity:0.254902;fill-rule:evenodd;stroke:#000000;stroke-width:0.0365336;paint-order:stroke markers fill"
         id="path30" />
      <path
         d="m 38.886433,43.449729 a 83.75339,66.03581 0 0 1 5.015932,-2.159529 83.75339,66.03581 0 0 1 7.37669,-2.169349 l -0.9238,-5.523104 a 90.657369,71.479281 0 0 0 -9.320781,2.740881 90.657369,71.479281 0 0 0 -4.10529,1.767313 z"
         style="fill:#e9afaf;fill-opacity:0.254902;fill-rule:evenodd;stroke:#000000;stroke-width:0.0365336;paint-order:stroke markers fill"
         id="path34" />
      <path
         d="m 25.40279,50.749868 a 83.75339,66.03581 0 0 1 9.334486,-5.509667 83.75339,66.03581 0 0 1 3.306492,-1.423669 l -2.132689,-5.267825 a 90.657369,71.479281 0 0 0 -4.906282,2.111987 90.657369,71.479281 0 0 0 -8.861896,5.230622 z"
         style="fill:#e9afaf;fill-opacity:0.254902;fill-rule:evenodd;stroke:#000000;stroke-width:0.0365336;paint-order:stroke markers fill"
         id="path32" />
    </g>
  </g>
</svg>
