<?xml version="1.0" encoding="UTF-8" standalone="no"?>
<!-- Created with Inkscape (http://www.inkscape.org/) -->

<svg
   style="cursor:pointer"
   width="158.75mm"
   height="158.75mm"
   viewBox="0 0 158.75 158.75"
   version="1.1"
   id="svg1"
   inkscape:version="1.3 (0e150ed6c4, 2023-07-21)"
   sodipodi:docname="location02.svg"
   inkscape:export-filename="location02mod.svg"
   inkscape:export-xdpi="96"
   inkscape:export-ydpi="96"
   xmlns:inkscape="http://www.inkscape.org/namespaces/inkscape"
   xmlns:sodipodi="http://sodipodi.sourceforge.net/DTD/sodipodi-0.dtd"
   xmlns:xlink="http://www.w3.org/1999/xlink"
   xmlns="http://www.w3.org/2000/svg"
   xmlns:svg="http://www.w3.org/2000/svg">
  <sodipodi:namedview
     id="namedview1"
     pagecolor="#505050"
     bordercolor="#eeeeee"
     borderopacity="1"
     inkscape:showpageshadow="0"
     inkscape:pageopacity="0"
     inkscape:pagecheckerboard="0"
     inkscape:deskcolor="#505050"
     inkscape:document-units="mm"
     inkscape:zoom="0.70710678"
     inkscape:cx="326.68333"
     inkscape:cy="103.9447"
     inkscape:window-width="1920"
     inkscape:window-height="1017"
     inkscape:window-x="1912"
     inkscape:window-y="-8"
     inkscape:window-maximized="1"
     inkscape:current-layer="layer1"
     showgrid="true">
    <inkscape:grid
       id="grid1"
       units="mm"
       originx="0"
       originy="0"
       spacingx="0.5"
       spacingy="0.5"
       empcolor="#0099e5"
       empopacity="0.30196078"
       color="#0099e5"
       opacity="0.14901961"
       empspacing="5"
       dotted="false"
       gridanglex="30"
       gridanglez="30"
       visible="true" />
  </sodipodi:namedview>
  <defs
     id="defs1">
    <rect
       x="198.4252"
       y="113.38582"
       width="60.074799"
       height="15.114176"
       id="rect12" />
    <rect
       x="198.4252"
       y="113.38582"
       width="60.074799"
       height="15.114176"
       id="rect12-6" />
    <rect
       x="198.4252"
       y="113.38582"
       width="60.074799"
       height="15.114176"
       id="rect12-6-3" />
    <rect
       x="198.4252"
       y="113.38582"
       width="60.074799"
       height="15.114176"
       id="rect12-6-3-6" />
    <rect
       x="198.4252"
       y="113.38582"
       width="60.074799"
       height="15.114176"
       id="rect12-6-3-6-7" />
    <rect
       x="198.4252"
       y="113.38582"
       width="60.074799"
       height="15.114176"
       id="rect12-6-3-8" />
    <rect
       x="198.4252"
       y="113.38582"
       width="60.074799"
       height="15.114176"
       id="rect12-6-6" />
    <rect
       x="198.4252"
       y="113.38582"
       width="60.074799"
       height="15.114176"
       id="rect12-6-6-5" />
    <rect
       x="198.4252"
       y="113.38582"
       width="60.074799"
       height="15.114176"
       id="rect12-6-6-9" />
    <rect
       x="198.4252"
       y="113.38582"
       width="60.074799"
       height="15.114176"
       id="rect12-6-6-4" />
    <rect
       x="198.4252"
       y="113.38582"
       width="60.074799"
       height="15.114176"
       id="rect12-6-6-4-9" />
    <rect
       x="198.4252"
       y="113.38582"
       width="76.737329"
       height="37.012651"
       id="rect12-6-3-6-5-5-9" />
    <rect
       x="198.4252"
       y="113.38582"
       width="76.709038"
       height="13.718754"
       id="rect12-6-3-6-5-5-9-1" />
    <rect
       x="198.4252"
       y="113.38582"
       width="76.709038"
       height="13.718754"
       id="rect12-6-3-6-5-5-9-9" />
    <rect
       x="198.4252"
       y="113.38582"
       width="76.709038"
       height="13.718754"
       id="rect12-6-3-6-5-5-9-1-0" />
    <rect
       x="198.4252"
       y="113.38582"
       width="60.074799"
       height="15.114176"
       id="rect12-6-3-6-6-5" />
    <rect
       x="198.4252"
       y="113.38582"
       width="60.074799"
       height="15.114176"
       id="rect12-6-3-6-6-1-3" />
    <rect
       x="198.4252"
       y="113.38582"
       width="60.074799"
       height="15.114176"
       id="rect12-6-3-6-8" />
    <rect
       x="198.4252"
       y="113.38582"
       width="76.737328"
       height="37.01265"
       id="rect12-6-3-6-5-5-9-6" />
    <rect
       x="198.4252"
       y="113.38582"
       width="76.737328"
       height="37.01265"
       id="rect12-6-3-6-5-5-9-6-8" />
    <rect
       x="198.4252"
       y="113.38582"
       width="76.737328"
       height="37.01265"
       id="rect12-6-3-6-5-5-9-64" />
    <rect
       x="198.4252"
       y="113.38582"
       width="76.737328"
       height="37.01265"
       id="rect12-6-3-6-5-5-9-6-84" />
    <rect
       x="198.4252"
       y="113.38582"
       width="60.074799"
       height="15.114176"
       id="rect12-6-3-6-6-1-2-9-6-74" />
    <linearGradient
       inkscape:collect="always"
       xlink:href="#linearGradient146"
       id="linearGradient7"
       gradientUnits="userSpaceOnUse"
       gradientTransform="matrix(1.029932,0,0,1.1255088,-36.036526,-22.878366)"
       x1="101.15678"
       y1="74.910927"
       x2="122.95812"
       y2="74.910927" />
    <linearGradient
       id="linearGradient146"
       inkscape:collect="always">
      <stop
         style="stop-color:#000000;stop-opacity:1;"
         offset="0"
         id="stop146" />
      <stop
         style="stop-color:#000000;stop-opacity:0;"
         offset="1"
         id="stop147" />
    </linearGradient>
    <rect
       x="198.4252"
       y="113.38582"
       width="60.074799"
       height="15.114176"
       id="rect12-6-3-6-6-1-2-9-6-74-0" />
    <linearGradient
       inkscape:collect="always"
       xlink:href="#linearGradient146"
       id="linearGradient9"
       gradientUnits="userSpaceOnUse"
       gradientTransform="matrix(1.029932,0,0,1.1255088,-16.975138,20.687103)"
       x1="101.15678"
       y1="74.910927"
       x2="122.95812"
       y2="74.910927" />
    <rect
       x="198.4252"
       y="113.38582"
       width="60.074799"
       height="15.114176"
       id="rect12-6-3-6-6-1-2-9-6-74-7" />
    <linearGradient
       inkscape:collect="always"
       xlink:href="#linearGradient146"
       id="linearGradient10"
       gradientUnits="userSpaceOnUse"
       gradientTransform="matrix(1.029932,0,0,1.1255088,-64.138472,20.687103)"
       x1="101.15678"
       y1="74.910927"
       x2="122.95812"
       y2="74.910927" />
    <rect
       x="198.4252"
       y="113.38582"
       width="90.826416"
       height="17.437915"
       id="rect12-6-3-6-6-1-2-9-6-74-04" />
    <linearGradient
       inkscape:collect="always"
       xlink:href="#linearGradient146"
       id="linearGradient11"
       gradientUnits="userSpaceOnUse"
       gradientTransform="matrix(1.2055687,0,0,1.1123986,-93.234419,-34.491614)"
       x1="101.15678"
       y1="74.910927"
       x2="122.95812"
       y2="74.910927" />
    <rect
       x="198.4252"
       y="113.38582"
       width="90.826416"
       height="17.437916"
       id="rect12-6-3-6-6-1-2-9-6-74-04-0" />
    <linearGradient
       inkscape:collect="always"
       xlink:href="#linearGradient146"
       id="linearGradient12"
       gradientUnits="userSpaceOnUse"
       gradientTransform="matrix(1.2055687,0,0,1.1123986,-93.092525,-57.637637)"
       x1="101.15678"
       y1="74.910927"
       x2="122.95812"
       y2="74.910927" />
    <rect
       x="198.4252"
       y="113.38582"
       width="90.826416"
       height="17.437916"
       id="rect12-6-3-6-6-1-2-9-6-74-04-5" />
    <rect
       x="198.4252"
       y="113.38582"
       width="90.826416"
       height="17.437916"
       id="rect12-6-3-6-6-1-2-9-6-74-04-0-5" />
    <linearGradient
       inkscape:collect="always"
       xlink:href="#linearGradient146"
       id="linearGradient13"
       gradientUnits="userSpaceOnUse"
       gradientTransform="matrix(1.3207959,0,0,1.1121311,-34.117273,-34.471575)"
       x1="101.15678"
       y1="74.910927"
       x2="122.95812"
       y2="74.910927" />
    <linearGradient
       inkscape:collect="always"
       xlink:href="#linearGradient146"
       id="linearGradient14"
       gradientUnits="userSpaceOnUse"
       gradientTransform="matrix(1.2445395,0,0,1.1095103,-25.080353,-57.00898)"
       x1="101.15678"
       y1="74.910927"
       x2="122.95812"
       y2="74.910927" />
    <rect
       x="198.4252"
       y="113.38582"
       width="90.826416"
       height="17.437916"
       id="rect12-6-3-6-6-1-2-9-6-74-04-2" />
    <linearGradient
       inkscape:collect="always"
       xlink:href="#linearGradient146"
       id="linearGradient15"
       gradientUnits="userSpaceOnUse"
       gradientTransform="matrix(0.83571023,0,0,1.008625,-136.35845,-53.864311)"
       x1="101.15678"
       y1="74.910927"
       x2="122.95812"
       y2="74.910927" />
    <rect
       x="198.4252"
       y="113.38582"
       width="90.826416"
       height="17.437916"
       id="rect12-6-3-6-6-1-2-9-6-74-04-2-5" />
    <linearGradient
       inkscape:collect="always"
       xlink:href="#linearGradient146"
       id="linearGradient16"
       gradientUnits="userSpaceOnUse"
       gradientTransform="matrix(0.83571023,0,0,1.008625,-137.07126,59.786503)"
       x1="101.15678"
       y1="74.910927"
       x2="122.95812"
       y2="74.910927" />
  </defs>
  <g
     inkscape:label="Layer 1"
     inkscape:groupmode="layer"
     id="layer1">
    <path
       style="fill:#b46024;fill-opacity:1;fill-rule:evenodd;stroke:none;stroke-width:0.136762;paint-order:stroke markers fill"
       d="M 57.688217,12.546373 H 98.952296 V 42.020718 H 57.688214 Z"
       id="szinpad"
       sodipodi:nodetypes="ccccc"
       inkscape:label="szinpad" />
    <g
       id="l02_bal_szarny_2"
       style="stroke:none;fill:#37c533;fill-opacity:1;">
      <path
         style="fill:#37c533;fill-opacity:1;fill-rule:evenodd;stroke:none;stroke-width:0.136762;paint-order:stroke markers fill"
         d="m 28.213871,36.125852 28.295369,-1.91e-4 -3e-6,5.895057 6.404365,5.479264 L 34.5,71 C 32.376825,66.462159 30.40669,63.030749 28.213871,58.526352 v -22.4005"
         class="l02_bal_szarny_2"
         sodipodi:nodetypes="ccccccc"
         inkscape:label="l02_bal_szarny_2"
         id="path1" />
    </g>
    <g
       id="l02_jobb_szarny_2"
       style="stroke:none;fill:#37c533;fill-opacity:1;">
      <path
         style="fill:#37c533;fill-opacity:1;fill-rule:evenodd;stroke:none;stroke-width:0.136762;paint-order:stroke markers fill"
         d="m 128.42665,36.125852 -28.29538,0.0014 v 5.893434 L 94.201583,47.499982 122.5,71 c 2.12316,-4.537841 3.73383,-7.969283 5.92665,-12.47368 v -22.4005"
         class="l02_jobb_szarny_2"
         sodipodi:nodetypes="ccccccc"
         inkscape:label="l02_jobb_szarny_2"
         id="path2" />
    </g>
    <g
       id="l02_bal_szarny_1"
       style="stroke:none;fill:#b345b1;fill-opacity:1;">
      <path
         style="fill:#b345b1;fill-opacity:1;fill-rule:evenodd;stroke:none;stroke-width:0.131506;paint-order:stroke markers fill"
         d="m 28.211983,18.442912 28.298298,0.0092 -0.06734,15.287154 -28.230957,0.02846 V 18.442912"
         class="l02_bal_szarny_1"
         sodipodi:nodetypes="ccccc"
         inkscape:label="l02_bal_szarny_1"
         id="path3" />
    </g>
    <g
       id="l02_jobb_szarny_1"
       style="stroke:none;fill:#b345b1;fill-opacity:1;">
      <path
         style="fill:#b345b1;fill-opacity:1;fill-rule:evenodd;stroke:none;stroke-width:0.131506;paint-order:stroke markers fill"
         d="m 100.13127,18.443046 28.29828,0.0063 -0.0673,15.290077 -28.23096,0.02846 V 18.443046"
         class="l02_jobb_szarny_1"
         sodipodi:nodetypes="ccccc"
         inkscape:label="l02_jobb_szarny_1"
         id="path4" />
    </g>
    <g
       id="l02_center_1"
       style="stroke:none;fill:#3351c5;fill-opacity:1;">
      <path
         d="m 65,47.5 -29.669305,24.972944 4.910553,9.928455 23.686466,-0.0067 5.788181,-11.315314 h 17.684604 l 5.89487,11.789738 23.580001,8.9e-5 5.04124,-10.692158 -29.800216,-24.677072 z"
         style="fill:#3351c5;fill-opacity:1;fill-rule:evenodd;stroke:none;stroke-width:0.136762;paint-order:stroke markers fill"
         class="l02_center_1"
         sodipodi:nodetypes="ccccccccccc"
         inkscape:label="l02_center_1"
         id="path5" />
    </g>
    <g
       id="l02_vip_bal"
       style="fill:#ff5555;fill-opacity:1;stroke:none;"
       transform="matrix(0.98550769,0,0,0.98789699,0.23802349,0.22319446)">
      <path
         style="fill:#ff5555;fill-opacity:1;fill-rule:evenodd;stroke:none;stroke-width:0.136762;paint-order:stroke markers fill"
         d="M 27.034893,18.441242 16.424128,24.33611 v 41.264083 l 11.789737,17.684609 h 10.61077 L 27.034893,58.526352 Z"
         class="l02_vip_bal"
         inkscape:label="l02_vip_bal"
         id="path6" />
    </g>
    <g
       id="l02_vip_jobb"
       style="fill:#ff5555;fill-opacity:1;stroke:none;"
       transform="matrix(0.98080632,0,0,0.99359088,2.6912677,0.11819209)">
      <path
         style="fill:#ff5555;fill-opacity:1;fill-rule:evenodd;stroke:none;stroke-width:0.136762;paint-order:stroke markers fill"
         d="m 129.60563,18.441242 10.61075,5.894868 v 41.264083 l -11.78973,17.684609 h -10.61077 l 11.78975,-24.75845 z"
         class="l02_vip_jobb"
         inkscape:label="l02_vip_jobb"
         id="path7" />
    </g>
    <g
       id="l02_center_2"
       style="fill:#c5a133;fill-opacity:1;stroke:none;stroke-opacity:1;"
       transform="matrix(1.0345039,0,0,1,-0.97348558,0)">
      <path
         d="M 75.372826,124.46909 V 95.074542 l -9.431792,-2.357949 -2.357948,-8.252816 -35.355396,0.01162 -0.01394,28.283823 5.894869,11.78972 c 9.431792,0 11.964752,-0.0797 41.2639,-0.0797 z"
         style="fill:#c5a133;fill-opacity:1;fill-rule:evenodd;stroke:none;stroke-width:0.162569;stroke-opacity:1;paint-order:stroke markers fill"
         class="l02_center_2"
         sodipodi:nodetypes="ccccccccc"
         inkscape:label="l02_center_2"
         id="path8" />
    </g>
    <g
       id="l02_center_3"
       style="fill:#c5a133;fill-opacity:1;stroke:none;"
       transform="matrix(1.0268896,0,0,1,-3.4529484,0)">
      <path
         d="m 92.950732,84.578946 -2.251252,8.137647 -9.431791,2.357949 V 124.46909 H 110.7423 l 7.07343,-30.573473 9.90275,-0.785935 0.69334,-8.634315 z"
         style="fill:#c5a133;fill-opacity:1;fill-rule:evenodd;stroke:none;stroke-width:0.162569;paint-order:stroke markers fill"
         class="l02_center_3"
         sodipodi:nodetypes="ccccccccc"
         inkscape:label="l02_center_3"
         id="path9" />
    </g>
    <rect
       style="fill:#716b67;fill-opacity:1;fill-rule:evenodd;stroke:none;stroke-width:0.235795;stroke-dasharray:none;paint-order:stroke markers fill"
       id="rect11"
       width="15.152721"
       height="12.963043"
       x="70.712975"
       y="76.328857" />
    <text
       xml:space="preserve"
       transform="matrix(0.39927912,0,0,0.39927913,-11.496469,-21.95131)"
       id="text12-6-6-7"
       style="white-space:pre;shape-inside:url(#rect12-6-3-8);display:inline;fill:#000000;fill-opacity:1;fill-rule:evenodd;stroke:#000000;stroke-width:0.0755906;stroke-dasharray:none;stroke-opacity:1;paint-order:stroke markers fill"><tspan
         x="198.42578"
         y="124.33468"
         id="tspan1">Színpad</tspan></text>
    <text
       xml:space="preserve"
       transform="matrix(0.39927912,0,0,0.39927913,-5.1958707,34.919611)"
       id="text12-6-6-8-9"
       style="white-space:pre;shape-inside:url(#rect12-6-3-6-7);display:inline;fill:#000000;fill-opacity:1;fill-rule:evenodd;stroke:#000000;stroke-width:0.0755906;stroke-dasharray:none;stroke-opacity:1;paint-order:stroke markers fill"><tspan
         x="198.42578"
         y="124.33468"
         id="tspan2">Mix</tspan></text>
    <path
       style="fill:#786a60;fill-opacity:0.253041;fill-rule:evenodd;stroke:none;stroke-width:0.162699;stroke-dasharray:none;stroke-opacity:1;paint-order:stroke markers fill"
       d="m 140.21638,66.779168 -10.61075,17.684607 v 5.894868 h 10.61075 z"
       id="path12" />
    <path
       style="fill:#786a60;fill-opacity:0.253041;fill-rule:evenodd;stroke:none;stroke-width:0.162699;stroke-dasharray:none;stroke-opacity:1;paint-order:stroke markers fill"
       d="M 16.447713,66.864299 27.058476,84.548905 27.034893,110.40121 16.447709,90.443775 Z"
       id="path12-1"
       sodipodi:nodetypes="ccccc" />
    <path
       style="fill:#786a60;fill-opacity:0.253041;fill-rule:evenodd;stroke:none;stroke-width:0.162699;stroke-dasharray:none;stroke-opacity:1;paint-order:stroke markers fill"
       d="m 111.92102,125.72785 6.64278,-30.653308 9.94205,-0.762086 1.09978,-2.774832 h 10.61075 v 44.801006 h -28.29536 z"
       id="path13"
       sodipodi:nodetypes="cccccccc" />
    <text
       xml:space="preserve"
       transform="matrix(0.39927913,0,0,0.39927912,44.080553,63.054907)"
       id="text12-6-7-5"
       style="white-space:pre;shape-inside:url(#rect12-6-6-9);display:inline;fill:#000000;fill-opacity:1;fill-rule:evenodd;stroke:#000000;stroke-width:0.0755906;stroke-dasharray:none;stroke-opacity:1;paint-order:stroke markers fill"><tspan
         x="198.42578"
         y="124.33468"
         id="tspan3">Büfé</tspan></text>
    <path
       style="fill:#786a60;fill-opacity:0.253041;fill-rule:evenodd;stroke:none;stroke-width:0.162699;stroke-dasharray:none;stroke-opacity:1;paint-order:stroke markers fill"
       d="M 4.6343946,24.33611 V 91.53762 H 15.245159 l 0,-67.198277 -10.6107644,-0.0032"
       id="path16"
       sodipodi:nodetypes="ccccc" />
    <text
       xml:space="preserve"
       transform="matrix(0,-0.39927913,0.39927912,0,-36.75739,166.48502)"
       id="text12-6-7-6"
       style="white-space:pre;shape-inside:url(#rect12-6-6-4);display:inline;fill:#000000;fill-opacity:1;fill-rule:evenodd;stroke:#000000;stroke-width:0.0755906;stroke-dasharray:none;stroke-opacity:1;paint-order:stroke markers fill"><tspan
         x="198.42578"
         y="124.33468"
         id="tspan4">Parkolók</tspan></text>
    <path
       style="fill:#786a60;fill-opacity:0.253041;fill-rule:evenodd;stroke:none;stroke-width:0.162699;stroke-dasharray:none;stroke-opacity:1;paint-order:stroke markers fill"
       d="M 141.39536,24.336112 V 136.33863 h 10.61077 l 0,-112.000292 -10.61077,-0.0022"
       id="path16-4"
       sodipodi:nodetypes="ccccc" />
    <text
       xml:space="preserve"
       transform="matrix(0,-0.39927913,0.39927912,0,100.0036,166.48502)"
       id="text12-6-7-6-4"
       style="white-space:pre;shape-inside:url(#rect12-6-6-4-9);display:inline;fill:#000000;fill-opacity:1;fill-rule:evenodd;stroke:#000000;stroke-width:0.0755906;stroke-dasharray:none;stroke-opacity:1;paint-order:stroke markers fill"><tspan
         x="198.42578"
         y="124.33468"
         id="tspan5">Parkolók</tspan></text>
    <path
       id="rect13"
       style="fill:#786a60;fill-opacity:0.253041;fill-rule:evenodd;stroke:none;stroke-width:0.162699;paint-order:stroke markers fill"
       d="m 15.245159,92.716593 17.684607,32.944327 77.812284,0.0669 v 10.61075 H 28.213871 L 12.556854,124.5489 4.6343946,92.716593 Z"
       sodipodi:nodetypes="cccccccc" />
    <text
       xml:space="preserve"
       transform="matrix(0.39927912,0,0,0.39927913,-15.89525,83.198417)"
       id="text12-6-6-8-98"
       style="white-space:pre;shape-inside:url(#rect12-6-3-6-6-5);display:inline;fill:#000000;fill-opacity:1;fill-rule:evenodd;stroke:#000000;stroke-width:0.0755906;stroke-dasharray:none;stroke-opacity:1;paint-order:stroke markers fill"><tspan
         x="198.42578"
         y="124.33468"
         id="tspan6">Előtér</tspan></text>
    <text
       xml:space="preserve"
       transform="matrix(0.3058656,0.25665171,-0.2566517,0.3058656,-23.409718,43.856167)"
       id="text12-6-6-8-98-9"
       style="white-space:pre;shape-inside:url(#rect12-6-3-6-6-1-3);display:inline;fill:#000000;fill-opacity:1;fill-rule:evenodd;stroke:#000000;stroke-width:0.0755906;stroke-dasharray:none;stroke-opacity:1;paint-order:stroke markers fill"><tspan
         x="198.42578"
         y="124.33468"
         id="tspan7">Bejárat</tspan></text>
    <path
       style="fill:#000000;fill-opacity:1;fill-rule:evenodd;stroke:#000000;stroke-width:0.162699;stroke-dasharray:none;stroke-opacity:1;paint-order:stroke markers fill"
       d="m 14.518947,133.89324 1.812054,1.50878 3.789148,-4.51572 1.806292,1.51565 0.321881,-5.88606 -5.740756,1.3391 1.821753,1.49723 z"
       id="path15" />
    <rect
       style="fill:#2e2f70;fill-opacity:1;fill-rule:nonzero;stroke:url(#linearGradient7);stroke-width:0.0286385;paint-order:stroke markers fill"
       id="rect12-2-2"
       width="22.453897"
       height="6.0268998"
       x="68.148048"
       y="58.421089"
       ry="3.0134499" />
    <text
       xml:space="preserve"
       transform="matrix(0.2849018,0,0,0.27902209,15.367805,27.959597)"
       id="text12-6-6-8-98-9-3-0-6-9"
       style="white-space:pre;shape-inside:url(#rect12-6-3-6-6-1-2-9-6-74);display:inline;fill:#f6df5c;fill-opacity:1;fill-rule:evenodd;stroke:#f6df5c;stroke-width:0.709354;stroke-dasharray:none;stroke-opacity:1;paint-order:stroke markers fill"><tspan
         x="198.42578"
         y="124.33468"
         id="tspan8">Center-1</tspan></text>
    <rect
       style="fill:#2e2f70;fill-opacity:1;fill-rule:nonzero;stroke:url(#linearGradient11);stroke-width:0.0308034;paint-order:stroke markers fill"
       id="rect12-2-2-0"
       width="26.28301"
       height="5.956697"
       x="28.71699"
       y="45.860844"
       ry="2.9783485" />
    <text
       xml:space="preserve"
       transform="matrix(0.2849018,0,0,0.27902209,-25.121643,15.180323)"
       id="text12-6-6-8-98-9-3-0-6-9-0"
       style="white-space:pre;shape-inside:url(#rect12-6-3-6-6-1-2-9-6-74-04);display:inline;fill:#f6df5c;fill-opacity:1;fill-rule:evenodd;stroke:#f6df5c;stroke-width:0.709354;stroke-dasharray:none;stroke-opacity:1;paint-order:stroke markers fill"><tspan
         x="198.42578"
         y="124.33468"
         id="tspan9">Bal-szárny-2</tspan></text>
    <rect
       style="fill:#2e2f70;fill-opacity:1;fill-rule:nonzero;stroke:url(#linearGradient15);stroke-width:0.0244211;paint-order:stroke markers fill"
       id="rect12-2-2-0-1"
       width="18.219601"
       height="5.4010077"
       x="-51.820732"
       y="18.992214"
       ry="2.7005038"
       transform="rotate(-90)" />
    <text
       xml:space="preserve"
       transform="matrix(0,-0.2849018,0.27902209,0,-11.878615,105.91647)"
       id="text12-6-6-8-98-9-3-0-6-9-0-7"
       style="white-space:pre;shape-inside:url(#rect12-6-3-6-6-1-2-9-6-74-04-2);display:inline;fill:#f6df5c;fill-opacity:1;fill-rule:evenodd;stroke:#f6df5c;stroke-width:0.709354;stroke-dasharray:none;stroke-opacity:1;paint-order:stroke markers fill"><tspan
         x="198.42578"
         y="124.33468"
         id="tspan10">VIP-bal</tspan></text>
    <rect
       style="fill:#2e2f70;fill-opacity:1;fill-rule:nonzero;stroke:url(#linearGradient16);stroke-width:0.0244211;paint-order:stroke markers fill"
       id="rect12-2-2-0-1-8"
       width="18.219601"
       height="5.4010077"
       x="-52.533539"
       y="132.64302"
       ry="2.7005038"
       transform="rotate(-90)" />
    <text
       xml:space="preserve"
       transform="matrix(0,-0.2849018,0.27902209,0,101.57759,107.33829)"
       id="text12-6-6-8-98-9-3-0-6-9-0-7-8"
       style="white-space:pre;shape-inside:url(#rect12-6-3-6-6-1-2-9-6-74-04-2-5);display:inline;fill:#f6df5c;fill-opacity:1;fill-rule:evenodd;stroke:#f6df5c;stroke-width:0.709354;stroke-dasharray:none;stroke-opacity:1;paint-order:stroke markers fill"><tspan
         x="198.42578"
         y="124.33468"
         id="tspan11">VIP-jobb</tspan></text>
    <rect
       style="fill:#2e2f70;fill-opacity:1;fill-rule:nonzero;stroke:url(#linearGradient12);stroke-width:0.0308034;paint-order:stroke markers fill"
       id="rect12-2-2-0-3"
       width="26.28301"
       height="5.956697"
       x="28.858885"
       y="22.714821"
       ry="2.9783485" />
    <text
       xml:space="preserve"
       transform="matrix(0.2849018,0,0,0.27902209,-24.979749,-7.9656997)"
       id="text12-6-6-8-98-9-3-0-6-9-0-5"
       style="white-space:pre;shape-inside:url(#rect12-6-3-6-6-1-2-9-6-74-04-0);display:inline;fill:#f6df5c;fill-opacity:1;fill-rule:evenodd;stroke:#f6df5c;stroke-width:0.709354;stroke-dasharray:none;stroke-opacity:1;paint-order:stroke markers fill"><tspan
         x="198.42578"
         y="124.33468"
         id="tspan12">Bal-szárny-1</tspan></text>
    <rect
       style="fill:#2e2f70;fill-opacity:1;fill-rule:nonzero;stroke:url(#linearGradient13);stroke-width:0.032238;paint-order:stroke markers fill"
       id="rect12-2-2-0-8"
       width="28.795118"
       height="5.9552646"
       x="99.490135"
       y="45.861561"
       ry="2.9776323" />
    <text
       xml:space="preserve"
       transform="matrix(0.2849018,0,0,0.27902209,45.650794,15.180324)"
       id="text12-6-6-8-98-9-3-0-6-9-0-53"
       style="white-space:pre;shape-inside:url(#rect12-6-3-6-6-1-2-9-6-74-04-5);display:inline;fill:#f6df5c;fill-opacity:1;fill-rule:evenodd;stroke:#f6df5c;stroke-width:0.709354;stroke-dasharray:none;stroke-opacity:1;paint-order:stroke markers fill"><tspan
         x="198.42578"
         y="124.33468"
         id="tspan13">Jobb-szárny-2</tspan></text>
    <rect
       style="fill:#2e2f70;fill-opacity:1;fill-rule:nonzero;stroke:url(#linearGradient14);stroke-width:0.0312566;paint-order:stroke markers fill"
       id="rect12-2-2-0-3-6"
       width="27.132624"
       height="5.9412313"
       x="100.8132"
       y="23.13485"
       ry="2.9706156" />
    <text
       xml:space="preserve"
       transform="matrix(0.2849018,0,0,0.27902209,45.792688,-7.5159269)"
       id="text12-6-6-8-98-9-3-0-6-9-0-5-6"
       style="white-space:pre;shape-inside:url(#rect12-6-3-6-6-1-2-9-6-74-04-0-5);display:inline;fill:#f6df5c;fill-opacity:1;fill-rule:evenodd;stroke:#f6df5c;stroke-width:0.709354;stroke-dasharray:none;stroke-opacity:1;paint-order:stroke markers fill"><tspan
         x="198.42578"
         y="124.33468"
         id="tspan14">Jobb-szárny-1</tspan></text>
    <rect
       style="fill:#2e2f70;fill-opacity:1;fill-rule:nonzero;stroke:url(#linearGradient9);stroke-width:0.0286385;paint-order:stroke markers fill"
       id="rect12-2-2-4"
       width="22.453897"
       height="6.0268998"
       x="87.209435"
       y="101.98655"
       ry="3.0134499" />
    <text
       xml:space="preserve"
       transform="matrix(0.2849018,0,0,0.27902209,34.429193,71.525066)"
       id="text12-6-6-8-98-9-3-0-6-9-5"
       style="white-space:pre;shape-inside:url(#rect12-6-3-6-6-1-2-9-6-74-0);display:inline;fill:#f6df5c;fill-opacity:1;fill-rule:evenodd;stroke:#f6df5c;stroke-width:0.709354;stroke-dasharray:none;stroke-opacity:1;paint-order:stroke markers fill"><tspan
         x="198.42578"
         y="124.33468"
         id="tspan15">Center-3</tspan></text>
    <rect
       style="fill:#2e2f70;fill-opacity:1;fill-rule:nonzero;stroke:url(#linearGradient10);stroke-width:0.0286385;paint-order:stroke markers fill"
       id="rect12-2-2-3"
       width="22.453897"
       height="6.0268998"
       x="40.046101"
       y="101.98655"
       ry="3.0134499" />
    <text
       xml:space="preserve"
       transform="matrix(0.2849018,0,0,0.27902209,-12.734141,71.525066)"
       id="text12-6-6-8-98-9-3-0-6-9-57"
       style="white-space:pre;shape-inside:url(#rect12-6-3-6-6-1-2-9-6-74-7);display:inline;fill:#f6df5c;fill-opacity:1;fill-rule:evenodd;stroke:#f6df5c;stroke-width:0.709354;stroke-dasharray:none;stroke-opacity:1;paint-order:stroke markers fill"><tspan
         x="198.42578"
         y="124.33468"
         id="tspan16">Center-2</tspan></text>
    <path
       style="fill:#010002;stroke-width:0.0157765"
       d="m 127.77316,116.15553 -0.0285,1.35268 c 0,0.0533 -0.0362,0.12234 -0.10413,0.12234 v 0 h -0.0364 v 0 0 c -0.068,0 -0.10413,-0.0758 -0.10413,-0.13055 l -0.10875,-1.35512 c -0.0278,1.2e-4 -0.0563,1.2e-4 -0.086,1.2e-4 -0.0519,0 -0.10055,-2.5e-4 -0.14658,-2.5e-4 l -0.10875,1.37384 c 3.8e-4,0.0496 -0.0359,0.11195 -0.10387,0.11195 v 0 h -0.0364 v 0 0 c -0.068,0 -0.10413,-0.0758 -0.10413,-0.13055 l -0.0282,-1.3391 c -0.36075,0.0568 -0.36062,0.30996 -0.36062,1.41886 0,0.37408 0.14863,0.69982 0.41408,0.87486 0.0363,0.024 0.0746,0.0451 0.1153,0.0632 0.0403,0.0178 0.0828,0.0322 0.12722,0.0436 l -0.12195,4.66309 c 0,0.0973 0.20724,0.17684 0.30456,0.17684 h 0.16031 c 0.0973,0 0.30456,-0.0793 0.30456,-0.17659 l -0.12234,-4.68053 c 0.0448,-0.0153 0.0867,-0.0349 0.12682,-0.0569 0.0494,-0.0271 0.095,-0.059 0.13709,-0.0953 0.21339,-0.18429 0.33164,-0.47898 0.33164,-0.81215 0,-1.15015 -0.0222,-1.37957 -0.42076,-1.42433 z"
       id="path1-1" />
    <path
       style="fill:#010002;stroke-width:0.0157765"
       d="m 129.87489,119.00196 v 0.722 c 0,0.0764 0.0219,0.14722 0.0581,0.20787 0.061,-0.0553 0.14735,-0.056 0.19031,-0.056 0.031,0 0.0649,0.002 0.10067,0.004 0.0378,0.002 0.0778,0.004 0.11965,0.004 h 0.0403 c 0.0417,0 0.0818,-0.002 0.11965,-0.004 0.0358,-0.002 0.0696,-0.004 0.10067,-0.004 0.0431,0 0.12927,7.7e-4 0.19031,0.056 0.0362,-0.0607 0.0581,-0.13132 0.0581,-0.20787 v -3.7699 c -0.83342,-0.0113 -0.9777,2.82835 -0.9777,3.0479 z"
       id="path2-0" />
    <path
       style="fill:#010002;stroke-width:0.0157765"
       d="m 130.60419,120.00404 c -0.029,0 -0.0604,0.002 -0.0936,0.004 -0.04,0.002 -0.0826,0.004 -0.12657,0.004 h -0.0404 c -0.0441,0 -0.0867,-0.002 -0.12657,-0.004 -0.0333,-0.002 -0.0648,-0.004 -0.0936,-0.004 -0.0548,0 -0.088,0.005 -0.10734,0.0254 -0.0163,0.0171 -0.0228,0.0446 -0.0228,0.0905 v 2.85297 c 0,0.20082 0.15723,0.36433 0.35035,0.36433 h 0.0403 c 0.19326,0 0.35035,-0.16339 0.35035,-0.36433 v -2.85297 c 0,-0.0459 -0.007,-0.0735 -0.0228,-0.0905 -0.0192,-0.0203 -0.0523,-0.0254 -0.10717,-0.0254 z"
       id="path3-4" />
    <circle
       cx="19.633396"
       cy="85.325172"
       r="0.54162323"
       id="circle1"
       style="stroke-width:0.0116365" />
    <path
       d="m 19.558406,89.29985 v 1.88318 c -0.0028,0.34214 -0.512127,0.34214 -0.516627,0 v -1.88318 h -0.666614 l 0.71661,-2.51646 h -0.116657 l -0.416634,1.43322 c -0.105326,0.31697 -0.533959,0.18865 -0.4333,-0.14999 l 0.46663,-1.54987 c 0.05366,-0.17799 0.277979,-0.49228 0.666616,-0.49996 h 0.349972 0.399969 c 0.377438,0.008 0.602687,0.32464 0.666615,0.49996 l 0.466631,1.54987 c 0.09466,0.33697 -0.330575,0.47529 -0.433299,0.14999 l -0.416635,-1.43322 h -0.133324 l 0.733277,2.51646 h -0.68328 v 1.88318 c 0.0053,0.34214 -0.501962,0.34047 -0.499962,0 v -1.88318 z"
       id="path1-2"
       style="stroke-width:0.0116365" />
    <circle
       cx="24.066383"
       cy="85.325172"
       r="0.54162323"
       id="circle2"
       style="stroke-width:0.0116365" />
    <path
       d="m 23.491431,86.01679 c -0.416467,0 -0.68328,0.36059 -0.68328,0.71661 v 1.66652 c -0.0038,0.32564 0.465064,0.32564 0.466631,0 v -1.5332 h 0.116657 v 4.23298 c -0.0072,0.44197 0.617285,0.4293 0.616619,0 v -2.46646 h 0.09999 v 2.46646 c 0.0082,0.4293 0.635951,0.44197 0.633285,0 v -4.23298 h 0.116657 v 1.5332 c -0.0055,0.32814 0.460965,0.32814 0.46663,0 V 86.7334 c -0.0066,-0.35602 -0.283478,-0.71023 -0.699945,-0.71661 z"
       id="path2-8"
       style="stroke-width:0.0116365" />
    <rect
       x="21.574844"
       y="84.850197"
       width="0.61669677"
       height="6.5494866"
       id="rect2"
       style="stroke-width:0.0116365" />
    <circle
       cx="133.27539"
       cy="82.691856"
       r="0.54162323"
       id="circle1-4"
       style="stroke-width:0.0116365" />
    <path
       d="m 133.20041,86.66653 v 1.88318 c -0.003,0.34214 -0.51213,0.34214 -0.51663,0 v -1.88318 h -0.66661 l 0.71661,-2.51646 h -0.11666 l -0.41663,1.43322 c -0.10533,0.31697 -0.53396,0.18865 -0.4333,-0.14999 l 0.46663,-1.54987 c 0.0537,-0.17799 0.27797,-0.49228 0.66661,-0.49996 h 0.34997 0.39997 c 0.37744,0.008 0.60269,0.32464 0.66662,0.49996 l 0.46663,1.54987 c 0.0947,0.33697 -0.33058,0.47529 -0.4333,0.14999 l -0.41664,-1.43322 h -0.13332 l 0.73328,2.51646 h -0.68328 v 1.88318 c 0.005,0.34214 -0.50196,0.34047 -0.49996,0 v -1.88318 z"
       id="path1-2-7"
       style="stroke-width:0.0116365" />
    <circle
       cx="137.70837"
       cy="82.691856"
       r="0.54162323"
       id="circle2-3"
       style="stroke-width:0.0116365" />
    <path
       d="m 137.13343,83.38347 c -0.41646,0 -0.68328,0.36059 -0.68328,0.71661 v 1.66652 c -0.004,0.32564 0.46507,0.32564 0.46663,0 v -1.5332 h 0.11666 v 4.23298 c -0.007,0.44197 0.61729,0.4293 0.61662,0 v -2.46646 h 0.1 v 2.46646 c 0.008,0.4293 0.63595,0.44197 0.63328,0 V 84.2334 H 138.5 v 1.5332 c -0.006,0.32814 0.46097,0.32814 0.46663,0 v -1.66652 c -0.007,-0.35602 -0.28348,-0.71023 -0.69994,-0.71661 z"
       id="path2-8-4"
       style="stroke-width:0.0116365" />
    <rect
       x="135.21684"
       y="82.216881"
       width="0.61669677"
       height="6.5494866"
       id="rect2-0"
       style="stroke-width:0.0116365" />
    <path
       style="fill:#f6df5c;stroke-width:0.1;paint-order:stroke markers fill"
       d="M 0,20.205575 H 158.75"
       id="path10" />
  </g>
</svg>
