<?xml version="1.0" encoding="UTF-8" standalone="no"?>
<svg
   style="cursor:pointer"
   width="158.75mm"
   height="158.75mm"
   viewBox="0 0 158.75 158.75"
   version="1.1"
   id="svg1"
   inkscape:version="1.3 (0e150ed6c4, 2023-07-21)"
   sodipodi:docname="location01.svg"
   inkscape:export-filename="location01ready.svg"
   inkscape:export-xdpi="96"
   inkscape:export-ydpi="96"
   xmlns:inkscape="http://www.inkscape.org/namespaces/inkscape"
   xmlns:sodipodi="http://sodipodi.sourceforge.net/DTD/sodipodi-0.dtd"
   xmlns:xlink="http://www.w3.org/1999/xlink"
   xmlns="http://www.w3.org/2000/svg"
   xmlns:svg="http://www.w3.org/2000/svg">
  <sodipodi:namedview
     id="namedview1"
     pagecolor="#505050"
     bordercolor="#eeeeee"
     borderopacity="1"
     inkscape:showpageshadow="0"
     inkscape:pageopacity="0"
     inkscape:pagecheckerboard="0"
     inkscape:deskcolor="#505050"
     inkscape:document-units="mm"
     inkscape:zoom="1.0000001"
     inkscape:cx="273.99999"
     inkscape:cy="331.49998"
     inkscape:window-width="1920"
     inkscape:window-height="1017"
     inkscape:window-x="1912"
     inkscape:window-y="-8"
     inkscape:window-maximized="1"
     inkscape:current-layer="layer1"
     showgrid="true">
    <inkscape:grid
       id="grid1"
       units="mm"
       originx="0"
       originy="0"
       spacingx="0.5"
       spacingy="0.5"
       empcolor="#0099e5"
       empopacity="0.30196078"
       color="#0099e5"
       opacity="0.14901961"
       empspacing="5"
       dotted="false"
       gridanglex="30"
       gridanglez="30"
       visible="true" />
  </sodipodi:namedview>
  <defs
     id="defs1">
    <rect
       x="446.18355"
       y="114.8945"
       width="11.537879"
       height="36.286604"
       id="rect1" />
    <rect
       x="198.4252"
       y="113.38582"
       width="60.074799"
       height="15.114176"
       id="rect12" />
    <rect
       x="198.4252"
       y="113.38582"
       width="60.074799"
       height="15.114176"
       id="rect12-6" />
    <rect
       x="198.4252"
       y="113.38582"
       width="134.2228"
       height="14.410514"
       id="rect12-6-3" />
    <rect
       x="198.4252"
       y="113.38582"
       width="60.074799"
       height="15.114176"
       id="rect12-6-3-6" />
    <rect
       x="198.4252"
       y="113.38582"
       width="84.678785"
       height="19.323701"
       id="rect12-6-3-6-5" />
    <rect
       x="198.4252"
       y="113.38582"
       width="60.074799"
       height="15.114176"
       id="rect12-6-3-6-7" />
    <rect
       x="198.4252"
       y="113.38582"
       width="76.709038"
       height="13.718754"
       id="rect12-6-3-6-5-5" />
    <rect
       x="198.4252"
       y="113.38582"
       width="60.074799"
       height="15.114176"
       id="rect12-6-3-8" />
    <rect
       x="198.4252"
       y="113.38582"
       width="60.074799"
       height="15.114176"
       id="rect12-6-6" />
    <rect
       x="198.4252"
       y="113.38582"
       width="60.074799"
       height="15.114176"
       id="rect12-6-6-5" />
    <rect
       x="198.4252"
       y="113.38582"
       width="60.074799"
       height="15.114176"
       id="rect12-6-6-9" />
    <rect
       x="198.4252"
       y="113.38582"
       width="60.074799"
       height="15.114176"
       id="rect12-6-3-6-6" />
    <rect
       x="198.4252"
       y="113.38582"
       width="60.074799"
       height="15.114176"
       id="rect12-6-3-6-6-1" />
    <rect
       x="198.4252"
       y="113.38582"
       width="60.074799"
       height="15.114176"
       id="rect12-6-6-4" />
    <rect
       x="198.4252"
       y="113.38582"
       width="60.074799"
       height="15.114176"
       id="rect12-6-6-4-9" />
    <rect
       x="198.4252"
       y="113.38582"
       width="60.074799"
       height="15.114176"
       id="rect12-6-3-6-6-9" />
    <rect
       x="198.4252"
       y="113.38582"
       width="134.22279"
       height="14.410514"
       id="rect12-6-3-2" />
    <rect
       x="198.4252"
       y="113.38582"
       width="60.074799"
       height="15.114176"
       id="rect12-6-3-6-6-1-2-9-6" />
    <linearGradient
       id="linearGradient165"
       inkscape:collect="always">
      <stop
         style="stop-color:#2e2f70;stop-opacity:1;"
         offset="0.6021021"
         id="stop164" />
      <stop
         style="stop-color:#000000;stop-opacity:0;"
         offset="1"
         id="stop165" />
    </linearGradient>
    <linearGradient
       inkscape:collect="always"
       xlink:href="#linearGradient146"
       id="linearGradient161"
       gradientUnits="userSpaceOnUse"
       gradientTransform="matrix(1.029932,0,0,1.1255088,-36.399082,12.554811)"
       x1="101.15678"
       y1="74.910927"
       x2="122.95812"
       y2="74.910927" />
    <linearGradient
       id="linearGradient146"
       inkscape:collect="always">
      <stop
         style="stop-color:#000000;stop-opacity:1;"
         offset="0"
         id="stop146" />
      <stop
         style="stop-color:#000000;stop-opacity:0;"
         offset="1"
         id="stop147" />
    </linearGradient>
    <rect
       x="198.4252"
       y="113.38582"
       width="60.074799"
       height="15.114176"
       id="rect12-6-3-6-6-1-2-9-6-0" />
    <rect
       x="198.4252"
       y="113.38582"
       width="60.074799"
       height="15.114176"
       id="rect12-6-3-6-6-1-2-9-6-4" />
    <rect
       x="198.4252"
       y="113.38582"
       width="79.26054"
       height="14.64005"
       id="rect12-6-3-6-6-1-2-9-6-40" />
    <rect
       x="198.4252"
       y="113.38582"
       width="77.476759"
       height="17.095377"
       id="rect12-6-3-6-6-1-2-9-6-8" />
    <linearGradient
       inkscape:collect="always"
       xlink:href="#linearGradient165"
       id="linearGradient163-4"
       gradientUnits="userSpaceOnUse"
       gradientTransform="matrix(1.4397527,0,0,1.124577,-123.87575,32.971194)"
       x1="101.15678"
       y1="74.910927"
       x2="122.95812"
       y2="74.910927" />
    <rect
       x="198.4252"
       y="113.38582"
       width="60.074799"
       height="15.114176"
       id="rect12-6-3-6-6-1-2-9-6-7" />
    <rect
       x="198.4252"
       y="113.38582"
       width="60.074799"
       height="15.114176"
       id="rect12-6-3-6-6-1-2-9-6-74" />
    <linearGradient
       inkscape:collect="always"
       xlink:href="#linearGradient146"
       id="linearGradient7"
       gradientUnits="userSpaceOnUse"
       gradientTransform="matrix(1.029932,0,0,1.1255088,-36.257188,-28.002324)"
       x1="101.15678"
       y1="74.910927"
       x2="122.95812"
       y2="74.910927" />
    <rect
       x="198.4252"
       y="113.38582"
       width="77.476761"
       height="17.095377"
       id="rect12-6-3-6-6-1-2-9-6-8-3" />
    <linearGradient
       inkscape:collect="always"
       xlink:href="#linearGradient165"
       id="linearGradient8"
       gradientUnits="userSpaceOnUse"
       gradientTransform="matrix(1.1556258,0,0,1.1251806,-192.72649,71.007726)"
       x1="101.15678"
       y1="74.910927"
       x2="122.95812"
       y2="74.910927" />
    <rect
       x="198.4252"
       y="113.38582"
       width="77.476761"
       height="17.095377"
       id="rect12-6-3-6-6-1-2-9-6-8-3-8" />
    <linearGradient
       inkscape:collect="always"
       xlink:href="#linearGradient165"
       id="linearGradient9"
       gradientUnits="userSpaceOnUse"
       gradientTransform="matrix(1.1556258,0,0,1.1251806,-119.56568,-87.4132)"
       x1="101.15678"
       y1="74.910927"
       x2="122.95812"
       y2="74.910927" />
    <rect
       x="198.4252"
       y="113.38582"
       width="77.476761"
       height="17.095377"
       id="rect12-6-3-6-6-1-2-9-6-8-9" />
    <linearGradient
       inkscape:collect="always"
       xlink:href="#linearGradient165"
       id="linearGradient10"
       gradientUnits="userSpaceOnUse"
       gradientTransform="matrix(1.4397527,0,0,1.124577,-143.7767,-70.391778)"
       x1="101.15678"
       y1="74.910927"
       x2="122.95812"
       y2="74.910927" />
  </defs>
  <g
     inkscape:label="location_1"
     inkscape:groupmode="layer"
     id="layer1">
    <rect
       style="fill:#786a60;fill-opacity:0.253041;fill-rule:evenodd;stroke:none;stroke-width:0.15525;stroke-dasharray:none;stroke-opacity:1;paint-order:stroke markers fill"
       id="rect13"
       width="73.125"
       height="27.000006"
       x="37.18055"
       y="116.12498"
       inkscape:label="eloter" />
    <path
       style="fill:#786a60;fill-opacity:0.253041;fill-rule:evenodd;stroke:none;stroke-width:0.15525;stroke-dasharray:none;stroke-opacity:1;paint-order:stroke markers fill"
       d="m 111.43054,116.12499 h 11.25 l 4.57557,-31.503127 1.04943,-1.121859 h 10.125 v 42.749986 l -26.79111,16.95265 z"
       id="path13"
       sodipodi:nodetypes="cccccccc"
       inkscape:label="bufe" />
    <path
       style="fill:#000000;fill-opacity:1;fill-rule:evenodd;stroke:#000000;stroke-width:0.15525;stroke-dasharray:none;stroke-opacity:1;paint-order:stroke markers fill"
       d="m 96.243045,151.00855 2.250004,-0.009 v -5.625 h 2.250001 l -3.375001,-4.50001 -3.375004,4.50001 2.25,-0.0229 z"
       id="path15"
       inkscape:label="bejarat_nyil" />
    <text
       xml:space="preserve"
       transform="matrix(0.381,0,0,0.381,13.292965,108.45768)"
       id="text12-6-6-8-98-9"
       style="white-space:pre;shape-inside:url(#rect12-6-3-6-6-1);display:inline;fill:#000000;fill-opacity:1;fill-rule:evenodd;stroke:#000000;stroke-width:0.0755906;stroke-dasharray:none;stroke-opacity:1;paint-order:stroke markers fill"
       inkscape:label="bejarat_felirat"><tspan
         x="198.42578"
         y="124.33468"
         id="tspan1">Bejárat</tspan></text>
    <path
       style="fill:#786a60;fill-opacity:0.253041;fill-rule:evenodd;stroke:none;stroke-width:0.15525;stroke-dasharray:none;stroke-opacity:1;paint-order:stroke markers fill"
       d="m 9.0555527,19.375002 v 67.5 L 25.293528,114.99999 v 28.125 H 36.05555 v -28.125 L 19.180554,83.500002 V 19.391968 L 9.0555527,19.374998"
       id="path16"
       sodipodi:nodetypes="ccccccccc"
       inkscape:label="parkolok_bal" />
    <text
       xml:space="preserve"
       transform="matrix(0,-0.381,0.381,0,-31.002571,154.44075)"
       id="text12-6-7-6"
       style="white-space:pre;shape-inside:url(#rect12-6-6-4);display:inline;fill:#000000;fill-opacity:1;fill-rule:evenodd;stroke:#000000;stroke-width:0.0755906;stroke-dasharray:none;stroke-opacity:1;paint-order:stroke markers fill"
       inkscape:label="parkolok_bal_felirat"><tspan
         x="198.42578"
         y="124.33468"
         id="tspan2">Parkolók</tspan></text>
    <path
       style="fill:#786a60;fill-opacity:0.253041;fill-rule:evenodd;stroke:none;stroke-width:0.15525;stroke-dasharray:none;stroke-opacity:1;paint-order:stroke markers fill"
       d="M 139.55554,19.375005 V 126.24999 h 10.125 l -0.125,-106.874007 -10,-9.78e-4"
       id="path16-4"
       sodipodi:nodetypes="ccccc"
       inkscape:label="parkolok_jobb" />
    <text
       xml:space="preserve"
       transform="matrix(0,-0.381,0.381,0,98.608069,154.44075)"
       id="text12-6-7-6-4"
       style="white-space:pre;shape-inside:url(#rect12-6-6-4-9);display:inline;fill:#000000;fill-opacity:1;fill-rule:evenodd;stroke:#000000;stroke-width:0.0755906;stroke-dasharray:none;stroke-opacity:1;paint-order:stroke markers fill"
       inkscape:label="parkolok_jobb_felirat"><tspan
         x="198.42578"
         y="124.33468"
         id="tspan3">Parkolók</tspan></text>
    <text
       xml:space="preserve"
       transform="matrix(0.381,0,0,0.381,16.219668,84.089661)"
       id="text12-6-6-8-98"
       style="white-space:pre;shape-inside:url(#rect12-6-3-6-6);display:inline;fill:#000000;fill-opacity:1;fill-rule:evenodd;stroke:#000000;stroke-width:0.0755906;stroke-dasharray:none;stroke-opacity:1;paint-order:stroke markers fill"
       inkscape:label="eloter_felirat"><tspan
         x="198.42578"
         y="124.33468"
         id="tspan4">Előtér</tspan></text>
    <text
       xml:space="preserve"
       transform="matrix(0.381,0,0,0.381,50.322148,65.483557)"
       id="text12-6-7-5"
       style="white-space:pre;shape-inside:url(#rect12-6-6-9);display:inline;fill:#000000;fill-opacity:1;fill-rule:evenodd;stroke:#000000;stroke-width:0.0755906;stroke-dasharray:none;stroke-opacity:1;paint-order:stroke markers fill"
       inkscape:label="bufe_felirat"><tspan
         x="198.42578"
         y="124.33468"
         id="tspan5">Büfé</tspan></text>
    <rect
       style="fill:#37f183;fill-opacity:1;fill-rule:evenodd;stroke:none;stroke-width:0.141272;stroke-dasharray:none;stroke-opacity:1;paint-order:stroke markers fill"
       id="rect18"
       width="39.999981"
       height="20.907274"
       x="39.430569"
       y="118.8427"
       inkscape:label="park"
       ry="7.5075521"
       rx="9.7578583" />
    <path
       style="fill:#097c39;fill-opacity:1;fill-rule:evenodd;stroke:#000000;stroke-width:0.15525;stroke-dasharray:none;stroke-opacity:1;paint-order:stroke markers fill"
       d="m 54.156054,132.3406 c 0,0 1.178477,0.25884 0.651126,-0.82017 -0.527346,-1.079 -1.125,-0.52808 -1.125,-0.52808 0,0 0.290178,-1.56884 -0.863239,-0.90175 -1.153421,0.6671 -0.502295,1.125 -0.502295,1.125 0,0 -1.608403,0.0672 -1.116211,0.46508 0.492192,0.39786 0.03385,0.82574 0.03385,0.82574 0,0 -1.125,0.66974 0.197887,0.95918 1.322874,0.28945 1.124996,0.67851 1.124996,0.67851 0,0 -5e-6,1.57149 1.125,0.44649 0.942378,-1.14413 -0.31626,-1.34824 -0.31626,-1.34824 1.183639,-0.18714 1.706418,0.13159 0.790134,-0.90176 z"
       id="path18"
       sodipodi:nodetypes="cscscscscssc"
       inkscape:label="fa" />
    <path
       style="fill:#097c39;fill-opacity:1;fill-rule:evenodd;stroke:#000000;stroke-width:0.15525;stroke-dasharray:none;stroke-opacity:1;paint-order:stroke markers fill"
       d="m 51.316604,126.47204 c 0,0 -0.813404,0.89117 0.384723,0.97397 1.19812,0.0828 1.01983,-0.71024 1.01983,-0.71024 0,0 1.213572,1.03573 1.212557,-0.29671 -0.001,-1.33244 0.272794,-1.99614 0.272794,-1.99614 0,0 -0.249945,-0.42789 -0.840588,-0.20056 -0.59065,0.22732 -0.73204,-0.38355 -0.73204,-0.38355 0,0 -0.438095,-2.10431 -1.350207,-1.10338 -0.912105,1.00091 -0.729518,1.43019 -0.729518,1.43019 0,0 -1.360944,-0.78575 -0.949171,0.75103 0.51966,1.38819 1.325743,0.40024 1.325743,0.40024 -0.429757,1.11863 -0.96718,1.412 0.385877,1.13515 z"
       id="path18-1-9"
       sodipodi:nodetypes="cscscscscssc"
       inkscape:label="fa" />
    <path
       style="fill:#097c39;fill-opacity:1;fill-rule:evenodd;stroke:#000000;stroke-width:0.15525;stroke-dasharray:none;stroke-opacity:1;paint-order:stroke markers fill"
       d="m 60.187274,128.66342 c 0,0 0.650277,1.01634 1.040362,-0.11952 0.39008,-1.13587 -0.422086,-1.16891 -0.422086,-1.16891 0,0 1.314526,-0.90415 0.02723,-1.24803 -1.287297,-0.34389 -1.150673,0.44032 -1.150673,0.44032 0,0 -1.18485,-1.08978 -1.11814,-0.46042 0.06671,0.62936 -0.55994,0.60782 -0.55994,0.60782 0,0 -1.269072,-0.32191 -0.538318,0.81818 0.730743,1.14008 0.315715,1.27527 0.315715,1.27527 0,0 -1.111212,1.1112 0.479781,1.11121 1.475385,-0.14267 0.72972,-1.17698 0.72972,-1.17698 0.969282,0.70463 1.113563,1.29967 1.196349,-0.0789 z"
       id="path18-3"
       sodipodi:nodetypes="cscscscscssc"
       inkscape:label="fa" />
    <text
       xml:space="preserve"
       transform="matrix(0.381,0,0,0.381,-10.495723,82.035944)"
       id="text12-6-6-8-98-0"
       style="white-space:pre;shape-inside:url(#rect12-6-3-6-6-9);display:inline;fill:#000000;fill-opacity:1;fill-rule:evenodd;stroke:#000000;stroke-width:0.0755906;stroke-dasharray:none;stroke-opacity:1;paint-order:stroke markers fill"
       inkscape:label="park_felirat"><tspan
         x="198.42578"
         y="124.33468"
         id="tspan6">Park</tspan></text>
    <rect
       style="fill:#716b67;fill-opacity:0.328467;fill-rule:evenodd;stroke:none;stroke-width:0.225;stroke-dasharray:none;paint-order:stroke markers fill"
       id="rect11"
       width="14.459023"
       height="12.36959"
       x="72.109039"
       y="68.987495"
       inkscape:label="mix" />
    <text
       xml:space="preserve"
       transform="matrix(0.381,0,0,0.381,-0.32467966,29.473986)"
       id="text12-6-6-8-9"
       style="white-space:pre;shape-inside:url(#rect12-6-3-6-7);display:inline;fill:#000000;fill-opacity:1;fill-rule:evenodd;stroke:#000000;stroke-width:0.0755906;stroke-dasharray:none;stroke-opacity:1;paint-order:stroke markers fill"
       inkscape:label="mix_felirat"><tspan
         x="198.42578"
         y="124.33468"
         id="tspan7">Mix</tspan></text>
    <path
       style="fill:#786a60;fill-opacity:0.253041;fill-rule:evenodd;stroke:none;stroke-width:0.15525;stroke-dasharray:none;stroke-opacity:1;paint-order:stroke markers fill"
       d="M 20.328053,59.956233 30.45305,76.831232 v 5.625 H 20.328053 Z"
       id="path12-1"
       inkscape:label="wc_bal" />
    <path
       style="fill:#786a60;fill-opacity:0.253041;fill-rule:evenodd;stroke:none;stroke-width:0.15525;stroke-dasharray:none;stroke-opacity:1;paint-order:stroke markers fill"
       d="m 138.43054,59.875002 -10.125,16.874997 v 5.625 h 10.125 z"
       id="path12"
       inkscape:label="wc_jobb" />
    <g
       id="l01_vip_bal"
       style="fill:#b84a00;fill-opacity:1;stroke:none;"
       transform="translate(0.05554862,2.500003)">
      <path
         style="fill:#b84a00;fill-opacity:1;fill-rule:evenodd;stroke:none;stroke-width:0.1305;paint-order:stroke markers fill;"
         d="m 30.374999,11.249999 -10.125,5.624997 v 39.374997 l 11.249997,16.875003 h 10.125005 l -11.250002,-23.625 z"
         class="l01_vip_bal"
         inkscape:label="l01_vip_bal"
         id="path1" />
    </g>
    <g
       id="l01_bal_szarny"
       style="fill:#e0b200;fill-opacity:1;stroke:none;"
       transform="matrix(0.99,0,0,0.99,0.50554862,2.8032015)">
      <path
         style="fill:#e0b200;fill-opacity:1;fill-rule:evenodd;stroke:none;stroke-width:0.1305;paint-order:stroke markers fill;"
         d="m 31.499996,11.249999 17.91633,-0.110893 9.08367,22.61089 -26.999995,15.75 -5e-6,-38.249997"
         class="l01_bal_szarny"
         sodipodi:nodetypes="ccccc"
         inkscape:label="l01_bal_szarny"
         id="path2" />
    </g>
    <g
       id="l01_jobb_szarny"
       style="fill:#e0b200;fill-opacity:1;stroke:none;"
       transform="translate(0.05554862,2.500003)">
      <path
         style="fill:#e0b200;fill-opacity:1;fill-rule:evenodd;stroke:none;stroke-width:0.1305;paint-order:stroke markers fill;"
         d="m 109.13778,11.249998 -9,22.499998 26.98722,15.75 0.007,-38.246421 -17.99422,-0.0036"
         class="l01_jobb_szarny"
         sodipodi:nodetypes="ccccc"
         inkscape:label="l01_jobb_szarny"
         id="path3" />
    </g>
    <g
       id="l01_vip_jobb"
       style="fill:#b84a00;fill-opacity:1;stroke:none;"
       transform="translate(0.05554862,2.500003)">
      <path
         style="fill:#b84a00;fill-opacity:1;fill-rule:evenodd;stroke:none;stroke-width:0.1305;paint-order:stroke markers fill;"
         d="m 128.25,11.249999 10.125,5.624997 v 39.374997 l -11.25,16.875003 H 117 l 11.25,-23.625 z"
         class="l01_vip_jobb"
         inkscape:label="l01_vip_jobb"
         id="path4" />
    </g>
    <g
       id="l01_center_1"
       style="fill:#44aa00;fill-opacity:1;stroke:none;"
       transform="matrix(0.96059601,0,0,0.96059601,2.2428116,4.6904633)">
      <path
         d="m 59.625425,34.875091 -27.000676,16.87455 10.124964,21.375441 h 28.68414 l -0.03652,-7.621631 h 17.414961 v 7.621545 l 27.063196,8.6e-5 10.12496,-21.375441 -27.000681,-16.87455 z"
         style="fill:#44aa00;fill-opacity:1;fill-rule:evenodd;stroke:none;stroke-width:0.1305;paint-order:stroke markers fill;"
         class="l01_center_1"
         sodipodi:nodetypes="ccccccccccc"
         inkscape:label="l01_center_1"
         id="path5" />
    </g>
    <g
       id="l01_center_2"
       style="fill:#0868ff;fill-opacity:1;stroke:none;"
       transform="matrix(0.99,0,0,0.99,0.79235122,3.4333752)">
      <path
         d="m 87.749996,74.249996 v 5.45724 H 70.7887 V 74.261057 H 31.513189 l -0.01335,6.738939 H 20.249842 c 6.154788,10.202981 11.567869,20.775854 16.887259,31.423844 h 84.350669 l 5.62291,-38.162783 z"
         style="fill:#0868ff;fill-opacity:1;fill-rule:evenodd;stroke:none;stroke-width:0.155128;paint-order:stroke markers fill"
         class="l01_center_2"
         sodipodi:nodetypes="ccccccccccc"
         inkscape:label="l01_center_2"
         id="path6" />
    </g>
    <path
       style="fill:#9a5b2e;fill-opacity:1;fill-rule:evenodd;stroke:none;stroke-width:0.1305;paint-order:stroke markers fill;"
       d="m 48.430547,8.1250037 c 0,0 61.874993,0 61.874993,0 L 99.055549,36.250002 H 59.680547 Z"
       id="szinpad"
       inkscape:label="szinpad" />
    <text
       xml:space="preserve"
       transform="matrix(0.381,0,0,0.381,-6.3368357,-24.793363)"
       id="text12-6-6-7"
       style="white-space:pre;shape-inside:url(#rect12-6-3-8);display:inline;fill:#000000;fill-opacity:1;fill-rule:evenodd;stroke:#000000;stroke-width:0.0755906;stroke-dasharray:none;stroke-opacity:1;paint-order:stroke markers fill"
       inkscape:label="szinpad_felirat"><tspan
         x="198.42578"
         y="124.33468"
         id="tspan8">Színpad</tspan></text>
    <rect
       style="fill:#2e2f70;fill-opacity:1;fill-rule:nonzero;stroke:url(#linearGradient161);stroke-width:0.0286385;paint-order:stroke markers fill"
       id="rect12-2"
       width="22.453897"
       height="6.0268998"
       x="67.7855"
       y="93.854263"
       ry="3.0134499" />
    <text
       xml:space="preserve"
       transform="matrix(0.2849018,0,0,0.27902209,14.20063,63.488348)"
       id="text12-6-6-8-98-9-3-0-6"
       style="white-space:pre;shape-inside:url(#rect12-6-3-6-6-1-2-9-6);display:inline;fill:#f6df5c;fill-opacity:1;fill-rule:evenodd;stroke:#f6df5c;stroke-width:0.709354;stroke-dasharray:none;stroke-opacity:1;paint-order:stroke markers fill"><tspan
         x="198.42578"
         y="124.33468"
         id="tspan9">Center-2</tspan></text>
    <rect
       style="fill:#2e2f70;fill-opacity:1;fill-rule:nonzero;stroke:url(#linearGradient7);stroke-width:0.0286385;paint-order:stroke markers fill"
       id="rect12-2-2"
       width="22.453897"
       height="6.0268998"
       x="67.927391"
       y="53.297134"
       ry="3.0134499" />
    <text
       xml:space="preserve"
       transform="matrix(0.2849018,0,0,0.27902209,15.147143,22.835639)"
       id="text12-6-6-8-98-9-3-0-6-9"
       style="white-space:pre;shape-inside:url(#rect12-6-3-6-6-1-2-9-6-74);display:inline;fill:#f6df5c;fill-opacity:1;fill-rule:evenodd;stroke:#f6df5c;stroke-width:0.709354;stroke-dasharray:none;stroke-opacity:1;paint-order:stroke markers fill"><tspan
         x="198.42578"
         y="124.33468"
         id="tspan10">Center-1</tspan></text>
    <rect
       style="fill:#2e2f70;fill-opacity:1;fill-rule:nonzero;stroke:url(#linearGradient163-4);stroke-width:0.0311337;paint-order:stroke markers fill"
       id="rect12-2-5"
       width="26.547974"
       height="6.0244045"
       x="57.717396"
       y="92.283195"
       ry="3.0122023"
       transform="rotate(-40)" />
    <text
       xml:space="preserve"
       transform="matrix(0.21824744,-0.18313136,0.17935195,0.21374332,43.149471,44.49174)"
       id="text12-6-6-8-98-9-3-0-6-4"
       style="white-space:pre;shape-inside:url(#rect12-6-3-6-6-1-2-9-6-8);display:inline;fill:#f6df5c;fill-opacity:1;fill-rule:evenodd;stroke:#f6df5c;stroke-width:0.709354;stroke-dasharray:none;stroke-opacity:1;paint-order:stroke markers fill"><tspan
         x="198.42578"
         y="124.33468"
         id="tspan11">Jobb-szárny</tspan></text>
    <rect
       style="fill:#2e2f70;fill-opacity:1;fill-rule:nonzero;stroke:url(#linearGradient10);stroke-width:0.0311337;paint-order:stroke markers fill"
       id="rect12-2-5-1"
       width="26.547974"
       height="6.0244045"
       x="37.816452"
       y="-11.079788"
       ry="3.0122023"
       transform="rotate(40)" />
    <text
       xml:space="preserve"
       transform="matrix(0.21824744,0.18313136,-0.17935195,0.21374332,14.872449,-41.752873)"
       id="text12-6-6-8-98-9-3-0-6-4-1"
       style="white-space:pre;shape-inside:url(#rect12-6-3-6-6-1-2-9-6-8-9);display:inline;fill:#f6df5c;fill-opacity:1;fill-rule:evenodd;stroke:#f6df5c;stroke-width:0.709354;stroke-dasharray:none;stroke-opacity:1;paint-order:stroke markers fill"><tspan
         x="198.42578"
         y="124.33468"
         id="tspan12">Bal-szárny</tspan></text>
    <rect
       style="fill:#2e2f70;fill-opacity:1;fill-rule:nonzero;stroke:url(#linearGradient8);stroke-width:0.0279005;paint-order:stroke markers fill"
       id="rect12-2-5-2"
       width="21.308884"
       height="6.027638"
       x="-46.969696"
       y="130.35155"
       ry="3.013819"
       transform="rotate(-90)" />
    <text
       xml:space="preserve"
       transform="matrix(-1.7846496e-8,-0.2849018,0.2790221,0,99.888579,100.2298)"
       id="text12-6-6-8-98-9-3-0-6-4-7"
       style="white-space:pre;shape-inside:url(#rect12-6-3-6-6-1-2-9-6-8-3);display:inline;fill:#f6df5c;fill-opacity:1;fill-rule:evenodd;stroke:#f6df5c;stroke-width:0.709354;stroke-dasharray:none;stroke-opacity:1;paint-order:stroke markers fill"><tspan
         x="198.42578"
         y="124.33468"
         id="tspan13">VIP-jobb</tspan></text>
    <rect
       style="fill:#2e2f70;fill-opacity:1;fill-rule:nonzero;stroke:url(#linearGradient9);stroke-width:0.0279005;paint-order:stroke markers fill"
       id="rect12-2-5-2-0"
       width="21.308884"
       height="6.027638"
       x="26.191124"
       y="-28.069368"
       ry="3.013819"
       transform="rotate(90)" />
    <text
       xml:space="preserve"
       transform="matrix(-1.7846496e-8,0.2849018,-0.2790221,0,58.532348,-27.06898)"
       id="text12-6-6-8-98-9-3-0-6-4-7-1"
       style="white-space:pre;shape-inside:url(#rect12-6-3-6-6-1-2-9-6-8-3-8);display:inline;fill:#f6df5c;fill-opacity:1;fill-rule:evenodd;stroke:#f6df5c;stroke-width:0.709354;stroke-dasharray:none;stroke-opacity:1;paint-order:stroke markers fill"><tspan
         x="198.42578"
         y="124.33468"
         id="tspan14">VIP-bal</tspan></text>
    <path
       style="fill:#010002;stroke-width:0.0157765"
       d="m 129.94483,116.27166 -0.0285,1.35268 c 0,0.0533 -0.0362,0.12234 -0.10413,0.12234 v 0 h -0.0364 v 0 0 c -0.068,0 -0.10413,-0.0758 -0.10413,-0.13055 l -0.10875,-1.35512 c -0.0278,1.2e-4 -0.0563,1.2e-4 -0.086,1.2e-4 -0.0519,0 -0.10055,-2.5e-4 -0.14658,-2.5e-4 l -0.10875,1.37384 c 3.8e-4,0.0496 -0.0359,0.11195 -0.10387,0.11195 v 0 h -0.0364 v 0 0 c -0.068,0 -0.10413,-0.0758 -0.10413,-0.13055 l -0.0282,-1.3391 c -0.36075,0.0568 -0.36062,0.30996 -0.36062,1.41886 0,0.37408 0.14863,0.69982 0.41408,0.87486 0.0363,0.024 0.0746,0.0451 0.1153,0.0632 0.0403,0.0178 0.0828,0.0322 0.12722,0.0436 l -0.12195,4.66309 c 0,0.0973 0.20724,0.17684 0.30456,0.17684 h 0.16031 c 0.0973,0 0.30456,-0.0793 0.30456,-0.17659 l -0.12234,-4.68053 c 0.0448,-0.0153 0.0867,-0.0349 0.12682,-0.0569 0.0494,-0.0271 0.095,-0.059 0.13709,-0.0953 0.21339,-0.18429 0.33164,-0.47898 0.33164,-0.81215 0,-1.15015 -0.0222,-1.37957 -0.42076,-1.42433 z"
       id="path1-1" />
    <path
       style="fill:#010002;stroke-width:0.0157765"
       d="m 132.04656,119.11809 v 0.722 c 0,0.0764 0.0219,0.14722 0.0581,0.20787 0.061,-0.0553 0.14735,-0.056 0.19031,-0.056 0.031,0 0.0649,0.002 0.10067,0.004 0.0378,0.002 0.0778,0.004 0.11965,0.004 h 0.0403 c 0.0417,0 0.0818,-0.002 0.11965,-0.004 0.0358,-0.002 0.0696,-0.004 0.10067,-0.004 0.0431,0 0.12927,7.7e-4 0.19031,0.056 0.0362,-0.0607 0.0581,-0.13132 0.0581,-0.20787 v -3.7699 c -0.83342,-0.0113 -0.9777,2.82835 -0.9777,3.0479 z"
       id="path2-0" />
    <path
       style="fill:#010002;stroke-width:0.0157765"
       d="m 132.77586,120.12017 c -0.029,0 -0.0604,0.002 -0.0936,0.004 -0.04,0.002 -0.0826,0.004 -0.12657,0.004 h -0.0404 c -0.0441,0 -0.0867,-0.002 -0.12657,-0.004 -0.0333,-0.002 -0.0648,-0.004 -0.0936,-0.004 -0.0548,0 -0.088,0.005 -0.10734,0.0254 -0.0163,0.0171 -0.0228,0.0446 -0.0228,0.0905 v 2.85297 c 0,0.20082 0.15723,0.36433 0.35035,0.36433 h 0.0403 c 0.19326,0 0.35035,-0.16339 0.35035,-0.36433 v -2.85297 c 0,-0.0459 -0.007,-0.0735 -0.0228,-0.0905 -0.0192,-0.0203 -0.0523,-0.0254 -0.10717,-0.0254 z"
       id="path3-4" />
    <circle
       cx="22.955479"
       cy="75.283554"
       r="0.54162323"
       id="circle1"
       style="stroke-width:0.0116365" />
    <path
       d="m 22.880485,79.258235 v 1.88318 c -0.0028,0.34214 -0.512127,0.34214 -0.516627,0 v -1.88318 h -0.666614 l 0.71661,-2.516459 h -0.116657 l -0.416634,1.433215 c -0.105326,0.316974 -0.533959,0.188652 -0.4333,-0.149988 l 0.46663,-1.549871 c 0.05366,-0.177986 0.277979,-0.492277 0.666616,-0.49996 h 0.349972 0.399969 c 0.377438,0.0077 0.602687,0.324641 0.666615,0.49996 l 0.466631,1.549871 c 0.09466,0.336972 -0.330575,0.475295 -0.433299,0.149988 l -0.416635,-1.433215 h -0.133324 l 0.733277,2.516459 h -0.68328 v 1.88318 c 0.0053,0.34214 -0.501962,0.340474 -0.499962,0 v -1.88318 z"
       id="path1-2"
       style="stroke-width:0.0116365" />
    <circle
       cx="27.388466"
       cy="75.283554"
       r="0.54162323"
       id="circle2"
       style="stroke-width:0.0116365" />
    <path
       d="m 26.81351,75.975172 c -0.416467,0 -0.68328,0.360587 -0.68328,0.716608 v 1.666529 c -0.0038,0.32564 0.465064,0.32564 0.466631,0 v -1.533207 h 0.116657 v 4.232987 c -0.0072,0.441965 0.617285,0.429299 0.616619,0 v -2.466466 h 0.09999 v 2.466466 c 0.0082,0.429299 0.635951,0.441965 0.633285,0 v -4.232987 h 0.116657 v 1.533207 c -0.0055,0.32814 0.460965,0.32814 0.46663,0 V 76.69178 c -0.0066,-0.356021 -0.283478,-0.710225 -0.699945,-0.716608 z"
       id="path2-8"
       style="stroke-width:0.0116365" />
    <rect
       x="24.896927"
       y="74.808578"
       width="0.61669677"
       height="6.5494866"
       id="rect2"
       style="stroke-width:0.0116365" />
    <circle
       cx="131.41415"
       cy="75.191856"
       r="0.54162323"
       id="circle1-4"
       style="stroke-width:0.0116365" />
    <path
       d="m 131.33917,79.166535 v 1.88318 c -0.003,0.34214 -0.51213,0.34214 -0.51663,0 v -1.88318 h -0.66661 l 0.7166,-2.516459 h -0.11665 l -0.41664,1.433215 c -0.10532,0.316974 -0.53395,0.188652 -0.4333,-0.149988 l 0.46663,-1.549871 c 0.0537,-0.177986 0.27798,-0.492277 0.66662,-0.49996 h 0.34997 0.39997 c 0.37744,0.0077 0.60269,0.324641 0.66662,0.49996 l 0.46663,1.549871 c 0.0947,0.336972 -0.33058,0.475295 -0.4333,0.149988 l -0.41664,-1.433215 h -0.13332 l 0.73328,2.516459 h -0.68328 v 1.88318 c 0.005,0.34214 -0.50197,0.340474 -0.49997,0 v -1.88318 z"
       id="path1-2-2"
       style="stroke-width:0.0116365" />
    <circle
       cx="135.84714"
       cy="75.191856"
       r="0.54162323"
       id="circle2-2"
       style="stroke-width:0.0116365" />
    <path
       d="m 135.27219,75.883472 c -0.41647,0 -0.68328,0.360587 -0.68328,0.716608 v 1.666529 c -0.004,0.32564 0.46506,0.32564 0.46663,0 v -1.533207 h 0.11666 v 4.232987 c -0.007,0.441965 0.61728,0.429299 0.61662,0 v -2.466466 h 0.1 v 2.466466 c 0.008,0.429299 0.63595,0.441965 0.63328,0 v -4.232987 h 0.11666 v 1.533207 c -0.006,0.32814 0.46096,0.32814 0.46663,0 V 76.60008 c -0.007,-0.356021 -0.28348,-0.710225 -0.69995,-0.716608 z"
       id="path2-8-9"
       style="stroke-width:0.0116365" />
    <rect
       x="133.35561"
       y="74.716881"
       width="0.61669677"
       height="6.5494866"
       id="rect2-0"
       style="stroke-width:0.0116365" />
  </g>
</svg>
