<?xml version="1.0" encoding="UTF-8" standalone="no"?>
<!-- Created with Inkscape (http://www.inkscape.org/) -->

<svg
   width="158.75mm"
   height="158.75mm"
   viewBox="0 0 158.75 158.75"
   version="1.1"
   id="svg1"
   inkscape:version="1.3 (0e150ed6c4, 2023-07-21)"
   sodipodi:docname="location10.svg"
   inkscape:export-filename="location02mod.svg"
   inkscape:export-xdpi="96"
   inkscape:export-ydpi="96"
   xmlns:inkscape="http://www.inkscape.org/namespaces/inkscape"
   xmlns:sodipodi="http://sodipodi.sourceforge.net/DTD/sodipodi-0.dtd"
   xmlns="http://www.w3.org/2000/svg"
   xmlns:svg="http://www.w3.org/2000/svg">
  <sodipodi:namedview
     id="namedview1"
     pagecolor="#505050"
     bordercolor="#eeeeee"
     borderopacity="1"
     inkscape:showpageshadow="0"
     inkscape:pageopacity="0"
     inkscape:pagecheckerboard="0"
     inkscape:deskcolor="#505050"
     inkscape:document-units="mm"
     inkscape:zoom="2"
     inkscape:cx="388"
     inkscape:cy="477.75"
     inkscape:window-width="1920"
     inkscape:window-height="1017"
     inkscape:window-x="1912"
     inkscape:window-y="-8"
     inkscape:window-maximized="1"
     inkscape:current-layer="layer1"
     showgrid="true">
    <inkscape:grid
       id="grid1"
       units="mm"
       originx="0"
       originy="0"
       spacingx="0.5"
       spacingy="0.5"
       empcolor="#0099e5"
       empopacity="0.30196078"
       color="#0099e5"
       opacity="0.14901961"
       empspacing="5"
       dotted="false"
       gridanglex="30"
       gridanglez="30"
       visible="true" />
  </sodipodi:namedview>
  <defs
     id="defs1">
    <rect
       x="198.4252"
       y="113.38582"
       width="60.074799"
       height="15.114176"
       id="rect12-6-3-8" />
    <rect
       x="198.4252"
       y="113.38582"
       width="60.074799"
       height="15.114176"
       id="rect12-6-3-6-6-1-4-2-7" />
    <rect
       x="198.4252"
       y="113.38582"
       width="60.074799"
       height="15.114176"
       id="rect12-6-3-6-6-1-4-2-7-3" />
    <rect
       x="198.4252"
       y="113.38582"
       width="60.074799"
       height="15.114176"
       id="rect12-6-3-6-6-1-4-2-7-3-3" />
    <rect
       x="198.4252"
       y="113.38582"
       width="60.074799"
       height="15.114176"
       id="rect12-6-3-6-6-1-4-2-7-7" />
    <rect
       x="198.4252"
       y="113.38582"
       width="60.074799"
       height="15.114176"
       id="rect12-6-3-6-6-1-4-2-7-3-3-1" />
    <rect
       x="198.4252"
       y="113.38582"
       width="60.074799"
       height="15.114176"
       id="rect12-6-3-6-6-1-4-2-7-3-3-1-2" />
    <rect
       x="198.4252"
       y="113.38582"
       width="60.074799"
       height="15.114176"
       id="rect12-6-3-6-6-1-4-2-7-3-3-1-2-9" />
    <rect
       x="198.4252"
       y="113.38582"
       width="60.074799"
       height="15.114176"
       id="rect12-6-3-6-6-1-4-2-7-3-3-1-2-9-2" />
    <rect
       x="198.4252"
       y="113.38582"
       width="60.074799"
       height="15.114176"
       id="rect12-6-3-6-6-1-4-2-7-3-3-1-2-8" />
    <rect
       x="198.4252"
       y="113.38582"
       width="60.074799"
       height="15.114176"
       id="rect12-6-3-6-6-1-4-2-7-3-3-1-2-3" />
    <rect
       x="198.4252"
       y="113.38582"
       width="60.074799"
       height="15.114176"
       id="rect12-6-3-6-6-1-4-2-7-3-3-1-2-4" />
    <rect
       x="198.4252"
       y="113.38582"
       width="60.074799"
       height="15.114176"
       id="rect12-6-3-6-6-1-4-2-7-3-3-1-2-88" />
    <rect
       x="198.4252"
       y="113.38582"
       width="60.074799"
       height="15.114176"
       id="rect12-6-3-6-6-1-4-2-7-3-3-1-2-88-5" />
    <rect
       x="198.4252"
       y="113.38582"
       width="60.074799"
       height="15.114176"
       id="rect12-6-3-6-6-1-4-2-7-3-3-1-2-88-0" />
    <rect
       x="198.4252"
       y="113.38582"
       width="60.074799"
       height="15.114176"
       id="rect12-6-3-6-6-1-4-2-7-3-3-1-2-88-6" />
    <rect
       x="198.4252"
       y="113.38582"
       width="60.074799"
       height="15.114176"
       id="rect12-6-3-6-6-1-4-2-7-3-3-1-2-88-2" />
    <rect
       x="198.4252"
       y="113.38582"
       width="60.074799"
       height="15.114176"
       id="rect12-6-3-6-6-1-4-2-7-3-3-1-2-88-5-1" />
    <rect
       x="198.4252"
       y="113.38582"
       width="60.074799"
       height="15.114176"
       id="rect12-6-3-6-6-1-4-2-7-3-3-1-2-88-5-6" />
    <rect
       x="198.4252"
       y="113.38582"
       width="60.074799"
       height="15.114176"
       id="rect12-6-3-6-6-1-4-2-7-3-3-1-2-88-5-3" />
    <rect
       x="198.4252"
       y="113.38582"
       width="60.074799"
       height="15.114176"
       id="rect12-6-3-6-6-1-4-2-7-3-3-1-2-88-5-0" />
  </defs>
  <g
     inkscape:label="Layer 1"
     inkscape:groupmode="layer"
     id="layer1">
    <path
       style="opacity:0.6;fill:#e9afc6;fill-opacity:0.254902;fill-rule:evenodd;stroke:#000000;stroke-width:0.134462;paint-order:stroke markers fill"
       d="M 126.61879,115.52548 140,79.999998 l 13.01707,-0.15941 -16.58793,40.641322 z"
       id="path23-7"
       sodipodi:nodetypes="ccccc" />
    <path
       style="opacity:0.6;fill:#e9afc6;fill-opacity:0.254902;fill-rule:evenodd;stroke:#000000;stroke-width:0.134462;paint-order:stroke markers fill"
       d="m 105.36126,105.87692 12.22848,-25.876922 19.756,-0.0918 -13.07361,34.700472 z"
       id="path6-1"
       sodipodi:nodetypes="ccccc" />
    <text
       xml:space="preserve"
       transform="matrix(0.25278149,0.21210885,-0.21210885,0.25278149,99.548823,51.080684)"
       id="text12-6-6-8-98-9-7-2-0"
       style="white-space:pre;shape-inside:url(#rect12-6-3-6-6-1-4-2-7);display:inline;fill:#000000;fill-opacity:1;fill-rule:evenodd;stroke:#000000;stroke-width:0.0755906;stroke-dasharray:none;stroke-opacity:1;paint-order:stroke markers fill"><tspan
         x="198.42578"
         y="124.33468"
         id="tspan1">Bejárat</tspan></text>
    <text
       xml:space="preserve"
       transform="matrix(0.25278149,0.21210885,-0.21210885,0.25278149,-3.5940664,-50.108289)"
       id="text12-6-6-8-98-9-7-2-0-8"
       style="white-space:pre;shape-inside:url(#rect12-6-3-6-6-1-4-2-7-7);display:inline;fill:#000000;fill-opacity:1;fill-rule:evenodd;stroke:#000000;stroke-width:0.0755906;stroke-dasharray:none;stroke-opacity:1;paint-order:stroke markers fill"><tspan
         x="198.42578"
         y="124.33468"
         id="tspan2">Bejárat</tspan></text>
    <text
       xml:space="preserve"
       transform="matrix(0.25278149,-0.21210885,0.21210885,0.25278149,-54.488474,146.22952)"
       id="text12-6-6-8-98-9-7-2-0-7"
       style="white-space:pre;shape-inside:url(#rect12-6-3-6-6-1-4-2-7-3);display:inline;fill:#000000;fill-opacity:1;fill-rule:evenodd;stroke:#000000;stroke-width:0.0755906;stroke-dasharray:none;stroke-opacity:1;paint-order:stroke markers fill"><tspan
         x="198.42578"
         y="124.33468"
         id="tspan3">Bejárat</tspan></text>
    <text
       xml:space="preserve"
       transform="matrix(0.25278149,-0.21210885,0.21210885,0.25278149,48.609049,46.830415)"
       id="text12-6-6-8-98-9-7-2-0-7-0"
       style="white-space:pre;shape-inside:url(#rect12-6-3-6-6-1-4-2-7-3-3);display:inline;fill:#000000;fill-opacity:1;fill-rule:evenodd;stroke:#000000;stroke-width:0.0755906;stroke-dasharray:none;stroke-opacity:1;paint-order:stroke markers fill"><tspan
         x="198.42578"
         y="124.33468"
         id="tspan4">Bejárat</tspan></text>
    <path
       d="M 79.589768,7.8974604 V 19.589763 L 43.002477,32.938085 36.675323,25.680011 Z"
       style="opacity:0.6;fill:#ffeeaa;fill-opacity:0.254902;fill-rule:evenodd;stroke:#000000;stroke-width:0.134462;paint-order:stroke markers fill"
       id="path20-9-5-4"
       sodipodi:nodetypes="ccccc" />
    <text
       xml:space="preserve"
       transform="matrix(0.32998282,0,0,0.3299828,-8.2412408,-18.528136)"
       id="text12-6-6-8-98-9-7-2-0-7-0-1"
       style="white-space:pre;shape-inside:url(#rect12-6-3-6-6-1-4-2-7-3-3-1);display:inline;fill:#000000;fill-opacity:1;fill-rule:evenodd;stroke:#000000;stroke-width:0.0767716;stroke-dasharray:none;stroke-opacity:1;paint-order:stroke markers fill"><tspan
         x="198.42578"
         y="124.33468"
         id="tspan5">A3</tspan></text>
    <path
       style="opacity:0.6;fill:#ffeeaa;fill-opacity:0.254902;fill-rule:evenodd;stroke:#000000;stroke-width:0.134462;paint-order:stroke markers fill"
       d="M 56.446825,51.072713 79.589768,42.045052 V 21.53848 l -35.76147,14.082138 z"
       id="path2-7-0-1"
       sodipodi:nodetypes="ccccc" />
    <text
       xml:space="preserve"
       transform="matrix(0.32998282,0,0,0.3299828,-2.2941562,-1.944724)"
       id="text12-6-6-8-98-9-7-2-0-7-0-1-5"
       style="white-space:pre;shape-inside:url(#rect12-6-3-6-6-1-4-2-7-3-3-1-2);display:inline;fill:#000000;fill-opacity:1;fill-rule:evenodd;stroke:#000000;stroke-width:0.0767716;stroke-dasharray:none;stroke-opacity:1;paint-order:stroke markers fill"><tspan
         x="198.42578"
         y="124.33468"
         id="tspan6">A1</tspan></text>
    <text
       xml:space="preserve"
       transform="matrix(0.32998282,0,0,0.3299828,53.199411,55.796909)"
       id="text12-6-6-8-98-9-7-2-0-7-0-1-5-5"
       style="white-space:pre;shape-inside:url(#rect12-6-3-6-6-1-4-2-7-3-3-1-2-8);display:inline;fill:#000000;fill-opacity:1;fill-rule:evenodd;stroke:#000000;stroke-width:0.0767716;stroke-dasharray:none;stroke-opacity:1;paint-order:stroke markers fill"><tspan
         x="198.42578"
         y="124.33468"
         id="tspan7">B2</tspan></text>
    <text
       xml:space="preserve"
       transform="matrix(0.32998282,0,0,0.3299828,53.863681,24.221878)"
       id="text12-6-6-8-98-9-7-2-0-7-0-1-5-1"
       style="white-space:pre;shape-inside:url(#rect12-6-3-6-6-1-4-2-7-3-3-1-2-3);display:inline;fill:#000000;fill-opacity:1;fill-rule:evenodd;stroke:#000000;stroke-width:0.0767716;stroke-dasharray:none;stroke-opacity:1;paint-order:stroke markers fill"><tspan
         x="198.42578"
         y="124.33468"
         id="tspan8">B1</tspan></text>
    <text
       xml:space="preserve"
       transform="matrix(0.32998282,0,0,0.3299828,70.277179,20.354892)"
       id="text12-6-6-8-98-9-7-2-0-7-0-1-5-3"
       style="white-space:pre;shape-inside:url(#rect12-6-3-6-6-1-4-2-7-3-3-1-2-4);display:inline;fill:#000000;fill-opacity:1;fill-rule:evenodd;stroke:#000000;stroke-width:0.0767716;stroke-dasharray:none;stroke-opacity:1;paint-order:stroke markers fill"><tspan
         x="198.42578"
         y="124.33468"
         id="tspan9">B3</tspan></text>
    <text
       xml:space="preserve"
       transform="matrix(0.32998282,0,0,0.3299828,71.807468,58.76695)"
       id="text12-6-6-8-98-9-7-2-0-7-0-1-5-7"
       style="white-space:pre;shape-inside:url(#rect12-6-3-6-6-1-4-2-7-3-3-1-2-88);display:inline;fill:#000000;fill-opacity:1;fill-rule:evenodd;stroke:#000000;stroke-width:0.0767716;stroke-dasharray:none;stroke-opacity:1;paint-order:stroke markers fill"><tspan
         x="198.42578"
         y="124.33468"
         id="tspan10">B4</tspan></text>
    <text
       xml:space="preserve"
       transform="matrix(0.32998282,0,0,0.3299828,27.851574,82.237904)"
       id="text12-6-6-8-98-9-7-2-0-7-0-1-5-7-1"
       style="white-space:pre;shape-inside:url(#rect12-6-3-6-6-1-4-2-7-3-3-1-2-88-5);display:inline;fill:#000000;fill-opacity:1;fill-rule:evenodd;stroke:#000000;stroke-width:0.0767716;stroke-dasharray:none;stroke-opacity:1;paint-order:stroke markers fill"><tspan
         x="198.42578"
         y="124.33468"
         id="tspan11">C1</tspan></text>
    <text
       xml:space="preserve"
       transform="matrix(0.32998282,0,0,0.3299828,-30.021292,55.514015)"
       id="text12-6-6-8-98-9-7-2-0-7-0-1-5-7-1-8"
       style="white-space:pre;shape-inside:url(#rect12-6-3-6-6-1-4-2-7-3-3-1-2-88-5-1);display:inline;fill:#000000;fill-opacity:1;fill-rule:evenodd;stroke:#000000;stroke-width:0.0767716;stroke-dasharray:none;stroke-opacity:1;paint-order:stroke markers fill"><tspan
         x="198.42578"
         y="124.33468"
         id="tspan12">D1</tspan></text>
    <text
       xml:space="preserve"
       transform="matrix(0.32998282,0,0,0.3299828,-49.632206,60.436067)"
       id="text12-6-6-8-98-9-7-2-0-7-0-1-5-7-1-6"
       style="white-space:pre;shape-inside:url(#rect12-6-3-6-6-1-4-2-7-3-3-1-2-88-5-6);display:inline;fill:#000000;fill-opacity:1;fill-rule:evenodd;stroke:#000000;stroke-width:0.0767716;stroke-dasharray:none;stroke-opacity:1;paint-order:stroke markers fill"><tspan
         x="198.42578"
         y="124.33468"
         id="tspan13">D3</tspan></text>
    <text
       xml:space="preserve"
       transform="matrix(0.32998282,0,0,0.3299828,-31.337211,24.796768)"
       id="text12-6-6-8-98-9-7-2-0-7-0-1-5-7-1-69"
       style="white-space:pre;shape-inside:url(#rect12-6-3-6-6-1-4-2-7-3-3-1-2-88-5-3);display:inline;fill:#000000;fill-opacity:1;fill-rule:evenodd;stroke:#000000;stroke-width:0.0767716;stroke-dasharray:none;stroke-opacity:1;paint-order:stroke markers fill"><tspan
         x="198.42578"
         y="124.33468"
         id="tspan14">D2</tspan></text>
    <text
       xml:space="preserve"
       transform="matrix(0.32998282,0,0,0.3299828,-49.738546,21.401794)"
       id="text12-6-6-8-98-9-7-2-0-7-0-1-5-7-1-4"
       style="white-space:pre;shape-inside:url(#rect12-6-3-6-6-1-4-2-7-3-3-1-2-88-5-0);display:inline;fill:#000000;fill-opacity:1;fill-rule:evenodd;stroke:#000000;stroke-width:0.0767716;stroke-dasharray:none;stroke-opacity:1;paint-order:stroke markers fill"><tspan
         x="198.42578"
         y="124.33468"
         id="tspan15">D4</tspan></text>
    <text
       xml:space="preserve"
       transform="matrix(0.32998282,0,0,0.3299828,-2.4662387,82.245639)"
       id="text12-6-6-8-98-9-7-2-0-7-0-1-5-7-2"
       style="white-space:pre;shape-inside:url(#rect12-6-3-6-6-1-4-2-7-3-3-1-2-88-0);display:inline;fill:#000000;fill-opacity:1;fill-rule:evenodd;stroke:#000000;stroke-width:0.0767716;stroke-dasharray:none;stroke-opacity:1;paint-order:stroke markers fill"><tspan
         x="198.42578"
         y="124.33468"
         id="tspan16">C2</tspan></text>
    <text
       xml:space="preserve"
       transform="matrix(0.32998282,0,0,0.3299828,32.476663,95.753346)"
       id="text12-6-6-8-98-9-7-2-0-7-0-1-5-7-9"
       style="white-space:pre;shape-inside:url(#rect12-6-3-6-6-1-4-2-7-3-3-1-2-88-6);display:inline;fill:#000000;fill-opacity:1;fill-rule:evenodd;stroke:#000000;stroke-width:0.0767716;stroke-dasharray:none;stroke-opacity:1;paint-order:stroke markers fill"><tspan
         x="198.42578"
         y="124.33468"
         id="tspan17">C3</tspan></text>
    <text
       xml:space="preserve"
       transform="matrix(0.32998282,0,0,0.3299828,-6.9492137,97.250606)"
       id="text12-6-6-8-98-9-7-2-0-7-0-1-5-7-3"
       style="white-space:pre;shape-inside:url(#rect12-6-3-6-6-1-4-2-7-3-3-1-2-88-2);display:inline;fill:#000000;fill-opacity:1;fill-rule:evenodd;stroke:#000000;stroke-width:0.0767716;stroke-dasharray:none;stroke-opacity:1;paint-order:stroke markers fill"><tspan
         x="198.42578"
         y="124.33468"
         id="tspan18">C4</tspan></text>
    <path
       style="opacity:0.6;fill:#ffeeaa;fill-opacity:0.254902;fill-rule:evenodd;stroke:#000000;stroke-width:0.134462;paint-order:stroke markers fill"
       d="M 104.68142,51.072713 81.538485,42.045052 V 21.53848 l 35.761455,14.082138 z"
       id="path2-7-4"
       sodipodi:nodetypes="ccccc" />
    <text
       xml:space="preserve"
       transform="matrix(0.32998282,0,0,0.3299828,28.641728,-1.944724)"
       id="text12-6-6-8-98-9-7-2-0-7-0-1-5-0"
       style="white-space:pre;shape-inside:url(#rect12-6-3-6-6-1-4-2-7-3-3-1-2-9);display:inline;fill:#000000;fill-opacity:1;fill-rule:evenodd;stroke:#000000;stroke-width:0.0767716;stroke-dasharray:none;stroke-opacity:1;paint-order:stroke markers fill"><tspan
         x="198.42578"
         y="124.33468"
         id="tspan19">A2</tspan></text>
    <text
       xml:space="preserve"
       transform="matrix(0.32998282,0,0,0.3299828,32.461424,-18.468195)"
       id="text12-6-6-8-98-9-7-2-0-7-0-1-5-0-3"
       style="white-space:pre;shape-inside:url(#rect12-6-3-6-6-1-4-2-7-3-3-1-2-9-2);display:inline;fill:#000000;fill-opacity:1;fill-rule:evenodd;stroke:#000000;stroke-width:0.0767716;stroke-dasharray:none;stroke-opacity:1;paint-order:stroke markers fill"><tspan
         x="198.42578"
         y="124.33468"
         id="tspan20">A4</tspan></text>
    <path
       style="fill:#000000;fill-opacity:1;fill-rule:evenodd;stroke:#000000;stroke-width:0.134462;stroke-dasharray:none;stroke-opacity:1;paint-order:stroke markers fill"
       d="m 122.13578,122.45895 1.24666,-1.49781 -3.732,-3.13156 1.25259,-1.49278 -4.86452,-0.26602 1.10673,4.74439 1.23736,-1.50555 z"
       id="path15-4-4-0" />
    <path
       d="m 80.564127,42.974365 -25.333319,9.743593 c -3.775834,10.76212 -7.749604,15.606066 -11.692302,26.307681 4.012275,9.197847 8.180252,17.334852 12.66666,26.307681 l 24.358961,9.74359 23.384603,-8.76923 c 4.25388,-9.079427 8.18213,-18.312975 12.66666,-27.282041 -4.2654,-10.704364 -7.7473,-16.854865 -12.66666,-27.28204 z m -0.974359,11.69231 c 0.518143,-1.17e-4 1.036133,0.02143 1.552834,0.06452 0.516917,0.04327 1.032217,0.107943 1.544787,0.194287 0.512317,0.08651 1.021557,0.194286 1.526645,0.32325 0.505342,0.128815 1.006181,0.278572 1.501488,0.449141 0.495303,0.170516 0.984725,0.361644 1.467226,0.573002 0.482561,0.211359 0.957893,0.442808 1.424961,0.693841 0.466756,0.251348 0.924939,0.52208 1.373573,0.811661 0.448886,0.289384 0.887913,0.597398 1.316183,0.923438 0.428268,0.325865 0.84547,0.669501 1.250726,1.030189 0.405255,0.361098 0.798271,0.738992 1.178233,1.132906 0.379786,0.393427 0.746262,0.802559 1.098668,1.226562 0.352599,0.42445 0.690861,0.863475 1.014071,1.316183 0.32296,0.45257 0.63066,0.918489 0.92244,1.396744 0.29223,0.478059 0.56835,0.968141 0.82778,1.469255 0.25907,0.501287 0.50126,1.013214 0.72605,1.534711 0.22481,0.521533 0.43207,1.052269 0.62136,1.591108 0.18941,0.538801 0.36074,1.085318 0.51358,1.638423 0.15258,0.553123 0.28664,1.112406 0.40181,1.676716 0.11531,0.564074 0.211747,1.132771 0.288997,1.704891 0.0773,0.572398 0.13544,1.147795 0.17422,1.725046 0.0388,0.577344 0.0583,1.156113 0.0584,1.735098 -2.5e-4,1.73773 -0.1752,3.469925 -0.521647,5.164042 -0.34614,1.694508 -0.86161,3.340235 -1.53673,4.906226 -0.67529,1.565814 -1.50593,3.041967 -2.47627,4.400709 -0.970307,1.358959 -2.074215,2.591912 -3.290977,3.675651 -1.216639,1.083604 -2.538416,2.011194 -3.940479,2.765308 -1.402414,0.753893 -2.876209,1.329507 -4.393676,1.715977 -1.517055,0.38673 -3.068197,0.58197 -4.624268,0.58206 -1.556419,-1e-5 -3.10789,-0.19525 -4.625278,-0.58206 -1.51709,-0.38655 -2.990536,-0.962167 -4.392618,-1.715981 -1.402415,-0.754037 -2.724539,-1.681625 -3.941513,-2.765308 -1.216761,-1.083757 -2.320669,-2.316692 -3.290955,-3.675651 -0.970364,-1.358742 -1.801005,-2.834894 -2.476293,-4.400708 -0.675115,-1.566008 -1.19058,-3.211718 -1.536716,-4.906227 -0.346428,-1.694116 -0.521402,-3.426313 -0.521633,-5.164042 1.61e-4,-1.738061 0.175137,-3.470607 0.521633,-5.165035 0.346132,-1.694508 0.861601,-3.340239 1.536716,-4.906246 0.675288,-1.565814 1.505929,-3.041968 2.476293,-4.400711 0.970286,-1.358957 2.074194,-2.59189 3.290955,-3.675651 1.216974,-1.083661 2.539098,-2.011252 3.941513,-2.765288 1.402082,-0.753821 2.875528,-1.329434 4.392642,-1.715983 1.517388,-0.386801 3.068859,-0.58204 4.625278,-0.582061 z"
       style="opacity:0.6;fill:#2ab424;fill-opacity:0.254902;fill-rule:evenodd;stroke:#000000;stroke-width:0.151735;paint-order:stroke markers fill"
       id="path9"
       sodipodi:nodetypes="ccccccccccccccscccccccccscccssccccsccccscccccccccsccc" />
    <path
       style="opacity:0.6;fill:#2724b4;fill-opacity:0.254902;fill-rule:evenodd;stroke:#000000;stroke-width:0.134462;paint-order:stroke markers fill"
       d="m 104.68142,107.02359 -23.142935,9.02768 0.01174,20.56014 35.749915,-14.13571 z"
       id="path2-7"
       sodipodi:nodetypes="ccccc" />
    <text
       xml:space="preserve"
       transform="matrix(0.32998275,0,0,0.32998275,6.3154762,38.070828)"
       id="text12-6-6-7"
       style="white-space:pre;shape-inside:url(#rect12-6-3-8);display:inline;fill:#000000;fill-opacity:1;fill-rule:evenodd;stroke:#000000;stroke-width:0.0755906;stroke-dasharray:none;stroke-opacity:1;paint-order:stroke markers fill"><tspan
         x="198.42578"
         y="124.33468"
         id="tspan21">Színpad</tspan></text>
    <path
       d="m 79.589825,54.666675 a 20.78429,23.210718 0 0 0 -4.625279,0.58206 20.78429,23.210718 0 0 0 -4.392643,1.715981 20.78429,23.210718 0 0 0 -3.941513,2.765289 20.78429,23.210718 0 0 0 -3.290955,3.67565 20.78429,23.210718 0 0 0 -2.476292,4.400713 20.78429,23.210718 0 0 0 -1.536715,4.906246 20.78429,23.210718 0 0 0 -0.521633,5.165036 20.78429,23.210718 0 0 0 0.521633,5.16404 20.78429,23.210718 0 0 0 1.536715,4.906226 20.78429,23.210718 0 0 0 2.476292,4.400713 20.78429,23.210718 0 0 0 3.290955,3.675648 20.78429,23.210718 0 0 0 3.941513,2.765308 20.78429,23.210718 0 0 0 4.392643,1.715985 20.78429,23.210718 0 0 0 4.625279,0.58206 20.78429,23.210718 0 0 0 4.624268,-0.58206 20.78429,23.210718 0 0 0 4.393674,-1.715985 20.78429,23.210718 0 0 0 3.940481,-2.765308 20.78429,23.210718 0 0 0 3.290975,-3.675648 20.78429,23.210718 0 0 0 2.47628,-4.400713 20.78429,23.210718 0 0 0 1.53673,-4.906226 20.78429,23.210718 0 0 0 0.521627,-5.16404 20.78429,23.210718 0 0 0 -0.0584,-1.7351 20.78429,23.210718 0 0 0 -0.17421,-1.725043 20.78429,23.210718 0 0 0 -0.289017,-1.704893 20.78429,23.210718 0 0 0 -0.40181,-1.676715 20.78429,23.210718 0 0 0 -0.51358,-1.638424 20.78429,23.210718 0 0 0 -0.62134,-1.591107 20.78429,23.210718 0 0 0 -0.72606,-1.534713 20.78429,23.210718 0 0 0 -0.82778,-1.469254 20.78429,23.210718 0 0 0 -0.92244,-1.396746 20.78429,23.210718 0 0 0 -1.014076,-1.316182 20.78429,23.210718 0 0 0 -1.098668,-1.226561 20.78429,23.210718 0 0 0 -1.178233,-1.132907 20.78429,23.210718 0 0 0 -1.250726,-1.030188 20.78429,23.210718 0 0 0 -1.316183,-0.923439 20.78429,23.210718 0 0 0 -1.373573,-0.811662 20.78429,23.210718 0 0 0 -1.424961,-0.693839 20.78429,23.210718 0 0 0 -1.467226,-0.573 20.78429,23.210718 0 0 0 -1.501488,-0.449142 20.78429,23.210718 0 0 0 -1.526645,-0.32325 20.78429,23.210718 0 0 0 -1.544787,-0.194289 20.78429,23.210718 0 0 0 -1.552834,-0.06452 z"
       style="fill:#99570c;fill-opacity:0.254902;fill-rule:evenodd;stroke:#000000;stroke-width:0.134462;paint-order:stroke markers fill"
       id="path11" />
    <path
       d="m 81.538485,149.17946 -0.06721,-10.68891 36.587295,-14.05269 6.32713,7.25808 z"
       style="opacity:0.6;fill:#2724b4;fill-opacity:0.254902;fill-rule:evenodd;stroke:#000000;stroke-width:0.134462;paint-order:stroke markers fill"
       id="path20-9"
       sodipodi:nodetypes="ccccc" />
    <path
       style="opacity:0.6;fill:#b43f24;fill-opacity:0.254902;fill-rule:evenodd;stroke:#000000;stroke-width:0.134462;paint-order:stroke markers fill"
       d="M 33.968474,115.56859 16.256466,79.999998 3.6331162,79.931403 24.337094,120.86437 Z"
       id="path23-7-4"
       sodipodi:nodetypes="ccccc" />
    <path
       style="opacity:0.6;fill:#b43f24;fill-opacity:0.254902;fill-rule:evenodd;stroke:#000000;stroke-width:0.134462;paint-order:stroke markers fill"
       d="M 54.876354,105.184 42.673329,80.301678 19.179541,79.999998 36.281712,114.57044 Z"
       id="path6-1-9"
       sodipodi:nodetypes="ccccc" />
    <path
       style="fill:#000000;fill-opacity:1;fill-rule:evenodd;stroke:#000000;stroke-width:0.134462;stroke-dasharray:none;stroke-opacity:1;paint-order:stroke markers fill"
       d="m 35.153195,124.19212 -1.272583,-1.4758 3.676783,-3.19617 -1.278476,-1.47073 4.859141,-0.35088 -1.023745,4.76301 -1.263464,-1.48377 z"
       id="path15-4-4-0-7" />
    <path
       style="opacity:0.6;fill:#2724b4;fill-opacity:0.254902;fill-rule:evenodd;stroke:#000000;stroke-width:0.134462;paint-order:stroke markers fill"
       d="m 56.446823,107.02359 23.142945,9.02768 V 136.5128 L 43.828295,122.4757 Z"
       id="path2-7-0"
       sodipodi:nodetypes="ccccc" />
    <path
       d="M 79.589768,149.17946 V 138.46151 L 43.0697,124.43786 l -6.327155,7.25808 z"
       style="opacity:0.6;fill:#2724b4;fill-opacity:0.254902;fill-rule:evenodd;stroke:#000000;stroke-width:0.134462;paint-order:stroke markers fill"
       id="path20-9-5"
       sodipodi:nodetypes="ccccc" />
    <path
       style="opacity:0.6;fill:#e9afc6;fill-opacity:0.254902;fill-rule:evenodd;stroke:#000000;stroke-width:0.134462;paint-order:stroke markers fill"
       d="M 126.61879,42.570837 140,78.051281 l 13.11762,0.06744 -16.68848,-40.504315 z"
       id="path23-7-3"
       sodipodi:nodetypes="ccccc" />
    <path
       style="opacity:0.6;fill:#e9afc6;fill-opacity:0.254902;fill-rule:evenodd;stroke:#000000;stroke-width:0.134462;paint-order:stroke markers fill"
       d="m 105.36126,52.219395 12.22848,25.831886 19.85334,-0.128415 -13.17095,-34.435253 z"
       id="path6-1-4"
       sodipodi:nodetypes="ccccc" />
    <path
       style="fill:#000000;fill-opacity:1;fill-rule:evenodd;stroke:#000000;stroke-width:0.134462;stroke-dasharray:none;stroke-opacity:1;paint-order:stroke markers fill"
       d="m 122.13578,35.637357 1.24666,1.497803 -3.732,3.131551 1.25259,1.492794 -4.86452,0.266021 1.10673,-4.744388 1.23736,1.50556 z"
       id="path15-4-4-0-3" />
    <path
       d="M 81.538485,7.8974604 V 19.589763 l 36.520075,14.068674 6.32712,-7.258075 z"
       style="opacity:0.6;fill:#ffeeaa;fill-opacity:0.254902;fill-rule:evenodd;stroke:#000000;stroke-width:0.134462;paint-order:stroke markers fill"
       id="path20-9-2"
       sodipodi:nodetypes="ccccc" />
    <path
       style="opacity:0.6;fill:#b43f24;fill-opacity:0.254902;fill-rule:evenodd;stroke:#000000;stroke-width:0.134462;paint-order:stroke markers fill"
       d="M 33.968477,42.52773 16.285024,77.877162 H 3.5234682 L 24.3371,37.231992 Z"
       id="path23-7-4-1"
       sodipodi:nodetypes="ccccc" />
    <path
       style="opacity:0.6;fill:#b43f24;fill-opacity:0.254902;fill-rule:evenodd;stroke:#000000;stroke-width:0.134462;paint-order:stroke markers fill"
       d="M 54.876354,52.912302 42.564147,78.051281 H 19.179541 L 36.281714,43.525882 Z"
       id="path6-1-9-7"
       sodipodi:nodetypes="ccccc" />
    <path
       style="fill:#000000;fill-opacity:1;fill-rule:evenodd;stroke:#000000;stroke-width:0.134462;stroke-dasharray:none;stroke-opacity:1;paint-order:stroke markers fill"
       d="m 35.153197,33.904169 -1.272582,1.475823 3.676785,3.196187 -1.278473,1.470715 4.859136,0.350887 -1.023745,-4.762996 -1.263462,1.483753 z"
       id="path15-4-4-0-7-1" />
  </g>
</svg>
