<?xml version="1.0" encoding="UTF-8" standalone="no"?>
<!-- Created with Inkscape (http://www.inkscape.org/) -->

<svg
   width="158.75mm"
   height="158.75mm"
   viewBox="0 0 158.75 158.75"
   version="1.1"
   id="svg1"
   inkscape:version="1.3 (0e150ed6c4, 2023-07-21)"
   sodipodi:docname="location11.svg"
   inkscape:export-filename="location02mod.svg"
   inkscape:export-xdpi="96"
   inkscape:export-ydpi="96"
   xmlns:inkscape="http://www.inkscape.org/namespaces/inkscape"
   xmlns:sodipodi="http://sodipodi.sourceforge.net/DTD/sodipodi-0.dtd"
   xmlns="http://www.w3.org/2000/svg"
   xmlns:svg="http://www.w3.org/2000/svg">
  <sodipodi:namedview
     id="namedview1"
     pagecolor="#505050"
     bordercolor="#eeeeee"
     borderopacity="1"
     inkscape:showpageshadow="0"
     inkscape:pageopacity="0"
     inkscape:pagecheckerboard="0"
     inkscape:deskcolor="#505050"
     inkscape:document-units="mm"
     inkscape:zoom="2"
     inkscape:cx="340"
     inkscape:cy="212.75"
     inkscape:window-width="1920"
     inkscape:window-height="1017"
     inkscape:window-x="1912"
     inkscape:window-y="-8"
     inkscape:window-maximized="1"
     inkscape:current-layer="layer1"
     showgrid="true">
    <inkscape:grid
       id="grid1"
       units="mm"
       originx="0"
       originy="0"
       spacingx="0.5"
       spacingy="0.5"
       empcolor="#0099e5"
       empopacity="0.30196078"
       color="#0099e5"
       opacity="0.14901961"
       empspacing="5"
       dotted="false"
       gridanglex="30"
       gridanglez="30"
       visible="true" />
  </sodipodi:namedview>
  <defs
     id="defs1">
    <rect
       x="198.4252"
       y="113.38582"
       width="60.074799"
       height="15.114176"
       id="rect12-6-3-8" />
    <rect
       x="198.4252"
       y="113.38582"
       width="60.074799"
       height="15.114176"
       id="rect12-6-3-6-6-1-2-9" />
    <rect
       x="198.4252"
       y="113.38582"
       width="60.074799"
       height="15.114176"
       id="rect12-6-3-6-6-1-2-9-2" />
    <rect
       x="198.4252"
       y="113.38582"
       width="60.074799"
       height="15.114176"
       id="rect12-6-3-6-6-1-2-9-8" />
    <rect
       x="198.4252"
       y="113.38582"
       width="60.074799"
       height="15.114176"
       id="rect12-6-3-6-6-1-2-9-4" />
    <rect
       x="198.4252"
       y="113.38582"
       width="60.074799"
       height="15.114176"
       id="rect12-6-3-6-6-1-2-9-41" />
    <rect
       x="198.4252"
       y="113.38582"
       width="60.074799"
       height="15.114176"
       id="rect12-6-3-6-6-1-2-9-7" />
    <rect
       x="198.4252"
       y="113.38582"
       width="60.074799"
       height="15.114176"
       id="rect12-6-3-6-6-1-2-9-76" />
    <rect
       x="198.4252"
       y="113.38582"
       width="60.074799"
       height="15.114176"
       id="rect12-6-3-6-6-1-2-9-76-8" />
    <rect
       x="198.4252"
       y="113.38582"
       width="60.074799"
       height="15.114176"
       id="rect12-6-3-6-6-1-2-9-76-6" />
    <rect
       x="198.4252"
       y="113.38582"
       width="60.074799"
       height="15.114176"
       id="rect12-6-3-6-6-1-2-9-76-5" />
    <rect
       x="198.4252"
       y="113.38582"
       width="60.074799"
       height="15.114176"
       id="rect12-6-3-6-6-1-2-9-76-1" />
    <rect
       x="198.4252"
       y="113.38582"
       width="60.074799"
       height="15.114176"
       id="rect12-6-3-6-6-1-2-9-76-13" />
    <rect
       x="198.4252"
       y="113.38582"
       width="60.074799"
       height="15.114176"
       id="rect12-6-3-6-6-1-2-9-76-4" />
    <rect
       x="198.4252"
       y="113.38582"
       width="60.074799"
       height="15.114176"
       id="rect12-6-3-6-6-1-2-9-76-4-3" />
    <rect
       x="198.4252"
       y="113.38582"
       width="60.074799"
       height="15.114176"
       id="rect12-6-3-6-6-1-2-9-76-4-0" />
    <rect
       x="198.4252"
       y="113.38582"
       width="60.074799"
       height="15.114176"
       id="rect12-6-3-6-7-9" />
    <rect
       x="198.4252"
       y="113.38582"
       width="60.074799"
       height="15.114176"
       id="rect12-6-3-6-6-1-2-9-76-4-0-4" />
    <rect
       x="198.4252"
       y="113.38582"
       width="60.074799"
       height="15.114176"
       id="rect12-6-3-6-6-1-2-9-76-4-0-4-2" />
    <rect
       x="198.4252"
       y="113.38582"
       width="60.074799"
       height="15.114176"
       id="rect12-6-3-6-6-1-2-9-76-4-0-4-0" />
    <rect
       x="198.4252"
       y="113.38582"
       width="60.074799"
       height="15.114176"
       id="rect12-6-3-6-6-1-2-9-76-4-0-4-9" />
  </defs>
  <g
     inkscape:label="Layer 1"
     inkscape:groupmode="layer"
     id="layer1">
    <path
       style="fill:#b46024;fill-opacity:0.253041;fill-rule:evenodd;stroke:#000000;stroke-width:0.0778116;paint-order:stroke markers fill"
       d="m 57.818504,108.79046 h 8.581042 l 2.805485,-3.71039 2.942013,-2.72196 7.204479,-1.1495 7.164271,1.1495 2.87375,2.87375 2.87375,3.44849 8.621236,0.11011 V 123.0491 H 57.8185 Z"
       id="path2"
       sodipodi:nodetypes="cccccccccccc" />
    <path
       d="m 84.836891,100.17076 a 20.81955,16.31807 0 0 1 0.291847,0.0588 20.81955,16.31807 0 0 1 1.112831,0.27793 20.81955,16.31807 0 0 1 1.091243,0.32602 20.81955,16.31807 0 0 1 1.066093,0.37413 20.81955,16.31807 0 0 1 0.664227,0.26904 L 99.845491,93.1959 a 27.822068,22.983733 0 0 0 -0.0848,-0.08137 27.822068,22.983733 0 0 0 -1.47153,-1.215035 27.822068,22.983733 0 0 0 -1.577214,-1.121206 27.822068,22.983733 0 0 0 -1.673536,-1.020842 27.822068,22.983733 0 0 0 -1.761947,-0.914543 27.822068,22.983733 0 0 0 -1.105623,-0.482807 z"
       style="opacity:0.6;fill:#8dd35f;fill-opacity:0.254902;fill-rule:evenodd;stroke:#000000;stroke-width:0.126436;paint-order:stroke markers fill"
       id="path93" />
    <path
       d="m 100.50039,93.824192 -10.979332,7.842498 a 20.81955,16.31807 0 0 1 0.920876,0.4258 20.81955,16.31807 0 0 1 0.97119,0.50894 20.81955,16.31807 0 0 1 0.933106,0.55051 20.81955,16.31807 0 0 1 0.892116,0.59029 20.81955,16.31807 0 0 1 0.848986,0.6289 20.81955,16.31807 0 0 1 0.802265,0.66512 20.81955,16.31807 0 0 1 0.281076,0.2613 l 10.184257,-4.73247 a 27.822068,22.983733 0 0 0 -0.0906,-0.21438 27.822068,22.983733 0 0 0 -0.83172,-1.575507 27.822068,22.983733 0 0 0 -0.97265,-1.519091 27.822068,22.983733 0 0 0 -1.10706,-1.455548 27.822068,22.983733 0 0 0 -1.23501,-1.383095 27.822068,22.983733 0 0 0 -0.61751,-0.593267 z"
       style="opacity:0.6;fill:#8dd35f;fill-opacity:0.254902;fill-rule:evenodd;stroke:#000000;stroke-width:0.126436;paint-order:stroke markers fill"
       id="path89" />
    <path
       d="M 84.196356,100.0413 90.899124,87.846412 A 27.822068,22.983733 0 0 0 89.529691,87.352916 27.822068,22.983733 0 0 0 87.566437,86.785185 27.822068,22.983733 0 0 0 85.556478,86.340386 27.822068,22.983733 0 0 0 83.512,86.020889 a 27.822068,22.983733 0 0 0 -2.067479,-0.19241 27.822068,22.983733 0 0 0 -1.286049,-0.03979 l -0.433488,13.81078 a 20.81955,16.31807 0 0 1 0.808007,0.01781 20.81955,16.31807 0 0 1 1.163857,0.07721 20.81955,16.31807 0 0 1 1.155949,0.127679 20.81955,16.31807 0 0 1 1.145155,0.178752 20.81955,16.31807 0 0 1 0.198404,0.0404 z"
       style="opacity:0.6;fill:#8dd35f;fill-opacity:0.254902;fill-rule:evenodd;stroke:#000000;stroke-width:0.126436;paint-order:stroke markers fill"
       id="path79" />
    <path
       d="M 73.94885,100.19927 66.587589,88.362476 a 27.822068,22.983733 0 0 0 -2.024344,0.924043 27.822068,22.983733 0 0 0 -2.54481,1.491773 27.822068,22.983733 0 0 0 -2.326272,1.71744 27.822068,22.983733 0 0 0 -0.744751,0.688281 l 10.796746,8.267697 a 20.81955,16.31807 0 0 1 0.169655,-0.0813 20.81955,16.31807 0 0 1 3.017833,-0.97987 20.81955,16.31807 0 0 1 1.017204,-0.19122 z"
       style="opacity:0.6;fill:#8dd35f;fill-opacity:0.254902;fill-rule:evenodd;stroke:#000000;stroke-width:0.126436;paint-order:stroke markers fill"
       id="path74" />
    <path
       d="M 69.272578,101.67857 58.264483,93.81588 a 27.822068,22.983733 0 0 0 -0.651301,0.601579 27.822068,22.983733 0 0 0 -1.805806,2.10226 27.822068,22.983733 0 0 0 -1.508913,2.255474 27.822068,22.983733 0 0 0 -0.78501,1.854027 L 63.6093,105.3207 a 20.81955,16.31807 0 0 1 1.034458,-0.94957 20.81955,16.31807 0 0 1 2.484425,-1.6628 20.81955,16.31807 0 0 1 2.144395,-1.02976 z"
       style="opacity:0.6;fill:#8dd35f;fill-opacity:0.254902;fill-rule:evenodd;stroke:#000000;stroke-width:0.126436;paint-order:stroke markers fill"
       id="path64" />
    <path
       d="m 78.599233,85.799381 a 27.822068,22.983733 0 0 0 -2.349279,0.109271 27.822068,22.983733 0 0 0 -3.075338,0.431735 27.822068,22.983733 0 0 0 -2.998416,0.713225 27.822068,22.983733 0 0 0 -2.338492,0.800522 l 6.722883,12.229926 a 20.81955,16.31807 0 0 1 1.547745,-0.291585 20.81955,16.31807 0 0 1 2.935869,-0.181127 z"
       style="opacity:0.6;fill:#8dd35f;fill-opacity:0.254902;fill-rule:evenodd;stroke:#000000;stroke-width:0.126436;paint-order:stroke markers fill"
       id="path57" />
    <path
       d="m 126.44092,75.295208 -18.57137,13.265021 a 37.55979,31.028038 0 0 1 0.43635,0.409171 37.55979,31.028038 0 0 1 1.44637,1.540468 37.55979,31.028038 0 0 1 1.32632,1.612327 37.55979,31.028038 0 0 1 1.20053,1.67765 37.55979,31.028038 0 0 1 1.07112,1.737037 37.55979,31.028038 0 0 1 0.55353,1.055881 l 21.48998,-9.986328 a 62.114506,51.312625 0 0 0 -1.24797,-2.047626 62.114506,51.312625 0 0 0 -1.50316,-2.191339 62.114506,51.312625 0 0 0 -1.63113,-2.127794 62.114506,51.312625 0 0 0 -1.75548,-2.058908 62.114506,51.312625 0 0 0 -1.87553,-1.985272 62.114506,51.312625 0 0 0 -0.93956,-0.900288 z"
       style="opacity:0.6;fill:#ffb380;fill-opacity:0.254902;fill-rule:evenodd;stroke:#000000;stroke-width:0.126436;paint-order:stroke markers fill"
       id="path87" />
    <path
       d="M 107.82426,63.151984 96.615605,81.201728 a 37.55979,31.028038 0 0 1 0.844669,0.35572 37.55979,31.028038 0 0 1 2.030817,0.992337 37.55979,31.028038 0 0 1 1.951729,1.095671 37.55979,31.028038 0 0 1 1.86404,1.194843 37.55979,31.028038 0 0 1 1.76988,1.288673 37.55979,31.028038 0 0 1 1.66849,1.378346 37.55979,31.028038 0 0 1 0.22861,0.214383 l 17.98259,-13.809589 a 62.114506,51.312625 0 0 0 -1.66922,-1.447829 62.114506,51.312625 0 0 0 -2.20838,-1.737037 62.114506,51.312625 0 0 0 -2.3083,-1.644989 62.114506,51.312625 0 0 0 -2.40319,-1.549377 62.114506,51.312625 0 0 0 -2.49304,-1.450203 62.114506,51.312625 0 0 0 -2.57574,-1.347466 62.114506,51.312625 0 0 0 -2.65263,-1.241164 62.114506,51.312625 0 0 0 -0.82167,-0.342063 z"
       style="opacity:0.6;fill:#ffb380;fill-opacity:0.254902;fill-rule:evenodd;stroke:#000000;stroke-width:0.126436;paint-order:stroke markers fill"
       id="path85" />
    <path
       d="M 94.926979,80.518789 105.07743,62.052158 a 62.114506,51.312625 0 0 0 -1.94166,-0.711443 62.114506,51.312625 0 0 0 -2.84456,-0.906226 62.114506,51.312625 0 0 0 -2.894919,-0.789837 62.114506,51.312625 0 0 0 -2.938015,-0.671652 62.114506,51.312625 0 0 0 -2.9747,-0.551691 62.114506,51.312625 0 0 0 -3.004172,-0.431139 62.114506,51.312625 0 0 0 -3.025737,-0.308224 62.114506,51.312625 0 0 0 -3.040094,-0.185283 62.114506,51.312625 0 0 0 -1.366583,-0.02793 l -0.636203,20.278489 a 37.55979,31.028038 0 0 1 1.313373,0.03386 37.55979,31.028038 0 0 1 2.348567,0.183503 37.55979,31.028038 0 0 1 2.330577,0.304649 37.55979,31.028038 0 0 1 2.303264,0.425203 37.55979,31.028038 0 0 1 2.265171,0.543975 37.55979,31.028038 0 0 1 2.220604,0.660371 37.55979,31.028038 0 0 1 1.734636,0.619989 z"
       style="opacity:0.6;fill:#ffb380;fill-opacity:0.254902;fill-rule:evenodd;stroke:#000000;stroke-width:0.126436;paint-order:stroke markers fill"
       id="path83" />
    <path
       d="m 33.796217,73.925769 18.005601,13.787026 a 37.55979,31.028038 0 0 1 1.004265,-0.905636 37.55979,31.028038 0 0 1 2.416132,-1.828492 37.55979,31.028038 0 0 1 2.599443,-1.647956 37.55979,31.028038 0 0 1 2.764065,-1.454362 37.55979,31.028038 0 0 1 1.552764,-0.66809 L 50.917604,63.166237 a 62.114506,51.312625 0 0 0 -1.320568,0.545756 62.114506,51.312625 0 0 0 -3.812901,1.868875 62.114506,51.312625 0 0 0 -3.642527,2.089194 62.114506,51.312625 0 0 0 -3.452744,2.298233 62.114506,51.312625 0 0 0 -3.244992,2.495988 62.114506,51.312625 0 0 0 -1.647655,1.461486 z"
       style="opacity:0.6;fill:#ffb380;fill-opacity:0.254902;fill-rule:evenodd;stroke:#000000;stroke-width:0.126436;paint-order:stroke markers fill"
       id="path69" />
    <path
       d="M 50.881661,88.542415 32.300244,75.270266 a 62.114506,51.312625 0 0 0 -2.659829,2.726999 62.114506,51.312625 0 0 0 -2.528993,3.008488 62.114506,51.312625 0 0 0 -3.71873,5.626811 l 21.525202,10.002363 a 37.55979,31.028038 0 0 1 1.92011,-3.401029 37.55979,31.028038 0 0 1 1.760519,-2.283387 37.55979,31.028038 0 0 1 1.994151,-2.147393 37.55979,31.028038 0 0 1 0.288987,-0.260703 z"
       style="opacity:0.6;fill:#ffb380;fill-opacity:0.254902;fill-rule:evenodd;stroke:#000000;stroke-width:0.126436;paint-order:stroke markers fill"
       id="path67" />
    <path
       d="m 77.686277,57.484195 a 62.114506,51.312625 0 0 0 -2.751868,0.08137 62.114506,51.312625 0 0 0 -4.408836,0.391943 62.114506,51.312625 0 0 0 -4.363556,0.650279 62.114506,51.312625 0 0 0 -4.295983,0.905639 62.114506,51.312625 0 0 0 -4.206843,1.156829 62.114506,51.312625 0 0 0 -4.011308,1.373004 l 10.15767,18.47613 a 37.55979,31.028038 0 0 1 2.713743,-0.928796 37.55979,31.028038 0 0 1 3.124939,-0.81418 37.55979,31.028038 0 0 1 3.198969,-0.585543 37.55979,31.028038 0 0 1 3.248591,-0.353347 37.55979,31.028038 0 0 1 2.247915,-0.08077 z"
       style="opacity:0.6;fill:#ffb380;fill-opacity:0.254902;fill-rule:evenodd;stroke:#000000;stroke-width:0.126436;paint-order:stroke markers fill"
       id="path53" />
    <path
       d="M 33.013714,69.273705 20.124654,50.127829 a 65.94873,51.32661 0 0 0 -1.514158,1.096566 65.94873,51.32661 0 0 0 -3.20771,2.682002 65.94873,51.32661 0 0 0 -2.954065,2.852484 65.94873,51.32661 0 0 0 -2.6843789,3.009897 65.94873,51.32661 0 0 0 -3.9484554,5.628353 L 28.669641,75.402215 a 39.878293,31.036496 0 0 1 2.038678,-3.401956 39.878293,31.036496 0 0 1 1.86879,-2.284008 39.878293,31.036496 0 0 1 0.436605,-0.442546 z"
       style="opacity:0.6;fill:#aaffee;fill-opacity:0.254902;fill-rule:evenodd;stroke:#000000;stroke-width:0.11495;paint-order:stroke markers fill"
       id="path111" />
    <path
       d="M 43.935378,61.317982 36.342011,41.416516 a 65.94873,51.32661 0 0 0 -2.703982,1.053195 65.94873,51.32661 0 0 0 -4.048845,1.869984 65.94873,51.32661 0 0 0 -3.867072,2.089169 65.94873,51.32661 0 0 0 -3.665703,2.299449 65.94873,51.32661 0 0 0 -0.05584,0.04035 l 12.202966,19.297358 a 39.878293,31.036496 0 0 1 0.491255,-0.497791 39.878293,31.036496 0 0 1 2.350539,-1.996509 39.878293,31.036496 0 0 1 2.564981,-1.828981 39.878293,31.036496 0 0 1 2.759821,-1.648406 39.878293,31.036496 0 0 1 1.565244,-0.776395 z"
       style="opacity:0.6;fill:#aaffee;fill-opacity:0.254902;fill-rule:evenodd;stroke:#000000;stroke-width:0.11495;paint-order:stroke markers fill"
       id="path109" />
    <path
       d="m 45.678827,60.488146 a 39.878293,31.036496 0 0 1 2.711704,-1.098945 39.878293,31.036496 0 0 1 3.214245,-1.035976 39.878293,31.036496 0 0 1 3.317604,-0.814397 39.878293,31.036496 0 0 1 0.891033,-0.153849 l -3.186922,-20.2169 a 65.94873,51.32661 0 0 0 -1.401294,0.196622 65.94873,51.32661 0 0 0 -4.56089,0.905886 65.94873,51.32661 0 0 0 -4.467035,1.157144 65.94873,51.32661 0 0 0 -3.409084,1.099532 z"
       style="opacity:0.6;fill:#aaffee;fill-opacity:0.254902;fill-rule:evenodd;stroke:#000000;stroke-width:0.11495;paint-order:stroke markers fill"
       id="path108" />
    <text
       xml:space="preserve"
       transform="matrix(0.19464866,0,0,0.19464866,35.344157,92.439017)"
       id="text12-6-6-7"
       style="white-space:pre;shape-inside:url(#rect12-6-3-8);display:inline;fill:#000000;fill-opacity:1;fill-rule:evenodd;stroke:#000000;stroke-width:0.0755906;stroke-dasharray:none;stroke-opacity:1;paint-order:stroke markers fill"><tspan
         x="198.42578"
         y="124.33468"
         id="tspan22">Színpad</tspan></text>
    <text
       xml:space="preserve"
       transform="matrix(0.19464866,0,0,0.19464866,20.879234,76.432272)"
       id="text12-6-6-8-98-9-3-0"
       style="white-space:pre;shape-inside:url(#rect12-6-3-6-6-1-2-9);display:inline;fill:#000000;fill-opacity:1;fill-rule:evenodd;stroke:#000000;stroke-width:0.0755906;stroke-dasharray:none;stroke-opacity:1;paint-order:stroke markers fill"><tspan
         x="198.42578"
         y="124.33468"
         id="tspan23">A1</tspan></text>
    <text
       xml:space="preserve"
       transform="matrix(0.19464866,0,0,0.19464866,27.644366,71.340018)"
       id="text12-6-6-8-98-9-3-0-0"
       style="white-space:pre;shape-inside:url(#rect12-6-3-6-6-1-2-9-2);display:inline;fill:#000000;fill-opacity:1;fill-rule:evenodd;stroke:#000000;stroke-width:0.0755906;stroke-dasharray:none;stroke-opacity:1;paint-order:stroke markers fill"><tspan
         x="198.42578"
         y="124.33468"
         id="tspan24">A2</tspan></text>
    <text
       xml:space="preserve"
       transform="matrix(0.19464866,0,0,0.19464866,35.370872,69.593253)"
       id="text12-6-6-8-98-9-3-0-7"
       style="white-space:pre;shape-inside:url(#rect12-6-3-6-6-1-2-9-8);display:inline;fill:#000000;fill-opacity:1;fill-rule:evenodd;stroke:#000000;stroke-width:0.0755906;stroke-dasharray:none;stroke-opacity:1;paint-order:stroke markers fill"><tspan
         x="198.42578"
         y="124.33468"
         id="tspan25">A3</tspan></text>
    <text
       xml:space="preserve"
       transform="matrix(0.19464866,0,0,0.19464866,43.248235,69.21578)"
       id="text12-6-6-8-98-9-3-0-3"
       style="white-space:pre;shape-inside:url(#rect12-6-3-6-6-1-2-9-4);display:inline;fill:#000000;fill-opacity:1;fill-rule:evenodd;stroke:#000000;stroke-width:0.0755906;stroke-dasharray:none;stroke-opacity:1;paint-order:stroke markers fill"><tspan
         x="198.42578"
         y="124.33468"
         id="tspan26">A4</tspan></text>
    <text
       xml:space="preserve"
       transform="matrix(0.19464866,0,0,0.19464866,51.295854,72.431736)"
       id="text12-6-6-8-98-9-3-0-8"
       style="white-space:pre;shape-inside:url(#rect12-6-3-6-6-1-2-9-41);display:inline;fill:#000000;fill-opacity:1;fill-rule:evenodd;stroke:#000000;stroke-width:0.0755906;stroke-dasharray:none;stroke-opacity:1;paint-order:stroke markers fill"><tspan
         x="198.42578"
         y="124.33468"
         id="tspan27">A5</tspan></text>
    <text
       xml:space="preserve"
       transform="matrix(0.19464866,0,0,0.19464866,58.149292,76.389559)"
       id="text12-6-6-8-98-9-3-0-6"
       style="white-space:pre;shape-inside:url(#rect12-6-3-6-6-1-2-9-7);display:inline;fill:#000000;fill-opacity:1;fill-rule:evenodd;stroke:#000000;stroke-width:0.0755906;stroke-dasharray:none;stroke-opacity:1;paint-order:stroke markers fill"><tspan
         x="198.42578"
         y="124.33468"
         id="tspan28">A6</tspan></text>
    <text
       xml:space="preserve"
       transform="matrix(0.19464866,0,0,0.19464866,-2.380804,62.603891)"
       id="text12-6-6-8-98-9-3-0-1"
       style="white-space:pre;shape-inside:url(#rect12-6-3-6-6-1-2-9-76);display:inline;fill:#000000;fill-opacity:1;fill-rule:evenodd;stroke:#000000;stroke-width:0.0755906;stroke-dasharray:none;stroke-opacity:1;paint-order:stroke markers fill"><tspan
         x="198.42578"
         y="124.33468"
         id="tspan29">B1</tspan></text>
    <text
       xml:space="preserve"
       transform="matrix(0.19464866,0,0,0.19464866,9.2037731,51.853606)"
       id="text12-6-6-8-98-9-3-0-1-4"
       style="white-space:pre;shape-inside:url(#rect12-6-3-6-6-1-2-9-76-8);display:inline;fill:#000000;fill-opacity:1;fill-rule:evenodd;stroke:#000000;stroke-width:0.0755906;stroke-dasharray:none;stroke-opacity:1;paint-order:stroke markers fill"><tspan
         x="198.42578"
         y="124.33468"
         id="tspan30">B2</tspan></text>
    <text
       xml:space="preserve"
       transform="matrix(0.19464866,0,0,0.19464866,28.755273,44.764866)"
       id="text12-6-6-8-98-9-3-0-1-0"
       style="white-space:pre;shape-inside:url(#rect12-6-3-6-6-1-2-9-76-6);display:inline;fill:#000000;fill-opacity:1;fill-rule:evenodd;stroke:#000000;stroke-width:0.0755906;stroke-dasharray:none;stroke-opacity:1;paint-order:stroke markers fill"><tspan
         x="198.42578"
         y="124.33468"
         id="tspan31">B3</tspan></text>
    <text
       xml:space="preserve"
       transform="matrix(0.19464866,0,0,0.19464866,50.34911,44.764866)"
       id="text12-6-6-8-98-9-3-0-1-3"
       style="white-space:pre;shape-inside:url(#rect12-6-3-6-6-1-2-9-76-5);display:inline;fill:#000000;fill-opacity:1;fill-rule:evenodd;stroke:#000000;stroke-width:0.0755906;stroke-dasharray:none;stroke-opacity:1;paint-order:stroke markers fill"><tspan
         x="198.42578"
         y="124.33468"
         id="tspan32">B4</tspan></text>
    <text
       xml:space="preserve"
       transform="matrix(0.19464866,0,0,0.19464866,69.237244,52.716264)"
       id="text12-6-6-8-98-9-3-0-1-2"
       style="white-space:pre;shape-inside:url(#rect12-6-3-6-6-1-2-9-76-1);display:inline;fill:#000000;fill-opacity:1;fill-rule:evenodd;stroke:#000000;stroke-width:0.0755906;stroke-dasharray:none;stroke-opacity:1;paint-order:stroke markers fill"><tspan
         x="198.42578"
         y="124.33468"
         id="tspan33">B5</tspan></text>
    <text
       xml:space="preserve"
       transform="matrix(0.19464866,0,0,0.19464866,81.40906,62.590674)"
       id="text12-6-6-8-98-9-3-0-1-03"
       style="white-space:pre;shape-inside:url(#rect12-6-3-6-6-1-2-9-76-13);display:inline;fill:#000000;fill-opacity:1;fill-rule:evenodd;stroke:#000000;stroke-width:0.0755906;stroke-dasharray:none;stroke-opacity:1;paint-order:stroke markers fill"><tspan
         x="198.42578"
         y="124.33468"
         id="tspan34">B6</tspan></text>
    <text
       xml:space="preserve"
       transform="matrix(0.19464866,0,0,0.19464866,-18.513208,40.760267)"
       id="text12-6-6-8-98-9-3-0-1-8"
       style="white-space:pre;shape-inside:url(#rect12-6-3-6-6-1-2-9-76-4);display:inline;fill:#000000;fill-opacity:1;fill-rule:evenodd;stroke:#000000;stroke-width:0.0755906;stroke-dasharray:none;stroke-opacity:1;paint-order:stroke markers fill"><tspan
         x="198.42578"
         y="124.33468"
         id="tspan35">C1</tspan></text>
    <text
       xml:space="preserve"
       transform="matrix(0.19464866,0,0,0.19464866,-6.0736743,31.400584)"
       id="text12-6-6-8-98-9-3-0-1-8-3"
       style="white-space:pre;shape-inside:url(#rect12-6-3-6-6-1-2-9-76-4-3);display:inline;fill:#000000;fill-opacity:1;fill-rule:evenodd;stroke:#000000;stroke-width:0.0755906;stroke-dasharray:none;stroke-opacity:1;paint-order:stroke markers fill"><tspan
         x="198.42578"
         y="124.33468"
         id="tspan36">C2</tspan></text>
    <text
       xml:space="preserve"
       transform="matrix(0.19464866,0,0,0.19464866,7.8374872,25.594968)"
       id="text12-6-6-8-98-9-3-0-1-8-1"
       style="white-space:pre;shape-inside:url(#rect12-6-3-6-6-1-2-9-76-4-0);display:inline;fill:#000000;fill-opacity:1;fill-rule:evenodd;stroke:#000000;stroke-width:0.0755906;stroke-dasharray:none;stroke-opacity:1;paint-order:stroke markers fill"><tspan
         x="198.42578"
         y="124.33468"
         id="tspan37">C3</tspan></text>
    <text
       xml:space="preserve"
       transform="matrix(0.19464866,0,0,0.19464866,98.333271,40.791062)"
       id="text12-6-6-8-98-9-3-0-1-8-1-8"
       style="white-space:pre;shape-inside:url(#rect12-6-3-6-6-1-2-9-76-4-0-4);display:inline;fill:#000000;fill-opacity:1;fill-rule:evenodd;stroke:#000000;stroke-width:0.0755906;stroke-dasharray:none;stroke-opacity:1;paint-order:stroke markers fill"><tspan
         x="198.42578"
         y="124.33468"
         id="tspan38">D1</tspan></text>
    <text
       xml:space="preserve"
       transform="matrix(0.19464866,0,0,0.19464866,86.150483,31.415983)"
       id="text12-6-6-8-98-9-3-0-1-8-1-8-8"
       style="white-space:pre;shape-inside:url(#rect12-6-3-6-6-1-2-9-76-4-0-4-2);display:inline;fill:#000000;fill-opacity:1;fill-rule:evenodd;stroke:#000000;stroke-width:0.0755906;stroke-dasharray:none;stroke-opacity:1;paint-order:stroke markers fill"><tspan
         x="198.42578"
         y="124.33468"
         id="tspan39">D2</tspan></text>
    <text
       xml:space="preserve"
       transform="matrix(0.19464866,0,0,0.19464866,71.15795,25.482468)"
       id="text12-6-6-8-98-9-3-0-1-8-1-8-7"
       style="white-space:pre;shape-inside:url(#rect12-6-3-6-6-1-2-9-76-4-0-4-0);display:inline;fill:#000000;fill-opacity:1;fill-rule:evenodd;stroke:#000000;stroke-width:0.0755906;stroke-dasharray:none;stroke-opacity:1;paint-order:stroke markers fill"><tspan
         x="198.42578"
         y="124.33468"
         id="tspan40">D3</tspan></text>
    <path
       d="m 126.39671,69.273705 12.88905,-19.145876 a 65.94873,51.32661 0 0 1 1.51415,1.096566 65.94873,51.32661 0 0 1 3.20772,2.682002 65.94873,51.32661 0 0 1 2.95406,2.852484 65.94873,51.32661 0 0 1 2.68439,3.009897 65.94873,51.32661 0 0 1 3.94845,5.628353 l -22.85374,10.005084 a 39.878293,31.036496 0 0 0 -2.03869,-3.401956 39.878293,31.036496 0 0 0 -1.86879,-2.284008 39.878293,31.036496 0 0 0 -0.4366,-0.442546 z"
       style="opacity:0.6;fill:#ffeeaa;fill-opacity:0.254902;fill-rule:evenodd;stroke:#000000;stroke-width:0.11495;paint-order:stroke markers fill"
       id="path111-2" />
    <path
       d="m 115.47504,61.317982 7.59337,-19.901466 a 65.94873,51.32661 0 0 1 2.70397,1.053195 65.94873,51.32661 0 0 1 4.04885,1.869984 65.94873,51.32661 0 0 1 3.86707,2.089169 65.94873,51.32661 0 0 1 3.6657,2.299449 65.94873,51.32661 0 0 1 0.0559,0.04035 l -12.20297,19.297358 a 39.878293,31.036496 0 0 0 -0.49125,-0.497791 39.878293,31.036496 0 0 0 -2.35054,-1.996509 39.878293,31.036496 0 0 0 -2.56498,-1.828981 39.878293,31.036496 0 0 0 -2.75982,-1.648406 39.878293,31.036496 0 0 0 -1.56523,-0.776395 z"
       style="opacity:0.6;fill:#ffeeaa;fill-opacity:0.254902;fill-rule:evenodd;stroke:#000000;stroke-width:0.11495;paint-order:stroke markers fill"
       id="path109-1" />
    <path
       d="m 113.73159,60.488146 a 39.878293,31.036496 0 0 0 -2.7117,-1.098945 39.878293,31.036496 0 0 0 -3.21424,-1.035976 39.878293,31.036496 0 0 0 -3.31761,-0.814397 39.878293,31.036496 0 0 0 -0.89103,-0.153849 l 3.18692,-20.2169 a 65.94873,51.32661 0 0 1 1.40129,0.196622 65.94873,51.32661 0 0 1 4.56089,0.905886 65.94873,51.32661 0 0 1 4.46704,1.157144 65.94873,51.32661 0 0 1 3.40907,1.099532 z"
       style="opacity:0.6;fill:#ffeeaa;fill-opacity:0.254902;fill-rule:evenodd;stroke:#000000;stroke-width:0.11495;paint-order:stroke markers fill"
       id="path108-5" />
    <rect
       style="fill:#716b67;fill-opacity:0.328467;fill-rule:evenodd;stroke:#000000;stroke-width:0.11495;stroke-dasharray:none;paint-order:stroke markers fill"
       id="rect11"
       width="7.3869543"
       height="6.3194861"
       x="48.345318"
       y="112.76003" />
    <text
       xml:space="preserve"
       transform="matrix(0.19464866,0,0,0.19464866,11.339742,92.573028)"
       id="text12-6-6-8-9"
       style="white-space:pre;shape-inside:url(#rect12-6-3-6-7-9);display:inline;fill:#000000;fill-opacity:1;fill-rule:evenodd;stroke:#000000;stroke-width:0.0755906;stroke-dasharray:none;stroke-opacity:1;paint-order:stroke markers fill"><tspan
         x="198.42578"
         y="124.33468"
         id="tspan41">Mix</tspan></text>
    <rect
       style="opacity:0.6;fill:#e9afc6;fill-opacity:0.254902;fill-rule:evenodd;stroke:#000000;stroke-width:0.0139345;paint-order:stroke markers fill"
       id="rect1"
       width="41.250435"
       height="17.911942"
       x="59.079994"
       y="36.160194" />
    <text
       xml:space="preserve"
       transform="matrix(0.19464866,0,0,0.19464866,39.107663,22.090705)"
       id="text12-6-6-8-98-9-3-0-1-8-1-8-1"
       style="white-space:pre;shape-inside:url(#rect12-6-3-6-6-1-2-9-76-4-0-4-9);display:inline;fill:#000000;fill-opacity:1;fill-rule:evenodd;stroke:#000000;stroke-width:0.0755906;stroke-dasharray:none;stroke-opacity:1;paint-order:stroke markers fill"><tspan
         x="198.42578"
         y="124.33468"
         id="tspan42">VIP</tspan></text>
  </g>
</svg>
