<?xml version="1.0" encoding="UTF-8" standalone="no"?>
<!-- Created with Inkscape (http://www.inkscape.org/) -->

<svg
   width="158.75mm"
   height="158.75mm"
   viewBox="0 0 158.75 158.75"
   version="1.1"
   id="svg1"
   inkscape:version="1.3 (0e150ed6c4, 2023-07-21)"
   sodipodi:docname="location01ready.svg"
   inkscape:export-filename="location01ready.svg"
   inkscape:export-xdpi="96"
   inkscape:export-ydpi="96"
   xmlns:inkscape="http://www.inkscape.org/namespaces/inkscape"
   xmlns:sodipodi="http://sodipodi.sourceforge.net/DTD/sodipodi-0.dtd"
   xmlns="http://www.w3.org/2000/svg"
   xmlns:svg="http://www.w3.org/2000/svg">
  <sodipodi:namedview
     id="namedview1"
     pagecolor="#505050"
     bordercolor="#eeeeee"
     borderopacity="1"
     inkscape:showpageshadow="0"
     inkscape:pageopacity="0"
     inkscape:pagecheckerboard="0"
     inkscape:deskcolor="#505050"
     inkscape:document-units="mm"
     inkscape:zoom="1"
     inkscape:cx="273"
     inkscape:cy="325.5"
     inkscape:window-width="1920"
     inkscape:window-height="1017"
     inkscape:window-x="1912"
     inkscape:window-y="-8"
     inkscape:window-maximized="1"
     inkscape:current-layer="layer1"
     showgrid="true">
    <inkscape:grid
       id="grid1"
       units="mm"
       originx="0"
       originy="0"
       spacingx="0.5"
       spacingy="0.5"
       empcolor="#0099e5"
       empopacity="0.30196078"
       color="#0099e5"
       opacity="0.14901961"
       empspacing="5"
       dotted="false"
       gridanglex="30"
       gridanglez="30"
       visible="true" />
  </sodipodi:namedview>
  <defs
     id="defs1">
    <rect
       x="446.18355"
       y="114.8945"
       width="11.537879"
       height="36.286604"
       id="rect1" />
    <rect
       x="198.4252"
       y="113.38582"
       width="60.074799"
       height="15.114176"
       id="rect12" />
    <rect
       x="198.4252"
       y="113.38582"
       width="60.074799"
       height="15.114176"
       id="rect12-6" />
    <rect
       x="198.4252"
       y="113.38582"
       width="134.2228"
       height="14.410514"
       id="rect12-6-3" />
    <rect
       x="198.4252"
       y="113.38582"
       width="60.074799"
       height="15.114176"
       id="rect12-6-3-6" />
    <rect
       x="198.4252"
       y="113.38582"
       width="84.678785"
       height="19.323701"
       id="rect12-6-3-6-5" />
    <rect
       x="198.4252"
       y="113.38582"
       width="60.074799"
       height="15.114176"
       id="rect12-6-3-6-7" />
    <rect
       x="198.4252"
       y="113.38582"
       width="76.709038"
       height="13.718754"
       id="rect12-6-3-6-5-5" />
    <rect
       x="198.4252"
       y="113.38582"
       width="60.074799"
       height="15.114176"
       id="rect12-6-3-8" />
    <rect
       x="198.4252"
       y="113.38582"
       width="60.074799"
       height="15.114176"
       id="rect12-6-6" />
    <rect
       x="198.4252"
       y="113.38582"
       width="60.074799"
       height="15.114176"
       id="rect12-6-6-5" />
    <rect
       x="198.4252"
       y="113.38582"
       width="60.074799"
       height="15.114176"
       id="rect12-6-6-9" />
    <rect
       x="198.4252"
       y="113.38582"
       width="60.074799"
       height="15.114176"
       id="rect12-6-3-6-6" />
    <rect
       x="198.4252"
       y="113.38582"
       width="60.074799"
       height="15.114176"
       id="rect12-6-3-6-6-1" />
    <rect
       x="198.4252"
       y="113.38582"
       width="60.074799"
       height="15.114176"
       id="rect12-6-6-4" />
    <rect
       x="198.4252"
       y="113.38582"
       width="60.074799"
       height="15.114176"
       id="rect12-6-6-4-9" />
    <rect
       x="198.4252"
       y="113.38582"
       width="60.074799"
       height="15.114176"
       id="rect12-6-3-6-6-9" />
    <rect
       x="198.4252"
       y="113.38582"
       width="134.22279"
       height="14.410514"
       id="rect12-6-3-2" />
  </defs>
  <g
     inkscape:label="location_1"
     inkscape:groupmode="layer"
     id="layer1">
    <rect
       style="fill:#786a60;fill-opacity:0.253041;fill-rule:evenodd;stroke:#000000;stroke-width:0.15525;stroke-dasharray:none;stroke-opacity:1;paint-order:stroke markers fill"
       id="rect13"
       width="73.125"
       height="27.000006"
       x="37.125"
       y="113.62498"
       inkscape:label="eloter" />
    <path
       style="fill:#786a60;fill-opacity:0.253041;fill-rule:evenodd;stroke:#000000;stroke-width:0.15525;stroke-dasharray:none;stroke-opacity:1;paint-order:stroke markers fill"
       d="m 111.375,113.62499 h 11.25 l 4.57557,-31.503133 1.04943,-1.121859 h 10.125 v 42.749992 l -26.79111,16.95265 z"
       id="path13"
       sodipodi:nodetypes="cccccccc"
       inkscape:label="bufe" />
    <path
       style="fill:#000000;fill-opacity:1;fill-rule:evenodd;stroke:#000000;stroke-width:0.15525;stroke-dasharray:none;stroke-opacity:1;paint-order:stroke markers fill"
       d="m 96.187496,148.50855 2.25,-0.009 v -5.625 h 2.250004 l -3.375004,-4.50001 -3.375,4.50001 2.25,-0.0229 z"
       id="path15"
       inkscape:label="bejarat_nyil" />
    <text
       xml:space="preserve"
       transform="matrix(0.381,0,0,0.381,13.237416,105.95768)"
       id="text12-6-6-8-98-9"
       style="white-space:pre;shape-inside:url(#rect12-6-3-6-6-1);display:inline;fill:#000000;fill-opacity:1;fill-rule:evenodd;stroke:#000000;stroke-width:0.0755906;stroke-dasharray:none;stroke-opacity:1;paint-order:stroke markers fill"
       inkscape:label="bejarat_felirat"><tspan
         x="198.42578"
         y="124.33468"
         id="tspan1">Bejárat</tspan></text>
    <path
       style="fill:#786a60;fill-opacity:0.253041;fill-rule:evenodd;stroke:#000000;stroke-width:0.15525;stroke-dasharray:none;stroke-opacity:1;paint-order:stroke markers fill"
       d="m 9.0000037,16.874996 v 67.5 L 25.237979,112.49999 v 28.125 h 10.762022 v -28.125 l -16.874996,-31.499994 0,-64.108034 -10.1250013,-0.01697"
       id="path16"
       sodipodi:nodetypes="ccccccccc"
       inkscape:label="parkolok_bal" />
    <text
       xml:space="preserve"
       transform="matrix(0,-0.381,0.381,0,-31.05812,151.94075)"
       id="text12-6-7-6"
       style="white-space:pre;shape-inside:url(#rect12-6-6-4);display:inline;fill:#000000;fill-opacity:1;fill-rule:evenodd;stroke:#000000;stroke-width:0.0755906;stroke-dasharray:none;stroke-opacity:1;paint-order:stroke markers fill"
       inkscape:label="parkolok_bal_felirat"><tspan
         x="198.42578"
         y="124.33468"
         id="tspan2">Parkolók</tspan></text>
    <path
       style="fill:#786a60;fill-opacity:0.253041;fill-rule:evenodd;stroke:#000000;stroke-width:0.15525;stroke-dasharray:none;stroke-opacity:1;paint-order:stroke markers fill"
       d="M 139.5,16.874999 V 123.74999 h 10.125 L 149.5,16.875977 l -10,-9.78e-4"
       id="path16-4"
       sodipodi:nodetypes="ccccc"
       inkscape:label="parkolok_jobb" />
    <text
       xml:space="preserve"
       transform="matrix(0,-0.381,0.381,0,98.552521,151.94075)"
       id="text12-6-7-6-4"
       style="white-space:pre;shape-inside:url(#rect12-6-6-4-9);display:inline;fill:#000000;fill-opacity:1;fill-rule:evenodd;stroke:#000000;stroke-width:0.0755906;stroke-dasharray:none;stroke-opacity:1;paint-order:stroke markers fill"
       inkscape:label="parkolok_jobb_felirat"><tspan
         x="198.42578"
         y="124.33468"
         id="tspan3">Parkolók</tspan></text>
    <text
       xml:space="preserve"
       transform="matrix(0.381,0,0,0.381,16.164119,81.589655)"
       id="text12-6-6-8-98"
       style="white-space:pre;shape-inside:url(#rect12-6-3-6-6);display:inline;fill:#000000;fill-opacity:1;fill-rule:evenodd;stroke:#000000;stroke-width:0.0755906;stroke-dasharray:none;stroke-opacity:1;paint-order:stroke markers fill"
       inkscape:label="eloter_felirat"><tspan
         x="198.42578"
         y="124.33468"
         id="tspan4">Előtér</tspan></text>
    <text
       xml:space="preserve"
       transform="matrix(0.381,0,0,0.381,49.79788,66.96606)"
       id="text12-6-7-5"
       style="white-space:pre;shape-inside:url(#rect12-6-6-9);display:inline;fill:#000000;fill-opacity:1;fill-rule:evenodd;stroke:#000000;stroke-width:0.0755906;stroke-dasharray:none;stroke-opacity:1;paint-order:stroke markers fill"
       inkscape:label="bufe_felirat"><tspan
         x="198.42578"
         y="124.33468"
         id="tspan5">Büfé</tspan></text>
    <rect
       style="fill:#6ff5a7;fill-opacity:0.420925;fill-rule:evenodd;stroke:#000000;stroke-width:0.143733;stroke-dasharray:none;stroke-opacity:1;paint-order:stroke markers fill"
       id="rect18"
       width="40.499973"
       height="21.374996"
       x="39.375019"
       y="115.87498"
       inkscape:label="park" />
    <path
       style="fill:#097c39;fill-opacity:1;fill-rule:evenodd;stroke:#000000;stroke-width:0.15525;stroke-dasharray:none;stroke-opacity:1;paint-order:stroke markers fill"
       d="m 54.100505,129.8406 c 0,0 1.178477,0.25884 0.651126,-0.82017 -0.527346,-1.079 -1.125,-0.52808 -1.125,-0.52808 0,0 0.290178,-1.56884 -0.863239,-0.90175 -1.153421,0.6671 -0.502295,1.125 -0.502295,1.125 0,0 -1.608403,0.0672 -1.116211,0.46508 0.492192,0.39786 0.03385,0.82574 0.03385,0.82574 0,0 -1.125,0.66974 0.197887,0.95918 1.322874,0.28945 1.124996,0.67851 1.124996,0.67851 0,0 -5e-6,1.57149 1.125,0.44649 0.942378,-1.14413 -0.31626,-1.34824 -0.31626,-1.34824 1.183639,-0.18714 1.706418,0.13159 0.790134,-0.90176 z"
       id="path18"
       sodipodi:nodetypes="cscscscscssc"
       inkscape:label="fa" />
    <path
       style="fill:#097c39;fill-opacity:1;fill-rule:evenodd;stroke:#000000;stroke-width:0.15525;stroke-dasharray:none;stroke-opacity:1;paint-order:stroke markers fill"
       d="m 51.261055,123.97204 c 0,0 -0.813404,0.89117 0.384723,0.97397 1.19812,0.0828 1.01983,-0.71024 1.01983,-0.71024 0,0 1.213572,1.03573 1.212557,-0.29671 -0.001,-1.33244 0.272794,-1.99614 0.272794,-1.99614 0,0 -0.249945,-0.42789 -0.840588,-0.20056 -0.59065,0.22732 -0.73204,-0.38355 -0.73204,-0.38355 0,0 -0.438095,-2.10431 -1.350207,-1.10338 -0.912105,1.00091 -0.729518,1.43019 -0.729518,1.43019 0,0 -1.360944,-0.78575 -0.949171,0.75103 0.51966,1.38819 1.325743,0.40024 1.325743,0.40024 -0.429757,1.11863 -0.96718,1.412 0.385877,1.13515 z"
       id="path18-1-9"
       sodipodi:nodetypes="cscscscscssc"
       inkscape:label="fa" />
    <path
       style="fill:#097c39;fill-opacity:1;fill-rule:evenodd;stroke:#000000;stroke-width:0.15525;stroke-dasharray:none;stroke-opacity:1;paint-order:stroke markers fill"
       d="m 60.131725,126.16342 c 0,0 0.650277,1.01634 1.040362,-0.11952 0.39008,-1.13587 -0.422086,-1.16891 -0.422086,-1.16891 0,0 1.314526,-0.90415 0.02723,-1.24803 -1.287297,-0.34389 -1.150673,0.44032 -1.150673,0.44032 0,0 -1.18485,-1.08978 -1.11814,-0.46042 0.06671,0.62936 -0.55994,0.60782 -0.55994,0.60782 0,0 -1.269072,-0.32191 -0.538318,0.81818 0.730743,1.14008 0.315715,1.27527 0.315715,1.27527 0,0 -1.111212,1.1112 0.479781,1.11121 1.475385,-0.14267 0.72972,-1.17698 0.72972,-1.17698 0.969282,0.70463 1.113563,1.29967 1.196349,-0.0789 z"
       id="path18-3"
       sodipodi:nodetypes="cscscscscssc"
       inkscape:label="fa" />
    <text
       xml:space="preserve"
       transform="matrix(0.381,0,0,0.381,-10.551272,79.535938)"
       id="text12-6-6-8-98-0"
       style="white-space:pre;shape-inside:url(#rect12-6-3-6-6-9);display:inline;fill:#000000;fill-opacity:1;fill-rule:evenodd;stroke:#000000;stroke-width:0.0755906;stroke-dasharray:none;stroke-opacity:1;paint-order:stroke markers fill"
       inkscape:label="park_felirat"><tspan
         x="198.42578"
         y="124.33468"
         id="tspan6">Park</tspan></text>
    <rect
       style="fill:#716b67;fill-opacity:0.328467;fill-rule:evenodd;stroke:#000000;stroke-width:0.225;stroke-dasharray:none;paint-order:stroke markers fill"
       id="rect11"
       width="14.459023"
       height="12.36959"
       x="72.05349"
       y="66.487495"
       inkscape:label="mix" />
    <text
       xml:space="preserve"
       transform="matrix(0.381,0,0,0.381,-0.38022826,26.97398)"
       id="text12-6-6-8-9"
       style="white-space:pre;shape-inside:url(#rect12-6-3-6-7);display:inline;fill:#000000;fill-opacity:1;fill-rule:evenodd;stroke:#000000;stroke-width:0.0755906;stroke-dasharray:none;stroke-opacity:1;paint-order:stroke markers fill"
       inkscape:label="mix_felirat"><tspan
         x="198.42578"
         y="124.33468"
         id="tspan7">Mix</tspan></text>
    <path
       style="fill:#786a60;fill-opacity:0.253041;fill-rule:evenodd;stroke:#000000;stroke-width:0.15525;stroke-dasharray:none;stroke-opacity:1;paint-order:stroke markers fill"
       d="m 20.272504,57.456227 10.124997,16.874999 v 5.625 H 20.272504 Z"
       id="path12-1"
       inkscape:label="wc_bal" />
    <text
       xml:space="preserve"
       transform="matrix(0,-0.381,0.381,0,-22.22116,153.64254)"
       id="text12-6-7-0"
       style="white-space:pre;shape-inside:url(#rect12-6-6-5);display:inline;fill:#000000;fill-opacity:1;fill-rule:evenodd;stroke:#000000;stroke-width:0.0755906;stroke-dasharray:none;stroke-opacity:1;paint-order:stroke markers fill"
       inkscape:label="wc_bal_felirat"><tspan
         x="198.42578"
         y="124.33468"
         id="tspan8">WC</tspan></text>
    <path
       style="fill:#786a60;fill-opacity:0.253041;fill-rule:evenodd;stroke:#000000;stroke-width:0.15525;stroke-dasharray:none;stroke-opacity:1;paint-order:stroke markers fill"
       d="M 138.375,57.374996 128.25,74.249993 v 5.625 h 10.125 z"
       id="path12"
       inkscape:label="wc_jobb" />
    <text
       xml:space="preserve"
       transform="matrix(0,-0.381,0.381,0,89.426238,152.66037)"
       id="text12-6-7"
       style="white-space:pre;shape-inside:url(#rect12-6-6);display:inline;fill:#000000;fill-opacity:1;fill-rule:evenodd;stroke:#000000;stroke-width:0.0755906;stroke-dasharray:none;stroke-opacity:1;paint-order:stroke markers fill"
       inkscape:label="wc_jobb_felirat"><tspan
         x="198.42578"
         y="124.33468"
         id="tspan9">WC</tspan></text>
    <path
       style="fill:#999a3e;fill-opacity:0.618005;fill-rule:evenodd;stroke:#000000;stroke-width:0.1305;paint-order:stroke markers fill"
       d="m 30.374999,11.249999 -10.125,5.624997 v 39.374997 l 11.249997,16.875003 h 10.125005 l -11.250002,-23.625 z"
       id="l1_vip_bal"
       inkscape:label="l1_vip_bal" />
    <text
       xml:space="preserve"
       transform="matrix(0,-0.381,0.381,0,-20.319143,120.80908)"
       id="text12"
       style="white-space:pre;shape-inside:url(#rect12);display:inline;fill:#000000;fill-opacity:1;fill-rule:evenodd;stroke:#000000;stroke-width:0.0761155;stroke-dasharray:none;stroke-opacity:1;paint-order:stroke markers fill"
       inkscape:label="VIP_bal_felirat"><tspan
         x="198.42578"
         y="124.33468"
         id="tspan10">VIP bal</tspan></text>
    <path
       style="fill:#999a3e;fill-opacity:0.618005;fill-rule:evenodd;stroke:#000000;stroke-width:0.1305;paint-order:stroke markers fill"
       d="m 128.25,11.249999 10.125,5.624997 v 39.374997 l -11.25,16.875003 H 117 l 11.25,-23.625 z"
       id="l1_vip_jobb"
       inkscape:label="l1_vip_jobb" />
    <text
       xml:space="preserve"
       transform="matrix(0,-0.381,0.381,0,86.678238,115.18003)"
       id="text12-6"
       style="white-space:pre;shape-inside:url(#rect12-6);display:inline;fill:#000000;fill-opacity:1;fill-rule:evenodd;stroke:#000000;stroke-width:0.0755906;stroke-dasharray:none;stroke-opacity:1;paint-order:stroke markers fill"
       inkscape:label="VIP_jobb_felirat"><tspan
         x="198.42578"
         y="124.33468"
         id="tspan11">VIP jobb</tspan></text>
    <path
       style="fill:#409598;fill-opacity:0.639903;fill-rule:evenodd;stroke:#000000;stroke-width:0.1305;paint-order:stroke markers fill"
       d="m 31.499996,11.249999 17.91633,-0.110893 9.08367,22.61089 -26.999995,15.75 -5e-6,-38.249997"
       id="l1_bal_szarny"
       sodipodi:nodetypes="ccccc"
       inkscape:label="l1_bal_szarny" />
    <text
       xml:space="preserve"
       transform="matrix(0.1905,-0.32995568,0.32995568,0.1905,-41.325046,79.285957)"
       id="text12-6-6-8-6-2"
       style="white-space:pre;shape-inside:url(#rect12-6-3-6-5-5);display:inline;fill:#000000;fill-opacity:1;fill-rule:evenodd;stroke:#000000;stroke-width:0.0755906;stroke-dasharray:none;stroke-opacity:1;paint-order:stroke markers fill"
       inkscape:label="szinpad_bal_felirat"><tspan
         x="198.42578"
         y="124.33468"
         id="tspan12">Bal szárny</tspan></text>
    <path
       style="fill:#409598;fill-opacity:0.639903;fill-rule:evenodd;stroke:#000000;stroke-width:0.1305;paint-order:stroke markers fill"
       d="m 109.13778,11.249998 -9,22.499998 26.98722,15.75 0.007,-38.246421 -17.99422,-0.0036"
       id="l1_jobb_szarny"
       sodipodi:nodetypes="ccccc"
       inkscape:label="l1_jobb_szarny" />
    <text
       xml:space="preserve"
       transform="matrix(0.18471247,-0.33323011,0.33323011,0.18471247,33.281768,81.586925)"
       id="text12-6-6-8-6"
       style="white-space:pre;shape-inside:url(#rect12-6-3-6-5);display:inline;fill:#000000;fill-opacity:1;fill-rule:evenodd;stroke:#000000;stroke-width:0.0755906;stroke-dasharray:none;stroke-opacity:1;paint-order:stroke markers fill"
       inkscape:label="szinpad_jobb_felirat"><tspan
         x="198.42578"
         y="124.33468"
         id="tspan13">Jobb szárny</tspan></text>
    <path
       d="m 87.749996,74.249996 v 5.45724 H 70.7887 V 74.261057 H 31.513189 l -0.01335,6.738939 H 20.249842 c 6.154788,10.202981 11.567869,20.775854 16.887259,31.423844 h 84.350669 l 5.62291,-38.162783 z"
       style="fill:#f6aea5;fill-opacity:0.613139;fill-rule:evenodd;stroke:#000000;stroke-width:0.155128;paint-order:stroke markers fill"
       id="l1_center_2"
       sodipodi:nodetypes="ccccccccccc"
       inkscape:label="l1_center_2" />
    <text
       xml:space="preserve"
       transform="matrix(0.381,0,0,0.381,-6.9787027,49.151548)"
       id="text12-6-6-3"
       style="white-space:pre;shape-inside:url(#rect12-6-3-2);display:inline;fill:#000000;fill-opacity:1;fill-rule:evenodd;stroke:#000000;stroke-width:0.0755906;stroke-dasharray:none;stroke-opacity:1;paint-order:stroke markers fill"
       inkscape:label="szinpad_elott_2_felirat"><tspan
         x="198.42578"
         y="124.33468"
         id="tspan14">Center 2</tspan></text>
    <path
       d="M 59.625425,34.875091 32.624749,51.749641 42.749713,73.125082 H 70.7887 v -7.621631 h 16.961296 v 7.621545 l 28.125494,8.6e-5 10.12496,-21.375441 -27.000679,-16.87455 z"
       style="fill:#ddc1dd;fill-opacity:0.260341;fill-rule:evenodd;stroke:#000000;stroke-width:0.1305;paint-order:stroke markers fill"
       id="l1_center_1"
       sodipodi:nodetypes="ccccccccccc"
       inkscape:label="l1_center_1" />
    <text
       xml:space="preserve"
       transform="matrix(0.381,0,0,0.381,-5.1532987,5.0596522)"
       id="text12-6-6"
       style="white-space:pre;shape-inside:url(#rect12-6-3);display:inline;fill:#000000;fill-opacity:1;fill-rule:evenodd;stroke:#000000;stroke-width:0.0755906;stroke-dasharray:none;stroke-opacity:1;paint-order:stroke markers fill"
       inkscape:label="szinpad_elott_1_felirat"><tspan
         x="198.42578"
         y="124.33468"
         id="tspan15">Center 1</tspan></text>
    <path
       style="fill:#b46024;fill-opacity:0.253041;fill-rule:evenodd;stroke:#000000;stroke-width:0.1305;paint-order:stroke markers fill"
       d="m 48.374998,5.6249977 c 0,0 61.875002,0 61.875002,0 L 98.999996,33.749996 H 59.624998 Z"
       id="szinpad"
       inkscape:label="szinpad" />
    <text
       xml:space="preserve"
       transform="matrix(0.381,0,0,0.381,-6.3923844,-27.293369)"
       id="text12-6-6-7"
       style="white-space:pre;shape-inside:url(#rect12-6-3-8);display:inline;fill:#000000;fill-opacity:1;fill-rule:evenodd;stroke:#000000;stroke-width:0.0755906;stroke-dasharray:none;stroke-opacity:1;paint-order:stroke markers fill"
       inkscape:label="szinpad_felirat"><tspan
         x="198.42578"
         y="124.33468"
         id="tspan16">Színpad</tspan></text>
  </g>
</svg>
