<?xml version="1.0" encoding="UTF-8" standalone="no"?>
<!-- Created with Inkscape (http://www.inkscape.org/) -->

<svg
   width="1.0583333mm"
   height="1.0583334mm"
   viewBox="0 0 1.0583333 1.0583334"
   version="1.1"
   id="svg1"
   inkscape:version="1.3 (0e150ed6c4, 2023-07-21)"
   sodipodi:docname="bejelentkezes-ikon.svg"
   inkscape:export-filename="kezdolap.png"
   inkscape:export-xdpi="96"
   inkscape:export-ydpi="96"
   xml:space="preserve"
   xmlns:inkscape="http://www.inkscape.org/namespaces/inkscape"
   xmlns:sodipodi="http://sodipodi.sourceforge.net/DTD/sodipodi-0.dtd"
   xmlns="http://www.w3.org/2000/svg"
   xmlns:svg="http://www.w3.org/2000/svg"><sodipodi:namedview
     id="namedview1"
     pagecolor="#505050"
     bordercolor="#eeeeee"
     borderopacity="1"
     inkscape:showpageshadow="0"
     inkscape:pageopacity="0"
     inkscape:pagecheckerboard="0"
     inkscape:deskcolor="#505050"
     inkscape:document-units="mm"
     showgrid="true"
     inkscape:zoom="181.01934"
     inkscape:cx="1.5827039"
     inkscape:cy="2.2124708"
     inkscape:window-width="1920"
     inkscape:window-height="1017"
     inkscape:window-x="1912"
     inkscape:window-y="-8"
     inkscape:window-maximized="1"
     inkscape:current-layer="layer1"><inkscape:grid
       id="grid1"
       units="mm"
       originx="0.0057468151"
       originy="0.001858711"
       spacingx="0.99999998"
       spacingy="1"
       empcolor="#0099e5"
       empopacity="0.30196078"
       color="#0099e5"
       opacity="0.14901961"
       empspacing="5"
       dotted="false"
       gridanglex="30"
       gridanglez="30"
       visible="true" /></sodipodi:namedview><defs
     id="defs1"><inkscape:path-effect
       effect="skeletal"
       id="path-effect18"
       is_visible="true"
       lpeversion="1"
       pattern="m 0.49302292,0.27959451 h 0.0692464 v 0.15279704 h -0.0692464 z"
       copytype="repeated"
       prop_scale="1.05"
       scale_y_rel="false"
       spacing="0"
       normal_offset="0"
       tang_offset="0"
       prop_units="false"
       vertical_pattern="false"
       hide_knot="false"
       fuse_tolerance="0" /><inkscape:path-effect
       effect="bspline"
       id="path-effect12"
       is_visible="true"
       lpeversion="1.3"
       weight="33.333333"
       steps="2"
       helper_size="0"
       apply_no_weight="true"
       apply_with_weight="true"
       only_selected="false"
       uniform="false" /><inkscape:path-effect
       effect="bspline"
       id="path-effect11"
       is_visible="true"
       lpeversion="1.3"
       weight="33.333333"
       steps="2"
       helper_size="0"
       apply_no_weight="true"
       apply_with_weight="true"
       only_selected="false"
       uniform="false" /><inkscape:path-effect
       effect="bspline"
       id="path-effect10"
       is_visible="true"
       lpeversion="1.3"
       weight="33.333333"
       steps="2"
       helper_size="0"
       apply_no_weight="true"
       apply_with_weight="true"
       only_selected="false"
       uniform="false" /><inkscape:path-effect
       effect="bspline"
       id="path-effect9"
       is_visible="true"
       lpeversion="1.3"
       weight="33.333333"
       steps="2"
       helper_size="0"
       apply_no_weight="true"
       apply_with_weight="true"
       only_selected="false"
       uniform="false" /><inkscape:path-effect
       effect="bspline"
       id="path-effect8"
       is_visible="true"
       lpeversion="1.3"
       weight="33.333333"
       steps="2"
       helper_size="0"
       apply_no_weight="true"
       apply_with_weight="true"
       only_selected="false"
       uniform="false" /><inkscape:path-effect
       effect="bspline"
       id="path-effect7"
       is_visible="true"
       lpeversion="1.3"
       weight="33.333333"
       steps="2"
       helper_size="0"
       apply_no_weight="true"
       apply_with_weight="true"
       only_selected="false"
       uniform="false" /><inkscape:path-effect
       effect="bspline"
       id="path-effect6"
       is_visible="true"
       lpeversion="1.3"
       weight="33.333333"
       steps="2"
       helper_size="0"
       apply_no_weight="true"
       apply_with_weight="true"
       only_selected="false"
       uniform="false" /><inkscape:path-effect
       effect="bspline"
       id="path-effect2"
       is_visible="true"
       lpeversion="1.3"
       weight="33.333333"
       steps="2"
       helper_size="0"
       apply_no_weight="true"
       apply_with_weight="true"
       only_selected="false"
       uniform="false" /><inkscape:path-effect
       effect="bspline"
       id="path-effect5"
       is_visible="true"
       lpeversion="1.3"
       weight="33.333333"
       steps="2"
       helper_size="0"
       apply_no_weight="true"
       apply_with_weight="true"
       only_selected="false"
       uniform="false" /><inkscape:path-effect
       effect="bspline"
       id="path-effect4"
       is_visible="true"
       lpeversion="1.3"
       weight="33.333333"
       steps="2"
       helper_size="0"
       apply_no_weight="true"
       apply_with_weight="true"
       only_selected="false"
       uniform="false" /><inkscape:path-effect
       effect="bspline"
       id="path-effect3"
       is_visible="true"
       lpeversion="1.3"
       weight="33.333333"
       steps="2"
       helper_size="0"
       apply_no_weight="true"
       apply_with_weight="true"
       only_selected="false"
       uniform="false" /></defs><g
     inkscape:label="Layer 1"
     inkscape:groupmode="layer"
     id="layer1"
     transform="translate(0.00152051,4.9178394e-4)"><path
       style="fill:none;fill-rule:evenodd;stroke:#010c80;stroke-width:0.07;paint-order:stroke markers fill;stroke-dasharray:none"
       d="m 0.01168135,0.52307507 0.61894631,1e-8"
       id="path4"
       sodipodi:nodetypes="cc" /><path
       style="fill:none;fill-rule:evenodd;stroke:#010c80;stroke-width:0.07;paint-order:stroke markers fill;stroke-dasharray:none"
       d="M 0.63062766,0.52307507 0.42325848,0.65523411"
       id="path5"
       sodipodi:nodetypes="cc" /><path
       style="fill:none;fill-rule:evenodd;stroke:#010c80;stroke-width:0.07;paint-order:stroke markers fill;stroke-dasharray:none"
       d="M 0.63062766,0.52307507 0.42325848,0.39091605"
       id="path5-1"
       sodipodi:nodetypes="cc" /><path
       d="m 0.26742017,0.63297933 c 0.001178,0.004805 0.002457,0.009587 0.003837,0.0143389 0.005576,0.0159679 0.0122793,0.0315187 0.0200631,0.0465342 0.007941,0.014986 0.0169407,0.0293858 0.0269322,0.04309 0.009869,0.0138494 0.0207166,0.0269748 0.03246,0.0392754 0.0118077,0.0122726 0.0244798,0.0236823 0.0379192,0.0341425 0.0133185,0.0103838 0.0273586,0.0198076 0.0420137,0.0282001 0.0148211,0.008364 0.0302224,0.0156551 0.0460856,0.0218181 0.0157429,0.00632 0.0319171,0.011511 0.0483995,0.0155282 0.0165247,0.003841 0.0333022,0.006493 0.0502051,0.007944 0.0168632,0.001493 0.033811,0.001783 0.050715,8.6603e-4 0.0169073,-8.5582e-4 0.0337326,-0.002915 0.0503467,-0.006163 0.0166587,-0.003207 0.033067,-0.007601 0.0490997,-0.013148 0.0161226,-0.005704 0.0318132,-0.0125658 0.0469503,-0.0205252 0.0149807,-0.007799 0.0293879,-0.0166512 0.0431131,-0.0264929 0.0136975,-0.00988 0.0266758,-0.020718 0.0388358,-0.0324371 0.0122726,-0.0118077 0.0236825,-0.0244798 0.0341426,-0.0379191 0.0103936,-0.0134604 0.0198099,-0.0276479 0.0281768,-0.0424532 0.008506,-0.0146736 0.01595,-0.0299352 0.0222807,-0.0456692 0.006172,-0.015747 0.0112138,-0.0319132 0.015089,-0.0483765 0.00399,-0.0165216 0.006791,-0.033307 0.008383,-0.050228 0.001493,-0.016863 0.001783,-0.0338112 8.6603e-4,-0.050715 -8.4257e-4,-0.0170551 -0.00291,-0.0340277 -0.006185,-0.0507864 -0.003352,-0.0166619 -0.007894,-0.0330626 -0.0135873,-0.0490766 -0.005576,-0.0159679 -0.0122794,-0.0315186 -0.020063,-0.0465341 -0.007941,-0.0149861 -0.0169407,-0.0293857 -0.0269322,-0.04309 -0.009869,-0.0138495 -0.0207165,-0.026975 -0.03246,-0.0392754 -0.0118155,-0.0121202 -0.0244797,-0.0233833 -0.0378962,-0.033703 -0.0133119,-0.0105357 -0.0273601,-0.0201064 -0.0420367,-0.0286395 -0.0146784,-0.008351 -0.0299323,-0.0156518 -0.0456461,-0.0218412 -0.0158904,-0.006185 -0.0322043,-0.0112182 -0.0488158,-0.015066 -0.0165216,-0.00399 -0.033307,-0.006791 -0.0502282,-0.008383 -0.0168632,-0.001493 -0.033811,-0.001783 -0.050715,-8.6603e-4 -0.006007,3.0914e-4 -0.0120076,7.7056e-4 -0.0179924,0.001383 -0.005999,6.0202e-4 -0.0119841,0.001356 -0.0179461,0.002264 -0.005992,8.9472e-4 -0.0119609,0.001943 -0.0179001,0.003142 -0.005837,0.001187 -0.0116443,0.00252 -0.0174147,0.003999 -0.005826,0.001625 -0.0116098,0.003397 -0.0173457,0.005315 -0.005674,0.001769 -0.0113043,0.003683 -0.0168834,0.005732 -0.005668,0.00206 -0.0112818,0.004265 -0.0168376,0.00661 -0.005513,0.002351 -0.0109647,0.00484 -0.0163518,0.007466 -0.005505,0.002641 -0.0109429,0.005425 -0.0163058,0.008345 -0.005202,0.00293 -0.0103314,0.00599 -0.0153808,0.00918 -0.005049,0.003219 -0.0100153,0.006565 -0.0148952,0.0100345 -0.005044,0.00351 -0.009994,0.007148 -0.0148492,0.0109124 -0.004744,0.00365 -0.009394,0.00742 -0.0139475,0.0113055 -0.004442,0.003936 -0.008781,0.007985 -0.0130227,0.0121382 -0.004438,0.004227 -0.008762,0.008567 -0.0129766,0.0130171 -0.004138,0.004367 -0.008165,0.008837 -0.0120746,0.0134103 -0.003838,0.004507 -0.007563,0.009111 -0.011173,0.0138039 -0.003686,0.004796 -0.00725,0.009682 -0.0106874,0.0146595 -0.003536,0.004937 -0.006946,0.009964 -0.0102251,0.015076 -0.003089,0.005073 -0.006052,0.0102248 -0.008884,0.0154463 -0.00294,0.00536 -0.005738,0.0107968 -0.0084,0.016302 -0.002643,0.005355 -0.00515,0.0107751 -0.007521,0.0162561 -0.002344,0.005493 -0.004551,0.0110451 -0.006618,0.0166493"
       style="fill:none;fill-rule:evenodd;stroke:#010c80;stroke-width:0.07;stroke-dasharray:none;paint-order:stroke markers fill"
       id="path9"
       sodipodi:nodetypes="cccccccccccccccccccccccccccccccccccccccccccccccccccccccc" /></g></svg>
