<?xml version="1.0" encoding="UTF-8" standalone="no"?>
<!-- Created with Inkscape (http://www.inkscape.org/) -->

<svg
   width="166.6875mm"
   height="87.3125mm"
   viewBox="0 0 166.6875 87.3125"
   version="1.1"
   id="svg1"
   inkscape:version="1.3 (0e150ed6c4, 2023-07-21)"
   sodipodi:docname="logo.svg"
   inkscape:export-filename="location02mod.svg"
   inkscape:export-xdpi="96"
   inkscape:export-ydpi="96"
   xml:space="preserve"
   xmlns:inkscape="http://www.inkscape.org/namespaces/inkscape"
   xmlns:sodipodi="http://sodipodi.sourceforge.net/DTD/sodipodi-0.dtd"
   xmlns="http://www.w3.org/2000/svg"
   xmlns:svg="http://www.w3.org/2000/svg"><sodipodi:namedview
     id="namedview1"
     pagecolor="#505050"
     bordercolor="#eeeeee"
     borderopacity="1"
     inkscape:showpageshadow="0"
     inkscape:pageopacity="0"
     inkscape:pagecheckerboard="0"
     inkscape:deskcolor="#505050"
     inkscape:document-units="mm"
     inkscape:zoom="0.5"
     inkscape:cx="-474"
     inkscape:cy="213"
     inkscape:window-width="1920"
     inkscape:window-height="1017"
     inkscape:window-x="1912"
     inkscape:window-y="-8"
     inkscape:window-maximized="1"
     inkscape:current-layer="layer1"
     showgrid="true"><inkscape:grid
       id="grid1"
       units="mm"
       originx="0"
       originy="0"
       spacingx="0.5"
       spacingy="0.5"
       empcolor="#0099e5"
       empopacity="0.30196078"
       color="#0099e5"
       opacity="0.14901961"
       empspacing="5"
       dotted="false"
       gridanglex="30"
       gridanglez="30"
       visible="true" /></sodipodi:namedview><defs
     id="defs1" /><g
     inkscape:label="Layer 1"
     inkscape:groupmode="layer"
     id="layer1"><g
       id="g213"
       transform="translate(92.324108,133.60053)"><path
         id="path207"
         style="fill:#010c80;fill-opacity:1"
         d="m -79.930233,-131.10053 v 1.53944 c 0,4.53659 -2.751449,7.4564 -7.026445,7.4564 -0.610239,0 -1.481566,0.0745 -1.936315,0.16536 l -0.826823,0.16537 v 2.08359 c 0,1.6537 0.07988,2.08359 0.387573,2.08359 0.692789,0 2.212522,1.58301 2.670121,2.78123 0.987729,2.58633 -0.04635,5.93485 -2.141471,6.93394 l -0.916223,0.43719 v 1.92856 c 0,1.85754 0.02807,1.94321 0.762227,2.32286 0.41923,0.21679 1.063841,0.75253 1.432471,1.19062 2.104148,2.50064 1.400002,7.130994 -1.278475,8.408273 l -0.916223,0.437183 v 2.415356 2.415873 l 0.916223,0.436666 c 2.678477,1.277279 3.382623,5.90815 1.278475,8.408789 -0.36863,0.438092 -1.013241,0.973834 -1.432471,1.190625 -0.734129,0.379648 -0.762227,0.465318 -0.762227,2.322856 v 1.928564 l 0.916223,0.436666 c 2.095068,0.999092 3.1292,4.347614 2.141471,6.933944 -0.457599,1.198216 -1.977332,2.781226 -2.670121,2.781226 -0.30767,0 -0.387573,0.429701 -0.387573,2.082043 v 2.082043 l 0.992187,0.164332 c 0.5457,0.0902 1.417027,0.165314 1.936316,0.166914 4.113796,0.01269 6.86108,2.999175 6.86108,7.458977 v 1.539441 H 60.493754 l 0.127124,-1.91823 c 0.284519,-4.302408 2.214488,-6.516983 6.04976,-6.941695 0.788407,-0.08731 1.93952,-0.220209 2.557983,-0.295589 l 1.124479,-0.137459 v -2.071708 c 0,-1.963458 -0.03306,-2.080031 -0.632002,-2.230355 -0.866279,-0.217422 -2.190944,-1.790285 -2.526978,-3.000334 -0.715585,-2.576806 0.187432,-5.389692 2.076876,-6.468856 l 1.07797,-0.615983 0.0021,-2.021582 c 0.0019,-1.911583 -0.03242,-2.030778 -0.629935,-2.180745 -0.866279,-0.217422 -2.190944,-1.790284 -2.526978,-3.000334 -0.717631,-2.584175 0.255307,-5.497285 2.16731,-6.489526 l 0.99167,-0.514698 v -2.461865 -2.461348 l -0.99167,-0.514698 c -1.912003,-0.992241 -2.884941,-3.905867 -2.16731,-6.490046 0.336034,-1.21005 1.660699,-2.78291 2.526978,-3.00033 0.59752,-0.14997 0.631835,-0.26864 0.629935,-2.18023 l -0.0021,-2.0221 -1.028878,-0.58704 c -1.907781,-1.08924 -2.838087,-3.93347 -2.125968,-6.4978 0.336034,-1.21005 1.660699,-2.78291 2.526978,-3.00033 0.598938,-0.15032 0.632002,-0.2669 0.632002,-2.23036 v -2.0717 l -1.124479,-0.13695 c -0.618463,-0.0754 -1.769576,-0.2088 -2.557983,-0.2961 -3.835272,-0.42472 -5.765241,-2.63928 -6.04976,-6.9417 l -0.127124,-1.91823 H -9.7179809 Z"
         sodipodi:nodetypes="cssccsssccssscccccsssccsssccsscccsccssscccsscccccsscccsssccccccc" /><path
         d="m -28.065271,-115.26586 v 24.606253 24.60625 l 12.236979,-0.002 c 4.541316,-8.5e-4 7.8130272,-0.0264 10.2557052,-0.0879 1.221339,-0.0307 2.235724,-0.0703 3.097485,-0.1204 0.861762,-0.0501 1.57109097,-0.11075 2.18332997,-0.18294 l 3.29954003,-0.38912 1.828312,-1.82883 1.828829,-1.82883 0.49196,-2.87321 c 0.182805,-1.0678 0.317696,-2.24493 0.404626,-3.46129 0.08693,-1.21635 0.125844,-2.47204 0.117822,-3.6959 -0.008,-1.22385 -0.06331,-2.41595 -0.165364,-3.50624 -0.05103,-0.54515 -0.113743,-1.06498 -0.188103,-1.5503 -0.07436,-0.48531 -0.160286,-0.93626 -0.257865,-1.3441 l -0.594279,-2.48305 -1.195793,-0.52245 c -0.657888,-0.28751 -1.668471,-0.72775 -2.245341,-0.97824 l -1.048514,-0.45526 1.974556,-0.74053 c 0.543089,-0.20362 1.069979,-0.4223 1.481563,-0.6103 0.411585,-0.18799 0.707865,-0.3453 0.7891,-0.42684 0.08124,-0.0815 0.218799,-0.41518 0.374654,-0.88677 0.155855,-0.47159 0.330007,-1.08113 0.485241,-1.71514 0.178598,-0.72944 0.315768,-1.58414 0.410828,-2.51975 0.09506,-0.9356 0.148017,-1.951983 0.158647,-3.003953 0.01063,-1.05197 -0.02091,-2.13987 -0.0956,-3.2184 -0.07469,-1.07854 -0.192555,-2.14783 -0.353467,-3.16312 l -0.449068,-2.83393 -2.000912,-1.95854 -2.000911,-1.95905 -3.17500003,-0.43305 c -0.64008897,-0.0874 -1.30669997,-0.15798 -2.10064697,-0.21498 -0.793948,-0.057 -1.715221,-0.1005 -2.864942,-0.13281 -2.299441,-0.0646 -5.5123702,-0.0854 -10.4463902,-0.0853 z m 6.614583,6.61458 h 8.984981 c 2.5940052,0 5.0476442,0.0308 6.9944062,0.0827 1.946762,0.0519 3.386658,0.12502 3.953247,0.20929 l 1.96215397,0.29198 -0.130225,1.62677 c -0.0359,0.44743 -0.01951,1.23404 0.03566,2.14044 0.05517,0.90639 0.149108,1.93257 0.268718,2.86029 0.09959,0.77232 0.17464,1.3771 0.224792,1.870173 0.05015,0.49306 0.07539,0.8747 0.07648,1.20096 0.0011,0.32626 -0.02216,0.59678 -0.06976,0.86868 -0.04761,0.2719 -0.119563,0.54489 -0.21549,0.87488 -0.12685,0.43636 -0.275688,0.80963 -0.426848,1.08366 -0.07558,0.13701 -0.151636,0.24937 -0.225826,0.33228 -0.07419,0.0829 -0.146637,0.13628 -0.214457,0.15606 -0.457379,0.13334 -0.97578997,0.24316 -1.61747197,0.33279 -0.641683,0.0896 -1.406426,0.15904 -2.356962,0.21188 -0.950537,0.0528 -2.086647,0.0892 -3.470589,0.11214 -1.383942,0.023 -3.0159382,0.0326 -4.9578372,0.0326 h -8.814966 v -7.143753 z m 0,20.589963 10.252604,0.12712 c 2.8194602,0.035 5.4620602,0.088 7.4486412,0.14521 1.986582,0.0572 3.31715597,0.11873 3.51193097,0.17054 0.159377,0.0424 0.285098,0.0868 0.388607,0.15503 0.103508,0.0682 0.184937,0.16019 0.254764,0.29817 0.06983,0.13797 0.128216,0.32195 0.186552,0.57361 0.05834,0.25165 0.116486,0.57104 0.185519,0.9803 0.0931,0.55199 0.152979,1.45401 0.183451,2.51767 0.03047,1.06367 0.03173,2.28928 0.0072,3.4892 -0.02449,1.19992 -0.07446,2.37392 -0.146244,3.33468 -0.03589,0.48037 -0.07723,0.90761 -0.123507,1.2578 -0.04628,0.3502 -0.09777,0.62325 -0.153479,0.79634 -0.07448,0.23141 -0.135701,0.40833 -0.210323,0.54777 -0.07462,0.13943 -0.16251,0.24167 -0.291455,0.32349 -0.128945,0.0818 -0.298439,0.14348 -0.535885,0.20206 -0.237445,0.0586 -0.54297297,0.11377 -0.94309497,0.18345 -0.498699,0.0868 -1.840095,0.15981 -3.741373,0.21084 -1.901279,0.051 -4.36245,0.0801 -7.1013752,0.0801 h -9.172567 v -7.69668 z"
         style="fill:#ffffff;fill-opacity:1"
         id="path211" /></g></g></svg>
