<?xml version="1.0" encoding="UTF-8" standalone="no"?>
<!-- Created with Inkscape (http://www.inkscape.org/) -->

<svg
   width="166.6875mm"
   height="87.3125mm"
   viewBox="0 0 166.6875 87.3125"
   version="1.1"
   id="svg1"
   inkscape:version="1.3 (0e150ed6c4, 2023-07-21)"
   sodipodi:docname="csaklogo.svg"
   inkscape:export-filename="location02mod.svg"
   inkscape:export-xdpi="96"
   inkscape:export-ydpi="96"
   xml:space="preserve"
   xmlns:inkscape="http://www.inkscape.org/namespaces/inkscape"
   xmlns:sodipodi="http://sodipodi.sourceforge.net/DTD/sodipodi-0.dtd"
   xmlns="http://www.w3.org/2000/svg"
   xmlns:svg="http://www.w3.org/2000/svg"><sodipodi:namedview
     id="namedview1"
     pagecolor="#505050"
     bordercolor="#eeeeee"
     borderopacity="1"
     inkscape:showpageshadow="0"
     inkscape:pageopacity="0"
     inkscape:pagecheckerboard="0"
     inkscape:deskcolor="#505050"
     inkscape:document-units="mm"
     inkscape:zoom="0.70710678"
     inkscape:cx="253.14423"
     inkscape:cy="137.88582"
     inkscape:window-width="1920"
     inkscape:window-height="1017"
     inkscape:window-x="1912"
     inkscape:window-y="-8"
     inkscape:window-maximized="1"
     inkscape:current-layer="layer1"
     showgrid="true"><inkscape:grid
       id="grid1"
       units="mm"
       originx="0"
       originy="0"
       spacingx="0.5"
       spacingy="0.5"
       empcolor="#0099e5"
       empopacity="0.30196078"
       color="#0099e5"
       opacity="0.14901961"
       empspacing="5"
       dotted="false"
       gridanglex="30"
       gridanglez="30"
       visible="true" /></sodipodi:namedview><defs
     id="defs1" /><g
     inkscape:label="Layer 1"
     inkscape:groupmode="layer"
     id="layer1"><path
       id="path207"
       style="fill:#010c80;fill-opacity:1"
       d="M 12.394076 2.5001058 L 12.394076 4.0395467 C 12.394076 8.5761322 9.6426227 11.495939 5.367631 11.495939 C 4.7573926 11.495939 3.8860636 11.570444 3.4313151 11.661304 L 2.6044922 11.826668 L 2.6044922 13.910262 C 2.6044922 15.56396 2.6843727 15.993856 2.9920654 15.993856 C 3.6848537 15.993856 5.2045881 17.576863 5.6621867 18.775081 C 6.6499147 21.361409 5.6158342 24.709936 3.5207153 25.709025 L 2.6044922 26.146208 L 2.6044922 28.074772 C 2.6044922 29.93231 2.6325633 30.017978 3.3667196 30.397628 C 3.7859491 30.614418 4.4305606 31.150163 4.7991903 31.588253 C 6.9033362 34.08889 6.1991897 38.719247 3.5207153 39.996525 L 2.6044922 40.433708 L 2.6044922 42.849064 L 2.6044922 45.264937 L 3.5207153 45.701603 C 6.1991897 46.978881 6.9033362 51.609756 4.7991903 54.110392 C 4.4305606 54.548484 3.7859491 55.084226 3.3667196 55.301017 C 2.6325913 55.680665 2.6044922 55.766337 2.6044922 57.623873 L 2.6044922 59.552437 L 3.5207153 59.989103 C 5.6157812 60.988194 6.6499147 64.336719 5.6621867 66.923047 C 5.2045881 68.121262 3.6848537 69.704272 2.9920654 69.704272 C 2.6843957 69.704272 2.6044922 70.133976 2.6044922 71.786316 L 2.6044922 73.868359 L 3.5966797 74.03269 C 4.1423791 74.12289 5.0137071 74.198005 5.5329956 74.199605 C 9.6467875 74.212295 12.394076 77.198784 12.394076 81.658582 L 12.394076 83.198022 L 152.81806 83.198022 L 152.94519 81.279793 C 153.22971 76.97739 155.15967 74.76281 158.99495 74.338098 C 159.78335 74.250788 160.93447 74.117889 161.55293 74.042509 L 162.67741 73.90505 L 162.67741 71.833341 C 162.67741 69.869885 162.64431 69.753311 162.04541 69.602987 C 161.17913 69.385565 159.85446 67.812701 159.51843 66.602653 C 158.80284 64.02585 159.70587 61.21296 161.5953 60.133797 L 162.67327 59.517814 L 162.67483 57.496232 C 162.67683 55.584651 162.64242 55.465454 162.04489 55.315487 C 161.17861 55.098065 159.85394 53.525202 159.51791 52.315153 C 158.80028 49.730981 159.77322 46.817867 161.68522 45.825627 L 162.67689 45.310929 L 162.67689 42.849064 L 162.67689 40.387716 L 161.68522 39.873018 C 159.77322 38.880778 158.80028 35.967152 159.51791 33.382975 C 159.85394 32.172926 161.17861 30.600061 162.04489 30.382642 C 162.64241 30.232672 162.67673 30.114001 162.67483 28.202413 L 162.67327 26.180314 L 161.6444 25.59327 C 159.73661 24.504031 158.80631 21.659803 159.51843 19.095475 C 159.85446 17.885426 161.17913 16.312561 162.04541 16.095142 C 162.64434 15.944822 162.67741 15.828245 162.67741 13.864787 L 162.67741 11.793079 L 161.55293 11.656136 C 160.93447 11.580736 159.78335 11.44733 158.99495 11.36003 C 155.15967 10.935311 153.2297 8.7207507 152.94519 4.418335 L 152.81806 2.5001058 L 82.606327 2.5001058 L 12.394076 2.5001058 z M 64.25861 18.334798 L 76.495589 18.334798 C 81.429604 18.334698 84.642541 18.355464 86.94198 18.420064 C 88.0917 18.452374 89.012974 18.495873 89.806921 18.552873 C 90.600868 18.609873 91.26748 18.680447 91.907568 18.767847 L 95.082568 19.200895 L 97.08348 21.159949 L 99.084391 23.118486 L 99.533459 25.952421 C 99.694371 26.96771 99.812236 28.036997 99.886926 29.115535 C 99.961616 30.194064 99.993158 31.281975 99.982528 32.333944 C 99.971898 33.385913 99.918941 34.402296 99.823881 35.337895 C 99.728821 36.273504 99.591651 37.128198 99.413053 37.857638 C 99.25782 38.491647 99.083667 39.101189 98.927812 39.572778 C 98.771957 40.044368 98.634397 40.378046 98.553158 40.459546 C 98.471923 40.541086 98.175643 40.698403 97.764058 40.886393 C 97.352475 41.074393 96.825584 41.293072 96.282495 41.496692 L 94.307939 42.237215 L 95.356453 42.692485 C 95.933323 42.942974 96.943907 43.38321 97.601794 43.670719 L 98.797587 44.193168 L 99.391866 46.676221 C 99.489445 47.08406 99.575372 47.535015 99.649731 48.020325 C 99.724091 48.505644 99.786804 49.025468 99.837834 49.570618 C 99.939893 50.660907 99.995198 51.853015 100.0032 53.076864 C 100.01122 54.300722 99.972306 55.556413 99.885376 56.772762 C 99.798446 57.989121 99.663554 59.166251 99.48075 60.234049 L 98.98879 63.107259 L 97.159961 64.936088 L 95.331649 66.764917 L 92.032109 67.154041 C 91.41987 67.22623 90.71054 67.286875 89.848779 67.336975 C 88.987019 67.387075 87.972632 67.426681 86.751294 67.457381 C 84.308618 67.518881 81.036901 67.544381 76.495589 67.545231 L 64.25861 67.547298 L 64.25861 42.941048 L 64.25861 18.334798 z M 70.873193 24.949382 L 70.873193 32.093132 L 70.873193 39.236882 L 79.688159 39.236882 C 81.630056 39.236882 83.262055 39.227325 84.645996 39.204325 C 86.029937 39.181385 87.166049 39.144987 88.116585 39.092187 C 89.06712 39.039348 89.831865 38.969914 90.473547 38.880314 C 91.115229 38.790684 91.633641 38.680858 92.09102 38.547518 C 92.15884 38.527738 92.231287 38.474355 92.305477 38.391455 C 92.379667 38.308545 92.455723 38.196185 92.531303 38.059176 C 92.682463 37.785146 92.8313 37.41188 92.95815 36.975521 C 93.054077 36.645531 93.126031 36.372539 93.173641 36.100639 C 93.221241 35.828739 93.244504 35.558218 93.243404 35.231958 C 93.242314 34.905698 93.217073 34.524057 93.166923 34.030998 C 93.116771 33.537925 93.04172 32.933147 92.942131 32.160828 C 92.822521 31.233109 92.728583 30.206926 92.673413 29.300537 C 92.618243 28.394138 92.601856 27.607529 92.637756 27.160099 L 92.767981 25.533325 L 90.805827 25.241353 C 90.239238 25.157083 88.79934 25.083964 86.85258 25.032064 C 84.90582 24.980164 82.452177 24.949382 79.858175 24.949382 L 70.873193 24.949382 z M 70.873193 45.539339 L 70.873193 53.236027 L 70.873193 60.932715 L 80.04576 60.932715 C 82.784682 60.932715 85.245858 60.903616 87.147135 60.852616 C 89.048412 60.801586 90.389811 60.728576 90.888509 60.641777 C 91.288631 60.572097 91.594159 60.516925 91.831604 60.458325 C 92.06905 60.399745 92.238544 60.33807 92.367489 60.25627 C 92.496433 60.17445 92.584324 60.072206 92.658944 59.932776 C 92.733566 59.793336 92.794787 59.616415 92.869267 59.385006 C 92.924976 59.211916 92.976466 58.938872 93.022746 58.588672 C 93.069023 58.238482 93.110362 57.811237 93.146252 57.330868 C 93.218036 56.370108 93.268007 55.196106 93.292497 53.996187 C 93.317027 52.796269 93.315732 51.570664 93.285262 50.506995 C 93.25479 49.443336 93.194911 48.541308 93.101811 47.989319 C 93.032778 47.580059 92.974632 47.260667 92.916292 47.009017 C 92.857956 46.757357 92.79957 46.573378 92.72974 46.435409 C 92.659913 46.297429 92.578483 46.205435 92.474976 46.137236 C 92.371467 46.069006 92.245746 46.024606 92.086369 45.982206 C 91.891594 45.930396 90.561018 45.868874 88.574438 45.811674 C 86.587859 45.754464 83.945255 45.701463 81.125798 45.666463 L 70.873193 45.539339 z " /></g></svg>
